<svg width="24" height="24" viewBox="0 0 24 24" fill="none" xmlns="http://www.w3.org/2000/svg">
<path fill-rule="evenodd" clip-rule="evenodd" d="M12 5.76061L11.8846 6.29779C11.2836 9.09697 9.09696 11.2836 6.29779 11.8846L5.76061 12L6.29779 12.1154C9.09697 12.7164 11.2836 14.903 11.8846 17.7022L12 18.2394L12.1154 17.7022C12.7164 14.903 14.903 12.7164 17.7022 12.1154L18.2394 12L17.7022 11.8846C14.903 11.2836 12.7164 9.09697 12.1154 6.29779L12 5.76061ZM13.2382 2.0005C12.9517 0.666496 11.0483 0.666501 10.7618 2.00051L9.92922 5.87789C9.49334 7.90773 7.90772 9.49334 5.87789 9.92922L2.0005 10.7618C0.666496 11.0483 0.666501 12.9517 2.00051 13.2382L5.87789 14.0708C7.90773 14.5067 9.49334 16.0923 9.92922 18.1221L10.7618 21.9995C11.0483 23.3335 12.9517 23.3335 13.2382 21.9995L14.0708 18.1221C14.5067 16.0923 16.0923 14.5067 18.1221 14.0708L21.9995 13.2382C23.3335 12.9517 23.3335 11.0483 21.9995 10.7618L18.1221 9.92922C16.0923 9.49334 14.5067 7.90772 14.0708 5.87789L13.2382 2.0005Z" fill="currentColor"/>
</svg>
