<svg width="12" height="12" viewBox="0 0 12 12" fill="none" xmlns="http://www.w3.org/2000/svg">
<path d="M6.59094 1.22751C6.45422 0.59083 5.54578 0.590828 5.40906 1.22751L5.01168 3.07808C4.80364 4.04687 4.04687 4.80364 3.07808 5.01168L1.22751 5.40906C0.590831 5.54578 0.590827 6.45422 1.22751 6.59094L3.07808 6.98833C4.04687 7.19636 4.80364 7.95313 5.01167 8.92192L5.40906 10.7725C5.54578 11.4092 6.45422 11.4092 6.59094 10.7725L6.98833 8.92192C7.19636 7.95313 7.95313 7.19636 8.92192 6.98833L10.7725 6.59094C11.4092 6.45422 11.4092 5.54578 10.7725 5.40906L8.92192 5.01168C7.95313 4.80364 7.19636 4.04687 6.98833 3.07808L6.59094 1.22751Z" fill="currentColor"/>
</svg>
