<svg width="24" height="24" viewBox="0 0 24 24" fill="none" xmlns="http://www.w3.org/2000/svg">
<path d="M13.2382 2.00051C12.9517 0.666501 11.0483 0.666496 10.7618 2.0005L9.92922 5.87789C9.49334 7.90772 7.90773 9.49334 5.87789 9.92922L2.00051 10.7618C0.666502 11.0483 0.666495 12.9517 2.0005 13.2382L5.87789 14.0708C7.90772 14.5067 9.49334 16.0923 9.92922 18.1221L10.7618 21.9995C11.0483 23.3335 12.9517 23.3335 13.2382 21.9995L14.0708 18.1221C14.5067 16.0923 16.0923 14.5067 18.1221 14.0708L21.9995 13.2382C23.3335 12.9517 23.3335 11.0483 21.9995 10.7618L18.1221 9.92922C16.0923 9.49334 14.5067 7.90773 14.0708 5.87789L13.2382 2.00051Z" fill="currentColor"/>
</svg>
