<svg width="20" height="20" viewBox="0 0 20 20" fill="none" xmlns="http://www.w3.org/2000/svg">
<g clip-path="url(#clip0_1266_1135)">
<path d="M11.013 1.8186C10.7787 0.727138 9.22134 0.727133 8.98696 1.81859L8.30573 4.991C7.9491 6.65177 6.65178 7.9491 4.991 8.30573L1.8186 8.98696C0.727138 9.22134 0.727133 10.7787 1.81859 11.013L4.991 11.6943C6.65177 12.0509 7.9491 13.3482 8.30573 15.009L8.98696 18.1814C9.22134 19.2729 10.7787 19.2729 11.013 18.1814L11.6943 15.009C12.0509 13.3482 13.3482 12.0509 15.009 11.6943L18.1814 11.013C19.2729 10.7787 19.2729 9.22134 18.1814 8.98696L15.009 8.30573C13.3482 7.9491 12.0509 6.65178 11.6943 4.991L11.013 1.8186Z" fill="currentColor"/>
</g>
<defs>
<clipPath id="clip0_1266_1135">
<rect width="20" height="20" fill="currentColor"/>
</clipPath>
</defs>
</svg>
