<svg width="16" height="16" viewBox="0 0 16 16" fill="none" xmlns="http://www.w3.org/2000/svg">
<path d="M8.78792 1.63669C8.60563 0.787774 7.39437 0.78777 7.21208 1.63668L6.68223 4.10411C6.40485 5.39582 5.39583 6.40485 4.10411 6.68223L1.63669 7.21208C0.787774 7.39437 0.78777 8.60563 1.63668 8.78792L4.10411 9.31777C5.39582 9.59515 6.40485 10.6042 6.68223 11.8959L7.21208 14.3633C7.39437 15.2122 8.60563 15.2122 8.78792 14.3633L9.31777 11.8959C9.59515 10.6042 10.6042 9.59515 11.8959 9.31777L14.3633 8.78792C15.2122 8.60563 15.2122 7.39438 14.3633 7.21208L11.8959 6.68223C10.6042 6.40485 9.59515 5.39583 9.31777 4.10411L8.78792 1.63669Z" fill="currentColor"/>
</svg>
