<svg width="20" height="20" viewBox="0 0 20 20" fill="none" xmlns="http://www.w3.org/2000/svg">
<g clip-path="url(#clip0_666_795)">
<path fill-rule="evenodd" clip-rule="evenodd" d="M13.4081 1.67923C12.7396 1.67923 12.0985 1.94481 11.6257 2.41754L3.90965 10.1336C3.12183 10.9214 2.67923 11.99 2.67923 13.1041C2.67923 14.2182 3.12183 15.2868 3.90965 16.0746C4.69747 16.8624 5.76598 17.305 6.88012 17.305C7.99427 17.305 9.06278 16.8624 9.8506 16.0746L17.5667 8.35849C17.8946 8.0306 18.4262 8.0306 18.7541 8.35849C19.082 8.68638 19.082 9.218 18.7541 9.54589L11.038 17.262C9.93526 18.3647 8.43963 18.9842 6.88012 18.9842C5.32062 18.9842 3.82499 18.3647 2.72225 17.262C1.61951 16.1592 1 14.6636 1 13.1041C1 11.5446 1.61951 10.049 2.72225 8.94622L10.4383 1.23014C11.226 0.442494 12.2943 0 13.4081 0C14.522 0 15.5903 0.442494 16.378 1.23014C17.1656 2.01778 17.6081 3.08606 17.6081 4.19995C17.6081 5.31385 17.1656 6.38213 16.378 7.16977L8.65348 14.8859C8.18093 15.3584 7.54002 15.6239 6.87173 15.6239C6.20344 15.6239 5.56252 15.3584 5.08997 14.8859C4.61742 14.4133 4.35194 13.7724 4.35194 13.1041C4.35194 12.4358 4.61742 11.7949 5.08997 11.3223L12.2187 4.20203C12.5468 3.87434 13.0784 3.87465 13.4061 4.20273C13.7338 4.53082 13.7335 5.06243 13.4054 5.39013L6.27737 12.5097C6.11995 12.6673 6.03118 12.8813 6.03118 13.1041C6.03118 13.327 6.11973 13.5408 6.27737 13.6985C6.435 13.8561 6.6488 13.9446 6.87173 13.9446C7.09465 13.9446 7.30845 13.8561 7.46609 13.6985L15.1906 5.98237C15.6631 5.50968 15.9289 4.86834 15.9289 4.19995C15.9289 3.53142 15.6633 2.89026 15.1906 2.41754C14.7178 1.94481 14.0767 1.67923 13.4081 1.67923Z" fill="currentColor"/>
</g>
<defs>
<clipPath id="clip0_666_795">
<rect width="20" height="20" fill="currentColor"/>
</clipPath>
</defs>
</svg>
