<svg width="12" height="12" viewBox="0 0 12 12" fill="none" xmlns="http://www.w3.org/2000/svg">
<path fill-rule="evenodd" clip-rule="evenodd" d="M6 0C9.31371 0 12 2.68629 12 6C12 9.31371 9.31371 12 6 12C2.68629 12 0 9.31371 0 6C0 2.68629 2.68629 0 6 0ZM6 7.5C5.44772 7.5 5 7.94772 5 8.5C5 9.05229 5.44772 9.5 6 9.5C6.55228 9.5 7 9.05229 7 8.5C7 7.94772 6.55228 7.5 6 7.5ZM6 2.5C5.54437 2.5 5.17481 2.86956 5.1748 3.3252V5.6748C5.1748 6.13044 5.54436 6.5 6 6.5C6.45564 6.5 6.8252 6.13044 6.8252 5.6748V3.3252C6.82519 2.86956 6.45563 2.5 6 2.5Z" fill="currentColor"/>
</svg>
