<svg width="24" height="24" viewBox="0 0 24 24" fill="none" xmlns="http://www.w3.org/2000/svg">
<path d="M11.9995 0.000976523C5.37265 0.000976523 0 5.37363 0 12.0005C0 18.6273 5.37265 24 11.9995 24C18.6264 24 23.999 18.6273 23.999 12.0005C23.9928 5.37571 18.6243 0.00723714 11.9995 0.000976523ZM11.9995 22.0001C6.47658 22.0001 1.99992 17.5234 1.99992 12.0005C1.99992 6.47755 6.47658 2.0009 11.9995 2.0009C17.5224 2.0009 21.9991 6.47755 21.9991 12.0005C21.9928 17.5203 17.5193 21.9938 11.9995 22.0001ZM10.9996 7.00069C10.9996 6.44843 11.4472 6.00073 11.9995 6.00073C12.5518 6.00073 12.9995 6.44843 12.9995 7.00069V13.0004C12.9995 13.5527 12.5518 14.0004 11.9995 14.0004C11.4472 14.0004 10.9996 13.5527 10.9996 13.0004V7.00069ZM11.9995 18.0002C12.5515 18.0002 12.9995 17.5523 12.9995 17.0003C12.9995 16.4483 12.5515 16.0003 11.9995 16.0003C11.4475 16.0003 10.9996 16.4483 10.9996 17.0003C10.9996 17.5523 11.4475 18.0002 11.9995 18.0002Z" fill="currentColor"/>
</svg>
