<svg width="20" height="20" viewBox="0 0 20 20" fill="none" xmlns="http://www.w3.org/2000/svg">
<path d="M10 0C15.5228 0 20 4.47715 20 10C20 15.5228 15.5228 20 10 20C4.47715 20 0 15.5228 0 10C0 4.47715 4.47715 0 10 0ZM10 13C9.44771 13 9 13.4477 9 14C9 14.5523 9.44771 15 10 15C10.5523 15 11 14.5523 11 14C11 13.4477 10.5523 13 10 13ZM10 5C9.48232 5 9.05621 5.39333 9.00488 5.89746L9 6V10C9 10.5523 9.44771 11 10 11C10.5523 11 11 10.5523 11 10V6L10.9951 5.89746C10.9438 5.39333 10.5177 5 10 5Z" fill="currentColor"/>
</svg>
