<svg width="16" height="16" viewBox="0 0 16 16" fill="none" xmlns="http://www.w3.org/2000/svg">
<path d="M8 4C7.44772 4 7 4.44772 7 5V8C7 8.55229 7.44772 9 8 9C8.55229 9 9 8.55229 9 8V5C9 4.44772 8.55229 4 8 4Z" fill="currentColor"/>
<path d="M9 11C9 11.5523 8.55229 12 8 12C7.44772 12 7 11.5523 7 11C7 10.4477 7.44772 10 8 10C8.55229 10 9 10.4477 9 11Z" fill="currentColor"/>
<path d="M0 8C0 3.58172 3.58172 0 8 0C10.1217 0 12.1566 0.842855 13.6569 2.34315C15.1571 3.84344 16 5.87827 16 8C16 12.4183 12.4183 16 8 16C3.58172 16 0 12.4183 0 8ZM2 8C2 11.3137 4.68629 14 8 14C9.5913 14 11.1174 13.3679 12.2426 12.2426C13.3679 11.1174 14 9.5913 14 8C14 4.68629 11.3137 2 8 2C4.68629 2 2 4.68629 2 8Z" fill="currentColor"/>
</svg>
