<svg width="16" height="16" viewBox="0 0 16 16" fill="none" xmlns="http://www.w3.org/2000/svg">
<path d="M12.0225 2.01075C12.8646 1.97707 13.6484 2.02819 14.2178 2.08595C14.5037 2.11495 14.7394 2.14563 14.9053 2.16993C14.9882 2.18207 15.0543 2.19256 15.1006 2.2002C15.1237 2.20403 15.1422 2.20769 15.1553 2.20997C15.1617 2.21108 15.167 2.21123 15.1709 2.21192L15.1758 2.2129L15.1777 2.21387L15.2666 2.23341C15.6962 2.3519 15.9999 2.74433 16 3.19727V12.5001C16 12.7825 15.8803 13.0517 15.6709 13.2413C15.4876 13.4071 15.2506 13.4987 15.0059 13.5001L14.9004 13.4952L14.8926 13.4942C14.8854 13.4936 14.874 13.4926 14.8584 13.4913C14.8263 13.4885 14.7766 13.485 14.7119 13.4805C14.5824 13.4715 14.3921 13.4606 14.1562 13.4532C13.6828 13.4384 13.035 13.4386 12.333 13.4971C11.6273 13.556 10.8923 13.6717 10.2354 13.877C9.57135 14.0846 9.05084 14.3634 8.70703 14.7071C8.51177 14.9024 8.25588 15 8 15C7.74412 15 7.48823 14.9024 7.29297 14.7071C6.94916 14.3634 6.42865 14.0846 5.76465 13.877C5.10769 13.6717 4.3727 13.556 3.66699 13.4971C2.96501 13.4386 2.3172 13.4384 1.84375 13.4532C1.60794 13.4606 1.4176 13.4715 1.28809 13.4805C1.22338 13.485 1.1737 13.4885 1.1416 13.4913C1.12605 13.4926 1.11457 13.4936 1.10742 13.4942C1.10385 13.4945 1.09961 13.4952 1.09961 13.4952L0.994141 13.5001C0.749417 13.4987 0.512365 13.4071 0.329102 13.2413C0.119733 13.0517 0 12.7825 0 12.5001L0 3.19727L0.00390625 3.10743C0.0437676 2.66356 0.37564 2.2949 0.821289 2.21387L0.824219 2.2129L0.829102 2.21192C0.833008 2.21123 0.838317 2.21108 0.844727 2.20997C0.85783 2.20769 0.876273 2.20403 0.899414 2.2002C0.94567 2.19256 1.01184 2.18207 1.09473 2.16993C1.26062 2.14563 1.49632 2.11495 1.78223 2.08595C2.35164 2.02819 3.1354 1.97707 3.97754 2.01075C4.81248 2.04415 5.75056 2.16185 6.60742 2.46583C7.09056 2.63726 7.57435 2.87789 8 3.21485C8.42565 2.87789 8.90944 2.63726 9.39258 2.46583C10.2494 2.16185 11.1875 2.04415 12.0225 2.01075ZM3.89746 4.0088C3.18494 3.9803 2.50695 4.02238 2 4.07325V11.4493C2.50106 11.4395 3.14034 11.4463 3.83301 11.504C4.62718 11.5702 5.51743 11.7045 6.36035 11.9678C6.57335 12.0344 6.78815 12.11 7 12.1973V5.01759C6.77059 4.74797 6.42288 4.52217 5.93945 4.35059C5.34334 4.13907 4.62486 4.03789 3.89746 4.0088ZM12.1025 4.0088C11.3751 4.03789 10.6567 4.13907 10.0605 4.35059C9.57712 4.52217 9.22941 4.74797 9 5.01759V12.1973C9.21185 12.11 9.42665 12.0344 9.63965 11.9678C10.4826 11.7045 11.3728 11.5702 12.167 11.504C12.8597 11.4463 13.4989 11.4395 14 11.4493V4.07325C13.4931 4.02238 12.8151 3.9803 12.1025 4.0088Z" fill="currentColor"/>
</svg>
