<svg width="16" height="16" viewBox="0 0 16 16" fill="none" xmlns="http://www.w3.org/2000/svg">
<path fill-rule="evenodd" clip-rule="evenodd" d="M13 0C13.5523 0 14 0.447715 14 1V14C14 14.2652 13.8945 14.5195 13.707 14.707C13.5195 14.8945 13.2651 15 13 15H5C3.34334 14.9999 2.00015 13.6567 2 12V3C2 1.34315 3.34315 1.61064e-08 5 0H13ZM5 11C4.4478 11.0001 4 11.4478 4 12C4.00005 12.5522 4.44784 12.9999 5 13H12V11H5ZM5 2C4.44772 2 4 2.44772 4 3V9.17383C4.31305 9.06304 4.64901 9.00002 5 9H12V2H5Z" fill="currentColor"/>
</svg>
