<svg width="16" height="16" viewBox="0 0 16 16" fill="none" xmlns="http://www.w3.org/2000/svg">
<path d="M11.9999 3.49996C11.9999 3.22382 11.776 2.99997 11.4999 2.99997H4.49995C4.22381 2.99997 3.99995 3.22382 3.99995 3.49996V12.9178L7.37492 10.2186L7.51847 10.1229C7.86748 9.9311 8.30529 9.96295 8.6249 10.2186L11.9999 12.9178V3.49996ZM13.9998 14.9998C13.9998 15.3841 13.7797 15.7346 13.4334 15.9012C13.087 16.0677 12.675 16.0212 12.3749 15.7811L7.99991 12.2811L3.62496 15.7811C3.32479 16.0212 2.91284 16.0677 2.56638 15.9012C2.22009 15.7346 1.99998 15.3841 1.99998 14.9998V3.49996C1.99998 2.11926 3.11925 0.999989 4.49995 0.999989H11.4999C12.8806 0.999989 13.9998 2.11926 13.9998 3.49996V14.9998Z" fill="currentColor"/>
</svg>
