<svg width="24" height="24" viewBox="0 0 24 24" fill="none" xmlns="http://www.w3.org/2000/svg">
<path fill-rule="evenodd" clip-rule="evenodd" d="M5.49986 3C7.74864 3 10.2171 3.38431 11.9999 4.68846C13.7827 3.38431 16.2511 3 18.4999 3C19.6162 3 20.7331 3 21.8497 3C22.4848 3 22.9997 3.51487 22.9997 4.15V17.85C22.9997 18.4851 22.4848 19 21.8497 19C20.7331 19 19.6165 19 18.4999 19C16.064 19 13.9137 19.5003 12.707 20.7071C12.3164 21.0976 11.6833 21.0976 11.2928 20.7071C10.086 19.5003 7.93571 19 5.49986 19C4.38324 19 3.26662 19 2.15 19C1.51488 19 1 18.4851 1 17.85V4.15C1 3.51487 1.51487 3 2.15 3C3.2666 3 4.38351 3 5.49986 3ZM5.49986 5C7.75058 5 9.75749 5.42718 11.0015 6.44411C11 10 11 14 11 18.0825C9.35517 17.261 7.35294 17 5.49986 17C4.66657 17 3.83329 17 3 17V5C3.83329 5 4.66657 5 5.49986 5ZM13 18.0824C14.6448 17.2609 16.6469 17 18.4999 17C19.3331 17 20.1664 17 20.9997 17V5C20.1665 5 19.3329 5 18.4999 5C16.2493 5 14.2425 5.42712 12.9984 6.44389C13 10 13 14 13 18.0824Z" fill="currentColor"/>
</svg>
