<svg width="24" height="24" viewBox="0 0 24 24" fill="none" xmlns="http://www.w3.org/2000/svg">
<path fill-rule="evenodd" clip-rule="evenodd" d="M4 4C4 2.34315 5.34315 1 7 1H17C18.6569 1 20 2.34315 20 4V22C20 22.4045 19.7564 22.7691 19.3827 22.9239C19.009 23.0787 18.5789 22.9931 18.2929 22.7071L12 16.4142L5.70711 22.7071C5.42111 22.9931 4.99099 23.0787 4.61732 22.9239C4.24364 22.7691 4 22.4045 4 22V4ZM7 3C6.44772 3 6 3.44772 6 4V19.5858L11.2929 14.2929C11.6834 13.9024 12.3166 13.9024 12.7071 14.2929L18 19.5858V4C18 3.44772 17.5523 3 17 3H7Z" fill="currentColor"/>
</svg>
