<svg width="16" height="16" viewBox="0 0 16 16" fill="none" xmlns="http://www.w3.org/2000/svg">
<path d="M8.99988 8.57445V13.259L12.9998 10.926V6.24147L8.99988 8.57445ZM2.99996 10.925L6.99991 13.258V8.57445L2.99996 6.24147V10.925ZM3.9853 4.50029L7.99989 6.84205L12.0135 4.50029L7.99989 2.15852L3.9853 4.50029ZM14.9998 11.5002C14.9998 11.8558 14.8108 12.1842 14.5037 12.3635L8.50477 15.8634C8.19356 16.045 7.80826 16.0458 7.49697 15.8644L1.49607 12.3644C1.18884 12.1852 0.999987 11.8559 0.999987 11.5002V4.50029C0.999987 4.14462 1.18886 3.81525 1.49607 3.63604L7.49599 0.136087L7.61611 0.0765179C7.90251 -0.0425118 8.23148 -0.0226835 8.50379 0.136087L14.5037 3.63604C14.8109 3.81525 14.9998 4.14462 14.9998 4.50029V11.5002Z" fill="currentColor"/>
</svg>
