<svg width="16" height="16" viewBox="0 0 16 16" fill="none" xmlns="http://www.w3.org/2000/svg">
<path fill-rule="evenodd" clip-rule="evenodd" d="M9.5 1C10.8807 1 12 2.11929 12 3.5V4H13C14.6569 4 16 5.34315 16 7V13C16 14.6569 14.6569 16 13 16H3C1.34315 16 1.61064e-08 14.6569 0 13V7C0 5.34315 1.34315 4 3 4H4V3.5C4 2.11929 5.11929 1 6.5 1H9.5ZM12 14H13C13.5523 14 14 13.5523 14 13V7C14 6.44772 13.5523 6 13 6H12V14ZM6 14H10V6H6V14ZM3 6C2.44772 6 2 6.44772 2 7V13C2 13.5523 2.44772 14 3 14H4V6H3ZM6.5 3C6.22386 3 6 3.22386 6 3.5V4H10V3.5C10 3.22386 9.77614 3 9.5 3H6.5Z" fill="currentColor"/>
</svg>
