<svg width="16" height="16" viewBox="0 0 16 16" fill="none" xmlns="http://www.w3.org/2000/svg">
<path d="M4.5 9.5C4.77614 9.5 5 9.72386 5 10V10.5C5 10.7761 4.77614 11 4.5 11H4C3.72386 11 3.5 10.7761 3.5 10.5V10C3.5 9.72386 3.72386 9.5 4 9.5H4.5Z" fill="currentColor"/>
<path d="M7 9.5C7.27614 9.5 7.5 9.72386 7.5 10V10.5C7.5 10.7761 7.27614 11 7 11H6.5C6.22386 11 6 10.7761 6 10.5V10C6 9.72386 6.22386 9.5 6.5 9.5H7Z" fill="currentColor"/>
<path d="M4.5 7C4.77614 7 5 7.22386 5 7.5V8C5 8.27614 4.77614 8.5 4.5 8.5H4C3.72386 8.5 3.5 8.27614 3.5 8V7.5C3.5 7.22386 3.72386 7 4 7H4.5Z" fill="currentColor"/>
<path d="M7 7C7.27614 7 7.5 7.22386 7.5 7.5V8C7.5 8.27614 7.27614 8.5 7 8.5H6.5C6.22386 8.5 6 8.27614 6 8V7.5C6 7.22386 6.22386 7 6.5 7H7Z" fill="currentColor"/>
<path d="M4.5 4.5C4.77614 4.5 5 4.72386 5 5V5.5C5 5.77614 4.77614 6 4.5 6H4C3.72386 6 3.5 5.77614 3.5 5.5V5C3.5 4.72386 3.72386 4.5 4 4.5H4.5Z" fill="currentColor"/>
<path d="M7 4.5C7.27614 4.5 7.5 4.72386 7.5 5V5.5C7.5 5.77614 7.27614 6 7 6H6.5C6.22386 6 6 5.77614 6 5.5V5C6 4.72386 6.22386 4.5 6.5 4.5H7Z" fill="currentColor"/>
<path fill-rule="evenodd" clip-rule="evenodd" d="M8.5 1C9.88071 1 11 2.11929 11 3.5V5H13.5C14.8807 5 16 6.11929 16 7.5V12.5C16 13.8807 14.8807 15 13.5 15H2.5C1.11929 15 0 13.8807 0 12.5V3.5C4.02666e-09 2.11929 1.11929 1 2.5 1H8.5ZM2.5 3C2.22386 3 2 3.22386 2 3.5V12.5C2 12.7761 2.22386 13 2.5 13H9V3.5C9 3.22386 8.77614 3 8.5 3H2.5ZM11 13H13.5C13.7761 13 14 12.7761 14 12.5V7.5C14 7.22386 13.7761 7 13.5 7H11V13Z" fill="currentColor"/>
</svg>
