<svg width="16" height="16" viewBox="0 0 16 16" fill="none" xmlns="http://www.w3.org/2000/svg">
<path d="M5 9.5C4.44772 9.5 4 9.94771 4 10.5V11.5C4 12.0523 4.44772 12.5 5 12.5H6C6.55228 12.5 7 12.0523 7 11.5V10.5C7 9.94772 6.55228 9.5 6 9.5H5Z" fill="currentColor"/>
<path fill-rule="evenodd" clip-rule="evenodd" d="M4 0C4.55228 0 5 0.447715 5 1V2H11V1C11 0.447715 11.4477 0 12 0C12.5523 0 13 0.447715 13 1V2C14.6569 2 16 3.34315 16 5V13C16 14.6569 14.6569 16 13 16H3C1.34314 16 0 14.6569 0 13V5C0 3.34315 1.34315 2 3 2V1C3 0.447715 3.44772 0 4 0ZM2 5C2 4.44772 2.44772 4 3 4H13C13.5523 4 14 4.44772 14 5V6H2V5ZM2 8V13C2 13.5523 2.44772 14 3 14H13C13.5523 14 14 13.5523 14 13V8H2Z" fill="currentColor"/>
</svg>
