<svg width="24" height="24" viewBox="0 0 24 24" fill="none" xmlns="http://www.w3.org/2000/svg">
<path d="M7 11C6.44772 11 6 11.4477 6 12V13C6 13.5523 6.44772 14 7 14H8C8.55228 14 9 13.5523 9 13V12C9 11.4477 8.55228 11 8 11H7Z" fill="currentColor"/>
<path d="M10.5 12C10.5 11.4477 10.9477 11 11.5 11H12.5C13.0523 11 13.5 11.4477 13.5 12V13C13.5 13.5523 13.0523 14 12.5 14H11.5C10.9477 14 10.5 13.5523 10.5 13V12Z" fill="currentColor"/>
<path d="M16.045 11C15.4928 11 15.045 11.4477 15.045 12V13C15.045 13.5523 15.4928 14 16.045 14H17.045C17.5973 14 18.045 13.5523 18.045 13V12C18.045 11.4477 17.5973 11 17.045 11H16.045Z" fill="currentColor"/>
<path fill-rule="evenodd" clip-rule="evenodd" d="M6 1C6.55228 1 7 1.44772 7 2V3H17V2C17 1.44772 17.4477 1 18 1C18.5523 1 19 1.44772 19 2V3C21.2091 3 23 4.79086 23 7V19C23 21.2091 21.2091 23 19 23H5C2.79086 23 1 21.2091 1 19V7C1 4.79086 2.79086 3 5 3V2C5 1.44772 5.44772 1 6 1ZM19 5C20.1046 5 21 5.89543 21 7L3 7C3 5.89543 3.89543 5 5 5H19ZM3 19V9H21V19C21 20.1046 20.1046 21 19 21H5C3.89543 21 3 20.1046 3 19Z" fill="currentColor"/>
</svg>
