<svg width="20" height="20" viewBox="0 0 20 20" fill="none" xmlns="http://www.w3.org/2000/svg">
<g clip-path="url(#clip0_75_1184)">
<path fill-rule="evenodd" clip-rule="evenodd" d="M5 3C3.89543 3 3 3.89543 3 5C3 6.10457 3.89543 7 5 7C6.10457 7 7 6.10457 7 5C7 3.89543 6.10457 3 5 3ZM1 5C1 2.79086 2.79086 1 5 1C7.20914 1 9 2.79086 9 5C9 7.20914 7.20914 9 5 9C2.79086 9 1 7.20914 1 5ZM15 3C13.8954 3 13 3.89543 13 5C13 6.10457 13.8954 7 15 7C16.1046 7 17 6.10457 17 5C17 3.89543 16.1046 3 15 3ZM11 5C11 2.79086 12.7909 1 15 1C17.2091 1 19 2.79086 19 5C19 7.20914 17.2091 9 15 9C12.7909 9 11 7.20914 11 5ZM5 13C3.89543 13 3 13.8954 3 15C3 16.1046 3.89543 17 5 17C6.10457 17 7 16.1046 7 15C7 13.8954 6.10457 13 5 13ZM1 15C1 12.7909 2.79086 11 5 11C7.20914 11 9 12.7909 9 15C9 17.2091 7.20914 19 5 19C2.79086 19 1 17.2091 1 15ZM15 13C13.8954 13 13 13.8954 13 15C13 16.1046 13.8954 17 15 17C16.1046 17 17 16.1046 17 15C17 13.8954 16.1046 13 15 13ZM11 15C11 12.7909 12.7909 11 15 11C17.2091 11 19 12.7909 19 15C19 17.2091 17.2091 19 15 19C12.7909 19 11 17.2091 11 15Z" fill="currentColor"/>
</g>
<defs>
<clipPath id="clip0_75_1184">
<rect width="20" height="20" fill="currentColor"/>
</clipPath>
</defs>
</svg>
