<svg width="20" height="20" viewBox="0 0 20 20" fill="none" xmlns="http://www.w3.org/2000/svg">
<path fill-rule="evenodd" clip-rule="evenodd" d="M3.5 4C2.67157 4 2 4.67157 2 5.5V13.5C2 14.3284 2.67157 15 3.5 15H9.5C9.6853 15 9.86696 15.0515 10.0247 15.1487L14 17.5989L13.9999 15H16.5C17.3284 15 18 14.3284 18 13.5V5.5C18 4.67157 17.3284 4 16.5 4H3.5ZM0 5.5C0 3.567 1.567 2 3.5 2H16.5C18.433 2 20 3.567 20 5.5V13.5C20 15.433 18.433 17 16.5 17H16L16 18.4944C16 19.6684 14.7123 20.3874 13.7129 19.7714L9.21657 17H3.5C1.567 17 0 15.433 0 13.5V5.5Z" fill="currentColor"/>
</svg>
