<svg width="24" height="24" viewBox="0 0 24 24" fill="none" xmlns="http://www.w3.org/2000/svg">
<path d="M7.5 9.5C6.67157 9.5 6 10.1716 6 11C6 11.8284 6.67157 12.5 7.5 12.5C8.32843 12.5 9 11.8284 9 11C9 10.1716 8.32843 9.5 7.5 9.5Z" fill="currentColor"/>
<path d="M10.5 11C10.5 10.1716 11.1716 9.5 12 9.5C12.8284 9.5 13.5 10.1716 13.5 11C13.5 11.8284 12.8284 12.5 12 12.5C11.1716 12.5 10.5 11.8284 10.5 11Z" fill="currentColor"/>
<path d="M15 11C15 10.1716 15.6716 9.5 16.5 9.5C17.3284 9.5 18 10.1716 18 11C18 11.8284 17.3284 12.5 16.5 12.5C15.6716 12.5 15 11.8284 15 11Z" fill="currentColor"/>
<path fill-rule="evenodd" clip-rule="evenodd" d="M19.5 19H19V21C19 21.7376 18.594 22.4153 17.9437 22.7633C17.2934 23.1114 16.5043 23.0732 15.8906 22.6641L10.3944 19H4.5C2.567 19 1 17.433 1 15.5V6.5C1 4.567 2.567 3 4.5 3H19.5C21.433 3 23 4.567 23 6.5V15.5C23 17.433 21.433 19 19.5 19ZM10.6972 17C10.8946 17 11.0877 17.0584 11.2519 17.1679L17 21V17H19.5C20.3284 17 21 16.3284 21 15.5V6.5C21 5.67157 20.3284 5 19.5 5H4.5C3.67157 5 3 5.67157 3 6.5V15.5C3 16.3284 3.67157 17 4.5 17H10.6972Z" fill="currentColor"/>
</svg>
