<svg width="24" height="24" viewBox="0 0 24 24" fill="none" xmlns="http://www.w3.org/2000/svg">
<path fill-rule="evenodd" clip-rule="evenodd" d="M11.2519 17.1679C11.0877 17.0584 10.8946 17 10.6972 17H4.5C3.67157 17 3 16.3284 3 15.5V6.5C3 5.67157 3.67157 5 4.5 5H19.5C20.3284 5 21 5.67157 21 6.5V15.5C21 16.3284 20.3284 17 19.5 17H17V21L11.2519 17.1679ZM19 19H19.5C21.433 19 23 17.433 23 15.5V6.5C23 4.567 21.433 3 19.5 3H4.5C2.567 3 1 4.567 1 6.5V15.5C1 17.433 2.567 19 4.5 19H10.3944L15.8906 22.6641C16.5043 23.0732 17.2934 23.1114 17.9437 22.7633C18.594 22.4153 19 21.7376 19 21V19Z" fill="currentColor"/>
</svg>
