<svg width="20" height="20" viewBox="0 0 20 20" fill="none" xmlns="http://www.w3.org/2000/svg">
<path d="M17 4.97364C17 4.42621 16.5523 3.98243 16 3.98243H4C3.44772 3.98243 3 4.42621 3 4.97364V12.6391C3.00003 13.1865 3.44774 13.6303 4 13.6303H7.90234C8.48729 13.6303 9.05982 13.8 9.54883 14.1182L14 17.0144V13.6303H16C16.5523 13.6303 17 13.1865 17 12.6391V4.97364ZM19 12.6391C19 14.2814 17.6568 15.6127 16 15.6127V17.0144C16 18.5913 14.2323 19.5369 12.9023 18.6716L8.45117 15.7754C8.28819 15.6693 8.0973 15.6128 7.90234 15.6127H4C2.34317 15.6127 1.00003 14.2814 1 12.6391V4.97364C1 3.33134 2.34315 2 4 2H16C17.6569 2 19 3.33134 19 4.97364V12.6391Z" fill="currentColor"/>
<circle cx="6.36364" cy="8.36364" r="1.36364" fill="currentColor"/>
<circle cx="10.0001" cy="8.36364" r="1.36364" fill="currentColor"/>
<circle cx="13.6363" cy="8.36364" r="1.36364" fill="currentColor"/>
</svg>
