<svg width="16" height="16" viewBox="0 0 16 16" fill="none" xmlns="http://www.w3.org/2000/svg">
<path fill-rule="evenodd" clip-rule="evenodd" d="M3 3C2.44772 3 2 3.44772 2 4V10C2 10.5523 2.44772 11 3 11H7C7.18124 11 7.35908 11.0493 7.5145 11.1425L11 13.2338V11H13C13.5523 11 14 10.5523 14 10V4C14 3.44772 13.5523 3 13 3H3ZM0 4C0 2.34315 1.34315 1 3 1H13C14.6569 1 16 2.34315 16 4V10C16 11.6569 14.6569 13 13 13V15C13 15.3603 12.8062 15.6927 12.4927 15.8702C12.1792 16.0477 11.7944 16.0429 11.4855 15.8575L6.72302 13H3C1.34315 13 0 11.6569 0 10V4Z" fill="currentColor"/>
</svg>
