<svg width="16" height="16" viewBox="0 0 16 16" fill="none" xmlns="http://www.w3.org/2000/svg">
<path fill-rule="evenodd" clip-rule="evenodd" d="M3 1C1.34315 1 0 2.34315 0 4V10C0 11.6569 1.34315 13 3 13H6.72302L11.4855 15.8575C11.7944 16.0429 12.1792 16.0477 12.4927 15.8702C12.8062 15.6927 13 15.3603 13 15V13C14.6569 13 16 11.6569 16 10V4C16 2.34315 14.6569 1 13 1H3ZM2 4C2 3.44772 2.44772 3 3 3H13C13.5523 3 14 3.44772 14 4V10C14 10.5523 13.5523 11 13 11H12H11V12V13.2338L7.5145 11.1425C7.35908 11.0493 7.18124 11 7 11H3C2.44772 11 2 10.5523 2 10V4ZM5 8C5.55228 8 6 7.55228 6 7C6 6.44772 5.55228 6 5 6C4.44772 6 4 6.44772 4 7C4 7.55228 4.44772 8 5 8ZM9 7C9 7.55228 8.55229 8 8 8C7.44772 8 7 7.55228 7 7C7 6.44772 7.44772 6 8 6C8.55229 6 9 6.44772 9 7ZM11 8C11.5523 8 12 7.55228 12 7C12 6.44772 11.5523 6 11 6C10.4477 6 10 6.44772 10 7C10 7.55228 10.4477 8 11 8Z" fill="currentColor"/>
</svg>
