<svg width="24" height="24" viewBox="0 0 24 24" fill="none" xmlns="http://www.w3.org/2000/svg">
<path fill-rule="evenodd" clip-rule="evenodd" d="M12 24C18.6274 24 24 18.6274 24 12C24 5.37258 18.6274 0 12 0C5.37258 0 0 5.37258 0 12C0 18.6274 5.37258 24 12 24ZM7.70711 6.29289C7.31658 5.90237 6.68342 5.90237 6.29289 6.29289C5.90237 6.68342 5.90237 7.31658 6.29289 7.70711L10.5858 12L6.29289 16.2929C5.90237 16.6834 5.90237 17.3166 6.29289 17.7071C6.68342 18.0976 7.31658 18.0976 7.70711 17.7071L12 13.4142L16.2929 17.7071C16.6834 18.0976 17.3166 18.0976 17.7071 17.7071C18.0976 17.3166 18.0976 16.6834 17.7071 16.2929L13.4142 12L17.7071 7.70711C18.0976 7.31658 18.0976 6.68342 17.7071 6.29289C17.3166 5.90237 16.6834 5.90237 16.2929 6.29289L12 10.5858L7.70711 6.29289Z" fill="currentColor"/>
</svg>
