<svg width="16" height="16" viewBox="0 0 16 16" fill="none" xmlns="http://www.w3.org/2000/svg">
<path fill-rule="evenodd" clip-rule="evenodd" d="M9.5 0C10.7095 0 11.7186 0.85886 11.9502 2H11.999L12.1533 2.00391C13.7385 2.08409 14.9989 3.3949 14.999 5L15 13C15 14.6568 13.6568 15.9999 12 16H4.00098C2.34421 16 1.0011 14.6568 1.00098 13L1 5C0.999998 3.34321 2.3432 2.00008 4 2H4.0498C4.28142 0.85886 5.29051 0 6.5 0H9.5ZM4 4C3.44778 4.00008 3 4.44777 3 5L3.00098 13C3.00102 13.5523 3.44872 14 4.00098 14H12C12.5522 13.9999 13 13.5522 13 13L12.999 5C12.999 4.48227 12.6058 4.0561 12.1016 4.00488L11.999 4H11.9502C11.7186 5.14114 10.7095 6 9.5 6H6.5C5.29051 6 4.28142 5.14114 4.0498 4H4ZM6.5 2C6.22386 2 6 2.22386 6 2.5V3.5C6 3.77614 6.22386 4 6.5 4H9.5C9.77614 4 10 3.77614 10 3.5V2.5C10 2.22386 9.77614 2 9.5 2H6.5Z" fill="currentColor"/>
</svg>
