<svg width="16" height="16" viewBox="0 0 16 16" fill="none" xmlns="http://www.w3.org/2000/svg">
<path d="M9 5V7.59L10.7 9.3C11.0398 9.69676 11.0169 10.2882 10.6476 10.6576C10.2782 11.0269 9.68676 11.0498 9.29 10.71L7.29 8.71C7.10281 8.52128 6.99846 8.2658 7 8V5C7 4.44772 7.44772 4 8 4C8.55229 4 9 4.44772 9 5Z" fill="currentColor"/>
<path d="M8 0C3.58172 0 0 3.58172 0 8C0 12.4183 3.58172 16 8 16C12.4183 16 16 12.4183 16 8C16 5.87827 15.1571 3.84344 13.6569 2.34315C12.1566 0.842855 10.1217 0 8 0ZM8 14C4.68629 14 2 11.3137 2 8C2 4.68629 4.68629 2 8 2C11.3137 2 14 4.68629 14 8C14 9.5913 13.3679 11.1174 12.2426 12.2426C11.1174 13.3679 9.5913 14 8 14Z" fill="currentColor"/>
</svg>
