<svg width="24" height="24" viewBox="0 0 24 24" fill="none" xmlns="http://www.w3.org/2000/svg">
<path d="M23 12C23 18.075 18.075 23 12 23C5.925 23 1 18.075 1 12C1 5.925 5.925 1 12 1C18.075 1 23 5.925 23 12ZM21 12C21 7.029 16.971 3 12 3C7.029 3 3 7.029 3 12C3 16.971 7.029 21 12 21C16.971 21 21 16.971 21 12ZM11 6C11 5.448 11.448 5 12 5C12.552 5 13 5.448 13 6V11.59L15.7 14.3C16.04 14.697 16.017 15.288 15.648 15.658C15.278 16.027 14.687 16.05 14.29 15.71L11.29 12.71C11.103 12.521 10.998 12.266 11 12V6Z" fill="currentColor"/>
</svg>
