<svg width="12" height="12" viewBox="0 0 12 12" fill="none" xmlns="http://www.w3.org/2000/svg">
<path d="M6.75 3.75V5.6925L8.025 6.975C8.27983 7.27257 8.2627 7.71615 7.98567 7.99317C7.70865 8.2702 7.26507 8.28733 6.9675 8.0325L5.4675 6.5325C5.32711 6.39096 5.24885 6.19935 5.25 6V3.75C5.25 3.33579 5.58579 3 6 3C6.41421 3 6.75 3.33579 6.75 3.75Z" fill="currentColor"/>
<path d="M6 0C2.68629 0 0 2.68629 0 6C0 9.31371 2.68629 12 6 12C9.31371 12 12 9.31371 12 6C12 4.4087 11.3679 2.88258 10.2426 1.75736C9.11742 0.632141 7.5913 0 6 0ZM6 10.5C3.51472 10.5 1.5 8.48528 1.5 6C1.5 3.51472 3.51472 1.5 6 1.5C8.48528 1.5 10.5 3.51472 10.5 6C10.5 7.19347 10.0259 8.33807 9.18198 9.18198C8.33807 10.0259 7.19347 10.5 6 10.5Z" fill="currentColor"/>
</svg>
