<svg width="16" height="16" viewBox="0 0 16 16" fill="none" xmlns="http://www.w3.org/2000/svg">
<path d="M3.20013 3.40032C3.53146 2.95855 4.15772 2.86889 4.59954 3.20013C5.04132 3.53146 5.13097 4.15772 4.79974 4.59954L2.24896 7.99993L4.79974 11.4003L4.85735 11.4853C5.11861 11.9194 5.01362 12.4892 4.59954 12.7997C4.18537 13.1102 3.60904 13.0512 3.26556 12.6786L3.20013 12.5995L0.200127 8.59954C-0.0663835 8.24405 -0.0663835 7.75581 0.200127 7.40032L3.20013 3.40032Z" fill="currentColor"/>
<path d="M12.7997 3.40033C12.4684 2.95855 11.8421 2.8689 11.4003 3.20013C10.9585 3.53146 10.8689 4.15773 11.2001 4.59955L13.7509 7.99994L11.2001 11.4003L11.1425 11.4853C10.8812 11.9194 10.9862 12.4892 11.4003 12.7997C11.8145 13.1102 12.3908 13.0512 12.7343 12.6786L12.7997 12.5995L15.7997 8.59955C16.0662 8.24406 16.0662 7.75582 15.7997 7.40033L12.7997 3.40033Z" fill="currentColor"/>
</svg>
