<svg width="20" height="20" viewBox="0 0 20 20" fill="none" xmlns="http://www.w3.org/2000/svg">
<g clip-path="url(#clip0_1955_245)">
<path d="M4.21876 4.37499C4.56377 3.94373 5.19375 3.87373 5.62501 4.21874C6.05628 4.56375 6.12627 5.19373 5.78126 5.62499L2.28127 9.99999L5.78126 14.375L5.84084 14.458C6.11601 14.8838 6.02939 15.4577 5.62501 15.7812C5.22069 16.1047 4.64212 16.063 4.28712 15.7012L4.21876 15.625L0.218765 10.625C-0.0734099 10.2598 -0.0734099 9.74021 0.218765 9.37499L4.21876 4.37499Z" fill="currentColor"/>
<path d="M15.7812 4.37499C15.4362 3.94373 14.8062 3.87373 14.375 4.21874C13.9437 4.56375 13.8737 5.19373 14.2187 5.62499L17.7187 9.99999L14.2187 14.375L14.1592 14.458C13.884 14.8838 13.9706 15.4577 14.375 15.7812C14.7793 16.1047 15.3579 16.063 15.7129 15.7012L15.7812 15.625L19.7812 10.625C20.0734 10.2598 20.0734 9.74021 19.7812 9.37499L15.7812 4.37499Z" fill="currentColor"/>
<path d="M10.5761 4.61621C10.77 4.14794 11.2912 3.89337 11.7871 4.04199C12.2829 4.19073 12.578 4.68994 12.4824 5.1875L12.458 5.28711L9.45798 15.2871C9.29931 15.816 8.74177 16.1165 8.21286 15.958C7.68396 15.7993 7.38345 15.2418 7.54196 14.7129L10.542 4.71289L10.5761 4.61621Z" fill="currentColor"/>
</g>
<defs>
<clipPath id="clip0_1955_245">
<rect width="20" height="20" fill="currentColor"/>
</clipPath>
</defs>
</svg>
