<svg width="16" height="16" viewBox="0 0 16 16" fill="none" xmlns="http://www.w3.org/2000/svg">
<path d="M2.84863 10.499L7 13.1679V10.5449L4.88867 9.18844L2.84863 10.499ZM9 10.5449V13.1679L13.1504 10.499L11.1104 9.18844L9 10.5449ZM6.7373 7.99996L8 8.81051L9.26172 7.99996L8 7.18844L6.7373 7.99996ZM2 8.66793L3.03906 7.99996L2 7.33102V8.66793ZM12.96 7.99996L14 8.66793V7.33102L12.96 7.99996ZM2.84863 5.49899L4.88867 6.81051L7 5.45406V2.83004L2.84863 5.49899ZM9 5.45406L11.1104 6.81051L13.1504 5.49996L9 2.83102V5.45406ZM16 10.5C16 10.8401 15.827 11.1568 15.541 11.3408L8.54102 15.8408C8.21161 16.0525 7.78839 16.0525 7.45898 15.8408L0.458984 11.3408C0.172968 11.1568 0 10.8401 0 10.5V5.49996C0 5.15984 0.172968 4.84318 0.458984 4.65914L7.45898 0.159143L7.58691 0.0888306C7.89284 -0.0498471 8.252 -0.0259608 8.54004 0.159143L15.541 4.65914C15.827 4.84318 16 5.15984 16 5.49996V10.5Z" fill="currentColor"/>
</svg>
