<svg width="24" height="24" viewBox="0 0 24 24" fill="none" xmlns="http://www.w3.org/2000/svg">
<g clip-path="url(#clip0_1955_213)">
<path d="M14.3165 5.05134C14.8404 5.22599 15.1236 5.79231 14.949 6.31625L10.949 18.3163C10.7743 18.8402 10.208 19.1234 9.68404 18.9487C9.1601 18.7741 8.87694 18.2077 9.05159 17.6838L13.0516 5.6838C13.2262 5.15986 13.7926 4.8767 14.3165 5.05134Z" fill="currentColor"/>
<path d="M6.64018 5.2318C7.06446 5.58537 7.12179 6.21593 6.76822 6.64021L2.30171 12L6.76822 17.3598C7.12179 17.7841 7.06446 18.4147 6.64018 18.7682C6.21591 19.1218 5.58534 19.0645 5.23178 18.6402L0.231779 12.6402C-0.0772596 12.2694 -0.0772596 11.7307 0.231779 11.3598L5.23178 5.35984C5.58534 4.93556 6.21591 4.87824 6.64018 5.2318Z" fill="currentColor"/>
<path d="M18.7682 5.35984C18.4147 4.93556 17.7841 4.87824 17.3598 5.2318C16.9356 5.58537 16.8782 6.21593 17.2318 6.64021L21.6983 12L17.2318 17.3598C16.8782 17.7841 16.9356 18.4147 17.3598 18.7682C17.7841 19.1218 18.4147 19.0645 18.7682 18.6402L23.7682 12.6402C24.0773 12.2694 24.0773 11.7307 23.7682 11.3598L18.7682 5.35984Z" fill="currentColor"/>
</g>
<defs>
<clipPath id="clip0_1955_213">
<rect width="24" height="24" fill="currentColor"/>
</clipPath>
</defs>
</svg>
