<svg width="16" height="16" viewBox="0 0 16 16" fill="none" xmlns="http://www.w3.org/2000/svg">
<path d="M8.99981 8.57439V13.2589L9.99979 12.6759V9.73256C9.99976 9.37531 10.1904 9.04503 10.4998 8.86637L12.9997 7.42207V6.24143L8.99981 8.57439ZM2.99994 7.42207L5.49988 8.86637C5.8093 9.045 5.99987 9.37529 5.99987 9.73256V12.6749L6.99985 13.2579V8.57439L2.99994 6.24143V7.42207ZM11.9997 10.3087V11.5089L12.9997 10.9259V9.73159L11.9997 10.3087ZM2.99994 10.9249L3.99992 11.5079V10.3087L2.99994 9.73159V10.9249ZM8.50373 5.36449C8.19246 5.54598 7.8072 5.54598 7.49594 5.36449L4.9999 3.90847L3.98527 4.50025L7.99983 6.842L12.0134 4.50025L10.9998 3.90847L8.50373 5.36449ZM6.98521 2.75029L7.99983 3.34207L9.01348 2.75029L7.99983 2.1585L6.98521 2.75029ZM14.9997 11.5001C14.9997 11.8557 14.8107 12.1841 14.5036 12.3634L8.5047 15.8633C8.1935 16.0448 7.8082 16.0456 7.49691 15.8643L1.49606 12.3643C1.18883 12.1851 0.999979 11.8558 0.999979 11.5001V4.50025C0.999979 4.14459 1.18885 3.81522 1.49606 3.63601L7.49594 0.136086L7.61605 0.0765174C7.90245 -0.0425115 8.23142 -0.0226833 8.50373 0.136086L14.5036 3.63601C14.8108 3.81522 14.9997 4.14459 14.9997 4.50025V11.5001Z" fill="currentColor"/>
</svg>
