<svg width="16" height="16" viewBox="0 0 16 16" fill="none" xmlns="http://www.w3.org/2000/svg">
<path d="M2.29188 1.29297C2.68237 0.902414 3.31636 0.902486 3.70692 1.29297C4.09719 1.68344 4.09721 2.31655 3.70692 2.70704L2.41395 4.00001L3.70692 5.29297L3.77528 5.36915C4.09563 5.76192 4.07304 6.34092 3.70692 6.70704C3.34081 7.07315 2.76181 7.09575 2.36903 6.7754L2.29286 6.70704L0.29286 4.70704C-0.0976382 4.31654 -0.097602 3.68351 0.29286 3.29297L2.29188 1.29297ZM6.29188 1.29297C6.65806 0.926733 7.23794 0.904049 7.63075 1.22461L7.70692 1.29297L9.70692 3.29297C9.89445 3.4805 9.99988 3.7348 9.99989 4.00001C9.99989 4.26522 9.89446 4.5195 9.70692 4.70704L7.70692 6.70704C7.3164 7.09756 6.68338 7.09756 6.29286 6.70704C5.90234 6.31651 5.90234 5.6835 6.29286 5.29297L7.58583 4.00001L6.29286 2.70704L6.22352 2.63086C5.90352 2.23821 5.92614 1.65902 6.29188 1.29297Z" fill="currentColor"/>
<path d="M0.999892 12V9.00003C0.999892 8.44775 1.44761 8.00003 1.99989 8.00003C2.55218 8.00003 2.99989 8.44775 2.99989 9.00003V12C2.99992 12.5523 3.44763 13 3.99989 13H11.9999C12.5522 13 12.9999 12.5523 12.9999 12V3.00003H11.9999C11.4476 3.00003 10.9999 2.55232 10.9999 2.00003C10.9999 1.44775 11.4476 1.00003 11.9999 1.00003H12.9999C14.1045 1.00003 14.9999 1.89546 14.9999 3.00003V12C14.9999 13.6569 13.6567 15 11.9999 15H3.99989C2.34306 15 0.99992 13.6569 0.999892 12Z" fill="currentColor"/>
</svg>
