<svg width="16" height="16" viewBox="0 0 16 16" fill="none" xmlns="http://www.w3.org/2000/svg">
<path fill-rule="evenodd" clip-rule="evenodd" d="M12.0244 4C12.0356 4.00018 12.0505 4.00041 12.0674 4.00098C12.1011 4.00211 12.1459 4.00491 12.2002 4.00879C12.3087 4.01654 12.4572 4.0313 12.6328 4.06055C12.9796 4.11834 13.4576 4.23561 13.9473 4.48047C14.4409 4.72728 14.9649 5.11333 15.3633 5.71094C15.7659 6.31481 16 7.07502 16 8C16 8.92498 15.7659 9.68519 15.3633 10.2891C14.9649 10.8867 14.4409 11.2727 13.9473 11.5195C13.5735 11.7064 13.2064 11.8182 12.8994 11.8867C12.4959 13.6689 10.9043 15 9 15H5C2.79086 15 1 13.2091 1 11V5C1 4.44772 1.44772 4 2 4H12.0244ZM3 11C3 12.1046 3.89543 13 5 13H9C10.1046 13 11 12.1046 11 11V6H3V11ZM13 9.75293C13.0172 9.74487 13.0356 9.73904 13.0527 9.73047C13.3091 9.60228 13.5351 9.42583 13.6992 9.17969C13.8591 8.93981 14 8.57502 14 8C14 7.42498 13.8591 7.06019 13.6992 6.82031C13.5351 6.57417 13.3091 6.39772 13.0527 6.26953C13.0355 6.2609 13.0174 6.25421 13 6.24609V9.75293Z" fill="currentColor"/>
<path d="M4 0C4.55228 0 5 0.447715 5 1V2C5 2.55228 4.55228 3 4 3C3.44772 3 3 2.55228 3 2V1C3 0.447715 3.44772 0 4 0Z" fill="currentColor"/>
<path d="M7 0C7.55228 0 8 0.447715 8 1V2C8 2.55228 7.55228 3 7 3C6.44772 3 6 2.55228 6 2V1C6 0.447715 6.44772 0 7 0Z" fill="currentColor"/>
<path d="M10 0C10.5523 0 11 0.447715 11 1V2C11 2.55228 10.5523 3 10 3C9.44771 3 9 2.55228 9 2V1C9 0.447715 9.44771 0 10 0Z" fill="currentColor"/>
</svg>
