<svg width="24" height="24" viewBox="0 0 24 24" fill="none" xmlns="http://www.w3.org/2000/svg">
<path d="M6 8C5.44772 8 5 8.44772 5 9C5 9.55228 5.44772 10 6 10H18C18.5523 10 19 9.55228 19 9C19 8.44772 18.5523 8 18 8H6Z" fill="currentColor"/>
<path d="M6 12C5.44772 12 5 12.4477 5 13C5 13.5523 5.44772 14 6 14H11C11.5523 14 12 13.5523 12 13C12 12.4477 11.5523 12 11 12H6Z" fill="currentColor"/>
<path fill-rule="evenodd" clip-rule="evenodd" d="M19.5 19H19V21C19 21.7376 18.594 22.4153 17.9437 22.7633C17.2934 23.1114 16.5043 23.0732 15.8906 22.6641L10.3944 19H4.5C2.567 19 1 17.433 1 15.5V6.5C1 4.567 2.567 3 4.5 3H19.5C21.433 3 23 4.567 23 6.5V15.5C23 17.433 21.433 19 19.5 19ZM10.6972 17C10.8946 17 11.0877 17.0584 11.2519 17.1679L17 21V17H19.5C20.3284 17 21 16.3284 21 15.5V6.5C21 5.67157 20.3284 5 19.5 5H4.5C3.67157 5 3 5.67157 3 6.5V15.5C3 16.3284 3.67157 17 4.5 17H10.6972Z" fill="currentColor"/>
</svg>
