<svg width="24" height="24" viewBox="0 0 24 24" fill="none" xmlns="http://www.w3.org/2000/svg">
<path fill-rule="evenodd" clip-rule="evenodd" d="M1 4C1 2.34315 2.34315 1 4 1H12C12.5523 1 13 1.44772 13 2C13 2.55228 12.5523 3 12 3H4C3.44772 3 3 3.44772 3 4V20C3 20.5523 3.44772 21 4 21H20C20.5523 21 21 20.5523 21 20L21 12C21 11.4477 21.4477 11 22 11C22.5523 11 23 11.4477 23 12L23 20C23 21.6569 21.6569 23 20 23H4C2.34315 23 1 21.6569 1 20V4ZM17.6716 1.91421C18.2569 1.32885 19.0509 1 19.8787 1C21.6025 1 23 2.39746 23 4.12132C23 4.94914 22.6712 5.74306 22.0858 6.32843L12.7071 15.7071C12.5789 15.8353 12.4184 15.9262 12.2425 15.9701L8.24254 16.9701C7.90176 17.0553 7.54127 16.9555 7.29289 16.7071C7.04451 16.4587 6.94466 16.0982 7.02986 15.7575L8.02986 11.7575C8.07382 11.5816 8.16473 11.4211 8.29289 11.2929L17.6716 1.91421ZM19.8787 3C19.5813 3 19.2961 3.11814 19.0858 3.32843L9.90296 12.5112L9.37437 14.6256L11.4888 14.097L20.6716 4.91421L21.345 5.58765L20.6716 4.91421C20.8819 4.70393 21 4.41871 21 4.12132C21 3.50203 20.498 3 19.8787 3Z" fill="currentColor"/>
</svg>
