<svg width="20" height="20" viewBox="0 0 20 20" fill="none" xmlns="http://www.w3.org/2000/svg">
<path fill-rule="evenodd" clip-rule="evenodd" d="M1 3C1 1.89543 1.89543 1 3 1H9C9.55228 1 10 1.44772 10 2C10 2.55228 9.55228 3 9 3H3V17H17V11C17 10.4477 17.4477 10 18 10C18.5523 10 19 10.4477 19 11V17C19 18.1046 18.1046 19 17 19H3C1.89543 19 1 18.1046 1 17V3ZM13.6716 1.91421C14.2569 1.32885 15.0509 1 15.8787 1C17.6025 1 19 2.39746 19 4.12132C19 4.94915 18.6711 5.74306 18.0858 6.32843L11.7071 12.7071C11.5789 12.8353 11.4184 12.9262 11.2425 12.9701L7.24254 13.9701C6.90176 14.0553 6.54127 13.9555 6.29289 13.7071C6.04451 13.4587 5.94466 13.0982 6.02986 12.7575L7.02986 8.75746C7.07382 8.58163 7.16473 8.42105 7.29289 8.29289L13.6716 1.91421ZM15.8787 3C15.5813 3 15.2961 3.11814 15.0858 3.32843L8.90296 9.51125L8.37437 11.6256L10.4888 11.097L16.6716 4.91421C16.8819 4.70392 17 4.41871 17 4.12132C17 3.50203 16.498 3 15.8787 3Z" fill="currentColor"/>
</svg>
