<svg width="16" height="16" viewBox="0 0 16 16" fill="none" xmlns="http://www.w3.org/2000/svg">
<path fill-rule="evenodd" clip-rule="evenodd" d="M13.2322 2C13.0286 2 12.8333 2.08089 12.6893 2.22487L7.89034 7.02388L7.45602 8.54398L8.97612 8.10966L13.7751 3.31066C13.9191 3.16668 14 2.97139 14 2.76777C14 2.34374 13.6563 2 13.2322 2ZM11.2751 0.810661C11.7942 0.291604 12.4982 0 13.2322 0C14.7608 0 16 1.23917 16 2.76777C16 3.50182 15.7084 4.20582 15.1893 4.72487L10.2071 9.70711C10.0869 9.82728 9.93813 9.91484 9.77472 9.96152L6.27472 10.9615C5.92553 11.0613 5.54969 10.9639 5.29289 10.7071C5.0361 10.4503 4.93871 10.0745 5.03848 9.72528L6.03848 6.22528C6.08516 6.06187 6.17272 5.91306 6.29289 5.79289L11.2751 0.810661Z" fill="currentColor"/>
<path d="M1 12.5V3.5C1 2.11929 2.11929 1 3.5 1H7C7.55228 1 8 1.44772 8 2C8 2.55228 7.55228 3 7 3H3.5C3.22386 3 3 3.22386 3 3.5V12.5C3 12.7761 3.22386 13 3.5 13H12.5C12.7761 13 13 12.7761 13 12.5V9C13 8.44771 13.4477 8 14 8C14.5523 8 15 8.44771 15 9V12.5C15 13.8807 13.8807 15 12.5 15H3.5C2.11929 15 1 13.8807 1 12.5Z" fill="currentColor"/>
</svg>
