<svg width="24" height="24" viewBox="0 0 24 24" fill="none" xmlns="http://www.w3.org/2000/svg">
<path fill-rule="evenodd" clip-rule="evenodd" d="M24 12C24 18.6274 18.6274 24 12 24C5.37258 24 0 18.6274 0 12C0 5.37258 5.37258 0 12 0C18.6274 0 24 5.37258 24 12ZM17.2071 8.79289C17.5976 9.18342 17.5976 9.81658 17.2071 10.2071L11.2071 16.2071C10.8166 16.5976 10.1834 16.5976 9.79289 16.2071L6.29289 12.7071C5.90237 12.3166 5.90237 11.6834 6.29289 11.2929C6.68342 10.9024 7.31658 10.9024 7.70711 11.2929L10.5 14.0858L15.7929 8.79289C16.1834 8.40237 16.8166 8.40237 17.2071 8.79289Z" fill="currentColor"/>
</svg>
