<svg width="16" height="16" viewBox="0 0 16 16" fill="none" xmlns="http://www.w3.org/2000/svg">
<path fill-rule="evenodd" clip-rule="evenodd" d="M16 8C16 12.4183 12.4183 16 8 16C3.58172 16 0 12.4183 0 8C0 3.58172 3.58172 0 8 0C12.4183 0 16 3.58172 16 8ZM11.2071 5.79289C11.5976 6.18342 11.5976 6.81658 11.2071 7.20711L7.70711 10.7071C7.31658 11.0976 6.68342 11.0976 6.29289 10.7071L4.29289 8.70711C3.90237 8.31658 3.90237 7.68342 4.29289 7.29289C4.68342 6.90237 5.31658 6.90237 5.70711 7.29289L7 8.58579L9.79289 5.79289C10.1834 5.40237 10.8166 5.40237 11.2071 5.79289Z" fill="currentColor"/>
</svg>
