<svg width="16" height="16" viewBox="0 0 16 16" fill="none" xmlns="http://www.w3.org/2000/svg">
<path d="M11.2071 7.20711C11.5976 6.81658 11.5976 6.18342 11.2071 5.79289C10.8166 5.40237 10.1834 5.40237 9.79289 5.79289L7 8.58579L5.70711 7.29289C5.31658 6.90237 4.68342 6.90237 4.29289 7.29289C3.90237 7.68342 3.90237 8.31658 4.29289 8.70711L6.29289 10.7071C6.68342 11.0976 7.31658 11.0976 7.70711 10.7071L11.2071 7.20711Z" fill="currentColor"/>
<path fill-rule="evenodd" clip-rule="evenodd" d="M8 16C12.4183 16 16 12.4183 16 8C16 3.58172 12.4183 0 8 0C3.58172 0 0 3.58172 0 8C0 12.4183 3.58172 16 8 16ZM8 14C11.3137 14 14 11.3137 14 8C14 4.68629 11.3137 2 8 2C4.68629 2 2 4.68629 2 8C2 11.3137 4.68629 14 8 14Z" fill="currentColor"/>
</svg>
