<svg width="48" height="48" viewBox="0 0 48 48" fill="none" xmlns="http://www.w3.org/2000/svg">
<g clip-path="url(#clip0_1181_7220)">
<path d="M33.4142 20.4142C34.1953 19.6332 34.1953 18.3668 33.4142 17.5858C32.6332 16.8047 31.3668 16.8047 30.5858 17.5858L22 26.1716L17.4142 21.5858C16.6332 20.8047 15.3668 20.8047 14.5858 21.5858C13.8047 22.3668 13.8047 23.6332 14.5858 24.4142L20.5858 30.4142C21.3668 31.1953 22.6332 31.1953 23.4142 30.4142L33.4142 20.4142Z" fill="currentColor"/>
<path fill-rule="evenodd" clip-rule="evenodd" d="M48 24C48 37.2548 37.2548 48 24 48C10.7452 48 0 37.2548 0 24C0 10.7452 10.7452 0 24 0C37.2548 0 48 10.7452 48 24ZM44 24C44 35.0457 35.0457 44 24 44C12.9543 44 4 35.0457 4 24C4 12.9543 12.9543 4 24 4C35.0457 4 44 12.9543 44 24Z" fill="currentColor"/>
</g>
<defs>
<clipPath id="clip0_1181_7220">
<rect width="48" height="48" fill="currentColor"/>
</clipPath>
</defs>
</svg>
