<svg width="48" height="48" viewBox="0 0 48 48" fill="none" xmlns="http://www.w3.org/2000/svg">
<g clip-path="url(#clip0_1181_7553)">
<path fill-rule="evenodd" clip-rule="evenodd" d="M24 48C37.2548 48 48 37.2548 48 24C48 10.7452 37.2548 0 24 0C10.7452 0 0 10.7452 0 24C0 37.2548 10.7452 48 24 48ZM33.4142 17.5858C34.1953 18.3668 34.1953 19.6332 33.4142 20.4142L23.4142 30.4142C22.6332 31.1953 21.3668 31.1953 20.5858 30.4142L14.5858 24.4142C13.8047 23.6332 13.8047 22.3668 14.5858 21.5858C15.3668 20.8047 16.6332 20.8047 17.4142 21.5858L22 26.1716L30.5858 17.5858C31.3668 16.8047 32.6332 16.8047 33.4142 17.5858Z" fill="currentColor"/>
</g>
<defs>
<clipPath id="clip0_1181_7553">
<rect width="48" height="48" fill="currentColor"/>
</clipPath>
</defs>
</svg>
