<svg width="20" height="20" viewBox="0 0 20 20" fill="none" xmlns="http://www.w3.org/2000/svg">
<path fill-rule="evenodd" clip-rule="evenodd" d="M9 0C7.34315 0 6 1.34315 6 3V5H4C2.34315 5 1 6.34315 1 8V17C1 18.6569 2.34315 20 4 20H11C12.6569 20 14 18.6569 14 17V15H16C17.6569 15 19 13.6569 19 12V3C19 1.34315 17.6569 0 16 0H9ZM12 15H9C7.34315 15 6 13.6569 6 12V7H4C3.44772 7 3 7.44772 3 8V17C3 17.5523 3.44772 18 4 18H11C11.5523 18 12 17.5523 12 17V15ZM8 3C8 2.44772 8.44772 2 9 2H16C16.5523 2 17 2.44772 17 3V12C17 12.5523 16.5523 13 16 13H9C8.44772 13 8 12.5523 8 12V3Z" fill="currentColor"/>
</svg>
