<svg width="24" height="24" viewBox="0 0 24 24" fill="none" xmlns="http://www.w3.org/2000/svg">
<path fill-rule="evenodd" clip-rule="evenodd" d="M10 1C8.34315 1 7 2.34315 7 4V6H5C3.34315 6 2 7.34315 2 9V20C2 21.6569 3.34315 23 5 23H14C15.6569 23 17 21.6569 17 20V18H19C20.6569 18 22 16.6569 22 15V4C22 2.34315 20.6569 1 19 1H10ZM15 18H10C8.34315 18 7 16.6569 7 15V8H5C4.44772 8 4 8.44772 4 9V20C4 20.5523 4.44772 21 5 21H14C14.5523 21 15 20.5523 15 20V18ZM9 15C9 15.5523 9.44772 16 10 16H19C19.5523 16 20 15.5523 20 15V4C20 3.44772 19.5523 3 19 3H10C9.44772 3 9 3.44772 9 4V15Z" fill="currentColor"/>
</svg>
