<svg width="16" height="16" viewBox="0 0 16 16" fill="none" xmlns="http://www.w3.org/2000/svg">
<path fill-rule="evenodd" clip-rule="evenodd" d="M7.5 0C6.11929 0 5 1.11929 5 2.5V4H3.5C2.11929 4 1 5.11929 1 6.5V13.5C1 14.8807 2.11929 16 3.5 16H8.5C9.88071 16 11 14.8807 11 13.5V12H12.5C13.8807 12 15 10.8807 15 9.5V2.5C15 1.11929 13.8807 0 12.5 0H7.5ZM9 12H7.5C6.11929 12 5 10.8807 5 9.5V6H3.5C3.22386 6 3 6.22386 3 6.5V13.5C3 13.7761 3.22386 14 3.5 14H8.5C8.77614 14 9 13.7761 9 13.5V12ZM7 2.5C7 2.22386 7.22386 2 7.5 2H12.5C12.7761 2 13 2.22386 13 2.5V9.5C13 9.77614 12.7761 10 12.5 10H7.5C7.22386 10 7 9.77614 7 9.5V2.5Z" fill="currentColor"/>
</svg>
