<svg width="16" height="16" viewBox="0 0 16 16" fill="none" xmlns="http://www.w3.org/2000/svg">
<path fill-rule="evenodd" clip-rule="evenodd" d="M8 0C9.75583 0 11.3922 0.295095 12.627 0.80957C13.2422 1.06591 13.8058 1.39614 14.2305 1.81445C14.6586 2.23623 15 2.80651 15 3.5V11.5C15 12.1935 14.6586 12.7638 14.2305 13.1855C13.8058 13.6039 13.2422 13.9341 12.627 14.1904C11.3922 14.7049 9.75583 15 8 15C6.24417 15 4.60784 14.7049 3.37305 14.1904C2.75783 13.9341 2.19417 13.6039 1.76953 13.1855C1.34141 12.7638 1 12.1935 1 11.5V3.5C1 2.80651 1.34141 2.23623 1.76953 1.81445C2.19417 1.39614 2.75783 1.06591 3.37305 0.80957C4.60784 0.295095 6.24417 0 8 0ZM13 10.0205C12.8781 10.0799 12.754 10.1375 12.627 10.1904C11.3922 10.7049 9.75583 11 8 11C6.24417 11 4.60784 10.7049 3.37305 10.1904C3.24599 10.1375 3.12188 10.0799 3 10.0205V11.5C3 11.5053 3.0003 11.5243 3.01953 11.5635C3.04059 11.6062 3.08481 11.674 3.17285 11.7607C3.35541 11.9406 3.6712 12.1487 4.1416 12.3447C5.07837 12.735 6.44218 13 8 13C9.55782 13 10.9216 12.735 11.8584 12.3447C12.3288 12.1487 12.6446 11.9406 12.8271 11.7607C12.9152 11.674 12.9594 11.6062 12.9805 11.5635C12.9997 11.5243 13 11.5053 13 11.5V10.0205ZM12.627 6.19043C11.3922 6.7049 9.75583 7 8 7C6.24417 7 4.60784 6.7049 3.37305 6.19043C3.24601 6.1375 3.12183 6.07989 3 6.02051V7.5C3 7.50529 3.0003 7.52432 3.01953 7.56348C3.04059 7.60623 3.08481 7.67397 3.17285 7.76074C3.35541 7.94058 3.6712 8.14869 4.1416 8.34473C5.07837 8.73504 6.44218 9 8 9C9.55782 9 10.9216 8.73504 11.8584 8.34473C12.3288 8.14869 12.6446 7.94058 12.8271 7.76074C12.9152 7.67397 12.9594 7.60623 12.9805 7.56348C12.9997 7.52432 13 7.50529 13 7.5V6.02051C12.8782 6.07989 12.754 6.1375 12.627 6.19043ZM8 2C6.44218 2 5.07837 2.26496 4.1416 2.65527C3.6712 2.85131 3.35541 3.05942 3.17285 3.23926C3.08481 3.32603 3.04059 3.39377 3.01953 3.43652C3.0003 3.47568 3 3.49471 3 3.5C3 3.50529 3.0003 3.52432 3.01953 3.56348C3.04059 3.60623 3.08481 3.67397 3.17285 3.76074C3.35541 3.94058 3.6712 4.14869 4.1416 4.34473C5.07837 4.73504 6.44218 5 8 5C9.55782 5 10.9216 4.73504 11.8584 4.34473C12.3288 4.14869 12.6446 3.94058 12.8271 3.76074C12.9152 3.67397 12.9594 3.60623 12.9805 3.56348C12.9997 3.52432 13 3.50529 13 3.5C13 3.49471 12.9997 3.47568 12.9805 3.43652C12.9594 3.39377 12.9152 3.32603 12.8271 3.23926C12.6446 3.05942 12.3288 2.85131 11.8584 2.65527C10.9216 2.26496 9.55782 2 8 2Z" fill="currentColor"/>
</svg>
