<svg width="16" height="16" viewBox="0 0 16 16" fill="none" xmlns="http://www.w3.org/2000/svg">
<path fill-rule="evenodd" clip-rule="evenodd" d="M6.67116 2C6.44173 2 6.24174 2.15615 6.18609 2.37873L5.78078 4H10.2192L9.81391 2.37873C9.75826 2.15615 9.55827 2 9.32884 2H6.67116ZM12.2808 4L11.7542 1.89366C11.476 0.780743 10.476 0 9.32884 0H6.67116C5.524 0 4.52404 0.780743 4.24581 1.89366L3.71922 4H1C0.447715 4 0 4.44772 0 5C0 5.55228 0.447715 6 1 6H2.09501L2.82486 13.2985C2.97822 14.8321 4.26872 16 5.80998 16H10.19C11.7313 16 13.0218 14.8321 13.1751 13.2985L13.905 6H15C15.5523 6 16 5.55228 16 5C16 4.44772 15.5523 4 15 4H12.2808ZM11.895 6H4.10499L4.81494 13.0995C4.86606 13.6107 5.29622 14 5.80998 14H10.19C10.7038 14 11.1339 13.6107 11.1851 13.0995L11.895 6Z" fill="currentColor"/>
</svg>
