<svg width="24" height="24" viewBox="0 0 24 24" fill="none" xmlns="http://www.w3.org/2000/svg">
<path fill-rule="evenodd" clip-rule="evenodd" d="M10.5616 3C10.1027 3 9.7027 3.3123 9.59141 3.75746L9.28078 5H14.7192L14.4086 3.75746C14.2973 3.3123 13.8973 3 13.4384 3H10.5616ZM16.7808 5L16.3489 3.27239C16.015 1.93689 14.8151 1 13.4384 1H10.5616C9.18495 1 7.985 1.93689 7.65113 3.27239L7.21922 5H4.51282C4.50507 4.99991 4.49731 4.99991 4.48952 5H2C1.44772 5 1 5.44772 1 6C1 6.55228 1.44772 7 2 7H3.58937L4.83437 20.28C4.97889 21.8216 6.2729 23 7.82127 23H16.1787C17.7271 23 19.0211 21.8216 19.1656 20.28L20.4106 7H22C22.5523 7 23 6.55228 23 6C23 5.44772 22.5523 5 22 5H19.5105C19.5027 4.99991 19.4949 4.99991 19.4872 5H16.7808ZM18.4019 7H5.59813L6.82564 20.0933C6.87381 20.6072 7.30515 21 7.82127 21H16.1787C16.6949 21 17.1262 20.6072 17.1744 20.0933L18.4019 7ZM10 11C10.5523 11 11 11.4477 11 12V16C11 16.5523 10.5523 17 10 17C9.44772 17 9 16.5523 9 16V12C9 11.4477 9.44772 11 10 11ZM14 11C14.5523 11 15 11.4477 15 12V16C15 16.5523 14.5523 17 14 17C13.4477 17 13 16.5523 13 16V12C13 11.4477 13.4477 11 14 11Z" fill="currentColor"/>
</svg>
