<svg width="20" height="20" viewBox="0 0 20 20" fill="none" xmlns="http://www.w3.org/2000/svg">
<path fill-rule="evenodd" clip-rule="evenodd" d="M8.56155 3C8.10268 3 7.7027 3.3123 7.59141 3.75746L7.28078 5H12.7192L12.4086 3.75746C12.2973 3.3123 11.8973 3 11.4384 3H8.56155ZM14.7808 5L14.3489 3.27239C14.015 1.93689 12.8151 1 11.4384 1H8.56155C7.18495 1 5.985 1.93689 5.65113 3.27239L5.21922 5H2C1.44772 5 1 5.44772 1 6C1 6.55228 1.44772 7 2 7H3.57987L4.35063 16.2491C4.4802 17.804 5.78 19 7.34027 19H12.6597C14.22 19 15.5198 17.804 15.6494 16.2491L16.4201 7H18C18.5523 7 19 6.55228 19 6C19 5.44772 18.5523 5 18 5H14.7808ZM14.4132 7H5.5868L6.34372 16.083C6.38691 16.6013 6.82018 17 7.34027 17H12.6597C13.1798 17 13.6131 16.6013 13.6563 16.083L14.4132 7Z" fill="currentColor"/>
</svg>
