<svg width="16" height="16" viewBox="0 0 16 16" fill="none" xmlns="http://www.w3.org/2000/svg">
<path d="M7.99995 0C8.55223 0 8.99995 0.447714 8.99995 0.999998V2.15848C10.3393 2.41655 11.6486 3.14938 12.3829 4.53065C12.6421 5.0183 12.457 5.62379 11.9693 5.88304C11.4817 6.14229 10.8762 5.95713 10.6169 5.46947C10.0692 4.43922 8.78201 3.93832 7.4648 4.06836C6.8252 4.1315 6.28294 4.33987 5.9259 4.61595C5.58655 4.87835 5.43598 5.17609 5.43598 5.5125C5.43598 5.85076 5.51305 6.04128 5.59228 6.15976C5.67525 6.28385 5.81321 6.40692 6.05372 6.5234C6.58627 6.78132 7.35051 6.8918 8.34696 7.02145L8.43537 7.03293C9.31451 7.14697 10.3966 7.28734 11.253 7.7011C11.7215 7.92742 12.1747 8.25717 12.5056 8.75112C12.8404 9.25079 12.9999 9.84358 12.9999 10.5086C12.9999 11.7168 12.3616 12.6148 11.4934 13.176C10.7743 13.6408 9.88922 13.8885 8.99995 13.9709V15C8.99995 15.5523 8.55223 16 7.99995 16C7.44767 16 6.99995 15.5523 6.99995 15V13.9546C6.99995 13.9341 7.00057 13.9137 7.00179 13.8935C6.47316 13.8045 5.95422 13.6607 5.47022 13.461C4.51747 13.0679 3.61125 12.4187 3.11089 11.4481C2.85781 10.9572 3.05059 10.3541 3.54148 10.1011C4.03236 9.84799 4.63546 10.0408 4.88854 10.5317C5.10152 10.9448 5.552 11.3312 6.23303 11.6121C6.90576 11.8897 7.71784 12.0261 8.50062 11.9993C9.29262 11.9722 9.96586 11.7819 10.4076 11.4964C10.8165 11.2321 10.9999 10.9161 10.9999 10.5086C10.9999 10.1715 10.923 9.98208 10.8441 9.86437C10.7614 9.74095 10.6237 9.61821 10.383 9.50194C9.85015 9.2445 9.08573 9.13443 8.08891 9.00473L8.00379 8.99368C7.12371 8.87949 6.03978 8.73886 5.18196 8.32341C4.71336 8.09645 4.26038 7.76598 3.9297 7.27144C3.59528 6.77129 3.43598 6.17807 3.43598 5.5125C3.43598 4.4464 3.96794 3.60176 4.7025 3.03377C5.35005 2.53307 6.1658 2.23169 6.99995 2.11071V0.999998C6.99995 0.447714 7.44767 0 7.99995 0Z" fill="currentColor"/>
</svg>
