<svg width="20" height="20" viewBox="0 0 20 20" fill="none" xmlns="http://www.w3.org/2000/svg">
<path fill-rule="evenodd" clip-rule="evenodd" d="M10 1C10.5523 1 11 1.44772 11 2V11.5858L14.2929 8.29289C14.6834 7.90237 15.3166 7.90237 15.7071 8.29289C16.0976 8.68342 16.0976 9.31658 15.7071 9.70711L10.7071 14.7071C10.3166 15.0976 9.68342 15.0976 9.29289 14.7071L4.29289 9.70711C3.90237 9.31658 3.90237 8.68342 4.29289 8.29289C4.68342 7.90237 5.31658 7.90237 5.70711 8.29289L9 11.5858V2C9 1.44772 9.44772 1 10 1ZM2 18C2 17.4477 2.44772 17 3 17H17C17.5523 17 18 17.4477 18 18C18 18.5523 17.5523 19 17 19H3C2.44772 19 2 18.5523 2 18Z" fill="currentColor"/>
</svg>
