<svg width="24" height="24" viewBox="0 0 24 24" fill="none" xmlns="http://www.w3.org/2000/svg">
<path fill-rule="evenodd" clip-rule="evenodd" d="M12 1C12.5523 1 13 1.44772 13 2V15.5858L18.2929 10.2929C18.6834 9.90237 19.3166 9.90237 19.7071 10.2929C20.0976 10.6834 20.0976 11.3166 19.7071 11.7071L12.7071 18.7071C12.3166 19.0976 11.6834 19.0976 11.2929 18.7071L4.29289 11.7071C3.90237 11.3166 3.90237 10.6834 4.29289 10.2929C4.68342 9.90237 5.31658 9.90237 5.70711 10.2929L11 15.5858V2C11 1.44772 11.4477 1 12 1ZM1 22C1 21.4477 1.44772 21 2 21H22C22.5523 21 23 21.4477 23 22C23 22.5523 22.5523 23 22 23H2C1.44772 23 1 22.5523 1 22Z" fill="currentColor"/>
</svg>
