<svg width="16" height="16" viewBox="0 0 16 16" fill="none" xmlns="http://www.w3.org/2000/svg">
<path fill-rule="evenodd" clip-rule="evenodd" d="M8 1C8.55228 1 9 1.44772 9 2V7.58579L11.2929 5.29289C11.6834 4.90237 12.3166 4.90237 12.7071 5.29289C13.0976 5.68342 13.0976 6.31658 12.7071 6.70711L8.70711 10.7071C8.31658 11.0976 7.68342 11.0976 7.29289 10.7071L3.29289 6.70711C2.90237 6.31658 2.90237 5.68342 3.29289 5.29289C3.68342 4.90237 4.31658 4.90237 4.70711 5.29289L7 7.58579V2C7 1.44772 7.44772 1 8 1ZM1 14C1 13.4477 1.44772 13 2 13H14C14.5523 13 15 13.4477 15 14C15 14.5523 14.5523 15 14 15H2C1.44772 15 1 14.5523 1 14Z" fill="currentColor"/>
</svg>
