<svg width="24" height="24" viewBox="0 0 24 24" fill="none" xmlns="http://www.w3.org/2000/svg">
<path d="M7.5 6C8.88071 6 10 4.88071 10 3.5C10 2.11929 8.88071 1 7.5 1C6.11929 1 5 2.11929 5 3.5C5 4.88071 6.11929 6 7.5 6Z" fill="currentColor"/>
<path d="M16.5 6C17.8807 6 19 4.88071 19 3.5C19 2.11929 17.8807 1 16.5 1C15.1193 1 14 2.11929 14 3.5C14 4.88071 15.1193 6 16.5 6Z" fill="currentColor"/>
<path d="M10 12C10 13.3807 8.88071 14.5 7.5 14.5C6.11929 14.5 5 13.3807 5 12C5 10.6193 6.11929 9.5 7.5 9.5C8.88071 9.5 10 10.6193 10 12Z" fill="currentColor"/>
<path d="M16.5 14.5C17.8807 14.5 19 13.3807 19 12C19 10.6193 17.8807 9.5 16.5 9.5C15.1193 9.5 14 10.6193 14 12C14 13.3807 15.1193 14.5 16.5 14.5Z" fill="currentColor"/>
<path d="M10 20.5C10 21.8807 8.88071 23 7.5 23C6.11929 23 5 21.8807 5 20.5C5 19.1193 6.11929 18 7.5 18C8.88071 18 10 19.1193 10 20.5Z" fill="currentColor"/>
<path d="M16.5 23C17.8807 23 19 21.8807 19 20.5C19 19.1193 17.8807 18 16.5 18C15.1193 18 14 19.1193 14 20.5C14 21.8807 15.1193 23 16.5 23Z" fill="currentColor"/>
</svg>
