<svg width="24" height="24" viewBox="0 0 24 24" fill="none" xmlns="http://www.w3.org/2000/svg">
<path d="M15 7C15 6.44772 14.5523 6 14 6C13.4477 6 13 6.44772 13 7V9H11C10.4477 9 10 9.44771 10 10C10 10.5523 10.4477 11 11 11H13V13C13 13.5523 13.4477 14 14 14C14.5523 14 15 13.5523 15 13V11H17C17.5523 11 18 10.5523 18 10C18 9.44771 17.5523 9 17 9H15V7Z" fill="currentColor"/>
<path fill-rule="evenodd" clip-rule="evenodd" d="M5 4C5 2.34315 6.34315 1 8 1H20C21.6569 1 23 2.34315 23 4V16C23 17.6569 21.6569 19 20 19H19V20C19 21.6569 17.6569 23 16 23H4C2.34315 23 1 21.6569 1 20V8C1 6.34314 2.34315 5 4 5H5V4ZM5 7H4C3.44771 7 3 7.44772 3 8V20C3 20.5523 3.44772 21 4 21H16C16.5523 21 17 20.5523 17 20V19H8C6.34315 19 5 17.6569 5 16V7ZM8 3C7.44772 3 7 3.44772 7 4V16C7 16.5523 7.44772 17 8 17H20C20.5523 17 21 16.5523 21 16V4C21 3.44772 20.5523 3 20 3H8Z" fill="currentColor"/>
</svg>
