<svg width="20" height="20" viewBox="0 0 20 20" fill="none" xmlns="http://www.w3.org/2000/svg">
<path d="M12 4C12.5523 4 13 4.44772 13 5V7H15C15.5523 7 16 7.44772 16 8C16 8.55229 15.5523 9 15 9H13V11C13 11.5523 12.5523 12 12 12C11.4477 12 11 11.5523 11 11V9H9C8.44771 9 8 8.55229 8 8C8 7.44772 8.44771 7 9 7H11V5C11 4.44772 11.4477 4 12 4Z" fill="currentColor"/>
<path fill-rule="evenodd" clip-rule="evenodd" d="M7 0C5.34315 0 4 1.34315 4 3V4H3C1.34315 4 0 5.34315 0 7V17C0 18.6569 1.34315 20 3 20H13C14.6569 20 16 18.6569 16 17V16H17C18.6569 16 20 14.6569 20 13V3C20 1.34315 18.6569 0 17 0H7ZM14 16H7C5.34315 16 4 14.6569 4 13V6H3C2.44772 6 2 6.44772 2 7V17C2 17.5523 2.44772 18 3 18H13C13.5523 18 14 17.5523 14 17V16ZM6 13C6 13.5523 6.44772 14 7 14H17C17.5523 14 18 13.5523 18 13V3C18 2.44772 17.5523 2 17 2H7C6.44772 2 6 2.44772 6 3V13Z" fill="currentColor"/>
</svg>
