<svg width="16" height="16" viewBox="0 0 16 16" fill="none" xmlns="http://www.w3.org/2000/svg">
<path d="M10 3.5C10.4142 3.5 10.75 3.83579 10.75 4.25V5.25H11.75C12.1642 5.25 12.5 5.58579 12.5 6C12.5 6.41421 12.1642 6.75 11.75 6.75H10.75V7.75C10.75 8.16421 10.4142 8.5 10 8.5C9.58579 8.5 9.25 8.16421 9.25 7.75V6.75H8.25C7.83579 6.75 7.5 6.41421 7.5 6C7.5 5.58579 7.83579 5.25 8.25 5.25H9.25V4.25C9.25 3.83579 9.58579 3.5 10 3.5Z" fill="currentColor"/>
<path fill-rule="evenodd" clip-rule="evenodd" d="M6.5 0C5.11929 0 4 1.11929 4 2.5V4H2.5C1.11929 4 0 5.11929 0 6.5V13.5C0 14.8807 1.11929 16 2.5 16H9.5C10.8807 16 12 14.8807 12 13.5V12H13.5C14.8807 12 16 10.8807 16 9.5V2.5C16 1.11929 14.8807 0 13.5 0H6.5ZM10 13.5V12H6.5C5.11929 12 4 10.8807 4 9.5V6H2.5C2.22386 6 2 6.22386 2 6.5V13.5C2 13.7761 2.22386 14 2.5 14H9.5C9.77614 14 10 13.7761 10 13.5ZM6 2.5C6 2.22386 6.22386 2 6.5 2H13.5C13.7761 2 14 2.22386 14 2.5V9.5C14 9.77614 13.7761 10 13.5 10H6.5C6.22386 10 6 9.77614 6 9.5V2.5Z" fill="currentColor"/>
</svg>
