<svg width="16" height="16" viewBox="0 0 16 16" fill="none" xmlns="http://www.w3.org/2000/svg">
<path d="M15.086 0.914063C13.8658 -0.301758 11.8921 -0.301758 10.672 0.914063L1.29308 10.293C1.16505 10.4213 1.07425 10.582 1.03038 10.7578L0.0303761 14.7578C-0.0443252 15.0565 0.0227341 15.3729 0.212159 15.6155C0.401584 15.8582 0.692245 16 1.00008 16C1.08176 16.0001 1.16312 15.9899 1.24227 15.9697L5.24227 14.9697C5.41813 14.9258 5.57878 14.835 5.70708 14.707L15.086 5.32809C16.3028 4.10833 16.3028 2.13384 15.086 0.914063ZM13.671 2.32812C14.1083 2.76618 14.1088 3.47546 13.672 3.91406L13.0001 4.58587L11.4142 3.00006L12.086 2.32812C12.5238 1.89062 13.2333 1.89061 13.671 2.32812ZM4.48836 13.0967L2.37408 13.626L2.90338 11.5117L10.0002 4.41421L11.5859 5.9999L4.48836 13.0967Z" fill="currentColor"/>
</svg>
