<svg width="20" height="20" viewBox="0 0 20 20" fill="none" xmlns="http://www.w3.org/2000/svg">
<path fill-rule="evenodd" clip-rule="evenodd" d="M16.5688 3.43153C15.9927 2.85551 15.0588 2.85551 14.4828 3.43153L13.4143 4.50002L15.5001 6.58588L16.5688 5.51749C16.5687 5.51752 16.5688 5.51746 16.5688 5.51749C17.1447 4.94146 17.1448 4.00752 16.5688 3.43153ZM14.0858 8L12 5.91421L3.91304 14.0012L3.3171 16.6829L5.99882 16.087L14.0858 8ZM17.9829 6.9318C19.34 5.57473 19.34 3.37439 17.983 2.01732C16.6259 0.66025 14.4257 0.660244 13.0686 2.0173C13.0686 2.0173 13.0686 2.01729 13.0686 2.0173L11.2929 3.79287L2.29291 12.7929C2.15843 12.9274 2.06509 13.0974 2.02383 13.2831L1.02383 17.7831C0.949663 18.1168 1.05115 18.4653 1.29291 18.7071C1.53467 18.9489 1.88319 19.0504 2.21695 18.9762L6.71695 17.9762C6.9026 17.9349 7.07265 17.8416 7.20713 17.7071L17.9829 6.9318Z" fill="currentColor"/>
</svg>
