<svg width="24" height="24" viewBox="0 0 24 24" fill="none" xmlns="http://www.w3.org/2000/svg">
<path fill-rule="evenodd" clip-rule="evenodd" d="M16.8765 4.53477C16.8764 4.53496 16.8767 4.53458 16.8765 4.53477L15.9135 5.49985L18.5002 8.08648L19.4646 7.12278C20.179 6.40811 20.1791 5.24936 19.4646 4.53477C18.7501 3.82031 17.5912 3.82069 16.8765 4.53477ZM17.0858 9.50045L14.5 6.91479L4.92122 16.4931L4.27477 19.7254L7.50701 19.0789L17.0858 9.50045ZM15.4623 3.12056C16.958 1.62485 19.3831 1.62485 20.8788 3.12056C22.3745 4.61627 22.3745 7.04129 20.8788 8.537L19.2071 10.2076L8.70711 20.7072C8.56751 20.8468 8.38972 20.942 8.19613 20.9807L3.19613 21.9807C2.86827 22.0463 2.52933 21.9437 2.29291 21.7072C2.05649 21.4708 1.95386 21.1319 2.01944 20.804L3.01944 15.804C3.05816 15.6104 3.15332 15.4326 3.29293 15.293L15.4623 3.12056Z" fill="currentColor"/>
</svg>
