<svg width="24" height="24" viewBox="0 0 24 24" fill="none" xmlns="http://www.w3.org/2000/svg">
<path d="M21.0002 2C21.5525 2 22.0002 2.44772 22.0002 3V8C22.0002 8.55228 21.5525 9 21.0002 9C20.4479 9 20.0002 8.55228 20.0002 8V5.41404L11.7071 13.7071C11.3166 14.0976 10.6834 14.0976 10.2929 13.7071C9.90237 13.3166 9.90237 12.6834 10.2929 12.2929L18.5858 4H16.0002C15.4479 4 15.0002 3.55228 15.0002 3C15.0002 2.44772 15.4479 2 16.0002 2H21.0002C21.0003 2 21.0001 2 21.0002 2Z" fill="currentColor"/>
<path d="M5 6C4.44772 6 4 6.44772 4 7V19C4 19.5523 4.44772 20 5 20H17C17.5523 20 18 19.5523 18 19V13C18 12.4477 18.4477 12 19 12C19.5523 12 20 12.4477 20 13V19C20 20.6569 18.6569 22 17 22H5C3.34315 22 2 20.6569 2 19V7C2 5.34315 3.34315 4 5 4H12C12.5523 4 13 4.44772 13 5C13 5.55228 12.5523 6 12 6H5Z" fill="currentColor"/>
</svg>
