<svg width="16" height="16" viewBox="0 0 16 16" fill="none" xmlns="http://www.w3.org/2000/svg">
<path fill-rule="evenodd" clip-rule="evenodd" d="M3.5 5C3.22386 5 3 5.22386 3 5.5V12.5C3 12.7761 3.22386 13 3.5 13H10.5C10.7761 13 11 12.7761 11 12.5V10C11 9.44772 11.4477 9 12 9C12.5523 9 13 9.44772 13 10V12.5C13 13.8807 11.8807 15 10.5 15H3.5C2.11929 15 1 13.8807 1 12.5V5.5C1 4.11929 2.11929 3 3.5 3H6C6.55228 3 7 3.44772 7 4C7 4.55228 6.55228 5 6 5H3.5Z" fill="currentColor"/>
<path fill-rule="evenodd" clip-rule="evenodd" d="M9 2C9 1.44772 9.44772 1 10 1H14C14.5523 1 15 1.44772 15 2V6C15 6.55228 14.5523 7 14 7C13.4477 7 13 6.55228 13 6V4.41421L8.70711 8.70711C8.31658 9.09763 7.68342 9.09763 7.29289 8.70711C6.90237 8.31658 6.90237 7.68342 7.29289 7.29289L11.5858 3H10C9.44772 3 9 2.55228 9 2Z" fill="currentColor"/>
</svg>
