<svg width="17" height="17" viewBox="0 0 17 17" fill="none" xmlns="http://www.w3.org/2000/svg">
<path d="M9.94181 11.565H6.93711L5.89911 12.603H8.46367C8.74531 12.603 9.01564 12.491 9.21484 12.2919L9.94181 11.565ZM13.851 3.14874C13.2313 2.529 12.6635 2.26683 12.1873 2.17162C11.7033 2.07491 11.237 2.13618 10.8074 2.27946C10.3735 2.42422 9.99878 2.64611 9.72761 2.83991C9.5941 2.93532 9.49052 3.01982 9.42391 3.07758C9.39088 3.10623 9.36703 3.12799 9.35349 3.14067C9.34678 3.14694 9.34255 3.15165 9.34102 3.15314L4.70779 7.7849C4.50866 7.98411 4.39676 8.25439 4.39676 8.53607V11.1006L10.2528 5.24455C10.6677 4.82968 11.3403 4.82968 11.7552 5.24455C12.1701 5.65941 12.1701 6.33203 11.7552 6.7469L9.06153 9.44056H12.0662L13.8473 7.65945L13.8591 7.64625C13.8718 7.63266 13.8942 7.60963 13.9229 7.57656C13.9806 7.50993 14.0652 7.40641 14.1606 7.27286C14.3543 7.00166 14.5763 6.62702 14.721 6.19305C14.8643 5.76335 14.925 5.29667 14.8281 4.81247C14.7328 4.33611 14.4707 3.76848 13.851 3.14874ZM10.7172 13.7943C10.1195 14.3918 9.3088 14.7274 8.46367 14.7274H3.77469L1.8135 16.6886C1.39863 17.1035 0.726009 17.1035 0.311147 16.6886C-0.103716 16.2737 -0.103716 15.6011 0.311147 15.1862L2.27234 13.225V8.53607C2.27234 7.69067 2.6083 6.87951 3.20618 6.28181L7.86288 1.62658C7.87288 1.61689 7.88653 1.60484 7.90249 1.5899C7.93436 1.56007 7.9783 1.52002 8.03306 1.47253C8.14244 1.3777 8.2974 1.25089 8.49228 1.11162C8.87823 0.835786 9.44292 0.494624 10.1355 0.26361C10.8324 0.031218 11.6799 -0.0964333 12.6039 0.0882874C13.536 0.274625 14.4707 0.763766 15.3534 1.64639C16.236 2.52901 16.725 3.46373 16.9115 4.39581C17.0963 5.32004 16.9692 6.16796 16.7369 6.865C16.506 7.55763 16.1646 8.12217 15.8889 8.5082C15.7496 8.70312 15.6227 8.85804 15.5279 8.96741C15.4804 9.02226 15.4404 9.06609 15.4106 9.09798C15.3957 9.11392 15.3836 9.1276 15.3739 9.1376L15.3541 9.1574C15.3541 9.1574 15.3486 9.15347 14.6022 8.40696L15.3541 9.1574L10.7172 13.7943Z" fill="currentColor"/>
</svg>
