<svg width="24" height="24" viewBox="0 0 24 24" fill="none" xmlns="http://www.w3.org/2000/svg">
<path d="M7.92719 6.98493C7.40942 6.98493 6.98969 7.40466 6.98969 7.92243C6.98969 8.4402 7.40942 8.85993 7.92719 8.85993L16.0721 8.85991C16.5899 8.85991 17.0096 8.44018 17.0096 7.92241C17.0096 7.40465 16.5899 6.98491 16.0721 6.98491L7.92719 6.98493Z" fill="currentColor"/>
<path d="M7.92719 11.0625C7.40942 11.0625 6.98969 11.4823 6.98969 12C6.98969 12.5178 7.40942 12.9375 7.92719 12.9375L16.0721 12.9375C16.5899 12.9375 17.0096 12.5178 17.0096 12C17.0096 11.4822 16.5899 11.0625 16.0721 11.0625L7.92719 11.0625Z" fill="currentColor"/>
<path d="M7.92719 15.1401C7.40942 15.1401 6.98969 15.5599 6.98969 16.0776C6.98969 16.5954 7.40942 17.0151 7.92719 17.0151L12.7111 17.0151C13.2288 17.0151 13.6486 16.5954 13.6486 16.0776C13.6486 15.5599 13.2288 15.1401 12.7111 15.1401L7.92719 15.1401Z" fill="currentColor"/>
<path fill-rule="evenodd" clip-rule="evenodd" d="M2.97363 5C2.97363 2.79086 4.76449 1 6.97363 1H17.0262C19.2354 1 21.0262 2.79086 21.0262 5V19C21.0262 21.2091 19.2354 23 17.0262 23H6.97363C4.76449 23 2.97363 21.2091 2.97363 19V5ZM6.97363 3H17.0262C18.1308 3 19.0262 3.89543 19.0262 5V19C19.0262 20.1046 18.1308 21 17.0262 21H6.97363C5.86906 21 4.97363 20.1046 4.97363 19V5C4.97363 3.89543 5.86906 3 6.97363 3Z" fill="currentColor"/>
</svg>
