<svg width="16" height="16" viewBox="0 0 16 16" fill="none" xmlns="http://www.w3.org/2000/svg">
<path d="M10 8C10.5523 8 11 8.44771 11 9C11 9.55229 10.5523 10 10 10H6C5.44772 10 5 9.55229 5 9C5 8.44771 5.44772 8 6 8H10Z" fill="currentColor"/>
<path d="M10 5C10.5523 5 11 5.44772 11 6C11 6.55228 10.5523 7 10 7H6C5.44772 7 5 6.55228 5 6C5 5.44772 5.44772 5 6 5H10Z" fill="currentColor"/>
<path fill-rule="evenodd" clip-rule="evenodd" d="M12 0C13.6569 1.28853e-07 15 1.34315 15 3V12C15 13.6569 13.6569 15 12 15H4C2.34315 15 1 13.6569 1 12V3C1 1.34315 2.34315 3.22127e-08 4 0H12ZM4 2C3.44772 2 3 2.44772 3 3V12C3 12.5523 3.44772 13 4 13H12C12.5523 13 13 12.5523 13 12V3C13 2.44772 12.5523 2 12 2H4Z" fill="currentColor"/>
</svg>
