<svg width="20" height="20" viewBox="0 0 20 20" fill="none" xmlns="http://www.w3.org/2000/svg">
<path d="M14.1543 1.00391C15.7394 1.08421 17 2.39489 17 4V16C17 17.6569 15.6569 19 14 19H6C4.34315 19 3 17.6569 3 16V4C3 2.34315 4.34315 1 6 1H14L14.1543 1.00391ZM6 3C5.44772 3 5 3.44772 5 4V16C5 16.5523 5.44772 17 6 17H14C14.5523 17 15 16.5523 15 16V4C15 3.48232 14.6067 3.05621 14.1025 3.00488L14 3H6ZM10 12C10.5523 12 11 12.4477 11 13C11 13.5523 10.5523 14 10 14H7C6.44772 14 6 13.5523 6 13C6 12.4477 6.44772 12 7 12H10ZM13 9C13.5523 9 14 9.44771 14 10C14 10.5523 13.5523 11 13 11H7C6.44772 11 6 10.5523 6 10C6 9.44771 6.44772 9 7 9H13ZM13 6C13.5523 6 14 6.44772 14 7C14 7.55228 13.5523 8 13 8H7C6.44772 8 6 7.55228 6 7C6 6.44772 6.44772 6 7 6H13Z" fill="currentColor"/>
</svg>
