<svg width="16" height="16" viewBox="0 0 16 16" fill="none" xmlns="http://www.w3.org/2000/svg">
<path d="M2 16C1.45 16 1 15.55 1 15V2C1 1.73 1.11 1.48 1.29 1.29C1.42 1.16 2.66 0 5.5 0C7.04 0 8.08 0.48 8.99 0.91C9.71 1.24 10.27 1.5 11 1.5C12.69 1.5 13.56 1.1 13.56 1.1C13.87 0.95 14.24 0.98 14.53 1.16C14.82 1.34 15 1.66 15 2V10.5C15 10.88 14.79 11.22 14.45 11.39C14.33 11.45 13.18 12 11 12C9.83 12 8.98 11.6 8.15 11.22C7.35 10.85 6.6 10.5 5.5 10.5C4.19 10.5 3.39 10.8 3 11.02V15C3 15.55 2.55 16 2 16ZM5.5 8.5C7.04 8.5 8.08 8.98 8.99 9.41C9.71 9.74 10.27 10 11 10C11.91 10 12.57 9.89 13 9.78V3.33C12.47 3.43 11.81 3.5 11 3.5C9.83 3.5 8.98 3.1 8.15 2.72C7.35 2.35 6.6 2 5.5 2C4.19 2 3.39 2.3 3 2.52V8.86C3.63 8.66 4.46 8.5 5.5 8.5Z" fill="currentColor"/>
</svg>
