<svg width="16" height="16" viewBox="0 0 16 16" fill="none" xmlns="http://www.w3.org/2000/svg">
<path fill-rule="evenodd" clip-rule="evenodd" d="M7.11719 1.00586C8.0485 1.06409 8.90422 1.5536 9.42578 2.33594L10.5352 4H13.5C14.8807 4 16 5.11929 16 6.5V12.5C16 13.8807 14.8807 15 13.5 15H2.5C1.11929 15 2.41596e-08 13.8807 0 12.5V3.5C0 2.11929 1.11929 1 2.5 1H6.92969L7.11719 1.00586ZM2 12.5C2 12.7761 2.22386 13 2.5 13H13.5C13.7761 13 14 12.7761 14 12.5V6.5C14 6.22386 13.7761 6 13.5 6H2V12.5ZM2.5 3C2.22386 3 2 3.22386 2 3.5V4H8.13184L7.76172 3.44531C7.59943 3.20187 7.34002 3.04359 7.05371 3.00781L6.92969 3H2.5Z" fill="currentColor"/>
</svg>
