<svg width="20" height="20" viewBox="0 0 20 20" fill="none" xmlns="http://www.w3.org/2000/svg">
<g clip-path="url(#clip0_1725_1888)">
<path fill-rule="evenodd" clip-rule="evenodd" d="M8.11719 2.00586C9.0485 2.06409 9.90422 2.5536 10.4258 3.33594L11.5352 5H16C17.6569 5 19 6.34315 19 8V15C19 16.6569 17.6569 18 16 18H4C2.34315 18 1 16.6569 1 15V4.5C1 3.11929 2.11929 2 3.5 2H7.92969L8.11719 2.00586ZM3 15C3 15.5523 3.44772 16 4 16H16C16.5523 16 17 15.5523 17 15V8C17 7.44772 16.5523 7 16 7H3V15ZM3.5 4C3.22386 4 3 4.22386 3 4.5V5H9.13184L8.76172 4.44531C8.59943 4.20187 8.34002 4.04359 8.05371 4.00781L7.92969 4H3.5Z" fill="currentColor"/>
</g>
<defs>
<clipPath id="clip0_1725_1888">
<rect width="20" height="20" fill="currentColor"/>
</clipPath>
</defs>
</svg>
