<svg width="24" height="24" viewBox="0 0 24 24" fill="none" xmlns="http://www.w3.org/2000/svg">
<path fill-rule="evenodd" clip-rule="evenodd" d="M10 2C10.9443 2 11.8338 2.44478 12.4004 3.2002L14.5 6H20C21.6569 6 23 7.34315 23 9V18C23 19.6569 21.6569 21 20 21H4C2.34315 21 1 19.6569 1 18V5C1 3.34315 2.34315 2 4 2H10ZM3 18C3 18.5523 3.44772 19 4 19H20C20.5523 19 21 18.5523 21 18V9C21 8.44772 20.5523 8 20 8H3V18ZM4 4C3.44772 4 3 4.44772 3 5V6H12L10.7998 4.40039C10.611 4.14858 10.3148 4 10 4H4Z" fill="currentColor"/>
</svg>
