<svg width="16" height="16" viewBox="0 0 16 16" fill="none" xmlns="http://www.w3.org/2000/svg">
<path d="M10 0C11.6569 0 13 1.34315 13 3C13 3.351 12.9369 3.68694 12.8262 4H14.25L14.4287 4.00879C15.3113 4.0983 16 4.84383 16 5.75V8.25C16 8.95347 15.584 9.55791 14.9854 9.83594C14.9942 9.88938 15 9.94405 15 10V13.5C15 14.8807 13.8807 16 12.5 16H3.5C2.11929 16 1 14.8807 1 13.5V10C1 9.94411 1.00486 9.88933 1.01367 9.83594C0.415501 9.55774 0 8.95316 0 8.25V5.75C1.208e-08 4.7835 0.783502 4 1.75 4H3.17383C3.06306 3.68694 3 3.351 3 3C3 1.34315 4.34315 0 6 0C6.76924 0 7.46902 0.291562 8 0.767578C8.53098 0.291562 9.23076 0 10 0ZM3 13.5C3 13.7761 3.22386 14 3.5 14H7V10H3V13.5ZM9 14H12.5C12.7761 14 13 13.7761 13 13.5V10H9V14ZM2 8H7V6H2V8ZM9 8H14V6H9V8ZM6 2C5.44772 2 5 2.44772 5 3C5 3.55228 5.44772 4 6 4H7V3C7 2.44772 6.55228 2 6 2ZM10 2C9.44771 2 9 2.44772 9 3V4H10C10.5523 4 11 3.55228 11 3C11 2.44772 10.5523 2 10 2Z" fill="currentColor"/>
</svg>
