<svg width="16" height="16" viewBox="0 0 16 16" fill="none" xmlns="http://www.w3.org/2000/svg">
<path fill-rule="evenodd" clip-rule="evenodd" d="M8.3916 0.00976562C8.39479 0.00991984 8.39818 0.00960694 8.40137 0.00976562C8.41147 0.0102648 8.42155 0.0111821 8.43164 0.0117188C8.46099 0.013302 8.49026 0.0156797 8.51953 0.0175781C8.5871 0.0220795 8.65453 0.0269608 8.72168 0.0332031C12.8018 0.398057 16 3.825 16 8C16 12.1843 12.7874 15.6158 8.69434 15.9678C8.68263 15.9688 8.6709 15.9697 8.65918 15.9707C8.61728 15.9741 8.57529 15.9767 8.5332 15.9795C8.49905 15.9818 8.46494 15.9854 8.43066 15.9873C8.28804 15.9949 8.1445 16 8 16C7.85517 16 7.7113 15.9949 7.56836 15.9873C7.53573 15.9855 7.50322 15.9827 7.4707 15.9805C7.42892 15.9777 7.38731 15.9741 7.3457 15.9707C7.33204 15.9696 7.31833 15.969 7.30469 15.9678C3.21208 15.6153 0 12.1839 0 8C0 3.88446 3.10774 0.494997 7.10449 0.0498047C7.11094 0.0490879 7.11855 0.0485534 7.125 0.0478516C7.17531 0.0423784 7.22578 0.037739 7.27637 0.0332031C7.33476 0.0277583 7.39339 0.0236676 7.45215 0.0195312C7.49083 0.0168924 7.52953 0.0138072 7.56836 0.0117188C7.58105 0.0110441 7.59374 0.0103811 7.60645 0.00976562C7.73652 0.00348005 7.86837 0 8 0L8.3916 0.00976562ZM6.53125 9C6.6583 11.0414 7.16102 12.4465 7.63477 13.3467C7.75944 13.5836 7.88375 13.7866 7.99902 13.959C8.11449 13.7864 8.24034 13.584 8.36523 13.3467C8.83896 12.4465 9.34169 11.0413 9.46875 9H6.53125ZM2.08398 9C2.41577 10.9759 3.71305 12.6236 5.47461 13.4424C5.01467 12.3313 4.63125 10.8695 4.52832 9H2.08398ZM11.4717 9C11.3686 10.8696 10.9844 12.3312 10.5244 13.4424C12.2864 12.6237 13.5841 10.9761 13.916 9H11.4717ZM5.47461 2.55664C3.71285 3.37537 2.4157 5.02375 2.08398 7H4.52832C4.6312 5.13004 5.01452 3.66785 5.47461 2.55664ZM8 2.03906C7.88438 2.21185 7.75988 2.4156 7.63477 2.65332C7.16102 3.55347 6.6583 4.95861 6.53125 7H9.46875C9.34169 4.95866 8.83896 3.55347 8.36523 2.65332C8.24013 2.41562 8.11564 2.21186 8 2.03906ZM10.5244 2.55664C10.9846 3.66791 11.3686 5.12994 11.4717 7H13.916C13.5842 5.02353 12.2866 3.37524 10.5244 2.55664Z" fill="currentColor"/>
</svg>
