<svg width="16" height="16" viewBox="0 0 16 16" fill="none" xmlns="http://www.w3.org/2000/svg">
<path d="M2 1C2.55228 1 3 1.44772 3 2V12.5C3 12.7761 3.22386 13 3.5 13H14C14.5523 13 15 13.4477 15 14C15 14.5523 14.5523 15 14 15H3.5C2.11929 15 1 13.8807 1 12.5V2C1 1.44772 1.44772 1 2 1Z" fill="currentColor"/>
<path d="M12.2471 4.3418C12.6107 3.92628 13.2426 3.88371 13.6582 4.24707C14.0737 4.61065 14.1163 5.24256 13.7529 5.6582L10.2529 9.6582C10.0707 9.86649 9.80982 9.98981 9.5332 9.99902C9.25661 10.0082 8.98866 9.90272 8.79297 9.70703L7.56738 8.48145L5.76855 10.6406C5.41498 11.0648 4.78362 11.1221 4.35938 10.7686C3.93519 10.415 3.87791 9.78362 4.23145 9.35938L6.73145 6.35938C6.91131 6.14359 7.17445 6.01371 7.45508 6.00098C7.73561 5.98836 8.00846 6.09439 8.20703 6.29297L9.45117 7.53711L12.2471 4.3418Z" fill="currentColor"/>
</svg>
