<svg width="16" height="16" viewBox="0 0 16 16" fill="none" xmlns="http://www.w3.org/2000/svg">
<path d="M14 5C14 3.34315 12.6569 2 11 2C10.1045 2 9.30152 2.39159 8.75 3.0166C8.74246 3.02515 8.73439 3.03371 8.72656 3.04199L7.06543 4.7998C6.91558 4.95852 6.90137 5.20225 7.03223 5.37695C7.16798 5.55796 7.41781 5.60932 7.61426 5.49707L10.0039 4.13184L10.1475 4.06445C10.4912 3.9348 10.8843 4.00298 11.165 4.25293L13.6104 6.43066C13.8686 5.88176 14 5.40032 14 5ZM2 5C2 5.62005 2.31185 6.43821 2.93359 7.39941C3.53979 8.33654 4.36461 9.29504 5.21582 10.168C6.06301 11.0368 6.91387 11.7987 7.55469 12.3447C7.71826 12.4841 7.87024 12.6062 8.00195 12.7148C8.14964 12.593 8.31918 12.4508 8.50586 12.291L6.82129 10.7344C6.41579 10.3596 6.39095 9.72692 6.76562 9.32129C7.11695 8.94114 7.69452 8.89574 8.09961 9.2002L8.17871 9.26562L9.99609 10.9443C10.185 10.7639 10.3768 10.5762 10.5693 10.3828L9.32324 9.23633L9.25098 9.16309C8.91466 8.78411 8.91345 8.20429 9.26367 7.82324C9.63749 7.41692 10.2703 7.39009 10.6768 7.76367L11.9248 8.91211C12.138 8.6601 12.344 8.40706 12.5361 8.15234L10.3711 6.22461L8.60645 7.2334C7.53428 7.84606 6.17357 7.56499 5.43262 6.57715C4.71712 5.62315 4.79312 4.29236 5.6123 3.42578L6.55078 2.43262C6.09795 2.15806 5.56778 2 5 2C3.34315 2 2 3.34315 2 5ZM16 5C16 6.22261 15.4165 7.46316 14.7061 8.54785C14.1407 9.41109 13.4426 10.2543 12.7344 11.0195C12.0338 11.7765 11.3102 12.4707 10.6719 13.0498C10.0934 13.5746 9.58094 14.0085 9.21191 14.3115C9.02746 14.463 8.87817 14.582 8.77441 14.6641C8.72252 14.7051 8.68142 14.7369 8.65332 14.7588C8.63939 14.7696 8.62874 14.7783 8.62109 14.7842C8.61727 14.7871 8.6135 14.7893 8.61133 14.791L8.6084 14.7939C8.24976 15.0684 7.75125 15.0684 7.39258 14.7939L7.38965 14.792C7.38965 14.792 7.3866 14.7905 7.38477 14.7891C7.38072 14.786 7.37545 14.781 7.36816 14.7754C7.35349 14.764 7.33183 14.7478 7.30469 14.7266C7.25044 14.6841 7.17214 14.6223 7.07324 14.543C6.87523 14.3841 6.59431 14.1539 6.25781 13.8672C5.5862 13.2949 4.68686 12.4902 3.78418 11.5645C2.8854 10.6427 1.9602 9.57818 1.25391 8.48633C0.563246 7.41863 0 6.20125 0 5C0 2.23858 2.23858 0 5 0C6.12612 0 7.165 0.373482 8 1.00098C8.835 0.373482 9.87388 0 11 0C13.7614 0 16 2.23858 16 5Z" fill="currentColor"/>
</svg>
