<svg width="16" height="16" viewBox="0 0 16 16" fill="none" xmlns="http://www.w3.org/2000/svg">
<path fill-rule="evenodd" clip-rule="evenodd" d="M4.03882 5.77504C4.7287 5.68886 5.4294 5.74716 6.09533 5.9469L8.37156 6.63045C9.7145 7.03351 10.6908 8.15437 10.9368 9.49747L13.1193 9.31584C14.6698 9.18664 15.9998 10.4103 16 11.9661C16 13.1107 15.2676 14.1273 14.1818 14.4894L10.4212 15.7422C9.51924 16.0428 8.54985 16.0802 7.62746 15.8496L4.7624 15.1329L4.75752 15.1319L0.757766 14.1319C0.312792 14.0206 3.48517e-05 13.621 0 13.1623V7.16265L0.00390601 7.0689C0.0471413 6.60667 0.407045 6.22925 0.875923 6.17052L4.03882 5.77504ZM5.52017 7.8628C5.12081 7.74309 4.70056 7.70764 4.28685 7.75929L1.99988 8.04443V12.3821L5.23699 13.1906L5.24284 13.1926L8.11279 13.9093C8.66627 14.0477 9.2482 14.0253 9.78944 13.8449L13.549 12.592C13.8183 12.5022 14.0001 12.25 14.0001 11.9661C14 11.5803 13.6698 11.2769 13.2853 11.3089L9.33244 11.638C9.08484 11.6586 8.83538 11.6485 8.5903 11.6077L5.83656 11.1487L5.73598 11.1273C5.24725 10.9938 4.92943 10.5089 5.01434 9.99841C5.10521 9.45391 5.62013 9.08564 6.16466 9.1762L8.91449 9.63418C8.74518 9.12084 8.33484 8.70691 7.7964 8.54538L5.52017 7.8628Z" fill="currentColor"/>
<path fill-rule="evenodd" clip-rule="evenodd" d="M13.2892 0C13.645 0 13.9975 0.0699097 14.3263 0.206042C14.6551 0.342287 14.9545 0.542184 15.2061 0.793897L15.3848 0.99115C15.5536 1.19678 15.6918 1.42707 15.794 1.67373C15.9301 2.00246 16 2.35496 16 2.71077C16 3.06661 15.9301 3.41906 15.794 3.74782C15.6577 4.07668 15.4579 4.37599 15.2061 4.62765L14.876 4.95673L12.4572 7.37553C12.2697 7.56303 12.0154 7.66846 11.7503 7.66848C11.4851 7.66848 11.2308 7.56305 11.0433 7.37553L8.62447 4.95673L8.29442 4.62765C7.78612 4.11935 7.50054 3.42961 7.50052 2.71077C7.50052 1.9919 7.7861 1.30222 8.29442 0.793897C8.80273 0.28563 9.49246 5.35572e-09 10.2113 0C10.7651 5.40037e-05 11.2998 0.1721 11.7493 0.482392C11.9066 0.373617 12.0746 0.279616 12.2522 0.206042C12.5809 0.0698763 12.9334 1.30177e-05 13.2892 0ZM13.2892 1.99988C13.1961 1.99989 13.1038 2.01799 13.0178 2.05359C12.9317 2.08926 12.8532 2.14199 12.7873 2.20787L12.1038 2.89143C11.9085 3.08663 11.592 3.08663 11.3968 2.89143L10.7132 2.20787C10.58 2.07486 10.3995 1.99995 10.2113 1.99988C10.0229 1.99988 9.84165 2.07466 9.70839 2.20787C9.57512 2.34114 9.5004 2.5223 9.5004 2.71077C9.50042 2.89906 9.57534 3.07948 9.70839 3.21269L11.7503 5.25456L13.7921 3.21269C13.858 3.14679 13.9107 3.06833 13.9464 2.98224C13.982 2.89619 14.0001 2.80389 14.0001 2.71077C14.0001 2.61748 13.9821 2.52452 13.9464 2.43833C13.9107 2.35224 13.858 2.27376 13.7921 2.20787C13.7262 2.14196 13.6478 2.0893 13.5617 2.05359C13.4755 2.01787 13.3825 1.99988 13.2892 1.99988Z" fill="currentColor"/>
</svg>
