<svg width="16" height="16" viewBox="0 0 16 16" fill="none" xmlns="http://www.w3.org/2000/svg">
<path fill-rule="evenodd" clip-rule="evenodd" d="M11.0137 1.83596C11.1044 1.29131 11.6194 0.923117 12.1641 1.0137C12.7087 1.10448 13.0769 1.61944 12.9863 2.16409L12.6807 4.00003H15C15.5523 4.00003 16 4.44775 16 5.00003C16 5.55231 15.5523 6.00003 15 6.00003H12.3467L11.6807 10H14C14.5523 10 15 10.4478 15 11C15 11.5523 14.5523 12 14 12H11.3467L10.9863 14.1641C10.8955 14.7087 10.3806 15.077 9.83594 14.9864C9.29129 14.8956 8.92308 14.3806 9.01367 13.836L9.31934 12H5.34668L4.98633 14.1641C4.89555 14.7087 4.38059 15.077 3.83594 14.9864C3.29129 14.8956 2.92308 14.3806 3.01367 13.836L3.31934 12H1C0.447715 12 0 11.5523 0 11C1.4431e-05 10.4478 0.447724 10 1 10H3.65332L4.31934 6.00003H2C1.44772 6.00003 1 5.55231 1 5.00003C1.00001 4.44775 1.44772 4.00003 2 4.00003H4.65332L5.01367 1.83596C5.10445 1.29131 5.61942 0.923117 6.16406 1.0137C6.70873 1.10448 7.07693 1.61944 6.98633 2.16409L6.68066 4.00003H10.6533L11.0137 1.83596ZM6.34668 6.00003L5.68066 10H9.65332L10.3193 6.00003H6.34668Z" fill="currentColor"/>
</svg>
