<svg width="16" height="16" viewBox="0 0 16 16" fill="none" xmlns="http://www.w3.org/2000/svg">
<path d="M8 1C9.85652 1 11.6374 1.73705 12.9502 3.0498C14.2629 4.36256 15 6.14348 15 8V12.666C15 13.2848 14.7539 13.8788 14.3164 14.3164C13.8789 14.7538 13.2856 14.9999 12.667 15H12C11.3812 15 10.7872 14.754 10.3496 14.3164C9.91223 13.8789 9.66699 13.2847 9.66699 12.666V10.666C9.66717 10.0476 9.91238 9.454 10.3496 9.0166C10.7872 8.57912 11.3812 8.33301 12 8.33301H13V8C13 6.67392 12.4728 5.40253 11.5352 4.46484C10.5975 3.52716 9.32608 3 8 3C6.67392 3 5.40253 3.52716 4.46484 4.46484C3.52716 5.40253 3 6.67392 3 8V8.33301H4C4.61876 8.33301 5.21282 8.57912 5.65039 9.0166C6.08762 9.454 6.33283 10.0476 6.33301 10.666V12.666C6.33301 13.2847 6.08777 13.8789 5.65039 14.3164C5.21281 14.754 4.61884 15 4 15H3.33301C2.71436 14.9999 2.12109 14.7538 1.68359 14.3164C1.3007 13.9334 1.06466 13.4307 1.01172 12.8965L1 12.666V8C1 6.14348 1.73705 4.36256 3.0498 3.0498C4.36256 1.73705 6.14348 1 8 1ZM3 12.666L3.00684 12.7314C3.01961 12.7955 3.05083 12.8554 3.09766 12.9023C3.16008 12.9647 3.2448 12.9999 3.33301 13H4C4.08825 13 4.17287 12.9647 4.23535 12.9023C4.29776 12.8398 4.33301 12.7543 4.33301 12.666V10.666C4.33283 10.5778 4.29771 10.493 4.23535 10.4307C4.17287 10.3684 4.08825 10.333 4 10.333H3V12.666ZM12 10.333C11.9118 10.333 11.8271 10.3684 11.7646 10.4307C11.7023 10.493 11.6672 10.5778 11.667 10.666V12.666C11.667 12.7543 11.7022 12.8398 11.7646 12.9023C11.8271 12.9647 11.9117 13 12 13H12.667C12.7552 12.9999 12.8399 12.9647 12.9023 12.9023C12.9648 12.8398 13 12.7543 13 12.666V10.333H12Z" fill="currentColor"/>
</svg>
