<svg width="24" height="24" viewBox="0 0 24 24" fill="none" xmlns="http://www.w3.org/2000/svg">
<path d="M12.1571 6.3714C10.2715 6.3714 9.01521 7.4213 8.71404 9.20763C8.63345 9.68562 9.037 10.082 9.52174 10.082C9.99775 10.082 10.3595 9.69146 10.507 9.23888C10.7529 8.48426 11.3337 8.16557 12.1571 8.16557C13.0295 8.16557 13.5646 8.65364 13.5646 9.42992C13.5646 10.0354 13.2855 10.3614 12.413 10.7651C11.18 11.324 10.8077 12.1158 10.8077 13.3383C10.8077 13.7693 11.1571 14.1186 11.588 14.1186H11.7718C12.1902 14.1186 12.5293 13.7794 12.5293 13.361C12.5293 12.7665 12.6922 12.4729 13.4832 12.1158C14.5534 11.619 15.3561 10.7185 15.3561 9.30571C15.3561 7.33398 13.9136 6.3714 12.1571 6.3714Z" fill="currentColor"/>
<path d="M11.7158 17.6845C12.3339 17.6845 12.8218 17.1966 12.8218 16.5893C12.8218 15.9713 12.3339 15.4833 11.7158 15.4833C11.1086 15.4833 10.6207 15.9713 10.6207 16.5893C10.6207 17.1966 11.1086 17.6845 11.7158 17.6845Z" fill="currentColor"/>
<path fill-rule="evenodd" clip-rule="evenodd" d="M0 12C0 5.37287 5.37287 0 12 0C18.625 0.00626087 23.9937 5.37496 24 12C24 18.6271 18.6271 24 12 24C5.37287 24 0 18.6271 0 12ZM2 12C2 17.5232 6.47684 22 12 22C17.52 21.9937 21.9937 17.52 22 12C22 6.47684 17.5232 2 12 2C6.47684 2 2 6.47684 2 12Z" fill="currentColor"/>
</svg>
