<svg width="16" height="16" viewBox="0 0 16 16" fill="none" xmlns="http://www.w3.org/2000/svg">
<path fill-rule="evenodd" clip-rule="evenodd" d="M8.00024 5.61621C7.46809 5.61621 7.07732 5.81379 6.87175 6.17955C6.60117 6.66101 5.99151 6.83195 5.51006 6.56137C5.0286 6.29078 4.85766 5.68113 5.12824 5.19967C5.78919 4.02365 6.97875 3.61621 8.00024 3.61621C8.95272 3.61621 9.71742 3.90175 10.2512 4.40995C10.7723 4.90609 10.998 5.54594 10.998 6.1084C10.998 6.43305 10.9486 6.76827 10.7924 7.09383C10.6358 7.42022 10.4086 7.6604 10.1731 7.85023C9.94883 8.03107 9.68554 8.19045 9.42623 8.33986C9.28234 8.42277 9.16373 8.48933 9.04063 8.55842C9.02309 8.56826 9.00546 8.57816 8.98765 8.58816C8.91141 9.0648 8.49836 9.429 8.00024 9.429C7.44796 9.429 7.00024 8.98129 7.00024 8.429L7 8.00206C6.99928 7.64471 7.1893 7.31409 7.49846 7.13487C7.69151 7.02295 7.91874 6.89484 8.11044 6.78677C8.23934 6.71409 8.35218 6.65047 8.42776 6.60693C8.6797 6.46177 8.82483 6.36823 8.91786 6.29323C8.96032 6.259 8.9805 6.23752 8.98876 6.22758C8.99211 6.21324 8.99801 6.17753 8.99801 6.1084C8.99801 6.06254 8.97487 5.9563 8.87207 5.85842C8.78195 5.77261 8.54776 5.61621 8.00024 5.61621Z" fill="currentColor"/>
<path fill-rule="evenodd" clip-rule="evenodd" d="M8 14C11.3137 14 14 11.3137 14 8C14 4.68629 11.3137 2 8 2C4.68629 2 2 4.68629 2 8C2 11.3137 4.68629 14 8 14ZM8 16C12.4183 16 16 12.4183 16 8C16 3.58172 12.4183 0 8 0C3.58172 0 0 3.58172 0 8C0 12.4183 3.58172 16 8 16Z" fill="currentColor"/>
<path d="M9 11C9 11.5523 8.55229 12 8 12C7.44772 12 7 11.5523 7 11C7 10.4477 7.44772 10 8 10C8.55229 10 9 10.4477 9 11Z" fill="currentColor"/>
<path fill-rule="evenodd" clip-rule="evenodd" d="M8 12C8.55229 12 9 11.5523 9 11C9 10.4477 8.55229 10 8 10C7.44772 10 7 10.4477 7 11C7 11.5523 7.44772 12 8 12Z" fill="currentColor"/>
</svg>
