<svg width="20" height="20" viewBox="0 0 20 20" fill="none" xmlns="http://www.w3.org/2000/svg">
<path d="M18 10C18 5.58172 14.4183 2 10 2C5.58172 2 2 5.58172 2 10C2 14.4183 5.58172 18 10 18V20C4.47715 20 0 15.5228 0 10C0 4.47715 4.47715 0 10 0C15.5228 0 20 4.47715 20 10C20 15.5228 15.5228 20 10 20V18C14.4183 18 18 14.4183 18 10Z" fill="currentColor"/>
<circle cx="10" cy="14" r="1" fill="currentColor"/>
<path d="M7 7.5C7 6.44772 7.94772 5 10 5C11.054 5 11.8698 5.37788 12.3906 6.05078C12.8759 6.67784 13 7.42684 13 8C13 8.8235 12.471 10.0589 11 10.71V11C11 11.5523 10.5523 12 10 12C9.44772 12 9 11.5523 9 11V10C9 9.54113 9.31265 9.14157 9.75781 9.03027C10.3556 8.88078 10.6566 8.6233 10.8096 8.42578C10.8905 8.3213 10.9393 8.22053 10.9678 8.13867C10.982 8.09772 10.9905 8.06307 10.9951 8.03711C10.9999 8.01035 11 7.9976 11 8C11 7.67454 10.9241 7.42365 10.8096 7.27539C10.7304 7.17312 10.5459 7 10 7C9.48954 7 9.25208 7.16198 9.14453 7.26953C9.00694 7.40712 9 7.53255 9 7.5C9 8.05228 8.55228 8.5 8 8.5C7.44772 8.5 7 8.05228 7 7.5Z" fill="currentColor"/>
</svg>
