<svg width="24" height="24" viewBox="0 0 24 24" fill="none" xmlns="http://www.w3.org/2000/svg">
<path fill-rule="evenodd" clip-rule="evenodd" d="M3.66436 3.2526C3.25158 2.88568 2.61951 2.92286 2.25259 3.33565C1.88567 3.74843 1.92285 4.3805 2.33564 4.74742L20.3356 20.7474C20.7484 21.1143 21.3805 21.0772 21.7474 20.6644C22.1143 20.2516 22.0771 19.6195 21.6644 19.2526L19.2231 17.0826C21.0109 15.5359 22.2673 13.701 22.8942 12.4472C23.035 12.1657 23.035 11.8343 22.8942 11.5528C22.2575 10.2793 20.9783 8.4191 19.1625 6.86523C17.3424 5.30775 14.912 4.00001 11.9998 4.00001C9.86148 4.00001 7.98068 4.70616 6.41404 5.69676L3.66436 3.2526ZM14.7788 13.1321L17.7133 15.7406C19.1681 14.534 20.2488 13.0806 20.8654 12C20.2719 10.9601 19.2448 9.56802 17.8621 8.38479C16.2738 7.0256 14.2876 6.00001 11.9998 6.00001C10.5264 6.00001 9.17992 6.42452 7.9821 7.09059L10.5498 9.37303C10.9796 9.13532 11.4739 9.00001 11.9998 9.00001C13.6566 9.00001 14.9998 10.3432 14.9998 12C14.9998 12.4006 14.9213 12.7828 14.7788 13.1321Z" fill="currentColor"/>
<path d="M4.05575 8.98666C4.49028 9.32754 4.5662 9.95614 4.22532 10.3907C4.16576 10.4666 4.10766 10.5422 4.05104 10.6173C3.67693 11.1139 3.37023 11.587 3.13443 12.0001C3.72792 13.0401 4.75501 14.4321 6.13768 15.6153C7.72599 16.9745 9.71222 18.0001 12 18.0001C12.3009 18.0001 12.5957 17.9825 12.8845 17.9489C13.0852 17.9255 13.2831 17.8945 13.4782 17.8562C14.0202 17.75 14.5456 18.1033 14.6518 18.6453C14.758 19.1873 14.4048 19.7127 13.8628 19.8189C13.6178 19.8669 13.3686 19.906 13.1155 19.9355C12.7513 19.9778 12.3793 20.0001 12 20.0001C9.08778 20.0001 6.65735 18.6924 4.83732 17.1349C3.02152 15.581 1.74234 13.7209 1.10557 12.4473C0.964809 12.1658 0.964809 11.8344 1.10557 11.5529C1.4148 10.9344 1.86937 10.1893 2.45368 9.41383C2.51806 9.32838 2.58409 9.24247 2.65174 9.15623C2.99262 8.7217 3.62122 8.64578 4.05575 8.98666Z" fill="currentColor"/>
</svg>
