<svg width="16" height="16" viewBox="0 0 16 16" fill="none" xmlns="http://www.w3.org/2000/svg">
<path fill-rule="evenodd" clip-rule="evenodd" d="M15.759 14.6506C15.3996 15.0699 14.7683 15.1185 14.349 14.759L0.349221 2.75923C-0.0700972 2.39982 -0.118659 1.76853 0.240758 1.34921C0.600174 0.929887 1.23146 0.881326 1.65078 1.24074L3.93722 3.20054C5.05506 2.49573 6.41288 1.99999 8.00004 1.99999C10.2267 1.99999 11.9954 2.97384 13.2896 4.1289C14.5756 5.27674 15.438 6.63995 15.8943 7.55269C16.0351 7.83421 16.0351 8.16558 15.8943 8.4471C15.4847 9.2665 14.7427 10.4587 13.654 11.5293L15.6506 13.2406C16.0699 13.6 16.1185 14.2313 15.759 14.6506ZM7.33506 6.11298L5.55092 4.58372C6.2754 4.22252 7.09016 3.99996 8.00004 3.99996C9.60325 3.99996 10.9178 4.69275 11.9578 5.62099C12.8147 6.38582 13.4541 7.28521 13.8649 7.9999C13.4807 8.66843 12.8987 9.49457 12.1287 10.2218L9.96602 8.36809C9.98825 8.24872 9.99987 8.12561 9.99987 7.99979C9.99987 6.89524 9.10445 5.99982 7.9999 5.99982C7.76682 5.99982 7.54306 6.03969 7.33506 6.11298Z" fill="currentColor"/>
<path d="M2.4139 7.54372C2.71423 7.08024 2.58198 6.46105 2.11851 6.16072C1.65504 5.86038 1.03585 5.99263 0.735513 6.4561C0.477466 6.85432 0.267512 7.22884 0.105589 7.55269C-0.0351722 7.83421 -0.0351722 8.16558 0.105589 8.4471C0.561957 9.35984 1.42432 10.7231 2.71038 11.8709C4.00452 13.026 5.77325 13.9998 7.9999 13.9998C8.19521 13.9998 8.38754 13.9923 8.57684 13.9777C9.12748 13.9352 9.53941 13.4543 9.49691 12.9037C9.45441 12.3531 8.97357 11.9411 8.42293 11.9836C8.28476 11.9943 8.14377 11.9998 7.9999 11.9998C6.39669 11.9998 5.08213 11.307 4.04212 10.3788C3.1852 9.61398 2.54583 8.7146 2.13508 7.99991C2.21821 7.85527 2.31115 7.70227 2.4139 7.54372Z" fill="currentColor"/>
</svg>
