<svg width="24" height="24" viewBox="0 0 24 24" fill="none" xmlns="http://www.w3.org/2000/svg">
<path fill-rule="evenodd" clip-rule="evenodd" d="M9.60477 1.79644C10.3164 1.26928 11.145 1 12 1C12.85 1 13.6931 1.26646 14.4024 1.80181C14.4256 1.81932 14.448 1.83784 14.4696 1.8573L13.8 2.6C14.4696 1.8573 14.4696 1.85726 14.4696 1.8573L15.3734 2.67206C15.9279 3.17187 16.6876 3.85651 17.5081 4.59582C19.1496 6.07474 21.0338 7.77154 22.0079 8.64576L22.0109 8.64846C22.6369 9.21479 23 10.0126 23 10.87V21C23 22.1023 22.1023 23 21 23H16C14.8977 23 14 22.1023 14 21V15.5C14 15.2223 13.7777 15 13.5 15H10.5C10.2223 15 10 15.2223 10 15.5V21C10 22.1023 9.10229 23 8 23H3C1.89772 23 1 22.1023 1 21V10.87C1 10.018 1.35915 9.20841 1.98909 8.63846L1.99136 8.63641L9.53136 1.85641C9.55487 1.83527 9.57937 1.81526 9.60477 1.79644ZM13.1661 3.37487C12.8221 3.12569 12.4172 3 12 3C11.5884 3 11.1895 3.12263 10.8301 3.37824L3.33091 10.1215C3.33061 10.1218 3.3303 10.1221 3.33 10.1224C3.1205 10.3124 3 10.5825 3 10.87V21H8V15.5C8 14.1177 9.11772 13 10.5 13H13.5C14.8823 13 16 14.1177 16 15.5V21H21V10.87C21 10.5879 20.8836 10.3262 20.6703 10.1326C19.6939 9.25638 17.8094 7.55936 16.1694 6.08168C15.3487 5.34224 14.5889 4.6575 14.0344 4.15763L13.1661 3.37487Z" fill="currentColor"/>
</svg>
