<svg width="20" height="20" viewBox="0 0 20 20" fill="none" xmlns="http://www.w3.org/2000/svg">
<path fill-rule="evenodd" clip-rule="evenodd" d="M7.54606 0.840648C8.26729 0.279689 9.13495 0 10 0C10.865 0 11.7327 0.279689 12.4539 0.840648C12.4733 0.855673 12.492 0.871402 12.5102 0.887804L18.8752 6.63524C19.593 7.20774 20 8.06915 20 8.98V18C20 19.1023 19.1023 20 18 20H14C12.8977 20 12 19.1023 12 18V13.5C12 13.2223 11.7777 13 11.5 13H8.5C8.22228 13 8 13.2223 8 13.5V18C8 19.1023 7.10228 20 6 20H2C0.897715 20 0 19.1023 0 18V8.98C0 8.06915 0.407044 7.20774 1.12481 6.63524L7.48982 0.887804C7.50798 0.871402 7.52674 0.855673 7.54606 0.840648ZM8.80017 2.3993L2.44018 8.1422C2.42167 8.15891 2.40254 8.17493 2.38282 8.19022C2.14071 8.37799 2 8.66446 2 8.98V18H6V13.5C6 12.1177 7.11772 11 8.5 11H11.5C12.8823 11 14 12.1177 14 13.5V18H18V8.98C18 8.66446 17.8593 8.37799 17.6172 8.19022C17.5975 8.17493 17.5783 8.15891 17.5598 8.1422L11.1998 2.39929C10.8463 2.13359 10.4244 2 10 2C9.57559 2 9.15368 2.13359 8.80017 2.3993Z" fill="currentColor"/>
</svg>
