<svg width="24" height="24" viewBox="0 0 24 24" fill="none" xmlns="http://www.w3.org/2000/svg">
<path d="M12 3C14.2091 3 16 4.79086 16 7C16 8.09438 15.5598 9.0854 14.8477 9.80762L17.0518 13.1133C17.3557 13.0394 17.6733 13 18 13C20.2091 13 22 14.7909 22 17C22 19.2091 20.2091 21 18 21C15.7909 21 14 19.2091 14 17C14 15.8042 14.5247 14.731 15.3564 13.998L13.2285 10.8057C12.8413 10.9306 12.4288 11 12 11C11.5709 11 11.158 10.9308 10.7705 10.8057L8.6416 13.998C9.47396 14.7311 10 15.8037 10 17C10 19.2091 8.20914 21 6 21C3.79086 21 2 19.2091 2 17C2 14.7909 3.79086 13 6 13C6.32673 13 6.64425 13.0394 6.94824 13.1133L9.15234 9.80762C8.44022 9.0854 8 8.09438 8 7C8 4.79086 9.79086 3 12 3ZM6 14.9004C4.8402 14.9004 3.90039 15.8402 3.90039 17C3.90039 18.1598 4.8402 19.0996 6 19.0996C7.1598 19.0996 8.09961 18.1598 8.09961 17C8.09961 15.8402 7.1598 14.9004 6 14.9004ZM18 14.9004C16.8402 14.9004 15.9004 15.8402 15.9004 17C15.9004 18.1598 16.8402 19.0996 18 19.0996C19.1598 19.0996 20.0996 18.1598 20.0996 17C20.0996 15.8402 19.1598 14.9004 18 14.9004ZM12 4.90039C10.8402 4.90039 9.90039 5.8402 9.90039 7C9.90039 8.1598 10.8402 9.09961 12 9.09961C13.1598 9.09961 14.0996 8.1598 14.0996 7C14.0996 5.8402 13.1598 4.90039 12 4.90039Z" fill="currentColor"/>
</svg>
