<svg width="24" height="24" viewBox="0 0 24 24" fill="none" xmlns="http://www.w3.org/2000/svg">
<path fill-rule="evenodd" clip-rule="evenodd" d="M11.88 4.87854C12.632 4.57775 13.4541 4.49727 14.2502 4.64653L21.352 5.97814C22.3076 6.15729 23 6.99172 23 7.96387V12.9892C23 13.8314 22.4776 14.5853 21.6891 14.881L17.9696 16.2757C17.6955 16.6668 17.3066 16.9891 16.816 17.1854L14.008 18.3085C13.4657 18.5255 12.8647 18.5442 12.3108 18.3624C11.596 19.2704 10.3356 19.7012 9.13458 19.2394L5.82076 17.9648C4.75889 17.5565 4.01301 16.6127 3.84298 15.5121L2.27005 14.883C1.50298 14.5761 1 13.8333 1 13.007V7.59358C1 6.47775 1.90457 5.57316 3.02041 5.57316H10.1435L11.88 4.87854ZM7.3684 7.36909H3.02041C2.89643 7.36909 2.79592 7.46955 2.79592 7.59358V13.007C2.79592 13.0989 2.85181 13.1815 2.93704 13.2155L4.15504 13.7027C4.65831 12.9671 5.62905 12.5997 6.55182 12.9545L11.7226 14.9433C12.4308 15.2156 12.898 15.8959 12.898 16.6547C12.898 16.6578 12.898 16.6611 12.898 16.6643C13.0439 16.7055 13.1996 16.6977 13.3411 16.641L16.149 15.5179C16.6579 15.3144 16.8072 14.6654 16.4386 14.2598L12.8676 10.3318L10.6893 11.1487C9.26164 11.6841 7.67483 10.9271 7.19274 9.48064C6.95118 8.7561 7.03492 7.998 7.3684 7.36909ZM18.3746 14.2059L21.0585 13.1994C21.146 13.1665 21.2041 13.0828 21.2041 12.9892V7.96387C21.2041 7.85589 21.1272 7.76318 21.021 7.74331L13.9191 6.41175C13.4584 6.32532 12.9823 6.3719 12.5471 6.54599L9.41261 7.79977C8.97306 7.97555 8.74677 8.46359 8.89639 8.91268C9.05668 9.39354 9.58412 9.64508 10.0587 9.46717L12.4509 8.57011C13.0103 8.36032 13.641 8.51275 14.0429 8.95477L17.7675 13.0517C18.0805 13.3961 18.2799 13.7938 18.3746 14.2059ZM5.90708 14.6308C5.76004 14.5742 5.60211 14.6828 5.602 14.8402V15.0314C5.602 15.5888 5.94524 16.0885 6.4655 16.2887L9.77931 17.5632C10.4169 17.8083 11.1021 17.3377 11.1021 16.6547C11.1021 16.6391 11.0925 16.625 11.0779 16.6194L5.90708 14.6308Z" fill="currentColor"/>
</svg>
