<svg width="24" height="24" viewBox="0 0 24 24" fill="none" xmlns="http://www.w3.org/2000/svg">
<path d="M22.5256 13.7497C22.5218 13.6933 22.5127 13.6373 22.4985 13.5825L20.286 7.6909C20.6887 7.43045 21.0198 7.07345 21.2493 6.65238C21.4788 6.23131 21.5993 5.75954 21.5999 5.28C21.5999 5.02539 21.4988 4.78121 21.3188 4.60118C21.1387 4.42114 20.8946 4.32 20.6399 4.32C20.3853 4.32 20.1412 4.42114 19.9611 4.60118C19.7811 4.78121 19.6799 5.02539 19.6799 5.28C19.6799 5.49393 19.6084 5.70172 19.4768 5.87039C19.3452 6.03906 19.161 6.15896 18.9535 6.21108C18.746 6.26319 18.5271 6.24453 18.3314 6.15806C18.1357 6.07159 17.9745 5.92226 17.8734 5.73376C17.627 5.29649 17.2668 4.93413 16.831 4.6852C16.3952 4.43627 15.9001 4.31007 15.3983 4.32H12.9599V3.36C12.9599 3.10539 12.8588 2.86121 12.6788 2.68118C12.4987 2.50114 12.2545 2.4 11.9999 2.4C11.7453 2.4 11.5012 2.50114 11.3211 2.68118C11.1411 2.86121 11.0399 3.10539 11.0399 3.36V4.32H8.60154C8.09976 4.31007 7.60466 4.43627 7.16886 4.6852C6.73306 4.93413 6.37285 5.29649 6.12651 5.73376C6.02535 5.92226 5.86415 6.07159 5.66847 6.15806C5.47279 6.24453 5.25384 6.26319 5.04635 6.21108C4.83886 6.15896 4.65472 6.03906 4.52312 5.87039C4.39153 5.70172 4.32002 5.49393 4.31994 5.28C4.31994 5.02539 4.2188 4.78121 4.03876 4.60118C3.85873 4.42114 3.61455 4.32 3.35994 4.32C3.10533 4.32 2.86115 4.42114 2.68112 4.60118C2.50108 4.78121 2.39994 5.02539 2.39994 5.28C2.40057 5.75954 2.52111 6.23131 2.75058 6.65238C2.98006 7.07345 3.31119 7.43045 3.71385 7.6909L1.50138 13.5825C1.48718 13.6373 1.47812 13.6933 1.47432 13.7497C1.45746 13.8053 1.44595 13.8623 1.43994 13.92C1.43994 13.9289 1.44252 13.9371 1.44258 13.946C1.44287 13.9587 1.44546 13.9703 1.44633 13.9829C1.46127 14.9898 1.87175 15.9504 2.58906 16.6571C3.30638 17.3639 4.27295 17.7601 5.27994 17.7601C6.28693 17.7601 7.2535 17.3639 7.97082 16.6571C8.68814 15.9504 9.09861 14.9898 9.11356 13.9829C9.11437 13.9703 9.11701 13.9587 9.1173 13.946C9.11736 13.9371 9.11994 13.9289 9.11994 13.92C9.11395 13.8623 9.10245 13.8053 9.0856 13.7497C9.0818 13.6933 9.07274 13.6373 9.05854 13.5825L6.84346 7.68404C7.25026 7.42442 7.58504 7.06641 7.81682 6.64313C7.90059 6.51283 8.01726 6.40695 8.15504 6.33617C8.29282 6.26539 8.44684 6.23222 8.60154 6.24H11.0399V19.68H8.15994C7.90533 19.68 7.66115 19.7811 7.48112 19.9612C7.30108 20.1412 7.19994 20.3854 7.19994 20.64C7.19994 20.8946 7.30108 21.1388 7.48112 21.3188C7.66115 21.4989 7.90533 21.6 8.15994 21.6H15.8399C16.0946 21.6 16.3387 21.4989 16.5188 21.3188C16.6988 21.1388 16.7999 20.8946 16.7999 20.64C16.7999 20.3854 16.6988 20.1412 16.5188 19.9612C16.3387 19.7811 16.0946 19.68 15.8399 19.68H12.9599V6.24H15.3983C15.553 6.23222 15.707 6.2654 15.8448 6.33618C15.9826 6.40696 16.0993 6.51284 16.183 6.64313C16.4148 7.06641 16.7496 7.42442 17.1564 7.68404L14.9414 13.5825C14.9272 13.6373 14.9181 13.6933 14.9143 13.7497C14.8975 13.8053 14.8859 13.8623 14.8799 13.92C14.8799 13.9289 14.8825 13.9371 14.8826 13.946C14.8829 13.9587 14.8855 13.9703 14.8863 13.9829C14.9013 14.9898 15.3117 15.9504 16.0291 16.6571C16.7464 17.3639 17.7129 17.7601 18.7199 17.7601C19.7269 17.7601 20.6935 17.3639 21.4108 16.6571C22.1281 15.9504 22.5386 14.9898 22.5536 13.9829C22.5544 13.9703 22.557 13.9587 22.5573 13.946C22.5574 13.9371 22.5599 13.9289 22.5599 13.92C22.5539 13.8623 22.5424 13.8053 22.5256 13.7497ZM5.27994 8.98131L6.77409 12.96H3.7858L5.27994 8.98131ZM6.9337 14.88C6.76427 15.1691 6.52294 15.4094 6.23315 15.5776C5.94337 15.7459 5.61499 15.8362 5.27994 15.84C4.94301 15.8399 4.61205 15.7511 4.32029 15.5826C4.02852 15.4141 3.78623 15.1718 3.61775 14.88H6.9337ZM18.7199 8.98131L20.2141 12.96H17.2258L18.7199 8.98131ZM18.7199 15.84C18.383 15.8399 18.052 15.7511 17.7603 15.5826C17.4685 15.4141 17.2262 15.1718 17.0578 14.88H20.3737C20.2043 15.1691 19.9629 15.4094 19.6732 15.5776C19.3834 15.7459 19.055 15.8362 18.7199 15.84Z" fill="currentColor"/>
</svg>
