<svg width="24" height="24" viewBox="0 0 24 24" fill="none" xmlns="http://www.w3.org/2000/svg">
<path fill-rule="evenodd" clip-rule="evenodd" d="M2 5C2 4.44772 2.44772 4 3 4L16 4C16.5523 4 17 4.44772 17 5V8H20C20.2652 8 20.5196 8.10536 20.7071 8.29289L23.7071 11.8787C23.8946 12.0662 24 12.3206 24 12.5858V17C24 17.5523 23.5523 18 23 18H20.8293C20.9398 18.3128 21 18.6494 21 19C21 20.6569 19.6569 22 18 22C16.3431 22 15 20.6569 15 19C15 18.6494 15.0602 18.3128 15.1707 18H10.8293C10.9398 18.3128 11 18.6494 11 19C11 20.6569 9.65685 22 8 22C6.34315 22 5 20.6569 5 19C5 18.6494 5.06015 18.3128 5.17071 18H3C2.44772 18 2 17.5523 2 17V5ZM15 16V6H4V16H15ZM17 16V10H19.5858L22 13V16H17ZM8 18C7.44772 18 7 18.4477 7 19C7 19.5523 7.44772 20 8 20C8.55228 20 9 19.5523 9 19C9 18.4477 8.55228 18 8 18ZM18 18C17.4477 18 17 18.4477 17 19C17 19.5523 17.4477 20 18 20C18.5523 20 19 19.5523 19 19C19 18.4477 18.5523 18 18 18Z" fill="currentColor"/>
</svg>
