<svg width="24" height="24" viewBox="0 0 24 24" fill="none" xmlns="http://www.w3.org/2000/svg">
<path d="M13.9199 8.15999H14.8799C15.1345 8.15999 15.3787 8.05885 15.5587 7.87882C15.7388 7.69878 15.8399 7.4546 15.8399 7.19999C15.8399 6.94539 15.7388 6.70121 15.5587 6.52117C15.3787 6.34114 15.1345 6.23999 14.8799 6.23999H13.9199C13.6653 6.23999 13.4211 6.34114 13.2411 6.52117C13.061 6.70121 12.9599 6.94539 12.9599 7.19999C12.9599 7.4546 13.061 7.69878 13.2411 7.87882C13.4211 8.05885 13.6653 8.15999 13.9199 8.15999ZM13.9199 12H14.8799C15.1345 12 15.3787 11.8989 15.5587 11.7188C15.7388 11.5388 15.8399 11.2946 15.8399 11.04C15.8399 10.7854 15.7388 10.5412 15.5587 10.3612C15.3787 10.1811 15.1345 10.08 14.8799 10.08H13.9199C13.6653 10.08 13.4211 10.1811 13.2411 10.3612C13.061 10.5412 12.9599 10.7854 12.9599 11.04C12.9599 11.2946 13.061 11.5388 13.2411 11.7188C13.4211 11.8989 13.6653 12 13.9199 12ZM9.1199 8.15999H10.0799C10.3345 8.15999 10.5787 8.05885 10.7587 7.87882C10.9388 7.69878 11.0399 7.4546 11.0399 7.19999C11.0399 6.94539 10.9388 6.70121 10.7587 6.52117C10.5787 6.34114 10.3345 6.23999 10.0799 6.23999H9.1199C8.86529 6.23999 8.62112 6.34114 8.44108 6.52117C8.26105 6.70121 8.1599 6.94539 8.1599 7.19999C8.1599 7.4546 8.26105 7.69878 8.44108 7.87882C8.62112 8.05885 8.86529 8.15999 9.1199 8.15999ZM9.1199 12H10.0799C10.3345 12 10.5787 11.8989 10.7587 11.7188C10.9388 11.5388 11.0399 11.2946 11.0399 11.04C11.0399 10.7854 10.9388 10.5412 10.7587 10.3612C10.5787 10.1811 10.3345 10.08 10.0799 10.08H9.1199C8.86529 10.08 8.62112 10.1811 8.44108 10.3612C8.26105 10.5412 8.1599 10.7854 8.1599 11.04C8.1599 11.2946 8.26105 11.5388 8.44108 11.7188C8.62112 11.8989 8.86529 12 9.1199 12ZM20.6399 19.68H19.6799V3.35999C19.6799 3.10539 19.5788 2.86121 19.3987 2.68117C19.2187 2.50114 18.9745 2.39999 18.7199 2.39999H5.2799C5.02529 2.39999 4.78112 2.50114 4.60108 2.68117C4.42105 2.86121 4.3199 3.10539 4.3199 3.35999V19.68H3.3599C3.10529 19.68 2.86111 19.7811 2.68108 19.9612C2.50104 20.1412 2.3999 20.3854 2.3999 20.64C2.3999 20.8946 2.50104 21.1388 2.68108 21.3188C2.86111 21.4989 3.10529 21.6 3.3599 21.6H20.6399C20.8945 21.6 21.1387 21.4989 21.3187 21.3188C21.4988 21.1388 21.5999 20.8946 21.5999 20.64C21.5999 20.3854 21.4988 20.1412 21.3187 19.9612C21.1387 19.7811 20.8945 19.68 20.6399 19.68ZM12.9599 19.68H11.0399V15.84H12.9599V19.68ZM17.7599 19.68H14.8799V14.88C14.8799 14.6254 14.7788 14.3812 14.5987 14.2012C14.4187 14.0211 14.1745 13.92 13.9199 13.92H10.0799C9.82529 13.92 9.58112 14.0211 9.40108 14.2012C9.22105 14.3812 9.1199 14.6254 9.1199 14.88V19.68H6.2399V4.31999H17.7599V19.68Z" fill="currentColor"/>
</svg>
