<svg width="24" height="24" viewBox="0 0 24 24" fill="none" xmlns="http://www.w3.org/2000/svg">
<path d="M16 7.5C16 8.32843 15.3284 9 14.5 9C13.6716 9 13 8.32843 13 7.5C13 6.67157 13.6716 6 14.5 6C15.3284 6 16 6.67157 16 7.5Z" fill="currentColor"/>
<path fill-rule="evenodd" clip-rule="evenodd" d="M5.45456 2C3.54667 2 2.00002 3.54665 2.00002 5.45455V17.9935C1.99999 17.9975 1.99999 18.0016 2.00002 18.0056V18.5455C2.00002 20.4533 3.54667 22 5.45456 22H18.5455C20.4534 22 22 20.4533 22 18.5455V5.45455C22 3.54665 20.4534 2 18.5455 2H5.45456ZM4.00002 18.3699V18.5455C4.00002 19.3488 4.65124 20 5.45456 20H18.5455C19.3488 20 20 19.3488 20 18.5455V18.4142L16 14.4142L13.7071 16.7071C13.506 16.9082 13.2287 17.0142 12.9447 16.9985C12.6607 16.9827 12.3968 16.8468 12.2191 16.6247L8.97346 12.5676L4.00002 18.3699ZM20 15.5858V5.45455C20 4.65122 19.3488 4 18.5455 4H5.45456C4.65124 4 4.00002 4.65122 4.00002 5.45455V15.2967L8.24076 10.3492C8.4346 10.1231 8.71915 9.9951 9.01696 10.0001C9.31477 10.0052 9.59482 10.1427 9.78089 10.3753L13.0829 14.5029L15.2929 12.2929C15.6834 11.9024 16.3166 11.9024 16.7071 12.2929L20 15.5858Z" fill="currentColor"/>
</svg>
