<svg width="16" height="16" viewBox="0 0 16 16" fill="none" xmlns="http://www.w3.org/2000/svg">
<path d="M10 5.99902C10.5523 5.99902 11 5.55131 11 4.99902C11 4.44674 10.5523 3.99902 10 3.99902C9.44771 3.99902 9 4.44674 9 4.99902C9 5.55131 9.44771 5.99902 10 5.99902Z" fill="currentColor"/>
<path fill-rule="evenodd" clip-rule="evenodd" d="M1 3.49902C1 2.11831 2.11929 0.999023 3.5 0.999023H12.5C13.8807 0.999023 15 2.11831 15 3.49902V12.499C15 13.8797 13.8807 14.999 12.5 14.999H3.5C2.11929 14.999 1 13.8797 1 12.499V3.49902ZM13 3.49902V9.58481L11.7071 8.29192C11.3166 7.90139 10.6834 7.90139 10.2929 8.29192L9.10819 9.47662L6.8 6.39902C6.61444 6.15161 6.32485 6.00398 6.01562 5.99915C5.70639 5.99432 5.41233 6.13283 5.21913 6.37433L3 9.14824V3.49902C3 3.22288 3.22386 2.99902 3.5 2.99902H12.5C12.7761 2.99902 13 3.22288 13 3.49902ZM3 12.499V12.3498L5.9745 8.63168L8.2 11.599C8.37393 11.8309 8.63995 11.976 8.92911 11.9965C9.21827 12.0171 9.50212 11.9111 9.70711 11.7061L11 10.4132L13 12.4132V12.499C13 12.7752 12.7761 12.999 12.5 12.999H3.5C3.22386 12.999 3 12.7752 3 12.499Z" fill="currentColor"/>
</svg>
