<svg width="24" height="24" viewBox="0 0 24 24" fill="none" xmlns="http://www.w3.org/2000/svg">
<path d="M12 0C5.37287 0 0 5.37287 0 12C0 18.6271 5.37287 24 12 24C18.6271 24 24 18.6271 24 12C23.9937 5.37496 18.625 0.00626087 12 0ZM12 22C6.47684 22 2 17.5232 2 12C2 6.47684 6.47684 2 12 2C17.5232 2 22 6.47684 22 12C21.9937 17.52 17.52 21.9937 12 22ZM11 11C11 10.4477 11.4477 10 12 10C12.5523 10 13 10.4477 13 11V17C13 17.5523 12.5523 18 12 18C11.4477 18 11 17.5523 11 17V11ZM12 8C12.552 8 13 7.552 13 7C13 6.448 12.552 6 12 6C11.448 6 11 6.448 11 7C11 7.552 11.448 8 12 8Z" fill="currentColor"/>
</svg>
