<svg width="16" height="16" viewBox="0 0 16 16" fill="none" xmlns="http://www.w3.org/2000/svg">
<path d="M8 0C3.58172 0 0 3.58172 0 8C0 12.4183 3.58172 16 8 16C12.4183 16 16 12.4183 16 8C16 5.87827 15.1571 3.84344 13.6569 2.34315C12.1566 0.842855 10.1217 0 8 0ZM9 11C9 11.5523 8.55229 12 8 12C7.44772 12 7 11.5523 7 11V8C7 7.44772 7.44772 7 8 7C8.55229 7 9 7.44772 9 8V11ZM8 6C7.44772 6 7 5.55228 7 5C7 4.44772 7.44772 4 8 4C8.55229 4 9 4.44772 9 5C9 5.55228 8.55229 6 8 6Z" fill="currentColor"/>
</svg>
