<svg width="16" height="16" viewBox="0 0 16 16" fill="none" xmlns="http://www.w3.org/2000/svg">
<path d="M5.33377 8.00002C5.33377 6.52731 6.52731 5.33313 8.00002 5.33313C9.47272 5.33313 10.6669 6.52731 10.6669 8.00002C10.6669 9.47272 9.47272 10.6669 8.00002 10.6669C6.52731 10.6669 5.33377 9.47272 5.33377 8.00002ZM3.8921 8.00002C3.8921 10.2688 5.73121 12.1079 8.00002 12.1079C10.2688 12.1079 12.1079 10.2688 12.1079 8.00002C12.1079 5.73121 10.2688 3.8921 8.00002 3.8921C5.73121 3.8921 3.8921 5.73121 3.8921 8.00002ZM11.3106 3.72922C11.3105 3.91909 11.3667 4.10472 11.4721 4.26264C11.5775 4.42055 11.7274 4.54366 11.9028 4.61639C12.0782 4.68912 12.2712 4.7082 12.4575 4.67124C12.6437 4.63427 12.8148 4.54291 12.9491 4.4087C13.0834 4.2745 13.1749 4.10348 13.212 3.91727C13.2491 3.73106 13.2302 3.53803 13.1576 3.36259C13.085 3.18714 12.962 3.03716 12.8042 2.93161C12.6464 2.82606 12.4608 2.76968 12.2709 2.76961H12.2706C12.016 2.76972 11.772 2.87085 11.592 3.05078C11.412 3.23071 11.3108 3.47472 11.3106 3.72922ZM4.76801 14.5118C3.98804 14.4763 3.5641 14.3464 3.28237 14.2366C2.90887 14.0912 2.64237 13.918 2.36218 13.6382C2.08199 13.3584 1.90855 13.0922 1.76378 12.7187C1.65396 12.4371 1.52403 12.013 1.48858 11.233C1.44979 10.3898 1.44205 10.1365 1.44205 8.00008C1.44205 5.86369 1.45043 5.61108 1.48858 4.76711C1.5241 3.98714 1.65498 3.56391 1.76378 3.28148C1.90919 2.90797 2.08237 2.64148 2.36218 2.36128C2.64199 2.08109 2.90823 1.90765 3.28237 1.76288C3.56397 1.65306 3.98804 1.52314 4.76801 1.48768C5.61127 1.4489 5.86459 1.44115 8.00002 1.44115C10.1354 1.44115 10.389 1.44954 11.233 1.48768C12.013 1.5232 12.4362 1.65408 12.7186 1.76288C13.0921 1.90765 13.3586 2.08148 13.6388 2.36128C13.919 2.64109 14.0918 2.90797 14.2372 3.28148C14.347 3.56308 14.477 3.98714 14.5124 4.76711C14.5512 5.61108 14.5589 5.86369 14.5589 8.00008C14.5589 10.1365 14.5512 10.3891 14.5124 11.233C14.4769 12.013 14.3463 12.437 14.2372 12.7187C14.0918 13.0922 13.9186 13.3587 13.6388 13.6382C13.359 13.9178 13.0921 14.0912 12.7186 14.2366C12.437 14.3465 12.013 14.4764 11.233 14.5118C10.3897 14.5506 10.1364 14.5584 8.00002 14.5584C5.86363 14.5584 5.61102 14.5506 4.76801 14.5118ZM4.70177 0.0484481C3.85012 0.0872322 3.26817 0.222272 2.75994 0.420033C2.2336 0.624257 1.78804 0.898242 1.34279 1.34279C0.897538 1.78733 0.624257 2.2336 0.420033 2.75994C0.222272 3.26849 0.0872322 3.85012 0.0484481 4.70177C0.00902402 5.55476 0 5.82747 0 8.00002C0 10.1726 0.00902402 10.4453 0.0484481 11.2983C0.0872322 12.15 0.222272 12.7315 0.420033 13.2401C0.624257 13.7661 0.897602 14.2129 1.34279 14.6572C1.78797 15.1016 2.2336 15.3752 2.75994 15.58C3.26913 15.7778 3.85012 15.9128 4.70177 15.9516C5.55521 15.9904 5.82747 16 8.00002 16C10.1726 16 10.4453 15.991 11.2983 15.9516C12.15 15.9128 12.7315 15.7778 13.2401 15.58C13.7661 15.3752 14.212 15.1018 14.6572 14.6572C15.1025 14.2127 15.3752 13.7661 15.58 13.2401C15.7778 12.7315 15.9134 12.1499 15.9516 11.2983C15.9904 10.4446 15.9994 10.1726 15.9994 8.00002C15.9994 5.82747 15.9904 5.55476 15.9516 4.70177C15.9128 3.85006 15.7778 3.26817 15.58 2.75994C15.3752 2.23392 15.1018 1.78804 14.6572 1.34279C14.2127 0.897538 13.7661 0.624257 13.2407 0.420033C12.7315 0.222272 12.1499 0.0865922 11.2989 0.0484481C10.4459 0.00966402 10.1732 0 8.00066 0C5.82811 0 5.55521 0.00902402 4.70177 0.0484481Z" fill="url(#paint0_radial_715_1211)"/>
<path d="M5.33377 8.00002C5.33377 6.52731 6.52731 5.33313 8.00002 5.33313C9.47272 5.33313 10.6669 6.52731 10.6669 8.00002C10.6669 9.47272 9.47272 10.6669 8.00002 10.6669C6.52731 10.6669 5.33377 9.47272 5.33377 8.00002ZM3.8921 8.00002C3.8921 10.2688 5.73121 12.1079 8.00002 12.1079C10.2688 12.1079 12.1079 10.2688 12.1079 8.00002C12.1079 5.73121 10.2688 3.8921 8.00002 3.8921C5.73121 3.8921 3.8921 5.73121 3.8921 8.00002ZM11.3106 3.72922C11.3105 3.91909 11.3667 4.10472 11.4721 4.26264C11.5775 4.42055 11.7274 4.54366 11.9028 4.61639C12.0782 4.68912 12.2712 4.7082 12.4575 4.67124C12.6437 4.63427 12.8148 4.54291 12.9491 4.4087C13.0834 4.2745 13.1749 4.10348 13.212 3.91727C13.2491 3.73106 13.2302 3.53803 13.1576 3.36259C13.085 3.18714 12.962 3.03716 12.8042 2.93161C12.6464 2.82606 12.4608 2.76968 12.2709 2.76961H12.2706C12.016 2.76972 11.772 2.87085 11.592 3.05078C11.412 3.23071 11.3108 3.47472 11.3106 3.72922ZM4.76801 14.5118C3.98804 14.4763 3.5641 14.3464 3.28237 14.2366C2.90887 14.0912 2.64237 13.918 2.36218 13.6382C2.08199 13.3584 1.90855 13.0922 1.76378 12.7187C1.65396 12.4371 1.52403 12.013 1.48858 11.233C1.44979 10.3898 1.44205 10.1365 1.44205 8.00008C1.44205 5.86369 1.45043 5.61108 1.48858 4.76711C1.5241 3.98714 1.65498 3.56391 1.76378 3.28148C1.90919 2.90797 2.08237 2.64148 2.36218 2.36128C2.64199 2.08109 2.90823 1.90765 3.28237 1.76288C3.56397 1.65306 3.98804 1.52314 4.76801 1.48768C5.61127 1.4489 5.86459 1.44115 8.00002 1.44115C10.1354 1.44115 10.389 1.44954 11.233 1.48768C12.013 1.5232 12.4362 1.65408 12.7186 1.76288C13.0921 1.90765 13.3586 2.08148 13.6388 2.36128C13.919 2.64109 14.0918 2.90797 14.2372 3.28148C14.347 3.56308 14.477 3.98714 14.5124 4.76711C14.5512 5.61108 14.5589 5.86369 14.5589 8.00008C14.5589 10.1365 14.5512 10.3891 14.5124 11.233C14.4769 12.013 14.3463 12.437 14.2372 12.7187C14.0918 13.0922 13.9186 13.3587 13.6388 13.6382C13.359 13.9178 13.0921 14.0912 12.7186 14.2366C12.437 14.3465 12.013 14.4764 11.233 14.5118C10.3897 14.5506 10.1364 14.5584 8.00002 14.5584C5.86363 14.5584 5.61102 14.5506 4.76801 14.5118ZM4.70177 0.0484481C3.85012 0.0872322 3.26817 0.222272 2.75994 0.420033C2.2336 0.624257 1.78804 0.898242 1.34279 1.34279C0.897538 1.78733 0.624257 2.2336 0.420033 2.75994C0.222272 3.26849 0.0872322 3.85012 0.0484481 4.70177C0.00902402 5.55476 0 5.82747 0 8.00002C0 10.1726 0.00902402 10.4453 0.0484481 11.2983C0.0872322 12.15 0.222272 12.7315 0.420033 13.2401C0.624257 13.7661 0.897602 14.2129 1.34279 14.6572C1.78797 15.1016 2.2336 15.3752 2.75994 15.58C3.26913 15.7778 3.85012 15.9128 4.70177 15.9516C5.55521 15.9904 5.82747 16 8.00002 16C10.1726 16 10.4453 15.991 11.2983 15.9516C12.15 15.9128 12.7315 15.7778 13.2401 15.58C13.7661 15.3752 14.212 15.1018 14.6572 14.6572C15.1025 14.2127 15.3752 13.7661 15.58 13.2401C15.7778 12.7315 15.9134 12.1499 15.9516 11.2983C15.9904 10.4446 15.9994 10.1726 15.9994 8.00002C15.9994 5.82747 15.9904 5.55476 15.9516 4.70177C15.9128 3.85006 15.7778 3.26817 15.58 2.75994C15.3752 2.23392 15.1018 1.78804 14.6572 1.34279C14.2127 0.897538 13.7661 0.624257 13.2407 0.420033C12.7315 0.222272 12.1499 0.0865922 11.2989 0.0484481C10.4459 0.00966402 10.1732 0 8.00066 0C5.82811 0 5.55521 0.00902402 4.70177 0.0484481Z" fill="url(#paint1_radial_715_1211)"/>
<defs>
<radialGradient id="paint0_radial_715_1211" cx="0" cy="0" r="1" gradientUnits="userSpaceOnUse" gradientTransform="translate(2.1257 16.0756) scale(20.8867 20.8867)">
<stop offset="0.09" stop-color="#FA8F21"/>
<stop offset="0.78" stop-color="#D82D7E"/>
</radialGradient>
<radialGradient id="paint1_radial_715_1211" cx="0" cy="0" r="1" gradientUnits="userSpaceOnUse" gradientTransform="translate(9.70331 16.7924) scale(16.4616)">
<stop offset="0.64" stop-color="#8C3AAA" stop-opacity="0"/>
<stop offset="1" stop-color="#8C3AAA"/>
</radialGradient>
</defs>
</svg>
