<svg width="24" height="24" viewBox="0 0 24 24" fill="none" xmlns="http://www.w3.org/2000/svg">
<path d="M8.33441 12C8.33441 9.97503 9.97552 8.33304 12.0005 8.33304C14.0255 8.33304 15.6674 9.97503 15.6674 12C15.6674 14.025 14.0255 15.667 12.0005 15.667C9.97552 15.667 8.33441 14.025 8.33441 12ZM6.35212 12C6.35212 15.1196 8.88089 17.6484 12.0005 17.6484C15.1201 17.6484 17.6489 15.1196 17.6489 12C17.6489 8.8804 15.1201 6.35163 12.0005 6.35163C8.88089 6.35163 6.35212 8.8804 6.35212 12ZM16.5525 6.12767C16.5524 6.38874 16.6297 6.64398 16.7746 6.86111C16.9196 7.07824 17.1257 7.24751 17.3668 7.34752C17.608 7.44752 17.8734 7.47377 18.1295 7.42294C18.3855 7.37211 18.6208 7.24649 18.8055 7.06195C18.9902 6.87742 19.116 6.64227 19.167 6.38624C19.218 6.1302 19.192 5.86478 19.0922 5.62355C18.9924 5.38231 18.8233 5.17608 18.6063 5.03095C18.3892 4.88582 18.1341 4.8083 17.873 4.8082H17.8725C17.5225 4.80836 17.1869 4.94741 16.9394 5.19481C16.692 5.44221 16.5528 5.77773 16.5525 6.12767ZM7.55649 20.9537C6.48403 20.9049 5.90112 20.7263 5.51374 20.5753C5.00018 20.3754 4.63374 20.1373 4.24848 19.7525C3.86322 19.3678 3.62474 19.0017 3.42568 18.4882C3.27467 18.101 3.09603 17.5179 3.04728 16.4454C2.99395 15.2859 2.9833 14.9376 2.9833 12.0001C2.9833 9.06256 2.99483 8.71522 3.04728 7.55477C3.09612 6.48231 3.27608 5.90037 3.42568 5.51202C3.62562 4.99846 3.86374 4.63202 4.24848 4.24676C4.63322 3.8615 4.9993 3.62302 5.51374 3.42396C5.90094 3.27295 6.48403 3.09431 7.55649 3.04556C8.71598 2.99223 9.06428 2.98158 12.0005 2.98158C14.9367 2.98158 15.2854 2.99311 16.4458 3.04556C17.5183 3.0944 18.1002 3.27436 18.4886 3.42396C19.0021 3.62302 19.3686 3.86202 19.7538 4.24676C20.1391 4.6315 20.3767 4.99846 20.5766 5.51202C20.7276 5.89922 20.9063 6.48231 20.955 7.55477C21.0083 8.71522 21.019 9.06256 21.019 12.0001C21.019 14.9376 21.0083 15.285 20.955 16.4454C20.9062 17.5179 20.7267 18.1008 20.5766 18.4882C20.3767 19.0017 20.1386 19.3682 19.7538 19.7525C19.3691 20.1369 19.0021 20.3754 18.4886 20.5753C18.1014 20.7263 17.5183 20.905 16.4458 20.9537C15.2863 21.0071 14.938 21.0177 12.0005 21.0177C9.06296 21.0177 8.71562 21.0071 7.55649 20.9537ZM7.46541 1.06662C6.29439 1.11994 5.49421 1.30562 4.7954 1.57754C4.07169 1.85835 3.45903 2.23508 2.84682 2.84633C2.2346 3.45758 1.85884 4.0712 1.57803 4.79491C1.30611 5.49416 1.12043 6.2939 1.0671 7.46492C1.0129 8.63778 1.00049 9.01275 1.00049 12C1.00049 14.9872 1.0129 15.3622 1.0671 16.5351C1.12043 17.7062 1.30611 18.5058 1.57803 19.2051C1.85884 19.9284 2.23469 20.5427 2.84682 21.1537C3.45894 21.7647 4.07169 22.1409 4.7954 22.4225C5.49553 22.6944 6.29439 22.8801 7.46541 22.9334C8.63889 22.9867 9.01324 23 12.0005 23C14.9877 23 15.3627 22.9876 16.5356 22.9334C17.7067 22.8801 18.5063 22.6944 19.2056 22.4225C19.9288 22.1409 20.5419 21.7649 21.1542 21.1537C21.7664 20.5424 22.1413 19.9284 22.4229 19.2051C22.6949 18.5058 22.8814 17.7061 22.9339 16.5351C22.9872 15.3613 22.9996 14.9872 22.9996 12C22.9996 9.01275 22.9872 8.63778 22.9339 7.46492C22.8805 6.29382 22.6949 5.49372 22.4229 4.79491C22.1413 4.07164 21.7654 3.45854 21.1542 2.84633C20.5429 2.23411 19.9288 1.85835 19.2065 1.57754C18.5063 1.30562 17.7066 1.11906 16.5364 1.06662C15.3636 1.01329 14.9886 1 12.0014 1C9.01412 1 8.63889 1.01241 7.46541 1.06662Z" fill="url(#paint0_radial_717_270)"/>
<path d="M8.33441 12C8.33441 9.97503 9.97552 8.33304 12.0005 8.33304C14.0255 8.33304 15.6674 9.97503 15.6674 12C15.6674 14.025 14.0255 15.667 12.0005 15.667C9.97552 15.667 8.33441 14.025 8.33441 12ZM6.35212 12C6.35212 15.1196 8.88089 17.6484 12.0005 17.6484C15.1201 17.6484 17.6489 15.1196 17.6489 12C17.6489 8.8804 15.1201 6.35163 12.0005 6.35163C8.88089 6.35163 6.35212 8.8804 6.35212 12ZM16.5525 6.12767C16.5524 6.38874 16.6297 6.64398 16.7746 6.86111C16.9196 7.07824 17.1257 7.24751 17.3668 7.34752C17.608 7.44752 17.8734 7.47377 18.1295 7.42294C18.3855 7.37211 18.6208 7.24649 18.8055 7.06195C18.9902 6.87742 19.116 6.64227 19.167 6.38624C19.218 6.1302 19.192 5.86478 19.0922 5.62355C18.9924 5.38231 18.8233 5.17608 18.6063 5.03095C18.3892 4.88582 18.1341 4.8083 17.873 4.8082H17.8725C17.5225 4.80836 17.1869 4.94741 16.9394 5.19481C16.692 5.44221 16.5528 5.77773 16.5525 6.12767ZM7.55649 20.9537C6.48403 20.9049 5.90112 20.7263 5.51374 20.5753C5.00018 20.3754 4.63374 20.1373 4.24848 19.7525C3.86322 19.3678 3.62474 19.0017 3.42568 18.4882C3.27467 18.101 3.09603 17.5179 3.04728 16.4454C2.99395 15.2859 2.9833 14.9376 2.9833 12.0001C2.9833 9.06256 2.99483 8.71522 3.04728 7.55477C3.09612 6.48231 3.27608 5.90037 3.42568 5.51202C3.62562 4.99846 3.86374 4.63202 4.24848 4.24676C4.63322 3.8615 4.9993 3.62302 5.51374 3.42396C5.90094 3.27295 6.48403 3.09431 7.55649 3.04556C8.71598 2.99223 9.06428 2.98158 12.0005 2.98158C14.9367 2.98158 15.2854 2.99311 16.4458 3.04556C17.5183 3.0944 18.1002 3.27436 18.4886 3.42396C19.0021 3.62302 19.3686 3.86202 19.7538 4.24676C20.1391 4.6315 20.3767 4.99846 20.5766 5.51202C20.7276 5.89922 20.9063 6.48231 20.955 7.55477C21.0083 8.71522 21.019 9.06256 21.019 12.0001C21.019 14.9376 21.0083 15.285 20.955 16.4454C20.9062 17.5179 20.7267 18.1008 20.5766 18.4882C20.3767 19.0017 20.1386 19.3682 19.7538 19.7525C19.3691 20.1369 19.0021 20.3754 18.4886 20.5753C18.1014 20.7263 17.5183 20.905 16.4458 20.9537C15.2863 21.0071 14.938 21.0177 12.0005 21.0177C9.06296 21.0177 8.71562 21.0071 7.55649 20.9537ZM7.46541 1.06662C6.29439 1.11994 5.49421 1.30562 4.7954 1.57754C4.07169 1.85835 3.45903 2.23508 2.84682 2.84633C2.2346 3.45758 1.85884 4.0712 1.57803 4.79491C1.30611 5.49416 1.12043 6.2939 1.0671 7.46492C1.0129 8.63778 1.00049 9.01275 1.00049 12C1.00049 14.9872 1.0129 15.3622 1.0671 16.5351C1.12043 17.7062 1.30611 18.5058 1.57803 19.2051C1.85884 19.9284 2.23469 20.5427 2.84682 21.1537C3.45894 21.7647 4.07169 22.1409 4.7954 22.4225C5.49553 22.6944 6.29439 22.8801 7.46541 22.9334C8.63889 22.9867 9.01324 23 12.0005 23C14.9877 23 15.3627 22.9876 16.5356 22.9334C17.7067 22.8801 18.5063 22.6944 19.2056 22.4225C19.9288 22.1409 20.5419 21.7649 21.1542 21.1537C21.7664 20.5424 22.1413 19.9284 22.4229 19.2051C22.6949 18.5058 22.8814 17.7061 22.9339 16.5351C22.9872 15.3613 22.9996 14.9872 22.9996 12C22.9996 9.01275 22.9872 8.63778 22.9339 7.46492C22.8805 6.29382 22.6949 5.49372 22.4229 4.79491C22.1413 4.07164 21.7654 3.45854 21.1542 2.84633C20.5429 2.23411 19.9288 1.85835 19.2065 1.57754C18.5063 1.30562 17.7066 1.11906 16.5364 1.06662C15.3636 1.01329 14.9886 1 12.0014 1C9.01412 1 8.63889 1.01241 7.46541 1.06662Z" fill="url(#paint1_radial_717_270)"/>
<defs>
<radialGradient id="paint0_radial_717_270" cx="0" cy="0" r="1" gradientUnits="userSpaceOnUse" gradientTransform="translate(3.92332 23.1039) scale(28.7192 28.7192)">
<stop offset="0.09" stop-color="#FA8F21"/>
<stop offset="0.78" stop-color="#D82D7E"/>
</radialGradient>
<radialGradient id="paint1_radial_717_270" cx="0" cy="0" r="1" gradientUnits="userSpaceOnUse" gradientTransform="translate(14.3425 24.0895) scale(22.6347)">
<stop offset="0.64" stop-color="#8C3AAA" stop-opacity="0"/>
<stop offset="1" stop-color="#8C3AAA"/>
</radialGradient>
</defs>
</svg>
