<svg width="24" height="24" viewBox="0 0 24 24" fill="none" xmlns="http://www.w3.org/2000/svg">
<path fill-rule="evenodd" clip-rule="evenodd" d="M12 4.46726C11.2391 3.65033 10.5117 3.07247 9.7866 2.68203C8.79839 2.14991 7.87768 2 7 2C3.15265 2 1 5.07874 1 8.21053C1 10.4032 2.2622 12.083 3.27074 13.1579L11.2707 21.6842C11.3729 21.7932 11.4938 21.8741 11.6237 21.9268C11.8639 22.0241 12.135 22.0247 12.3764 21.9268C12.5063 21.8741 12.6271 21.7932 12.7293 21.6842L16.7277 17.4228L16.7285 17.4219L20.7293 13.1579C21.7379 12.083 23.0001 10.4032 23.0001 8.21053C23.0001 5.07874 20.8474 2 17.0001 2C16.1224 2 15.2017 2.14991 14.2135 2.68203C13.4884 3.07247 12.7609 3.65033 12 4.46726ZM11.2078 6.61056C10.2648 5.43434 9.49165 4.79472 8.8384 4.44297C8.20161 4.10009 7.62232 4 7 4C4.48371 4 3 5.94232 3 8.21053C3 9.61786 3.81595 10.8161 4.72926 11.7894L12 19.5386L19.2708 11.7894C20.1841 10.8161 21.0001 9.61786 21.0001 8.21053C21.0001 5.94232 19.5164 4 17.0001 4C16.3778 4 15.7985 4.10009 15.1617 4.44297C14.5084 4.79472 13.7353 5.43434 12.7923 6.61056C12.7706 6.6386 12.7473 6.66568 12.7224 6.69166C12.6314 6.78691 12.5251 6.86064 12.4106 6.91209C12.1473 7.03081 11.8473 7.02789 11.5895 6.91209C11.4749 6.86064 11.3687 6.78691 11.2777 6.69166C11.2528 6.66568 11.2295 6.6386 11.2078 6.61056Z" fill="currentColor"/>
</svg>
