<svg width="16" height="16" viewBox="0 0 16 16" fill="none" xmlns="http://www.w3.org/2000/svg">
<path d="M6.55238 1.48317C7.03224 1.72658 7.51143 2.07052 8.00002 2.53593C8.48862 2.07052 8.96781 1.72658 9.44767 1.48317C10.1888 1.10722 10.8748 1 11.5 1C13.0497 1 14.2089 1.63444 14.9615 2.55426C15.6885 3.44287 16 4.54993 16 5.5C16 6.41828 15.6521 7.21109 15.2957 7.79188C14.936 8.37787 14.5259 8.81488 14.3181 9.02931C10.1165 13.3643 9.40495 14.0429 8.6897 14.7241L8.67933 14.7339C8.48726 14.9118 8.24344 15 8.00002 15C7.75661 15 7.51278 14.9118 7.32071 14.7339L7.31034 14.7241C6.5951 14.0429 5.88356 13.3643 1.68193 9.02931C1.4741 8.81488 1.06407 8.37787 0.704387 7.79188C0.347897 7.21109 0 6.41828 0 5.5C0 4.54993 0.311497 3.44287 1.03854 2.55426C1.79112 1.63444 2.9503 1 4.5 1C5.12523 1 5.81121 1.10722 6.55238 1.48317Z" fill="currentColor"/>
</svg>
