<svg width="16" height="16" viewBox="0 0 16 16" fill="none" xmlns="http://www.w3.org/2000/svg">
<path fill-rule="evenodd" clip-rule="evenodd" d="M8 2.53591C7.51141 2.07051 7.03223 1.72658 6.55238 1.48317C5.81121 1.10722 5.12523 1 4.5 1C2.9503 1 1.79112 1.63445 1.03854 2.55426C0.311497 3.44287 0 4.54993 0 5.5C0 6.41828 0.347897 7.21109 0.704387 7.79188C1.06407 8.37787 1.4741 8.81488 1.68193 9.02931C5.87536 13.3559 6.59231 14.0403 7.30616 14.7202C7.38507 14.7963 7.47359 14.857 7.56783 14.9021C7.70425 14.9675 7.8522 15 8 15C8.25074 15 8.50103 14.9062 8.69388 14.7201C9.40772 14.0403 10.1247 13.3558 14.3181 9.02931C14.5259 8.81488 14.9359 8.37787 15.2956 7.79188C15.6521 7.21109 16 6.41828 16 5.5C16 4.54993 15.6885 3.44287 14.9615 2.55426C14.2089 1.63445 13.0497 1 11.5 1C10.8748 1 10.1888 1.10722 9.44762 1.48317C8.96777 1.72658 8.48859 2.07051 8 2.53591ZM7.22243 4.62909C6.58746 3.87593 6.0674 3.47976 5.64762 3.26683C5.23879 3.05945 4.87477 3 4.5 3C3.5497 3 2.95888 3.36555 2.58646 3.82074C2.1885 4.30713 2 4.95007 2 5.5C2 5.91506 2.16096 6.3417 2.40891 6.74564C2.65365 7.14438 2.94362 7.45738 3.11807 7.63736C6.08829 10.7019 7.30175 11.926 8 12.6109C8.69824 11.926 9.91171 10.7019 12.8819 7.63736C13.0564 7.45738 13.3463 7.14438 13.5911 6.74564C13.839 6.3417 14 5.91506 14 5.5C14 4.95007 13.8115 4.30713 13.4135 3.82074C13.0411 3.36555 12.4503 3 11.5 3C11.1252 3 10.7612 3.05945 10.3524 3.26683C9.9326 3.47976 9.41253 3.87593 8.77757 4.62909C8.75568 4.65609 8.7322 4.68216 8.70714 4.70716C8.62466 4.78982 8.53058 4.85532 8.42973 4.90323C8.29349 4.96816 8.14648 5.0001 8 5.00002C7.85352 5.0001 7.70651 4.96816 7.57027 4.90323C7.46942 4.85532 7.37534 4.78983 7.29286 4.70716C7.2678 4.68216 7.24432 4.65609 7.22243 4.62909Z" fill="currentColor"/>
</svg>
