<svg width="20" height="20" viewBox="0 0 20 20" fill="none" xmlns="http://www.w3.org/2000/svg">
<g clip-path="url(#clip0_268_475)">
<path d="M8.09938 1.71884C8.70833 2.10635 9.31835 2.66965 10 3.44177C10.6817 2.66965 11.2917 2.10635 11.9006 1.71884C12.785 1.15608 13.6081 1 14.5 1C16.3094 1 17.7166 1.76724 18.6513 2.91824C19.5662 4.0449 20 5.49904 20 6.88889C20 9.41685 18.2556 11.1592 17.7298 11.6844L10.7071 18.7071C10.3166 19.0976 9.68342 19.0976 9.29289 18.7071L2.27017 11.6844C1.74439 11.1592 0 9.41685 0 6.88889C0 5.49904 0.433826 4.0449 1.34871 2.91824C2.28336 1.76724 3.69056 1 5.5 1C6.39189 1 7.21504 1.15608 8.09938 1.71884Z" fill="currentColor"/>
</g>
<defs>
<clipPath id="clip0_268_475">
<rect width="20" height="20" fill="currentColor"/>
</clipPath>
</defs>
</svg>
