<svg width="20" height="20" viewBox="0 0 20 20" fill="none" xmlns="http://www.w3.org/2000/svg">
<g clip-path="url(#clip0_268_445)">
<path fill-rule="evenodd" clip-rule="evenodd" d="M10 3.44177C9.31835 2.66965 8.70833 2.10635 8.09938 1.71884C7.21504 1.15608 6.39189 1 5.5 1C3.69056 1 2.28336 1.76724 1.34871 2.91824C0.433826 4.0449 0 5.49904 0 6.88889C0 9.41685 1.74439 11.1592 2.27017 11.6844L9.29289 18.7071C9.68342 19.0976 10.3166 19.0976 10.7071 18.7071L17.7298 11.6844C18.2556 11.1592 20 9.41685 20 6.88889C20 5.49904 19.5662 4.0449 18.6513 2.91824C17.7166 1.76724 16.3094 1 14.5 1C13.6081 1 12.785 1.15608 11.9006 1.71884C11.2917 2.10635 10.6817 2.66965 10 3.44177ZM9.20581 5.60805C8.22886 4.38857 7.5663 3.75023 7.02562 3.40616C6.53496 3.09392 6.10811 3 5.5 3C4.30944 3 3.46664 3.48276 2.90129 4.17898C2.31617 4.89955 2 5.88985 2 6.88889C2 8.54542 3.18518 9.77097 3.70711 10.2929L10 16.5858L16.2929 10.2929C16.8148 9.77097 18 8.54542 18 6.88889C18 5.88985 17.6838 4.89955 17.0987 4.17898C16.5334 3.48276 15.6906 3 14.5 3C13.8919 3 13.465 3.09392 12.9744 3.40616C12.4337 3.75023 11.7711 4.38857 10.7942 5.60805C10.7677 5.64262 10.7387 5.67575 10.7072 5.70717C10.6249 5.78966 10.5309 5.85515 10.43 5.9031C10.1555 6.03403 9.83846 6.03065 9.57004 5.9031C9.46915 5.85516 9.37512 5.78966 9.29283 5.70717C9.26133 5.67575 9.23232 5.64262 9.20581 5.60805Z" fill="currentColor"/>
</g>
<defs>
<clipPath id="clip0_268_445">
<rect width="20" height="20" fill="currentColor"/>
</clipPath>
</defs>
</svg>
