<svg width="24" height="25" viewBox="0 0 24 25" fill="none" xmlns="http://www.w3.org/2000/svg">
<path d="M20.8284 3.20995C19.2538 1.63538 16.8783 1.55004 15.2175 3.23507L15.2039 3.24879L11.2039 7.21314C10.8117 7.60192 10.1785 7.59908 9.78974 7.20681C9.40096 6.81455 9.4038 6.18139 9.79606 5.79262L13.7904 1.83389C16.2622 -0.676844 19.9144 -0.532446 22.2426 1.79573C24.5868 4.13993 24.5912 7.84872 22.216 10.2367C22.212 10.2408 22.208 10.2448 22.2039 10.2488L18.2039 14.2132C17.8117 14.602 17.1785 14.5991 16.7897 14.2069C16.401 13.8146 16.4038 13.1814 16.7961 12.7927L20.7923 8.83204C22.404 7.21756 22.3867 4.76828 20.8284 3.20995Z" fill="currentColor"/>
<path d="M14.7071 9.29577C15.0976 9.6863 15.0976 10.3195 14.7071 10.71L10.7071 14.71C10.3166 15.1005 9.68342 15.1005 9.29289 14.71C8.90237 14.3195 8.90237 13.6863 9.29289 13.2958L13.2929 9.29577C13.6834 8.90525 14.3166 8.90525 14.7071 9.29577Z" fill="currentColor"/>
<path d="M7.20707 9.79577C7.5976 10.1863 7.5976 10.8195 7.20707 11.21L3.20635 15.2107C1.59845 16.8155 1.61275 19.2727 3.1716 20.8315C4.72877 22.3887 7.17676 22.4091 8.78323 20.8056L8.79289 20.7958L12.7929 16.7958C13.1834 16.4052 13.8166 16.4052 14.2071 16.7958C14.5976 17.1863 14.5976 17.8195 14.2071 18.21L10.2083 22.2088C7.82477 24.6008 4.10273 24.5911 1.75738 22.2458C-0.585244 19.9031 -0.590674 16.1868 1.78215 13.8066L1.79286 13.7958L5.79286 9.79577C6.18338 9.40525 6.81655 9.40525 7.20707 9.79577Z" fill="currentColor"/>
</svg>
