<svg width="24" height="24" viewBox="0 0 24 24" fill="none" xmlns="http://www.w3.org/2000/svg">
<path fill-rule="evenodd" clip-rule="evenodd" d="M0 7C0 3.13401 3.13401 0 7 0H17C20.866 0 24 3.13401 24 7V17C24 20.866 20.866 24 17 24H7C3.13401 24 0 20.866 0 17V7ZM5.00818 6.18559C5.00818 7.15924 5.76622 7.87117 6.70055 7.87117C7.63488 7.87117 8.39291 7.15924 8.39291 6.18559C8.39291 5.21193 7.63488 4.5 6.70055 4.5C5.76622 4.5 5.00818 5.21193 5.00818 6.18559ZM5.23193 18.4892H8.16781V9.1635H5.23193V18.4892ZM16.056 18.4973H18.9919V12.7313C18.9919 9.88357 17.2222 8.91127 15.5841 8.91127C14.0694 8.91127 13.0768 9.89171 12.7933 10.4653H12.7554V9.173H9.93205V18.4986H12.8679V13.4419C12.8679 12.0926 13.7222 11.4376 14.5928 11.4376C15.4173 11.4376 16.056 11.9014 16.056 13.4039V18.4973Z" fill="currentColor"/>
</svg>
