<svg width="16" height="16" viewBox="0 0 16 16" fill="none" xmlns="http://www.w3.org/2000/svg">
<path fill-rule="evenodd" clip-rule="evenodd" d="M4 0C1.79086 0 0 1.79086 0 4V12C0 14.2091 1.79086 16 4 16H12C14.2091 16 16 14.2091 16 12V4C16 1.79086 14.2091 0 12 0H4ZM3.00586 3.70399C3.00586 4.39946 3.54732 4.90798 4.21469 4.90798C4.88207 4.90798 5.42353 4.39946 5.42353 3.70399C5.42353 3.00852 4.88207 2.5 4.21469 2.5C3.54732 2.5 3.00586 3.00852 3.00586 3.70399ZM3.16568 12.4923H5.26274V5.83107H3.16568V12.4923ZM12.9942 12.4981H10.8972V8.85994C10.8972 7.78671 10.441 7.45544 9.85205 7.45544C9.23019 7.45544 8.61996 7.92329 8.61996 8.88706V12.499H6.52291V5.83785H8.53957V6.76095H8.56669C8.76913 6.35122 9.47816 5.65091 10.5601 5.65091C11.7302 5.65091 12.9942 6.34541 12.9942 8.37951V12.4981Z" fill="currentColor"/>
</svg>
