<svg width="16" height="16" viewBox="0 0 16 16" fill="none" xmlns="http://www.w3.org/2000/svg">
<path d="M2.73308 13.2668C1.75694 12.2907 1.75694 10.708 2.73308 9.73191L4.81829 7.6467C5.20882 7.25617 5.20882 6.62301 4.81829 6.23249C4.42777 5.84196 3.7946 5.84196 3.40408 6.23249L1.31886 8.3177C-0.438319 10.0749 -0.43832 12.9238 1.31886 14.681C3.07605 16.4382 5.925 16.4382 7.68219 14.681L9.7674 12.5958C10.1579 12.2053 10.1579 11.5721 9.7674 11.1816C9.37688 10.7911 8.74371 10.7911 8.35319 11.1816L6.26797 13.2668C5.29184 14.2429 3.70921 14.2429 2.73308 13.2668Z" fill="currentColor"/>
<path d="M6.2325 3.40406C5.84198 3.79458 5.84198 4.42775 6.2325 4.81827C6.62303 5.2088 7.25619 5.2088 7.64672 4.81827L9.73179 2.7332C10.7079 1.75707 12.2906 1.75706 13.2667 2.7332C14.2428 3.70933 14.2428 5.29196 13.2667 6.2681L11.1816 8.35317C10.7911 8.74369 10.7911 9.37686 11.1816 9.76738C11.5721 10.1579 12.2053 10.1579 12.5958 9.76738L14.6809 7.68231C16.4381 5.92513 16.4381 3.07617 14.6809 1.31899C12.9237 -0.438197 10.0748 -0.438197 8.31758 1.31899L6.2325 3.40406Z" fill="currentColor"/>
<path d="M10.2071 5.79289C10.5976 6.18342 10.5976 6.81658 10.2071 7.20711L7.20711 10.2071C6.81658 10.5976 6.18342 10.5976 5.79289 10.2071C5.40237 9.81658 5.40237 9.18342 5.79289 8.79289L8.79289 5.79289C9.18342 5.40237 9.81658 5.40237 10.2071 5.79289Z" fill="currentColor"/>
</svg>
