<svg width="20" height="20" viewBox="0 0 20 20" fill="none" xmlns="http://www.w3.org/2000/svg">
<path d="M2.02106 18.0211C0.196325 16.1963 0.196325 13.2373 2.02106 11.4125L5.1059 8.32769L5.17731 8.26278C5.54655 7.96158 6.0912 7.9835 6.43539 8.32769C6.77959 8.67189 6.80151 9.21653 6.50031 9.58578L6.43539 9.65719L3.35055 12.742C2.26008 13.8325 2.26008 15.6011 3.35055 16.6916C4.44105 17.7817 6.20906 17.7813 7.29944 16.6909L10.2765 13.7138L10.3479 13.6489C10.7171 13.3479 11.2619 13.3698 11.606 13.7138C11.9501 14.058 11.972 14.6027 11.6709 14.9719L11.606 15.0433L8.62893 18.0204C6.80429 19.845 3.84581 19.8455 2.02106 18.0211ZM16.6968 3.34534C15.6063 2.25489 13.8384 2.25431 12.7479 3.34469L9.72602 6.36656C9.35889 6.73369 8.76366 6.73369 8.39653 6.36656C8.0294 5.99943 8.0294 5.40419 8.39653 5.03706L11.4184 2.01519C13.2431 0.190559 16.2016 0.191141 18.0263 2.01584C19.8507 3.84056 19.8508 6.79842 18.0263 8.62307L14.8966 11.7527C14.5295 12.1198 13.9343 12.1198 13.5671 11.7527C13.2001 11.3856 13.2 10.7903 13.5671 10.4232L16.6968 7.29357C17.7871 6.20318 17.7869 4.4358 16.6968 3.34534Z" fill="currentColor"/>
<path d="M10.7929 7.79295C11.1834 7.40243 11.8164 7.40243 12.207 7.79295C12.5975 8.18348 12.5975 8.81649 12.207 9.20702L9.20696 12.207C8.81643 12.5975 8.18342 12.5975 7.79289 12.207C7.40237 11.8165 7.40237 11.1835 7.79289 10.793L10.7929 7.79295Z" fill="currentColor"/>
</svg>
