<svg width="24" height="24" viewBox="0 0 24 24" fill="none" xmlns="http://www.w3.org/2000/svg">
<path d="M3 4C3 4.552 2.552 5 2 5C1.448 5 1 4.552 1 4C1 3.448 1.448 3 2 3C2.552 3 3 3.448 3 4ZM22 5H7C6.448 5 6 4.552 6 4C6 3.448 6.448 3 7 3H22C22.552 3 23 3.448 23 4C23 4.552 22.552 5 22 5ZM2 13C2.552 13 3 12.552 3 12C3 11.448 2.552 11 2 11C1.448 11 1 11.448 1 12C1 12.552 1.448 13 2 13ZM7 11H22C22.552 11 23 11.448 23 12C23 12.552 22.552 13 22 13H7C6.448 13 6 12.552 6 12C6 11.448 6.448 11 7 11ZM2 21C2.552 21 3 20.552 3 20C3 19.448 2.552 19 2 19C1.448 19 1 19.448 1 20C1 20.552 1.448 21 2 21ZM7 19H22C22.552 19 23 19.448 23 20C23 20.552 22.552 21 22 21H7C6.448 21 6 20.552 6 20C6 19.448 6.448 19 7 19Z" fill="currentColor"/>
</svg>
