<svg width="16" height="16" viewBox="0 0 16 16" fill="none" xmlns="http://www.w3.org/2000/svg">
<path fill-rule="evenodd" clip-rule="evenodd" d="M5 2C5 1.44772 5.44772 1 6 1H15C15.5523 1 16 1.44772 16 2C16 2.55228 15.5523 3 15 3H6C5.44772 3 5 2.55228 5 2Z" fill="currentColor"/>
<path fill-rule="evenodd" clip-rule="evenodd" d="M5 8C5 7.44772 5.44772 7 6 7H15C15.5523 7 16 7.44772 16 8C16 8.55228 15.5523 9 15 9H6C5.44772 9 5 8.55228 5 8Z" fill="currentColor"/>
<path fill-rule="evenodd" clip-rule="evenodd" d="M5 14C5 13.4477 5.44772 13 6 13H15C15.5523 13 16 13.4477 16 14C16 14.5523 15.5523 15 15 15H6C5.44772 15 5 14.5523 5 14Z" fill="currentColor"/>
<path d="M2 2C2 2.55228 1.55228 3 1 3C0.447715 3 0 2.55228 0 2C0 1.44772 0.447715 1 1 1C1.55228 1 2 1.44772 2 2Z" fill="currentColor"/>
<path d="M2 8C2 8.55228 1.55228 9 1 9C0.447715 9 0 8.55228 0 8C0 7.44772 0.447715 7 1 7C1.55228 7 2 7.44772 2 8Z" fill="currentColor"/>
<path d="M2 14C2 14.5523 1.55228 15 1 15C0.447715 15 0 14.5523 0 14C0 13.4477 0.447715 13 1 13C1.55228 13 2 13.4477 2 14Z" fill="currentColor"/>
</svg>
