<svg width="16" height="16" viewBox="0 0 16 16" fill="none" xmlns="http://www.w3.org/2000/svg">
<path d="M10 7C10 8.10457 9.10457 9 8 9C6.89543 9 6 8.10457 6 7C6 5.89543 6.89543 5 8 5C9.10457 5 10 5.89543 10 7Z" fill="currentColor"/>
<path fill-rule="evenodd" clip-rule="evenodd" d="M8 0C4.13401 0 1 3.13401 1 7C1 8.6192 1.55099 10.1125 2.47508 11.2987C3.65787 12.817 5.3842 14.2934 7.40134 15.801C7.75635 16.0663 8.24365 16.0663 8.59866 15.801C10.6158 14.2934 12.3421 12.817 13.5249 11.2987C14.449 10.1125 15 8.6192 15 7C15 3.13401 11.866 0 8 0ZM3 7C3 4.23858 5.23858 2 8 2C10.7614 2 13 4.23858 13 7C13 8.15837 12.6073 9.22222 11.9472 10.0696C11.0384 11.2361 9.69771 12.4401 8 13.7454C6.30229 12.4401 4.96155 11.2361 4.05284 10.0696C3.39269 9.22222 3 8.15837 3 7Z" fill="currentColor"/>
</svg>
