<svg width="24" height="24" viewBox="0 0 24 24" fill="none" xmlns="http://www.w3.org/2000/svg">
<path fill-rule="evenodd" clip-rule="evenodd" d="M16 10C16 12.2091 14.2091 14 12 14C9.79086 14 8 12.2091 8 10C8 7.79086 9.79086 6 12 6C14.2091 6 16 7.79086 16 10ZM14 10C14 11.1046 13.1046 12 12 12C10.8954 12 10 11.1046 10 10C10 8.89543 10.8954 8 12 8C13.1046 8 14 8.89543 14 10Z" fill="currentColor"/>
<path fill-rule="evenodd" clip-rule="evenodd" d="M21 10.0044C21 13.7866 18.8828 16.2003 14.6483 21.0278C14.2902 21.4361 13.9169 21.8616 13.5285 22.3067C12.7219 23.2311 11.2781 23.2311 10.4715 22.3067C10.0833 21.8618 9.71014 21.4365 9.35215 21.0283C5.11771 16.2009 3 13.7866 3 10.0044C3 5.63057 6.5 1 12 1C17.5 1 21 5.63057 21 10.0044ZM19 10.0044C19 11.5605 18.5571 12.826 17.4734 14.4354C16.4999 15.8811 15.1081 17.4685 13.1638 19.6861C12.8025 20.0982 12.4222 20.532 12.0219 20.9907L12.0191 20.9938C12.0176 20.9952 12.0168 20.9958 12.0168 20.9958L12.0157 20.9964C12.0157 20.9964 12.0084 20.999 12 20.999C11.9916 20.999 11.9843 20.9964 11.9843 20.9964L11.9832 20.9958L11.9822 20.995C11.9822 20.995 11.98 20.9929 11.9781 20.9907C11.5778 20.532 11.1975 20.0982 10.8362 19.6861C8.89186 17.4685 7.50006 15.8811 6.52659 14.4354C5.44293 12.826 5 11.5605 5 10.0044C5 6.56938 7.76376 3.00097 12 3.00097C16.2362 3.00097 19 6.56938 19 10.0044Z" fill="currentColor"/>
</svg>
