<svg width="20" height="20" viewBox="0 0 20 20" fill="none" xmlns="http://www.w3.org/2000/svg">
<g clip-path="url(#clip0_666_895)">
<path fill-rule="evenodd" clip-rule="evenodd" d="M5 7V6C5 3.23858 7.23858 1 10 1C12.7614 1 15 3.23858 15 6V7C16.6569 7 18 8.34315 18 10V16C18 17.6569 16.6569 19 15 19H5C3.34315 19 2 17.6569 2 16V10C2 8.34315 3.34315 7 5 7ZM7 6C7 4.34315 8.34315 3 10 3C11.6569 3 13 4.34315 13 6V7H7V6ZM10 11C10.5523 11 11 11.4477 11 12V14C11 14.5523 10.5523 15 10 15C9.44772 15 9 14.5523 9 14V12C9 11.4477 9.44772 11 10 11Z" fill="currentColor"/>
</g>
<defs>
<clipPath id="clip0_666_895">
<rect width="20" height="20" fill="currentColor"/>
</clipPath>
</defs>
</svg>
