<svg width="24" height="24" viewBox="0 0 24 24" fill="none" xmlns="http://www.w3.org/2000/svg">
<path fill-rule="evenodd" clip-rule="evenodd" d="M6 9V7C6 3.68629 8.68629 1 12 1C15.3137 1 18 3.68629 18 7V9C19.6569 9 21 10.3431 21 12V20C21 21.6569 19.6569 23 18 23H6C4.34315 23 3 21.6569 3 20V12C3 10.3431 4.34315 9 6 9ZM8 7C8 4.79086 9.79086 3 12 3C14.2091 3 16 4.79086 16 7V9H8V7ZM12 13C12.5523 13 13 13.4477 13 14V18C13 18.5523 12.5523 19 12 19C11.4477 19 11 18.5523 11 18V14C11 13.4477 11.4477 13 12 13Z" fill="currentColor"/>
</svg>
