<svg width="16" height="16" viewBox="0 0 16 16" fill="none" xmlns="http://www.w3.org/2000/svg">
<path fill-rule="evenodd" clip-rule="evenodd" d="M4 6.05001V5C4 2.79086 5.79086 1 8 1C10.2091 1 12 2.79086 12 5V6.05001C13.1411 6.28164 14 7.29052 14 8.5V12.5C14 13.8807 12.8807 15 11.5 15H4.5C3.11929 15 2 13.8807 2 12.5V8.5C2 7.29052 2.85888 6.28164 4 6.05001ZM6 5C6 3.89543 6.89543 3 8 3C9.10457 3 10 3.89543 10 5V6H6V5ZM8 9C8.55228 9 9 9.44772 9 10V11C9 11.5523 8.55228 12 8 12C7.44772 12 7 11.5523 7 11V10C7 9.44772 7.44772 9 8 9Z" fill="currentColor"/>
</svg>
