<svg width="24" height="24" viewBox="0 0 24 24" fill="none" xmlns="http://www.w3.org/2000/svg">
<path fill-rule="evenodd" clip-rule="evenodd" d="M1 6C1 4.34315 2.34315 3 4 3H20C21.6569 3 23 4.34315 23 6V18C23 19.6569 21.6569 21 20 21H4C2.34315 21 1 19.6569 1 18V6ZM4 5C3.44772 5 3 5.44772 3 6V6.5L11.4 12.8C11.7556 13.0667 12.2444 13.0667 12.6 12.8L21 6.5V6C21 5.44772 20.5523 5 20 5H4ZM21 9L13.8 14.4C12.7333 15.2 11.2667 15.2 10.2 14.4L3 9V18C3 18.5523 3.44772 19 4 19H20C20.5523 19 21 18.5523 21 18V9Z" fill="currentColor"/>
</svg>
