<svg width="16" height="16" viewBox="0 0 16 16" fill="none" xmlns="http://www.w3.org/2000/svg">
<path fill-rule="evenodd" clip-rule="evenodd" d="M1 5C1 3.34315 2.34315 2 4 2H12C13.6569 2 15 3.34315 15 5V11C15 12.6569 13.6569 14 12 14H4C2.34315 14 1 12.6569 1 11V5ZM3.00261 4.92715L8 7.8423L12.9974 4.92715C12.9601 4.40888 12.5278 4 12 4H4C3.47221 4 3.03992 4.40888 3.00261 4.92715ZM13 7.24104L8.50387 9.86378C8.19251 10.0454 7.80749 10.0454 7.49613 9.86378L3 7.24104V11C3 11.5523 3.44772 12 4 12H12C12.5523 12 13 11.5523 13 11V7.24104Z" fill="currentColor"/>
</svg>
