<svg width="24" height="24" viewBox="0 0 24 24" fill="none" xmlns="http://www.w3.org/2000/svg">
<path fill-rule="evenodd" clip-rule="evenodd" d="M3.5 2C2.67157 2 2 2.67157 2 3.5V7.5C2 8.32843 2.67157 9 3.5 9H9.5C10.3284 9 11 8.32843 11 7.5V3.5C11 2.67157 10.3284 2 9.5 2H3.5ZM4 7V4H9V7H4Z" fill="currentColor"/>
<path fill-rule="evenodd" clip-rule="evenodd" d="M14.5 15C13.6716 15 13 15.6716 13 16.5V20.5C13 21.3284 13.6716 22 14.5 22H20.5C21.3284 22 22 21.3284 22 20.5V16.5C22 15.6716 21.3284 15 20.5 15H14.5ZM15 20V17H20V20H15Z" fill="currentColor"/>
<path fill-rule="evenodd" clip-rule="evenodd" d="M13 3.5C13 2.67157 13.6716 2 14.5 2H20.5C21.3284 2 22 2.67157 22 3.5V11.5C22 12.3284 21.3284 13 20.5 13H14.5C13.6716 13 13 12.3284 13 11.5V3.5ZM15 11H20V4H15V11Z" fill="currentColor"/>
<path fill-rule="evenodd" clip-rule="evenodd" d="M3.5 11C2.67157 11 2 11.6716 2 12.5V20.5C2 21.3284 2.67157 22 3.5 22H9.5C10.3284 22 11 21.3284 11 20.5V12.5C11 11.6716 10.3284 11 9.5 11H3.5ZM4 20V13H9V20H4Z" fill="currentColor"/>
</svg>
