<svg width="16" height="16" viewBox="0 0 16 16" fill="none" xmlns="http://www.w3.org/2000/svg">
<path fill-rule="evenodd" clip-rule="evenodd" d="M1 0C0.447715 0 0 0.447715 0 1V5C0 5.55228 0.447715 6 1 6H6C6.55228 6 7 5.55228 7 5V1C7 0.447715 6.55228 0 6 0H1ZM2 4V2H5V4H2Z" fill="currentColor"/>
<path fill-rule="evenodd" clip-rule="evenodd" d="M10 10C9.44771 10 9 10.4477 9 11V15C9 15.5523 9.44771 16 10 16H15C15.5523 16 16 15.5523 16 15V11C16 10.4477 15.5523 10 15 10H10ZM11 14V12H14V14H11Z" fill="currentColor"/>
<path fill-rule="evenodd" clip-rule="evenodd" d="M0 9C0 8.44771 0.447715 8 1 8H6C6.55228 8 7 8.44771 7 9V15C7 15.5523 6.55228 16 6 16H1C0.447715 16 0 15.5523 0 15V9ZM2 10V14H5V10H2Z" fill="currentColor"/>
<path fill-rule="evenodd" clip-rule="evenodd" d="M10 0C9.44771 0 9 0.447715 9 1V7C9 7.55228 9.44771 8 10 8H15C15.5523 8 16 7.55228 16 7V1C16 0.447715 15.5523 0 15 0H10ZM14 6H11V2H14V6Z" fill="currentColor"/>
</svg>
