<svg width="20" height="20" viewBox="0 0 20 20" fill="none" xmlns="http://www.w3.org/2000/svg">
<path d="M18.1025 1.00488C18.2296 1.01784 18.3494 1.05523 18.4579 1.11133C18.4675 1.11626 18.4768 1.12169 18.4863 1.12695C18.5635 1.1701 18.6343 1.22288 18.6972 1.28418C18.7003 1.28722 18.7039 1.28988 18.707 1.29297C18.7097 1.29574 18.712 1.29896 18.7148 1.30176C18.7774 1.36595 18.8312 1.43845 18.8749 1.51758C18.8789 1.52487 18.8838 1.5317 18.8876 1.53906C18.8984 1.5597 18.9076 1.58109 18.9169 1.60254C18.9337 1.64124 18.9482 1.68058 18.9599 1.7207C18.9856 1.80939 18.9999 1.90303 18.9999 2V8C18.9999 8.55226 18.5522 8.99996 17.9999 9C17.4476 9 16.9999 8.55228 16.9999 8V4.41406L12.207 9.20703C11.8164 9.59754 11.1834 9.59752 10.7929 9.20703C10.4024 8.81651 10.4024 8.18349 10.7929 7.79297L15.5859 3H11.9999C11.4476 3 10.9999 2.55228 10.9999 2C10.9999 1.44772 11.4476 1 11.9999 1H17.9999L18.1025 1.00488Z" fill="currentColor"/>
<path d="M7.79297 10.7929C8.18349 10.4024 8.81651 10.4024 9.20703 10.7929C9.59752 11.1834 9.59754 11.8164 9.20703 12.207L4.41406 16.9999H8C8.55228 16.9999 9 17.4476 9 17.9999C8.99996 18.5522 8.55226 18.9999 8 18.9999H2L1.89746 18.995C1.76986 18.982 1.64984 18.944 1.54102 18.8876C1.53145 18.8827 1.52213 18.8773 1.5127 18.872C1.43673 18.8294 1.36675 18.7779 1.30469 18.7177C1.30089 18.714 1.29672 18.7107 1.29297 18.707C1.28775 18.7017 1.2834 18.6957 1.27832 18.6904C1.26285 18.6742 1.24776 18.6577 1.2334 18.6405C1.22895 18.6352 1.22405 18.6303 1.21973 18.6249C1.20266 18.6036 1.18718 18.5812 1.17188 18.5585C1.16726 18.5517 1.16263 18.5449 1.1582 18.538C1.14836 18.5226 1.13889 18.5071 1.12988 18.4911C1.12377 18.4803 1.11701 18.4699 1.11133 18.4589C1.10078 18.4385 1.09119 18.4176 1.08203 18.3964C1.06293 18.3522 1.04756 18.3067 1.03516 18.2607C1.01273 18.1775 1.00001 18.0902 1 17.9999V11.9999C1 11.4476 1.44772 10.9999 2 10.9999C2.55228 10.9999 3 11.4476 3 11.9999V15.5859L7.79297 10.7929Z" fill="currentColor"/>
</svg>
