<svg width="24" height="24" viewBox="0 0 24 24" fill="none" xmlns="http://www.w3.org/2000/svg">
<path fill-rule="evenodd" clip-rule="evenodd" d="M15 3C14.4477 3 14 2.55228 14 2C14 1.44772 14.4477 1 15 1H22C22.5523 1 23 1.44772 23 2V9C23 9.55228 22.5523 10 22 10C21.4477 10 21 9.55228 21 9V4.41421L14.7071 10.7071C14.3166 11.0976 13.6834 11.0976 13.2929 10.7071C12.9024 10.3166 12.9024 9.68342 13.2929 9.29289L19.5858 3H15ZM9.29289 13.2929C9.68342 12.9024 10.3166 12.9024 10.7071 13.2929C11.0976 13.6834 11.0976 14.3166 10.7071 14.7071L4.41421 21H9C9.55228 21 10 21.4477 10 22C10 22.5523 9.55228 23 9 23H2C1.44772 23 1 22.5523 1 22V15C1 14.4477 1.44772 14 2 14C2.55228 14 3 14.4477 3 15V19.5858L9.29289 13.2929Z" fill="currentColor"/>
</svg>
