<svg width="16" height="16" viewBox="0 0 16 16" fill="none" xmlns="http://www.w3.org/2000/svg">
<path fill-rule="evenodd" clip-rule="evenodd" d="M9 2C9 1.44772 9.44772 1 10 1H14C14.5523 1 15 1.44772 15 2V6C15 6.55228 14.5523 7 14 7C13.4477 7 13 6.55228 13 6V4.41421L10.2071 7.20711C9.81658 7.59763 9.18342 7.59763 8.79289 7.20711C8.40237 6.81658 8.40237 6.18342 8.79289 5.79289L11.5858 3H10C9.44772 3 9 2.55228 9 2ZM7.20711 8.79289C7.59763 9.18342 7.59763 9.81658 7.20711 10.2071L4.41421 13H6C6.55228 13 7 13.4477 7 14C7 14.5523 6.55228 15 6 15H2C1.44772 15 1 14.5523 1 14V10C1 9.44772 1.44772 9 2 9C2.55228 9 3 9.44772 3 10V11.5858L5.79289 8.79289C6.18342 8.40237 6.81658 8.40237 7.20711 8.79289Z" fill="currentColor"/>
</svg>
