<svg width="20" height="20" viewBox="0 0 20 20" fill="none" xmlns="http://www.w3.org/2000/svg">
<path fill-rule="evenodd" clip-rule="evenodd" d="M2 4C2 3.44772 2.44772 3 3 3L17 3C17.5523 3 18 3.44772 18 4C18 4.55229 17.5523 5 17 5L3 5C2.44772 5 2 4.55228 2 4ZM2 10C2 9.44772 2.44772 9 3 9L17 9C17.5523 9 18 9.44772 18 10C18 10.5523 17.5523 11 17 11L3 11C2.44772 11 2 10.5523 2 10ZM2 16C2 15.4477 2.44772 15 3 15L17 15C17.5523 15 18 15.4477 18 16C18 16.5523 17.5523 17 17 17L3 17C2.44772 17 2 16.5523 2 16Z" fill="currentColor"/>
</svg>
