<svg width="24" height="24" viewBox="0 0 24 24" fill="none" xmlns="http://www.w3.org/2000/svg">
<path fill-rule="evenodd" clip-rule="evenodd" d="M7.0001 6C7.0001 3.23858 9.23868 1 12.0001 1C14.7615 1 17.0001 3.23858 17.0001 6V10C17.0001 12.7614 14.7615 15 12.0001 15C9.23868 15 7.0001 12.7614 7.0001 10V6ZM12.0001 3C10.3432 3 9.0001 4.34315 9.0001 6V10C9.0001 11.6569 10.3432 13 12.0001 13C13.657 13 15.0001 11.6569 15.0001 10V6C15.0001 4.34315 13.657 3 12.0001 3ZM4.49932 13.1344C4.97738 12.8579 5.58911 13.0212 5.86565 13.4993C7.07251 15.5856 9.40063 17 12.0001 17C14.5996 17 16.9276 15.5856 18.1344 13.4993C18.411 13.0212 19.0227 12.8579 19.5008 13.1344C19.9788 13.4109 20.1422 14.0227 19.8656 14.5007C18.4643 16.9232 15.9137 18.6248 13.0001 18.9452L13.0001 21H15C15.5523 21 16 21.4477 16 22C16 22.5523 15.5523 23 15 23H9.00004C8.44776 23 8.00004 22.5523 8.00004 22C8.00004 21.4477 8.44776 21 9.00004 21H11.0001L11.0001 18.9452C8.08646 18.6248 5.53578 16.9232 4.13444 14.5007C3.85789 14.0227 4.02126 13.4109 4.49932 13.1344Z" fill="currentColor"/>
</svg>
