<svg width="16" height="16" viewBox="0 0 16 16" fill="none" xmlns="http://www.w3.org/2000/svg">
<path fill-rule="evenodd" clip-rule="evenodd" d="M4.99996 3C4.99996 1.34315 6.34311 0 7.99996 0C9.65682 0 11 1.34315 11 3V6C11 7.65685 9.65682 9 7.99996 9C6.34311 9 4.99996 7.65685 4.99996 6V3ZM7.99996 2C7.44768 2 6.99996 2.44772 6.99996 3V6C6.99996 6.55228 7.44768 7 7.99996 7C8.55225 7 8.99996 6.55228 8.99996 6V3C8.99996 2.44772 8.55225 2 7.99996 2ZM2.4992 8.13439C2.97726 7.85785 3.58898 8.02121 3.86553 8.49927C4.75173 10.0313 6.18783 11 7.99996 11C9.81208 11 11.2481 10.0313 12.1343 8.49927C12.4109 8.02121 13.0226 7.85785 13.5006 8.13439C13.9787 8.41094 14.1421 9.02267 13.8655 9.50073C12.8321 11.2871 11.1497 12.6122 8.99996 12.9279V15C8.99996 15.5523 8.55225 16 7.99996 16C7.44768 16 6.99996 15.5523 6.99996 15V12.9279C4.85019 12.6122 3.16771 11.2872 2.13432 9.50073C1.85777 9.02267 2.02114 8.41094 2.4992 8.13439Z" fill="currentColor"/>
</svg>
