<svg width="24" height="24" viewBox="0 0 24 24" fill="none" xmlns="http://www.w3.org/2000/svg">
<path d="M22.7071 1.29289C22.3166 0.902369 21.6834 0.902369 21.2929 1.29289L15 7.58579V3C15 2.44772 14.5523 2 14 2C13.4477 2 13 2.44772 13 3V10C13 10.5523 13.4477 11 14 11H21C21.5523 11 22 10.5523 22 10C22 9.44772 21.5523 9 21 9H16.4142L22.7071 2.70711C23.0976 2.31658 23.0976 1.68342 22.7071 1.29289Z" fill="currentColor"/>
<path d="M2 14C2 14.5523 2.44772 15 3 15H7.58579L1.29289 21.2929C0.902369 21.6834 0.902369 22.3166 1.29289 22.7071C1.68342 23.0976 2.31658 23.0976 2.70711 22.7071L9 16.4142V21C9 21.5523 9.44772 22 10 22C10.5523 22 11 21.5523 11 21V14C11 13.4477 10.5523 13 10 13H3C2.44772 13 2 13.4477 2 14Z" fill="currentColor"/>
</svg>
