<svg width="16" height="16" viewBox="0 0 16 16" fill="none" xmlns="http://www.w3.org/2000/svg">
<path d="M14.7071 2.70711C15.0976 2.31658 15.0976 1.68342 14.7071 1.29289C14.3166 0.902369 13.6834 0.902369 13.2929 1.29289L10.5 4.08579V2.5C10.5 1.94772 10.0523 1.5 9.5 1.5C8.94772 1.5 8.5 1.94772 8.5 2.5V6.5C8.5 7.05229 8.94772 7.5 9.5 7.5H13.5C14.0523 7.5 14.5 7.05229 14.5 6.5C14.5 5.94771 14.0523 5.5 13.5 5.5H11.9142L14.7071 2.70711Z" fill="currentColor"/>
<path d="M2.5 8.5C1.94772 8.5 1.5 8.94772 1.5 9.5C1.5 10.0523 1.94772 10.5 2.5 10.5H4.08579L1.29289 13.2929C0.902369 13.6834 0.902369 14.3166 1.29289 14.7071C1.68342 15.0976 2.31658 15.0976 2.70711 14.7071L5.5 11.9142V13.5C5.5 14.0523 5.94771 14.5 6.5 14.5C7.05229 14.5 7.5 14.0523 7.5 13.5V9.5C7.5 8.94772 7.05229 8.5 6.5 8.5H2.5Z" fill="currentColor"/>
</svg>
