<svg width="24" height="24" viewBox="0 0 24 24" fill="none" xmlns="http://www.w3.org/2000/svg">
<path fill-rule="evenodd" clip-rule="evenodd" d="M2.24623 1.34288C2.60916 0.926582 3.24084 0.883316 3.65714 1.24624L21.1455 16.4925C22.5388 17.7072 21.6797 20 19.8312 20H14.9999C14.9999 20 14.9999 20 14.9999 20C14.9998 21.6568 13.6567 23 11.9999 23C10.343 23 8.99988 21.6569 8.99988 20H3.99988C2.57273 20 1.60482 18.5482 2.15373 17.2308L3.99986 12.8001L3.99948 9.00011C3.99948 7.58017 4.37019 6.24476 5.01998 5.08768L2.34287 2.75379C1.92657 2.39086 1.88331 1.75918 2.24623 1.34288ZM6.57119 6.44002C6.20449 7.21599 5.9995 8.0833 5.99948 8.99991C5.99948 8.99988 5.99948 8.99995 5.99948 8.99991L5.99988 12.9999C5.9999 13.132 5.97375 13.2627 5.92296 13.3846L3.99988 18H19.8312L6.57119 6.44002ZM10.9999 20.0001C10.9999 20.0001 10.9999 20.0001 10.9999 20.0001C10.9999 20.5523 11.4476 21 11.9999 21C12.5522 21 12.9999 20.5523 12.9999 20L10.9999 20.0001ZM11.9995 3.00001C11.0776 3.00001 10.2069 3.20723 9.42902 3.57669C8.93014 3.81363 8.33365 3.60129 8.09671 3.10242C7.85977 2.60354 8.07211 2.00704 8.57099 1.7701C9.61133 1.27599 10.7746 1.00001 11.9995 1.00001C16.4178 1.00001 19.9995 4.58174 19.9995 9.00001V11C19.9995 11.5523 19.5518 12 18.9995 12C18.4472 12 17.9995 11.5523 17.9995 11V9.00001C17.9995 5.68631 15.3132 3.00001 11.9995 3.00001Z" fill="currentColor"/>
</svg>
