<svg width="20" height="20" viewBox="0 0 20 20" fill="none" xmlns="http://www.w3.org/2000/svg">
<path fill-rule="evenodd" clip-rule="evenodd" d="M1.24075 0.349226C1.60018 -0.070099 2.23147 -0.11866 2.6508 0.240761L18.0983 13.4815C19.5081 14.6899 18.6535 17 16.7967 17H13C13 17 13 17 13 17C13 18.6568 11.6568 20 10 20C8.34315 20 7 18.6568 7 17H3.00012C1.57291 17 0.605005 15.548 1.15402 14.2306L3.00047 9.80005L3.00001 7.00017C3.00001 5.85852 3.27399 4.77886 3.75981 3.82549L1.34922 1.75927C0.929894 1.39985 0.881332 0.768551 1.24075 0.349226ZM5.34098 5.18078C5.12085 5.74406 5.00003 6.35728 5.00001 6.99985C5.00001 6.99979 5.00001 6.9999 5.00001 6.99985L5.0005 9.99984C5.00052 10.1319 4.97436 10.2627 4.92355 10.3847L3.00012 15L16.7967 15L5.34098 5.18078ZM9 17C9 17.5523 9.44771 18 10 18C10.5523 18 11 17.5523 11 17H9ZM10 2.00002C9.25465 2.00002 8.54997 2.16245 7.91713 2.45291C7.41519 2.68328 6.82153 2.46313 6.59116 1.96119C6.36078 1.45925 6.58093 0.865589 7.08287 0.635215C7.97214 0.227069 8.96092 1.81129e-05 10 1.81129e-05C13.866 1.81129e-05 17 3.13402 17 7.00001V9C17 9.55229 16.5523 10 16 10C15.4477 10 15 9.55229 15 9V7.00001C15 4.23859 12.7614 2.00002 10 2.00002Z" fill="currentColor"/>
</svg>
