<svg width="16" height="16" viewBox="0 0 16 16" fill="none" xmlns="http://www.w3.org/2000/svg">
<path fill-rule="evenodd" clip-rule="evenodd" d="M7.99997 3C6.34311 3 4.99997 4.34315 4.99997 6V8C4.99997 8.21637 4.92979 8.4269 4.79997 8.6L2.99997 11H13L11.2 8.6C11.0701 8.4269 11 8.21637 11 8V6C11 4.34315 9.65682 3 7.99997 3ZM2.99997 6C2.99997 3.23858 5.23855 1 7.99997 1C10.7614 1 13 3.23858 13 6V7.66667L14.6 9.8C15.5888 11.1185 14.6481 13 13 13H11C11 14.6569 9.65682 16 7.99997 16C6.34311 16 4.99997 14.6569 4.99997 13H2.99997C1.35188 13 0.411115 11.1185 1.39997 9.8L2.99997 7.66667V6ZM6.99997 13C6.99997 13.5523 7.44768 14 7.99997 14C8.55225 14 8.99997 13.5523 8.99997 13H6.99997Z" fill="currentColor"/>
</svg>
