<svg width="24" height="24" viewBox="0 0 24 24" fill="none" xmlns="http://www.w3.org/2000/svg">
<path fill-rule="evenodd" clip-rule="evenodd" d="M11.9995 3C8.68581 3 5.99954 5.68624 5.99948 8.9999C5.99948 8.99987 5.99948 8.99993 5.99948 8.9999L5.99988 12.9999C5.9999 13.132 5.97375 13.2627 5.92296 13.3846L3.99988 18H19.9999L18.0768 13.3846C18.026 13.2628 17.9999 13.1321 17.9999 13.0001L17.9995 9.0001C17.9995 5.68639 15.3132 3 11.9995 3ZM3.99948 9C3.99948 4.58172 7.5812 1 11.9995 1C16.4177 1 19.9994 4.58167 19.9995 8.9999C19.9995 8.99987 19.9995 8.99993 19.9995 8.9999L19.9999 12.8L21.846 17.2308C22.3949 18.5481 21.427 20 19.9999 20H14.9999C14.9999 21.6569 13.6567 23 11.9999 23C10.343 23 8.99988 21.6569 8.99988 20H3.99988C2.57273 20 1.60482 18.5481 2.15373 17.2308L3.99986 12.8L3.99948 9ZM10.9999 20C10.9999 20.5523 11.4476 21 11.9999 21C12.5521 21 12.9998 20.5523 12.9999 20.0001L10.9999 20Z" fill="currentColor"/>
</svg>
