<svg width="20" height="20" viewBox="0 0 20 20" fill="none" xmlns="http://www.w3.org/2000/svg">
<path fill-rule="evenodd" clip-rule="evenodd" d="M5.00002 7C5.00002 6.99995 5.00002 7.00005 5.00002 7L5.0005 9.99984C5.00053 10.1319 4.97437 10.2627 4.92355 10.3847L3.00013 15L17.0005 15L15.0774 10.3846C15.0267 10.2628 15.0005 10.1321 15.0005 10.0002L15 7.00016C15 4.23874 12.7614 2 10 2C7.23865 2 5.0001 4.23865 5.00002 7ZM3.00002 7C3.00002 3.13401 6.13402 0 10 0C13.866 0 16.9999 3.13392 17 6.99984C17 6.99978 17 6.99989 17 6.99984L17.0005 9.79992L18.8467 14.2308C19.3956 15.5481 18.4277 17 17.0005 17H13C13 18.6569 11.6569 20 10 20C8.34316 20 7.00001 18.6569 7.00001 17H3.00013C1.57291 17 0.605006 15.548 1.15403 14.2306L3.00047 9.80004L3.00002 7ZM9.00001 17C9.00001 17.5523 9.44773 18 10 18C10.5523 18 11 17.5523 11 17H9.00001Z" fill="currentColor"/>
</svg>
