<svg width="16" height="16" viewBox="0 0 16 16" fill="none" xmlns="http://www.w3.org/2000/svg">
<path fill-rule="evenodd" clip-rule="evenodd" d="M8 0C9.933 0 11.5 1.567 11.5 3.5C11.5 4.40214 11.1582 5.22411 10.5977 5.84473L12.0547 8.0293C12.2006 8.01077 12.3491 8 12.5 8C14.433 8 16 9.567 16 11.5C16 13.433 14.433 15 12.5 15C10.567 15 9 13.433 9 11.5C9 10.4455 9.46643 9.50008 10.2041 8.8584L8.88867 6.88574C8.60486 6.96003 8.3071 7 8 7C7.69257 7 7.39444 6.96019 7.11035 6.88574L5.79492 8.8584C6.53292 9.50009 7 10.4453 7 11.5C7 13.433 5.433 15 3.5 15C1.567 15 0 13.433 0 11.5C0 9.567 1.567 8 3.5 8C3.65091 8 3.79944 8.01077 3.94531 8.0293L5.40137 5.84473C4.84109 5.22417 4.5 4.4019 4.5 3.5C4.5 1.567 6.067 0 8 0ZM3.5 10C2.67157 10 2 10.6716 2 11.5C2 12.3284 2.67157 13 3.5 13C4.32843 13 5 12.3284 5 11.5C5 10.6716 4.32843 10 3.5 10ZM12.5 10C11.6716 10 11 10.6716 11 11.5C11 12.3284 11.6716 13 12.5 13C13.3284 13 14 12.3284 14 11.5C14 10.6716 13.3284 10 12.5 10ZM8 2C7.17157 2 6.5 2.67157 6.5 3.5C6.5 4.32843 7.17157 5 8 5C8.82843 5 9.5 4.32843 9.5 3.5C9.5 2.67157 8.82843 2 8 2Z" fill="currentColor"/>
</svg>
