<svg width="24" height="24" viewBox="0 0 24 24" fill="none" xmlns="http://www.w3.org/2000/svg">
<path d="M17.99 13.005C17.66 13.005 17.35 13.055 17.05 13.125L14.84 9.805C15.55 9.085 16 8.095 16 6.99499C16 4.78499 14.21 2.995 12 2.995C9.79 2.995 8 4.78499 8 6.99499C8 8.08499 8.44 9.075 9.15 9.805L6.94 13.125C6.64 13.055 6.32 13.005 6 13.005C3.79 13.005 2 14.795 2 17.005C2 19.215 3.79 21.005 6 21.005C8.21 21.005 10 19.215 10 17.005C10 15.815 9.46 14.755 8.63 14.015L10.78 10.795C11.17 10.915 11.57 11.005 12 11.005C12.43 11.005 12.83 10.915 13.22 10.795L15.37 14.015C14.54 14.745 14 15.805 14 17.005C14 19.215 15.79 21.005 18 21.005C20.21 21.005 22 19.215 22 17.005C22 14.795 20.21 13.005 18 13.005H17.99ZM5.99 19.105C4.83 19.105 3.89 18.165 3.89 17.005C3.89 15.845 4.83 14.905 5.99 14.905C7.15 14.905 8.09 15.845 8.09 17.005C8.09 18.165 7.15 19.105 5.99 19.105ZM9.89 7.005C9.89 5.845 10.83 4.905 11.99 4.905C13.15 4.905 14.09 5.845 14.09 7.005C14.09 8.165 13.15 9.105 11.99 9.105C10.83 9.105 9.89 8.165 9.89 7.005ZM17.99 19.105C16.83 19.105 15.89 18.165 15.89 17.005C15.89 15.845 16.83 14.905 17.99 14.905C19.15 14.905 20.09 15.845 20.09 17.005C20.09 18.165 19.15 19.105 17.99 19.105Z" fill="currentColor"/>
</svg>
