<svg width="20" height="20" viewBox="0 0 20 20" fill="none" xmlns="http://www.w3.org/2000/svg">
<path d="M5.75 10C5.75 10.9665 4.9665 11.75 4 11.75C3.0335 11.75 2.25 10.9665 2.25 10C2.25 9.0335 3.0335 8.25 4 8.25C4.9665 8.25 5.75 9.0335 5.75 10Z" fill="currentColor"/>
<path d="M11.75 10C11.75 10.9665 10.9665 11.75 10 11.75C9.0335 11.75 8.25 10.9665 8.25 10C8.25 9.0335 9.0335 8.25 10 8.25C10.9665 8.25 11.75 9.0335 11.75 10Z" fill="currentColor"/>
<path d="M17.75 10C17.75 10.9665 16.9665 11.75 16 11.75C15.0335 11.75 14.25 10.9665 14.25 10C14.25 9.0335 15.0335 8.25 16 8.25C16.9665 8.25 17.75 9.0335 17.75 10Z" fill="currentColor"/>
</svg>
