<svg width="16" height="16" viewBox="0 0 16 16" fill="none" xmlns="http://www.w3.org/2000/svg">
<path d="M1.00024 12V2.99999C1.00024 1.34314 2.34338 0 4.00023 0H9.58615C10.1165 3.96948e-05 10.6252 0.210899 11.0002 0.585935L14.4143 3.99998C14.7893 4.37502 15.0001 4.88367 15.0002 5.41404V12C15.0002 13.6568 13.657 14.9999 12.0002 14.9999H4.00023C2.34338 14.9999 1.00024 13.6568 1.00024 12ZM12.5861 4.99998L10.0002 2.41405V4.99998H12.5861ZM3.00023 12C3.00023 12.5522 3.44795 13 4.00023 13H12.0002C12.5525 13 13.0002 12.5522 13.0002 12V6.99997H10.0002C8.89564 6.99997 8.00021 6.10455 8.00021 4.99998V1.99999H4.00023C3.44795 1.99999 3.00023 2.44771 3.00023 2.99999V12Z" fill="currentColor"/>
</svg>
