<svg width="20" height="20" viewBox="0 0 20 20" fill="none" xmlns="http://www.w3.org/2000/svg">
<path fill-rule="evenodd" clip-rule="evenodd" d="M6.12215 3.32694C5.74741 2.9158 5.10919 2.88951 4.70191 3.26844L3.01211 4.84062C3.32194 5.98255 4.39484 8.98047 7.70721 12.2928C11.0196 15.6052 14.0175 16.6782 15.1594 16.988L16.7316 15.2981C17.1105 14.8908 17.0842 14.2526 16.6731 13.8779L14.7599 12.1341L12.3163 12.9486C11.9569 13.0684 11.5608 12.9749 11.2929 12.707L7.29293 8.70705C7.0251 8.43921 6.93158 8.04304 7.05136 7.6837L7.86593 5.24011L6.12215 3.32694ZM2.97605 4.87417C2.97605 4.87417 2.97609 4.87412 2.97618 4.87404C2.9761 4.87413 2.97605 4.87417 2.97605 4.87417ZM3.33958 1.80418C4.5614 0.667402 6.47608 0.746266 7.60028 1.97967L9.34406 3.89285C9.83198 4.42816 9.99234 5.18545 9.76328 5.87259L9.14417 7.72986L12.2701 10.8558L14.1275 10.2367C14.8146 10.0077 15.5719 10.168 16.1072 10.656L18.0204 12.3998C19.2537 13.524 19.3326 15.4386 18.1959 16.6604L16.5903 18.3862C16.1469 18.8628 15.4529 19.1315 14.7365 18.945C13.3782 18.5915 9.98003 17.3941 6.29299 13.7071C2.60592 10.02 1.4086 6.62181 1.0551 5.26351C0.868654 4.54713 1.13729 3.85317 1.61385 3.40978L3.33958 1.80418Z" fill="currentColor"/>
</svg>
