<svg width="16" height="16" viewBox="0 0 16 16" fill="none" xmlns="http://www.w3.org/2000/svg">
<g clip-path="url(#clip0_199_2097)">
<path fill-rule="evenodd" clip-rule="evenodd" d="M4.20947 2.17983C4.03032 1.96186 3.70641 1.9352 3.49403 2.12095L2.00925 3.41953C2.15028 4.49066 2.79057 7.37643 5.70703 10.2929C8.62349 13.2094 11.5093 13.8496 12.5804 13.9907L13.879 12.5059C14.0647 12.2935 14.0381 11.9696 13.8201 11.7905L11.7919 10.1234L9.31615 10.9487C8.95682 11.0685 8.56065 10.9749 8.29282 10.7071L5.29282 7.7071C5.02499 7.43927 4.93146 7.0431 5.05124 6.68377L5.87649 4.20804L4.20947 2.17983ZM2.17737 0.61549C3.23926 -0.313233 4.8588 -0.17994 5.75455 0.909899L7.77247 3.36503C7.99084 3.63072 8.05736 3.98997 7.94861 4.31623L7.14405 6.72991L9.27002 8.85588L11.6837 8.05131C12.01 7.94256 12.3692 8.00909 12.6349 8.22746L15.09 10.2454C16.1799 11.1411 16.3132 12.7607 15.3844 13.8226L14.0545 15.3432C13.677 15.7748 13.0889 16.0656 12.4276 15.9871C11.1105 15.8308 7.68548 15.0998 4.29282 11.7071C0.90016 8.31445 0.169125 4.88941 0.0128014 3.57236C-0.065695 2.91102 0.225138 2.3229 0.656689 1.94547L2.17737 0.61549Z" fill="currentColor"/>
</g>
<defs>
<clipPath id="clip0_199_2097">
<rect width="16" height="16" fill="currentColor"/>
</clipPath>
</defs>
</svg>
