<svg width="24" height="24" viewBox="0 0 24 24" fill="none" xmlns="http://www.w3.org/2000/svg">
<path fill-rule="evenodd" clip-rule="evenodd" d="M6.64274 3.31688C6.26413 2.91329 5.62973 2.89391 5.2272 3.27364L3.0116 5.36377C3.28455 6.75727 4.42755 11.0135 8.70692 15.2929C12.9863 19.5723 17.2426 20.7153 18.6361 20.9883L20.7263 18.7727C21.106 18.3701 21.0867 17.7357 20.6831 17.3571L17.3546 14.2348L14.496 15.8682C14.1045 16.092 13.6116 16.026 13.2928 15.7071L8.29278 10.7071C7.97391 10.3882 7.90791 9.89537 8.13164 9.50384L9.76509 6.6453L6.64274 3.31688ZM3.85479 1.81883C5.06238 0.679631 6.96557 0.737764 8.10138 1.94854L11.2237 5.27697C11.8246 5.91749 11.9373 6.87505 11.5016 7.63758L10.2471 9.83295L14.1669 13.7528L16.3623 12.4983C17.1248 12.0626 18.0824 12.1753 18.7229 12.7761L22.0514 15.8985C23.2622 17.0343 23.3203 18.9375 22.1811 20.1451L20.0656 22.3876C19.6443 22.8341 19.0065 23.0938 18.3307 22.9662C16.7364 22.6653 12.0026 21.4169 7.2927 16.7071C2.58284 11.9972 1.33458 7.26347 1.03369 5.66913C0.906145 4.99332 1.1658 4.35553 1.61231 3.93431L3.85479 1.81883Z" fill="currentColor"/>
</svg>
