<svg width="16" height="16" viewBox="0 0 16 16" fill="none" xmlns="http://www.w3.org/2000/svg">
<path fill-rule="evenodd" clip-rule="evenodd" d="M7.20406 0.501357C7.48021 0.0230645 8.0918 -0.140811 8.57009 0.135332L15.4983 4.13533C15.9766 4.41147 16.1405 5.02306 15.8643 5.50136C15.5882 5.97965 14.9766 6.14353 14.4983 5.86738L13.8921 5.51738L12.1512 8.53263L12.394 11.1442C12.4132 11.3504 12.3679 11.5574 12.2643 11.7367L11.4643 13.1224C11.1882 13.6007 10.5766 13.7645 10.0983 13.4884L7.50022 11.9884L5.47377 15.4983C5.19762 15.9766 4.58603 16.1405 4.10774 15.8643C3.62945 15.5882 3.46557 14.9766 3.74171 14.4983L5.76817 10.9884L3.17009 9.48841C2.6918 9.21226 2.52792 8.60067 2.80406 8.12238L3.60406 6.73674C3.7076 6.55741 3.86426 6.41464 4.0524 6.32815L6.43545 5.23263L8.17631 2.21738L7.57009 1.86738C7.0918 1.59124 6.92792 0.97965 7.20406 0.501357ZM9.90836 3.21738L8.00836 6.50828C7.90482 6.68761 7.74817 6.83038 7.56002 6.91687L5.17697 8.01238L5.03611 8.25636L10.2323 11.2564L10.3731 11.0124L10.1303 8.40084C10.1112 8.19466 10.1565 7.98761 10.26 7.80828L12.16 4.51738L9.90836 3.21738Z" fill="currentColor"/>
</svg>
