<svg width="24" height="24" viewBox="0 0 24 24" fill="none" xmlns="http://www.w3.org/2000/svg">
<path fill-rule="evenodd" clip-rule="evenodd" d="M11.1262 1.50993C11.3969 1.02857 12.0066 0.857838 12.488 1.1286L20.4883 5.62864C20.9697 5.8994 21.1404 6.50911 20.8696 6.99047C20.5989 7.47183 19.9892 7.64256 19.5078 7.3718L19.0168 7.09564L16.0371 12.2033L16.4658 15.2041C16.509 15.5062 16.459 15.8143 16.3224 16.0872L15.4389 17.8538C15.1587 18.4139 14.4682 18.6274 13.9209 18.3233L10.3764 16.3542L6.86648 22.4964C6.59247 22.9759 5.98161 23.1425 5.50209 22.8685C5.02258 22.5945 4.85599 21.9837 5.13 21.5041L8.62794 15.3828L5.09602 13.4207C4.58118 13.1347 4.38296 12.4939 4.64638 11.9671L5.52172 10.2167C5.68038 9.89945 5.94634 9.64867 6.27238 9.50893L9.28576 8.2173L12.0388 3.17063L11.5075 2.87176C11.0261 2.601 10.8554 1.99129 11.1262 1.50993ZM13.7822 4.15121L10.8923 9.44858C10.7742 9.6651 10.5867 9.83565 10.36 9.93282L7.22862 11.275L6.82063 12.0909L10.4751 14.1211C10.4809 14.1243 10.4867 14.1275 10.4925 14.1308L14.0705 16.1186L14.4638 15.3323L14.0128 12.176C13.9778 11.9305 14.0267 11.6803 14.1517 11.4661L17.2735 6.11502L13.7822 4.15121Z" fill="currentColor"/>
</svg>
