<svg width="24" height="24" viewBox="0 0 24 24" fill="none" xmlns="http://www.w3.org/2000/svg">
<path d="M19.5077 7.37177C19.9891 7.64253 20.5988 7.4718 20.8695 6.99044C21.1403 6.50908 20.9696 5.89937 20.4882 5.62861L12.4879 1.12857C12.0065 0.857807 11.3968 1.02853 11.1261 1.5099C10.8553 1.99126 11.026 2.60097 11.5074 2.87173L12.0388 3.17065L9.28576 8.2173L6.27238 9.50893C5.94634 9.64867 5.68038 9.89945 5.52172 10.2167L4.64638 11.9671C4.38296 12.4939 4.58118 13.1347 5.09602 13.4207L8.62794 15.3828L5.13 21.5041C4.85599 21.9837 5.02258 22.5945 5.50209 22.8685C5.98161 23.1425 6.59247 22.9759 6.86648 22.4964L10.3764 16.3542L13.9209 18.3233C14.4682 18.6274 15.1587 18.4139 15.4389 17.8538L16.3224 16.0872C16.459 15.8143 16.509 15.5062 16.4658 15.2041L16.0371 12.2033L19.0168 7.09566L19.5077 7.37177Z" fill="currentColor"/>
</svg>
