<svg width="20" height="20" viewBox="0 0 20 20" fill="none" xmlns="http://www.w3.org/2000/svg">
<g clip-path="url(#clip0_1647_1301)">
<path fill-rule="evenodd" clip-rule="evenodd" d="M10 12C12.2091 12 14 10.2091 14 8C14 5.79086 12.2091 4 10 4C7.79086 4 6 5.79086 6 8C6 10.2091 7.79086 12 10 12ZM10 10C11.1046 10 12 9.10457 12 8C12 6.89543 11.1046 6 10 6C8.89543 6 8 6.89543 8 8C8 9.10457 8.89543 10 10 10Z" fill="currentColor"/>
<path fill-rule="evenodd" clip-rule="evenodd" d="M0 10C0 4.47715 4.47715 0 10 0C15.5228 0 20 4.47715 20 10C20 15.5228 15.5228 20 10 20C4.47715 20 0 15.5228 0 10ZM10 2C5.58172 2 2 5.58172 2 10C2 12.11 2.81685 14.0292 4.15157 15.4586C5.45137 13.9273 7.63601 13 10 13C12.364 13 14.5487 13.9273 15.8485 15.4586C17.1832 14.0291 18 12.11 18 10C18 5.58172 14.4183 2 10 2ZM14.3115 16.7399C13.4541 15.7438 11.8939 15 10 15C8.10617 15 6.54598 15.7439 5.68855 16.74C6.93278 17.5375 8.41238 18 10 18C11.5876 18 13.0673 17.5375 14.3115 16.7399Z" fill="currentColor"/>
</g>
<defs>
<clipPath id="clip0_1647_1301">
<rect width="20" height="20" fill="currentColor"/>
</clipPath>
</defs>
</svg>
