<svg width="24" height="24" viewBox="0 0 24 24" fill="none" xmlns="http://www.w3.org/2000/svg">
<path d="M4 1C2.34315 1 1 2.34315 1 4V6C1 6.55228 1.44772 7 2 7C2.55228 7 3 6.55228 3 6V4C3 3.44772 3.44772 3 4 3H6C6.55228 3 7 2.55228 7 2C7 1.44772 6.55228 1 6 1H4Z" fill="currentColor"/>
<path d="M20 1C21.6569 1 23 2.34315 23 4V6C23 6.55228 22.5523 7 22 7C21.4477 7 21 6.55228 21 6V4C21 3.44772 20.5523 3 20 3H18C17.4477 3 17 2.55228 17 2C17 1.44772 17.4477 1 18 1H20Z" fill="currentColor"/>
<path fill-rule="evenodd" clip-rule="evenodd" d="M8 9C8 6.79086 9.79086 5 12 5C14.2091 5 16 6.79086 16 9C16 11.2091 14.2091 13 12 13C9.79086 13 8 11.2091 8 9ZM12 7C10.8954 7 10 7.89543 10 9C10 10.1046 10.8954 11 12 11C13.1046 11 14 10.1046 14 9C14 7.89543 13.1046 7 12 7Z" fill="currentColor"/>
<path d="M6.83216 18.5547C7.66464 17.306 9.36558 16 12.0001 16C14.6346 16 16.3356 17.306 17.1681 18.5547C17.4744 19.0142 18.0953 19.1384 18.5548 18.8321C19.0143 18.5257 19.1385 17.9048 18.8322 17.4453C17.6646 15.694 15.3656 14 12.0001 14C8.63463 14 6.33557 15.694 5.16806 17.4453C4.8617 17.9048 4.98588 18.5257 5.44541 18.8321C5.90493 19.1384 6.5258 19.0142 6.83216 18.5547Z" fill="currentColor"/>
<path d="M1 20C1 21.6569 2.34315 23 4 23H6C6.55228 23 7 22.5523 7 22C7 21.4477 6.55228 21 6 21H4C3.44772 21 3 20.5523 3 20V18C3 17.4477 2.55228 17 2 17C1.44772 17 1 17.4477 1 18V20Z" fill="currentColor"/>
<path d="M23 20C23 21.6569 21.6569 23 20 23H18C17.4477 23 17 22.5523 17 22C17 21.4477 17.4477 21 18 21H20C20.5523 21 21 20.5523 21 20V18C21 17.4477 21.4477 17 22 17C22.5523 17 23 17.4477 23 18V20Z" fill="currentColor"/>
</svg>
