<svg width="24" height="24" viewBox="0 0 24 24" fill="none" xmlns="http://www.w3.org/2000/svg">
<path fill-rule="evenodd" clip-rule="evenodd" d="M15.9999 10.0005C15.9999 12.2096 14.209 14.0005 11.9999 14.0005C9.79077 14.0005 7.99991 12.2096 7.99991 10.0005C7.99991 7.79135 9.79077 6.00049 11.9999 6.00049C14.209 6.00049 15.9999 7.79135 15.9999 10.0005ZM13.9999 10.0005C13.9999 11.1051 13.1045 12.0005 11.9999 12.0005C10.8953 12.0005 9.99991 11.1051 9.99991 10.0005C9.99991 8.89592 10.8953 8.00049 11.9999 8.00049C13.1045 8.00049 13.9999 8.89592 13.9999 10.0005Z" fill="currentColor"/>
<path fill-rule="evenodd" clip-rule="evenodd" d="M23 12.0005C23 18.0756 18.0751 23.0005 12 23.0005C5.92487 23.0005 1 18.0756 1 12.0005C1 5.92536 5.92487 1.00049 12 1.00049C18.0751 1.00049 23 5.92536 23 12.0005ZM16.596 19.7401C15.2508 20.5407 13.6791 21.0005 12 21.0005C10.3209 21.0005 8.74912 20.5406 7.40384 19.74C8.14682 18.1772 9.85264 17.0005 11.9999 17.0005C14.1472 17.0005 15.8531 18.1773 16.596 19.7401ZM18.2161 18.509C17.0503 16.4245 14.7042 15.0005 11.9999 15.0005C9.29567 15.0005 6.94959 16.4244 5.78377 18.5088C4.06849 16.8701 3 14.5601 3 12.0005C3 7.02993 7.02944 3.00049 12 3.00049C16.9706 3.00049 21 7.02993 21 12.0005C21 14.5601 19.9315 16.8702 18.2161 18.509Z" fill="currentColor"/>
</svg>
