<svg width="16" height="16" viewBox="0 0 16 16" fill="none" xmlns="http://www.w3.org/2000/svg">
<path d="M0 4V2.5C0 1.1 1.1 0 2.5 0H4C4.6 0 5 0.4 5 1C5 1.6 4.6 2 4 2H2.5C2.2 2 2 2.2 2 2.5V4C2 4.6 1.6 5 1 5C0.4 5 0 4.6 0 4ZM13.5 0H12C11.4 0 11 0.4 11 1C11 1.6 11.4 2 12 2H13.5C13.8 2 14 2.2 14 2.5V4C14 4.6 14.4 5 15 5C15.6 5 16 4.6 16 4V2.5C16 1.1 14.9 0 13.5 0ZM4 14H2.5C2.2 14 2 13.8 2 13.5V12C2 11.4 1.6 11 1 11C0.4 11 0 11.4 0 12V13.5C0 14.9 1.1 16 2.5 16H4C4.6 16 5 15.6 5 15C5 14.4 4.6 14 4 14ZM15 11C14.4 11 14 11.4 14 12V13.5C14 13.8 13.8 14 13.5 14H12C11.4 14 11 14.4 11 15C11 15.6 11.4 16 12 16H13.5C14.9 16 16 14.9 16 13.5V12C16 11.4 15.6 11 15 11ZM5 5C5 3.3 6.3 2 8 2C9.7 2 11 3.3 11 5C11 6.7 9.7 8 8 8C6.3 8 5 6.7 5 5ZM7 5C7 5.6 7.4 6 8 6C8.6 6 9 5.6 9 5C9 4.4 8.6 4 8 4C7.4 4 7 4.4 7 5ZM12 13C12.2 13 12.4 12.9 12.6 12.8C13 12.5 13.1 11.8 12.8 11.4C12.7 11.3 11 9 8 9C5 9 3.3 11.3 3.2 11.4C2.9 11.8 3 12.5 3.4 12.8C3.8 13.1 4.5 13 4.8 12.6C4.8 12.6 6.1 11 8 11C9.9 11 11.2 12.6 11.2 12.6C11.4 12.9 11.7 13 12 13Z" fill="currentColor"/>
</svg>
