<svg width="16" height="16" viewBox="0 0 16 16" fill="none" xmlns="http://www.w3.org/2000/svg">
<path d="M10.375 6.625C10.375 7.93668 9.31168 9 8 9C6.68832 9 5.625 7.93668 5.625 6.625C5.625 5.31332 6.68832 4.25 8 4.25C9.31168 4.25 10.375 5.31332 10.375 6.625Z" fill="currentColor"/>
<path fill-rule="evenodd" clip-rule="evenodd" d="M8 0C3.58172 0 0 3.58172 0 8C0 12.4183 3.58172 16 8 16C12.4183 16 16 12.4183 16 8C16 3.58172 12.4183 0 8 0ZM2 8C2 4.68629 4.68629 2 8 2C11.3137 2 14 4.68629 14 8C14 9.53674 13.4223 10.9386 12.4721 12.0001C11.3743 10.7736 9.77791 10 8.00003 10C6.22214 10 4.6257 10.7736 3.52789 12.0001C2.57775 10.9386 2 9.53676 2 8Z" fill="currentColor"/>
</svg>
