<svg width="20" height="20" viewBox="0 0 20 20" fill="none" xmlns="http://www.w3.org/2000/svg">
<g clip-path="url(#clip0_666_771)">
<path d="M9.01911 6.87383L9.30003 5.56562C9.46197 4.81145 10.538 4.81147 10.7 5.56562L10.9809 6.87383C11.1041 7.44765 11.5524 7.89589 12.1262 8.01911L13.4344 8.30003C14.1885 8.46197 14.1885 9.53803 13.4344 9.69997L12.1262 9.9809C11.5524 10.1041 11.1041 10.5524 10.9809 11.1262L10.7 12.4344C10.538 13.1885 9.46197 13.1885 9.30003 12.4344L9.0191 11.1262C8.89589 10.5524 8.44765 10.1041 7.87383 9.9809L6.56562 9.69997C5.81145 9.53803 5.81147 8.46197 6.56562 8.30003L7.87383 8.01911C8.44765 7.89589 8.89589 7.44765 9.01911 6.87383Z" fill="currentColor"/>
<path fill-rule="evenodd" clip-rule="evenodd" d="M3.5 1C1.567 1 0 2.567 0 4.5V13.5C0 15.433 1.567 17 3.5 17H9.21657L13.7129 19.7714C14.7123 20.3874 16 19.6684 16 18.4944L16 17H16.5C18.433 17 20 15.433 20 13.5V4.5C20 2.567 18.433 1 16.5 1H3.5ZM2 4.5C2 3.67157 2.67157 3 3.5 3H16.5C17.3284 3 18 3.67157 18 4.5V13.5C18 14.3284 17.3284 15 16.5 15H13.9999L14 17.5989L10.0247 15.1487C9.86696 15.0515 9.6853 15 9.5 15H3.5C2.67157 15 2 14.3284 2 13.5V4.5Z" fill="currentColor"/>
</g>
<defs>
<clipPath id="clip0_666_771">
<rect width="20" height="20" fill="currentColor"/>
</clipPath>
</defs>
</svg>
