<svg width="16" height="16" viewBox="0 0 16 16" fill="none" xmlns="http://www.w3.org/2000/svg">
<path d="M2.5 0C1.11929 0 0 1.11929 0 2.5V4C0 4.55228 0.447715 5 1 5C1.55228 5 2 4.55228 2 4V2.5C2 2.22386 2.22386 2 2.5 2H4C4.55228 2 5 1.55228 5 1C5 0.447715 4.55228 0 4 0H2.5Z" fill="currentColor"/>
<path d="M13.5 0C14.8807 0 16 1.11929 16 2.5V4C16 4.55228 15.5523 5 15 5C14.4477 5 14 4.55228 14 4V2.5C14 2.22386 13.7761 2 13.5 2H12C11.4477 2 11 1.55228 11 1C11 0.447715 11.4477 0 12 0H13.5Z" fill="currentColor"/>
<path d="M0 13.5C0 14.8807 1.11929 16 2.5 16H4C4.55228 16 5 15.5523 5 15C5 14.4477 4.55228 14 4 14H2.5C2.22386 14 2 13.7761 2 13.5V12C2 11.4477 1.55228 11 1 11C0.447715 11 0 11.4477 0 12V13.5Z" fill="currentColor"/>
<path d="M13.5 16C14.8807 16 16 14.8807 16 13.5V12C16 11.4477 15.5523 11 15 11C14.4477 11 14 11.4477 14 12V13.5C14 13.7761 13.7761 14 13.5 14H12C11.4477 14 11 14.4477 11 15C11 15.5523 11.4477 16 12 16H13.5Z" fill="currentColor"/>
<path d="M4 5C4 4.44772 4.44772 4 5 4H6C6.55228 4 7 4.44772 7 5V6C7 6.55228 6.55228 7 6 7H5C4.44772 7 4 6.55228 4 6V5Z" fill="currentColor"/>
<path d="M9 5C9 4.44772 9.44772 4 10 4H11C11.5523 4 12 4.44772 12 5V6C12 6.55228 11.5523 7 11 7H10C9.44771 7 9 6.55228 9 6V5Z" fill="currentColor"/>
<path d="M4 10C4 9.44771 4.44772 9 5 9H6C6.55228 9 7 9.44772 7 10V11C7 11.5523 6.55228 12 6 12H5C4.44772 12 4 11.5523 4 11V10Z" fill="currentColor"/>
<path d="M9 10C9 9.44771 9.44772 9 10 9H11C11.5523 9 12 9.44772 12 10V11C12 11.5523 11.5523 12 11 12H10C9.44771 12 9 11.5523 9 11V10Z" fill="currentColor"/>
</svg>
