<svg width="24" height="24" viewBox="0 0 24 24" fill="none" xmlns="http://www.w3.org/2000/svg">
<path d="M4 1C2.34315 1 1 2.34315 1 4V6C1 6.55228 1.44772 7 2 7C2.55228 7 3 6.55228 3 6V4C3 3.44772 3.44772 3 4 3H6C6.55228 3 7 2.55228 7 2C7 1.44772 6.55228 1 6 1H4Z" fill="currentColor"/>
<path d="M20 1C21.6569 1 23 2.34315 23 4V6C23 6.55228 22.5523 7 22 7C21.4477 7 21 6.55228 21 6V4C21 3.44772 20.5523 3 20 3H18C17.4477 3 17 2.55228 17 2C17 1.44772 17.4477 1 18 1H20Z" fill="currentColor"/>
<path d="M1 20C1 21.6569 2.34315 23 4 23H6C6.55228 23 7 22.5523 7 22C7 21.4477 6.55228 21 6 21H4C3.44772 21 3 20.5523 3 20V18C3 17.4477 2.55228 17 2 17C1.44772 17 1 17.4477 1 18V20Z" fill="currentColor"/>
<path d="M20 23C21.6569 23 23 21.6569 23 20V18C23 17.4477 22.5523 17 22 17C21.4477 17 21 17.4477 21 18V20C21 20.5523 20.5523 21 20 21H18C17.4477 21 17 21.4477 17 22C17 22.5523 17.4477 23 18 23H20Z" fill="currentColor"/>
<path fill-rule="evenodd" clip-rule="evenodd" d="M6.5 5C5.67157 5 5 5.67157 5 6.5V9.5C5 10.3284 5.67157 11 6.5 11H9.5C10.3284 11 11 10.3284 11 9.5V6.5C11 5.67157 10.3284 5 9.5 5H6.5ZM7 7V9H9V7H7Z" fill="currentColor"/>
<path fill-rule="evenodd" clip-rule="evenodd" d="M5 14.5C5 13.6716 5.67157 13 6.5 13H9.5C10.3284 13 11 13.6716 11 14.5V17.5C11 18.3284 10.3284 19 9.5 19H6.5C5.67157 19 5 18.3284 5 17.5V14.5ZM7 17V15H9V17H7Z" fill="currentColor"/>
<path fill-rule="evenodd" clip-rule="evenodd" d="M14.5 13C13.6716 13 13 13.6716 13 14.5V17.5C13 18.3284 13.6716 19 14.5 19H17.5C18.3284 19 19 18.3284 19 17.5V14.5C19 13.6716 18.3284 13 17.5 13H14.5ZM15 15V17H17V15H15Z" fill="currentColor"/>
<path fill-rule="evenodd" clip-rule="evenodd" d="M13 6.5C13 5.67157 13.6716 5 14.5 5H17.5C18.3284 5 19 5.67157 19 6.5V9.5C19 10.3284 18.3284 11 17.5 11H14.5C13.6716 11 13 10.3284 13 9.5V6.5ZM15 9V7H17V9H15Z" fill="currentColor"/>
</svg>
