<svg width="16" height="16" viewBox="0 0 16 16" fill="none" xmlns="http://www.w3.org/2000/svg">
<path fill-rule="evenodd" clip-rule="evenodd" d="M8 3C5.23858 3 3 5.23858 3 8C3 10.7614 5.23858 13 8 13C10.1755 13 12.0289 11.6101 12.7157 9.66675C12.8998 9.14604 13.4711 8.87311 13.9918 9.05716C14.5126 9.24121 14.7855 9.81253 14.6014 10.3332C13.641 13.0507 11.0494 15 8 15C4.13401 15 1 11.866 1 8C1 4.13401 4.13401 1 8 1C9.73393 1 11.0449 1.57303 12 2.29628V2C12 1.44772 12.4477 1 13 1C13.5523 1 14 1.44772 14 2V5C14 5.55228 13.5523 6 13 6H10C9.44772 6 9 5.55228 9 5C9 4.44772 9.44772 4 10 4H10.9321C10.2594 3.45247 9.3033 3 8 3Z" fill="currentColor"/>
</svg>
