<svg width="20" height="20" viewBox="0 0 20 20" fill="none" xmlns="http://www.w3.org/2000/svg">
<path fill-rule="evenodd" clip-rule="evenodd" d="M10 4C6.68629 4 4 6.68629 4 10C4 13.3137 6.68629 16 10 16C12.7165 16 15.0138 14.1939 15.7517 11.7148C15.9092 11.1854 16.466 10.884 16.9954 11.0415C17.5247 11.1991 17.8261 11.7559 17.6686 12.2852C16.6853 15.5891 13.6255 18 10 18C5.58172 18 2 14.4183 2 10C2 5.58172 5.58172 2 10 2C12.0565 2 13.6562 2.88603 14.7835 3.87242C14.8575 3.93717 14.9297 4.00252 15 4.06826V3C15 2.44772 15.4477 2 16 2C16.5523 2 17 2.44772 17 3V7C17 7.55228 16.5523 8 16 8H12C11.4477 8 11 7.55228 11 7C11 6.44772 11.4477 6 12 6H14.0939C13.9078 5.79174 13.6986 5.58067 13.4665 5.37758C12.5938 4.61397 11.4435 4 10 4Z" fill="currentColor"/>
</svg>
