<svg width="24" height="24" viewBox="0 0 24 24" fill="none" xmlns="http://www.w3.org/2000/svg">
<path fill-rule="evenodd" clip-rule="evenodd" d="M12 5C8.13401 5 5 8.13401 5 12C5 15.866 8.13401 19 12 19C15.2603 19 18.0024 16.7701 18.7795 13.7507C18.9172 13.2159 19.4624 12.8939 19.9972 13.0316C20.5321 13.1692 20.8541 13.7144 20.7164 14.2493C19.7174 18.1308 16.195 21 12 21C7.02944 21 3 16.9706 3 12C3 7.02944 7.02944 3 12 3C14.7644 3 16.6841 4.07263 18 5.26892V4C18 3.44772 18.4477 3 19 3C19.5523 3 20 3.44772 20 4V8C20 8.55228 19.5523 9 19 9H15C14.4477 9 14 8.55228 14 8C14 7.44772 14.4477 7 15 7H16.9201C15.868 5.94912 14.3215 5 12 5Z" fill="currentColor"/>
</svg>
