<svg width="24" height="24" viewBox="0 0 24 24" fill="none" xmlns="http://www.w3.org/2000/svg">
<path fill-rule="evenodd" clip-rule="evenodd" d="M19.5541 19.0941C20.1607 19.0941 20.6525 18.6023 20.6525 17.9956C20.6525 17.389 20.1607 16.8972 19.5541 16.8972C18.9474 16.8972 18.4556 17.389 18.4556 17.9956C18.4556 18.6023 18.9474 19.0941 19.5541 19.0941Z" fill="currentColor"/>
<path fill-rule="evenodd" clip-rule="evenodd" d="M5.56404 2.05786C3.93639 2.05786 2.61692 3.37733 2.61692 5.00498V13.7363L0.208615 17.7502C-0.37054 18.7154 0.324755 19.9435 1.45044 19.9435H15.2639C15.6588 21.1056 16.7591 21.942 18.055 21.942H21.0529C22.6805 21.942 24 20.6225 24 18.9949V11.9999C24 10.3723 22.6805 9.05282 21.0529 9.05282H20.5025V5.00498C20.5025 3.37733 19.183 2.05786 17.5554 2.05786H5.56404ZM18.6054 5.00498V9.05282H18.055C16.4274 9.05282 15.1079 10.3723 15.1079 11.9999V13.0499H4.51404V5.00498C4.51404 4.42508 4.98414 3.95498 5.56404 3.95498H17.5554C18.1353 3.95498 18.6054 4.42508 18.6054 5.00498ZM2.24332 18.0463L4.10288 14.9471H15.1079V18.0463H2.24332ZM17.005 11.9999C17.005 11.42 17.4751 10.9499 18.055 10.9499H21.0529C21.6328 10.9499 22.1029 11.42 22.1029 11.9999V18.9949C22.1029 19.5748 21.6328 20.0449 21.0529 20.0449H18.055C17.4751 20.0449 17.005 19.5748 17.005 18.9949V11.9999Z" fill="currentColor"/>
</svg>
