<svg width="24" height="24" viewBox="0 0 24 24" fill="none" xmlns="http://www.w3.org/2000/svg">
<g clip-path="url(#clip0_1410_333)">
<path d="M9.70711 3.70711C10.0976 3.31658 10.0976 2.68342 9.70711 2.29289C9.31658 1.90237 8.68342 1.90237 8.29289 2.29289L3.29289 7.29289C3.14645 7.43934 3.05492 7.61991 3.01831 7.80901C2.95729 8.12417 3.04882 8.46303 3.29289 8.70711L8.29289 13.7071C8.68342 14.0976 9.31658 14.0976 9.70711 13.7071C10.0976 13.3166 10.0976 12.6834 9.70711 12.2929L6.41421 9H14C17.3848 9 20 11.5309 20 14.5C20 17.4691 17.3848 20 14 20H5C4.44772 20 4 20.4477 4 21C4 21.5523 4.44772 22 5 22H14C18.3472 22 22 18.7106 22 14.5C22 10.2894 18.3472 7 14 7H6.41421L9.70711 3.70711Z" fill="currentColor"/>
</g>
<defs>
<clipPath id="clip0_1410_333">
<rect width="19" height="20" fill="currentColor" transform="translate(3 2)"/>
</clipPath>
</defs>
</svg>
