<svg width="16" height="16" viewBox="0 0 16 16" fill="none" xmlns="http://www.w3.org/2000/svg">
<g clip-path="url(#clip0_1410_332)">
<path d="M6.70718 2.70712C7.09771 2.3166 7.09772 1.68343 6.7072 1.2929C6.31668 0.902373 5.68351 0.902365 5.29298 1.29288L2.2929 4.29288C2.09683 4.48895 1.99919 4.74619 2.00001 5.00318C2.00072 5.25816 2.09835 5.51293 2.29289 5.70747L5.29289 8.70747C5.68342 9.098 6.31658 9.098 6.70711 8.70747C7.09763 8.31695 7.09763 7.68378 6.70711 7.29326L5.41385 6H8.99976C11.3106 6 13 7.6635 13 9.5C13 11.3365 11.3109 13 9 13H4C3.44772 13 3 13.4477 3 14C3 14.5523 3.44772 15 4 15H9C12.212 15 15 12.6341 15 9.5C15 6.36593 12.212 4 9 4H5.41426L6.70718 2.70712Z" fill="currentColor"/>
</g>
<defs>
<clipPath id="clip0_1410_332">
<rect width="13" height="14" fill="currentColor" transform="translate(2 1)"/>
</clipPath>
</defs>
</svg>
