<svg width="24" height="24" viewBox="0 0 24 24" fill="none" xmlns="http://www.w3.org/2000/svg">
<path d="M7.94719 13.3944C8.29518 13.2204 8.70477 13.2204 9.05276 13.3944C9.54674 13.6414 10.1474 13.4412 10.3944 12.9472C10.6414 12.4532 10.4412 11.8525 9.94719 11.6056C9.03615 11.15 7.9638 11.15 7.05276 11.6056C6.55878 11.8525 6.35856 12.4532 6.60555 12.9472C6.85254 13.4412 7.45321 13.6414 7.94719 13.3944Z" fill="currentColor"/>
<path d="M16.0528 13.3944C15.7048 13.2204 15.2952 13.2204 14.9472 13.3944C14.4532 13.6414 13.8525 13.4412 13.6055 12.9472C13.3586 12.4532 13.5588 11.8525 14.0528 11.6056C14.9638 11.15 16.0361 11.15 16.9472 11.6056C17.4412 11.8525 17.6414 12.4532 17.3944 12.9472C17.1474 13.4412 16.5467 13.6414 16.0528 13.3944Z" fill="currentColor"/>
<path fill-rule="evenodd" clip-rule="evenodd" d="M7.98053 2.30383C7.87222 1.76227 7.34539 1.41106 6.80383 1.51937C6.26227 1.62768 5.91106 2.1545 6.01937 2.69606L6.39851 4.59178C4.38763 5.56083 3 7.61837 3 10V16C3 19.3137 5.68629 22 9 22H15C18.3137 22 21 19.3137 21 16V10C21 7.61833 19.6123 5.56077 17.6014 4.59174L17.9805 2.69606C18.0888 2.1545 17.7376 1.62768 17.1961 1.51937C16.6545 1.41106 16.1277 1.76227 16.0194 2.30383L15.6727 4.03729C15.4518 4.01265 15.2274 4 15 4H9C8.77256 4 8.54808 4.01265 8.32722 4.0373L7.98053 2.30383ZM5 10C5 7.79086 6.79086 6 9 6H15C17.2091 6 19 7.79086 19 10V16C19 18.2091 17.2091 20 15 20H9C6.79086 20 5 18.2091 5 16V10Z" fill="currentColor"/>
<path d="M2.01758 9.5H2C0.895431 9.5 0 10.3954 0 11.5V14.5C0 15.6046 0.895431 16.5 2 16.5H2.01758C2.00593 16.3348 2 16.1681 2 16V10C2 9.83188 2.00593 9.66515 2.01758 9.5Z" fill="currentColor"/>
<path d="M22 16.5H21.9824C21.9941 16.3348 22 16.1681 22 16V10C22 9.83188 21.9941 9.66515 21.9824 9.5H22C23.1046 9.5 24 10.3954 24 11.5V14.5C24 15.6046 23.1046 16.5 22 16.5Z" fill="currentColor"/>
</svg>
