<svg width="20" height="20" viewBox="0 0 20 20" fill="none" xmlns="http://www.w3.org/2000/svg">
<path fill-rule="evenodd" clip-rule="evenodd" d="M13.0303 2.25702C13.1644 1.72164 13.7067 1.39584 14.2422 1.52949C14.778 1.66343 15.1037 2.20658 14.9697 2.74238L14.4902 4.66327C15.9901 5.5264 17 7.14546 17 9.00019V13.0002C16.9999 15.7615 14.7613 18.0002 12 18.0002H8C5.23865 18.0002 3.00012 15.7615 3 13.0002V9.00019C3 7.14546 4.00989 5.5264 5.50977 4.66327L5.03027 2.74238C4.89633 2.20658 5.22202 1.66343 5.75781 1.52949C6.29332 1.39584 6.83562 1.72164 6.96973 2.25702L7.41406 4.03437C7.6062 4.01195 7.80185 4.00019 8 4.00019H12C12.1982 4.00019 12.3938 4.01195 12.5859 4.03437L13.0303 2.25702ZM8.03418 9.63105C7.51821 9.45909 6.96559 9.43684 6.44043 9.56562L6.21777 9.63007C6.20012 9.63595 6.16291 9.64868 6.09863 9.67011C5.6403 9.82289 5.39235 10.3182 5.54492 10.7766C5.69774 11.235 6.19389 11.4831 6.65234 11.3303L6.76953 11.2912C7.00045 11.2142 7.25052 11.2142 7.48145 11.2912L7.59863 11.3303C8.05706 11.483 8.55227 11.235 8.70508 10.7766C8.85771 10.3183 8.61048 9.82305 8.15234 9.67011L8.03418 9.63105ZM13.7842 9.63105C13.1941 9.43438 12.5559 9.43435 11.9658 9.63105L11.8486 9.67011C11.3903 9.82289 11.1423 10.3182 11.2949 10.7766C11.4477 11.235 11.9439 11.4831 12.4023 11.3303L12.5195 11.2912C12.7505 11.2142 13.0005 11.2142 13.2314 11.2912L13.3486 11.3303C13.8071 11.483 14.3023 11.235 14.4551 10.7766C14.6077 10.3183 14.3605 9.82305 13.9023 9.67011L13.7842 9.63105Z" fill="currentColor"/>
<path d="M2.04883 8.00019C2.01687 8.2456 2 8.49606 2 8.75019V13.2502C2.00001 13.5043 2.01686 13.7548 2.04883 14.0002H2C0.895507 14.0002 0.000124441 13.1047 0 12.0002V10.0002C0 8.89562 0.895431 8.00019 2 8.00019H2.04883Z" fill="currentColor"/>
<path d="M18 8.00019C19.1046 8.00019 20 8.89562 20 10.0002V12.0002C19.9999 13.1047 19.1045 14.0002 18 14.0002H17.9512C17.9831 13.7548 18 13.5043 18 13.2502V8.75019C18 8.49606 17.9831 8.2456 17.9512 8.00019H18Z" fill="currentColor"/>
</svg>
