<svg width="24" height="24" viewBox="0 0 24 24" fill="none" xmlns="http://www.w3.org/2000/svg">
<path fill-rule="evenodd" clip-rule="evenodd" d="M6.80383 1.51937C7.34539 1.41106 7.87222 1.76227 7.98053 2.30383L8.38222 4.31229C8.66555 4.27125 8.9553 4.25 9.25 4.25H14.75C15.0447 4.25 15.3344 4.27124 15.6177 4.31228L16.0194 2.30383C16.1277 1.76227 16.6545 1.41106 17.1961 1.51937C17.7376 1.62768 18.0888 2.1545 17.9805 2.69606L17.5331 4.93315C19.4454 5.93622 20.75 7.94076 20.75 10.25V15.75C20.75 19.0637 18.0637 21.75 14.75 21.75H9.25C5.93629 21.75 3.25 19.0637 3.25 15.75V10.25C3.25 7.9408 4.55451 5.93628 6.46679 4.93319L6.01937 2.69606C5.91106 2.1545 6.26227 1.62768 6.80383 1.51937ZM7.94719 13.3944C8.29518 13.2204 8.70477 13.2204 9.05276 13.3944C9.54674 13.6414 10.1474 13.4412 10.3944 12.9472C10.6414 12.4532 10.4412 11.8525 9.94719 11.6056C9.03615 11.15 7.9638 11.15 7.05276 11.6056C6.55878 11.8525 6.35856 12.4532 6.60555 12.9472C6.85254 13.4412 7.45321 13.6414 7.94719 13.3944ZM16.0528 13.3944C15.7048 13.2204 15.2952 13.2204 14.9472 13.3944C14.4532 13.6414 13.8525 13.4412 13.6055 12.9472C13.3586 12.4532 13.5588 11.8525 14.0528 11.6056C14.9638 11.15 16.0361 11.15 16.9472 11.6056C17.4412 11.8525 17.6414 12.4532 17.3944 12.9472C17.1474 13.4412 16.5467 13.6414 16.0528 13.3944Z" fill="currentColor"/>
<path d="M2 9.5H2.28971C2.26346 9.7464 2.25 9.99663 2.25 10.25V15.75C2.25 16.0034 2.26346 16.2536 2.28971 16.5H2C0.895431 16.5 0 15.6046 0 14.5V11.5C0 10.3954 0.895431 9.5 2 9.5Z" fill="currentColor"/>
<path d="M22 16.5H21.7103C21.7365 16.2536 21.75 16.0034 21.75 15.75V10.25C21.75 9.99663 21.7365 9.74641 21.7103 9.5H22C23.1045 9.5 24 10.3954 24 11.5V14.5C24 15.6046 23.1045 16.5 22 16.5Z" fill="currentColor"/>
</svg>
