<svg width="20" height="20" viewBox="0 0 20 20" fill="none" xmlns="http://www.w3.org/2000/svg">
<path d="M12.2695 11.2911C12.5004 11.2142 12.7501 11.2142 12.981 11.2911L13.0985 11.3303C13.557 11.4831 14.0525 11.2354 14.2053 10.7769C14.3582 10.3185 14.1104 9.82293 13.6519 9.67012L13.5344 9.63093C12.9443 9.43422 12.3062 9.43422 11.7161 9.63093L11.5985 9.67012C11.1401 9.82293 10.8923 10.3185 11.0451 10.7769C11.198 11.2354 11.6935 11.4831 12.1519 11.3303L12.2695 11.2911Z" fill="currentColor"/>
<path d="M7.73099 11.2911C7.50007 11.2142 7.25041 11.2142 7.01948 11.2911L6.90194 11.3303C6.44349 11.4831 5.94796 11.2354 5.79514 10.7769C5.64232 10.3185 5.89009 9.82293 6.34854 9.67012L6.46608 9.63093C7.05622 9.43422 7.69425 9.43422 8.28439 9.63093L8.40194 9.67012C8.86039 9.82293 9.10815 10.3185 8.95534 10.7769C8.80252 11.2354 8.30699 11.4831 7.84854 11.3303L7.73099 11.2911Z" fill="currentColor"/>
<path fill-rule="evenodd" clip-rule="evenodd" d="M6.97013 2.25746C6.83619 1.72166 6.29325 1.3959 5.75746 1.52985C5.22166 1.6638 4.8959 2.20673 5.02985 2.74253L5.42482 4.3224C3.83444 5.15932 2.75 6.82802 2.75 8.75V13.25C2.75 16.0114 4.98858 18.25 7.75 18.25H12.25C15.0114 18.25 17.25 16.0114 17.25 13.25V8.75C17.25 6.82802 16.1656 5.15932 14.5752 4.3224L14.9701 2.74253C15.1041 2.20673 14.7783 1.6638 14.2425 1.52985C13.7067 1.3959 13.1638 1.72166 13.0299 2.25746L12.6527 3.76598C12.5199 3.7554 12.3856 3.75 12.25 3.75H7.75C7.61443 3.75 7.48012 3.7554 7.34727 3.76598L6.97013 2.25746ZM4.75 8.75C4.75 7.09315 6.09315 5.75 7.75 5.75H12.25C13.9069 5.75 15.25 7.09315 15.25 8.75V13.25C15.25 14.9069 13.9069 16.25 12.25 16.25H7.75C6.09315 16.25 4.75 14.9069 4.75 13.25V8.75Z" fill="currentColor"/>
<path d="M2.04847 8C2.01649 8.24547 2 8.49581 2 8.75V13.25C2 13.5042 2.01649 13.7545 2.04847 14H2C0.895431 14 0 13.1046 0 12V10C0 8.89543 0.895431 8 2 8H2.04847Z" fill="currentColor"/>
<path d="M17.9515 14H18C19.1046 14 20 13.1046 20 12V10C20 8.89543 19.1046 8 18 8H17.9515C17.9835 8.24547 18 8.49581 18 8.75V13.25C18 13.5042 17.9835 13.7545 17.9515 14Z" fill="currentColor"/>
</svg>
