<svg width="17" height="16" viewBox="0 0 17 16" fill="none" xmlns="http://www.w3.org/2000/svg">
<path d="M11.4024 6.36841C10.9143 6.85656 10.1228 6.85656 9.63464 6.36841C9.14649 5.88025 9.14649 5.0888 9.63464 4.60064C10.1228 4.11249 10.9143 4.11249 11.4024 4.60064C11.8906 5.0888 11.8906 5.88025 11.4024 6.36841Z" fill="currentColor"/>
<path d="M5.38981 10.6089C6.42467 11.6438 6.59779 13.1773 5.67984 14.3723C4.80825 15.5067 3.14323 16.1043 0.958658 15.9847L0.0630357 15.9356L0.0146984 15.0407C-0.103323 12.8579 0.494415 11.193 1.6271 10.3209C2.82104 9.40177 4.35427 9.57331 5.38981 10.6089ZM3.9756 12.0231C3.59986 11.6473 3.18933 11.6424 2.84727 11.9057C2.52098 12.1569 2.11152 12.7791 2.01932 13.9807C3.22186 13.8893 3.84313 13.4796 4.09368 13.1535C4.35654 12.8111 4.35178 12.3993 3.9756 12.0231Z" fill="currentColor"/>
<path d="M10.9855 12.0886C11.4462 11.6279 11.6441 10.9819 11.5448 10.3595C10.9829 10.7831 10.3838 11.1619 9.75635 11.4948L10.1465 12.9276L10.9855 12.0886ZM13.9969 2.00475C11.6165 2.06362 9.58376 3.10136 8.02933 4.72959C7.33566 5.45626 6.7386 6.30211 6.25258 7.22864L8.77649 9.75254C9.70243 9.26623 10.5479 8.66976 11.2741 7.97579C12.902 6.42017 13.9378 4.38546 13.9969 2.00475ZM3.07544 5.85655L4.50968 6.24808C4.84245 5.62014 5.22061 5.01994 5.64422 4.45752C5.02165 4.35802 4.37534 4.55667 3.91444 5.01755L3.07544 5.85655ZM10.3419 15.5606C10.0899 15.8127 9.72247 15.9118 9.37794 15.8203C9.03343 15.7287 8.76389 15.4605 8.67014 15.1166L7.68061 11.4851L4.52003 8.32451L0.886445 7.33291C0.542606 7.23908 0.274275 6.96958 0.182791 6.62511C0.0913295 6.2806 0.190388 5.91317 0.442432 5.66113L2.50022 3.60333C3.68416 2.41944 5.4802 2.09811 7.00112 2.79817L7.09918 2.84237C9.15892 0.933272 11.8846 -0.211384 15.0507 0.032583L15.1411 0.0443221C15.5894 0.120315 15.9351 0.492725 15.9705 0.953755C16.2133 4.11887 15.0684 6.84394 13.16 8.90456L13.2049 9.00193C13.9047 10.5228 13.5835 12.319 12.3997 13.5028L10.3419 15.5606Z" fill="currentColor"/>
</svg>
