<svg width="16" height="16" viewBox="0 0 16 16" fill="none" xmlns="http://www.w3.org/2000/svg">
<path fill-rule="evenodd" clip-rule="evenodd" d="M6.5 3C4.567 3 3 4.567 3 6.5C3 8.433 4.567 10 6.5 10C7.46677 10 8.3404 9.60934 8.97487 8.97487C9.60934 8.3404 10 7.46677 10 6.5C10 4.567 8.433 3 6.5 3ZM1 6.5C1 3.46243 3.46243 1 6.5 1C9.53757 1 12 3.46243 12 6.5C12 7.65706 11.6419 8.7316 11.0316 9.61743L14.7071 13.2929C15.0976 13.6834 15.0976 14.3166 14.7071 14.7071C14.3166 15.0976 13.6834 15.0976 13.2929 14.7071L9.61743 11.0316C8.7316 11.6419 7.65706 12 6.5 12C3.46243 12 1 9.53757 1 6.5Z" fill="currentColor"/>
</svg>
