<svg width="20" height="20" viewBox="0 0 20 20" fill="none" xmlns="http://www.w3.org/2000/svg">
<path fill-rule="evenodd" clip-rule="evenodd" d="M8.5 3C5.46243 3 3 5.46243 3 8.5C3 11.5376 5.46243 14 8.5 14C10.0191 14 11.3927 13.3855 12.3891 12.3891C13.3855 11.3927 14 10.0191 14 8.5C14 5.46243 11.5376 3 8.5 3ZM1 8.5C1 4.35786 4.35786 1 8.5 1C12.6421 1 16 4.35786 16 8.5C16 10.2101 15.4267 11.7876 14.4633 13.0491L18.7071 17.2929C19.0976 17.6834 19.0976 18.3166 18.7071 18.7071C18.3166 19.0976 17.6834 19.0976 17.2929 18.7071L13.0491 14.4633C11.7876 15.4267 10.2101 16 8.5 16C4.35786 16 1 12.6421 1 8.5Z" fill="currentColor"/>
</svg>
