<svg width="24" height="24" viewBox="0 0 24 24" fill="none" xmlns="http://www.w3.org/2000/svg">
<path fill-rule="evenodd" clip-rule="evenodd" d="M0.0761497 3.61732C0.230931 3.24364 0.595567 3 1.00003 3H23C23.387 3 23.7392 3.22326 23.9044 3.57321C24.0695 3.92317 24.018 4.337 23.772 4.63571L9.77196 21.6357C9.51521 21.9475 9.09612 22.0742 8.70965 21.9569C8.32317 21.8396 8.04518 21.5014 8.00499 21.0995L7.04051 11.4547L0.292922 4.70711C0.00692445 4.42111 -0.0786313 3.99099 0.0761497 3.61732ZM9.06564 11.6062L9.75592 18.5091L20.881 5H3.41424L8.21186 9.79762L15.0771 6.59382C15.5776 6.36026 16.1727 6.57664 16.4062 7.07711C16.6398 7.57759 16.4234 8.17263 15.9229 8.40618L9.06564 11.6062Z" fill="currentColor"/>
</svg>
