<svg width="20" height="20" viewBox="0 0 20 20" fill="none" xmlns="http://www.w3.org/2000/svg">
<g clip-path="url(#clip0_1113_103)">
<path fill-rule="evenodd" clip-rule="evenodd" d="M19.9023 3.56629C20.0685 3.91389 20.0201 4.326 19.7781 4.62573L8.46987 18.6302C8.20937 18.9528 7.7768 19.0812 7.38249 18.9529C6.98818 18.8246 6.71394 18.4663 6.69311 18.0521L6.29164 10.0677L0.333851 4.74577C0.0245696 4.46949 -0.0820946 4.03099 0.0657324 3.64353C0.213558 3.25606 0.585197 3.00004 0.999904 2.99999L18.9999 2.9975C19.3852 2.99744 19.7362 3.2187 19.9023 3.56629ZM8.3016 10.2155L8.55907 15.3362L16.9071 4.99779L3.62017 4.99962L7.43912 8.41102L11.3502 6.54301C11.8486 6.30498 12.4455 6.51602 12.6836 7.01438C12.9216 7.51274 12.7105 8.1097 12.2122 8.34773L8.3016 10.2155Z" fill="currentColor"/>
</g>
<defs>
<clipPath id="clip0_1113_103">
<rect width="20" height="20" fill="currentColor"/>
</clipPath>
</defs>
</svg>
