<svg width="16" height="16" viewBox="0 0 16 16" fill="none" xmlns="http://www.w3.org/2000/svg">
<path fill-rule="evenodd" clip-rule="evenodd" d="M10.7987 0.651929C10.6531 0.260032 10.2788 0 9.86031 0H6.13967C5.7212 0 5.34689 0.260032 5.20123 0.651929L4.78859 1.76216L4.47348 1.94577L4.19879 2.10258L3.02933 1.90434C2.61676 1.83441 2.20417 2.02822 1.99494 2.39025L1.07363 3.98437L1.06476 3.99941L0.134619 5.60881C-0.0746153 5.97084 -0.0363442 6.42469 0.230569 6.74665L0.986434 7.6584L0.988198 8.05567L0.986938 8.33949L0.230071 9.25245C-0.0368423 9.57441 -0.0751135 10.0283 0.134121 10.3903L1.06426 11.9997L1.07086 12.0109L1.99493 13.6098C2.20416 13.9719 2.61675 14.1657 3.02932 14.0957L4.19889 13.8975L4.46662 14.0503L4.78862 14.2379L5.20123 15.3481C5.34689 15.74 5.7212 16 6.13967 16H9.86036C10.2788 16 10.6531 15.74 10.7988 15.3481L11.2114 14.2379L11.5324 14.0509L11.8011 13.8975L12.9706 14.0958C13.3832 14.1657 13.7958 13.9719 14.005 13.6099L14.9274 12.0139L14.9352 12.0006L15.8654 10.3912C16.0746 10.0292 16.0363 9.57532 15.7694 9.25335L15.0136 8.34161L15.0118 7.94322L15.0131 7.66065L15.7699 6.74767C16.0368 6.42571 16.0751 5.97187 15.8659 5.60983L14.9357 4.00044L14.9305 3.99152L14.005 2.3902C13.7958 2.02817 13.3832 1.83435 12.9707 1.90429L11.8011 2.10254L11.5314 1.94856L11.2114 1.76208L10.7987 0.651929ZM5.46765 12.3182L6.09551 12.6767C6.29925 12.793 6.45561 12.9771 6.53728 13.1968L6.8358 14H9.16422L9.46274 13.1968C9.54442 12.9771 9.70078 12.793 9.90451 12.6767L10.5313 12.3188L11.1019 11.9864C11.3046 11.8683 11.5424 11.8251 11.7737 11.8643L12.6192 12.0076L13.2013 11.0004L13.2092 10.9871L13.7835 9.99343L13.2364 9.33359C13.0868 9.15306 13.0053 8.92573 13.0064 8.69132L13.0097 7.94316L13.0069 7.30971C13.0059 7.0753 13.0873 6.84797 13.2369 6.66743L13.784 6.00759L13.2065 5.0085L13.2013 4.9996L12.6193 3.99245L11.7737 4.13578C11.5424 4.17499 11.3046 4.13177 11.1019 4.01367L10.5303 3.68063L9.90447 3.32334C9.70073 3.20704 9.54437 3.02293 9.4627 2.80318L9.16418 2.00001H6.8358L6.53728 2.80318C6.45561 3.02293 6.29925 3.20704 6.09551 3.32334L5.47452 3.67784L4.89808 4.01372C4.69539 4.13183 4.4576 4.17505 4.22626 4.13583L3.38072 3.9925L2.79864 4.99965L2.78977 5.0147L2.21653 6.00657L2.76355 6.66641C2.91322 6.84695 2.99464 7.07427 2.9936 7.30868L2.99029 8.05565L2.99311 8.69042C2.99415 8.92483 2.91272 9.15215 2.76305 9.33269L2.21603 9.99253L2.79205 10.9892L2.79863 11.0004L3.38071 12.0076L4.22625 11.8642C4.45759 11.825 4.69538 11.8682 4.89807 11.9864L5.46765 12.3182Z" fill="currentColor"/>
<path fill-rule="evenodd" clip-rule="evenodd" d="M7.99998 9.00004C8.55284 9.00004 9.00101 8.55233 9.00101 8.00004C9.00101 7.44775 8.55284 7.00003 7.99998 7.00003C7.44712 7.00003 6.99894 7.44775 6.99895 8.00004C6.99895 8.55233 7.44712 9.00004 7.99998 9.00004ZM7.99998 11.0001C9.65855 11.0001 11.0031 9.6569 11.0031 8.00004C11.0031 6.34318 9.65855 5.00002 7.99998 5.00002C6.34141 5.00002 4.99687 6.34318 4.99688 8.00004C4.99688 9.6569 6.34141 11.0001 7.99998 11.0001Z" fill="currentColor"/>
</svg>
