<svg width="24" height="24" viewBox="0 0 24 24" fill="none" xmlns="http://www.w3.org/2000/svg">
<path d="M9.76329 0H14.2362C14.659 0 15.0328 0.276162 15.1663 0.686891L15.8609 2.81886C16.1277 2.93535 16.3887 3.06389 16.6428 3.20348L18.7041 2.43023C18.815 2.38905 18.9288 2.36797 19.0416 2.36797C19.334 2.36797 19.6185 2.50253 19.8089 2.74656L22.5972 6.32562C22.8611 6.66304 22.8837 7.13503 22.6541 7.49856L21.4522 9.39353C21.5278 9.67371 21.5925 9.9569 21.6445 10.2451L23.5292 11.4181C23.8893 11.642 24.0688 12.0778 23.9756 12.4986L22.9808 16.9624C22.8866 17.3842 22.5403 17.6965 22.1194 17.7386L19.9217 17.9586C19.7539 18.1936 19.5773 18.4215 19.3909 18.6404L19.6715 20.8819C19.7255 21.3107 19.5037 21.7264 19.1231 21.9142L15.0946 23.9006C14.9583 23.9679 14.8131 24 14.6688 24C14.4098 24 14.1538 23.8946 13.9654 23.6957L12.4241 22.0719C12.3662 22.0739 12.3093 22.0778 12.2514 22.0816C12.168 22.0874 12.0846 22.093 12.0002 22.093C11.9149 22.093 11.8315 22.0874 11.7491 22.0816C11.6912 22.0778 11.6343 22.0739 11.5774 22.0719L10.037 23.6967C9.84766 23.8956 9.59257 24 9.33258 24C9.18836 24 9.04315 23.9679 8.90678 23.9016L4.87736 21.9152C4.49669 21.7284 4.27692 21.3127 4.3299 20.8839L4.60952 18.6414C4.42311 18.4235 4.24651 18.1946 4.07874 17.9606L1.88007 17.7407C1.46114 17.6985 1.11383 17.3852 1.01964 16.9644L0.0247975 12.5016C-0.069389 12.0798 0.110154 11.645 0.471202 11.4201L2.35591 10.2471C2.40595 9.95791 2.47266 9.67471 2.54723 9.39454L1.34439 7.50057C1.11481 7.13704 1.13738 6.66505 1.40129 6.32763L4.18961 2.74756C4.37896 2.50354 4.66348 2.36897 4.95683 2.36897C5.06966 2.36897 5.18347 2.39006 5.29433 2.43123L7.35466 3.20449C7.60975 3.0649 7.87171 2.93636 8.13857 2.81886L8.83319 0.686891C8.96663 0.276162 9.34141 0 9.76329 0ZM14.0192 3.46188L13.5438 2H10.4562L9.98177 3.46188C9.80249 4.0125 9.40231 4.45848 8.88227 4.68705C8.66535 4.78255 8.45238 4.8882 8.25031 4.99893C7.95909 5.15945 7.63519 5.24173 7.31029 5.24173C7.08048 5.24173 6.84969 5.20008 6.6288 5.11779L5.21827 4.58749L3.29365 7.06222L4.11778 8.36664C4.42583 8.85224 4.51597 9.44959 4.36739 10.0093C4.30103 10.2552 4.25051 10.4807 4.21188 10.6981C4.11084 11.2691 3.77604 11.7689 3.29266 12.0706L2 12.8762L2.68644 15.9635L4.19603 16.1149C4.75866 16.1708 5.27076 16.4705 5.60359 16.9388C5.74721 17.1399 5.88787 17.3208 6.0315 17.4914C6.40394 17.9283 6.57531 18.5084 6.50399 19.0834L6.31281 20.6255L9.09425 22L10.1521 20.8805C10.5256 20.4853 11.0397 20.2648 11.5736 20.2648C11.6013 20.2648 12.4284 20.2648 12.4284 20.2648C12.9623 20.2648 13.4754 20.4853 13.8498 20.8805L14.9077 21.999L17.6902 20.6245L17.498 19.0823C17.4257 18.5073 17.597 17.9283 17.9695 17.4904C18.1141 17.3198 18.2538 17.1389 18.3974 16.9378C18.7312 16.4694 19.2423 16.1698 19.805 16.1139L21.3145 15.9615L22 12.8742L20.7083 12.0696C20.224 11.7679 19.8902 11.268 19.7881 10.6971C19.7495 10.4797 19.699 10.2542 19.6336 10.0083C19.483 9.44857 19.5742 8.85021 19.8822 8.36461L20.7064 7.06121L18.7807 4.58648L17.3702 5.11678C17.1493 5.20008 16.9185 5.24072 16.6877 5.24072C16.3638 5.24072 16.0409 5.15945 15.7487 4.99792C15.5466 4.88718 15.3347 4.78153 15.1177 4.68705C14.5987 4.45848 14.1975 4.0125 14.0192 3.46188ZM7 12C7 9.238 9.238 7 12 7C14.762 7 17 9.238 17 12C17 14.762 14.762 17 12 17C9.238 17 7 14.762 7 12ZM15 12C15 10.346 13.654 9 12 9C10.346 9 9 10.346 9 12C9 13.654 10.346 15 12 15C13.654 15 15 13.654 15 12Z" fill="currentColor"/>
</svg>
