<svg width="20" height="20" viewBox="0 0 20 20" fill="none" xmlns="http://www.w3.org/2000/svg">
<path fill-rule="evenodd" clip-rule="evenodd" d="M10 6C7.79086 6 6 7.79086 6 10C6 12.2091 7.79086 14 10 14C12.2091 14 14 12.2091 14 10C14 7.79086 12.2091 6 10 6ZM8 10C8 8.89543 8.89543 8 10 8C11.1046 8 12 8.89543 12 10C12 11.1046 11.1046 12 10 12C8.89543 12 8 11.1046 8 10Z" fill="currentColor"/>
<path fill-rule="evenodd" clip-rule="evenodd" d="M18.0389 8.53865L19.6087 9.51735C19.9087 9.7071 20.0587 10.0666 19.9787 10.4162L19.1488 14.1312C19.0688 14.4808 18.7789 14.7404 18.4289 14.7804L16.5991 14.9601C16.4592 15.1598 16.3192 15.3496 16.1592 15.5294L16.3892 17.3969C16.4292 17.7564 16.2492 18.0959 15.9292 18.2557L12.5697 19.9135C12.258 20.055 11.8984 20.0312 11.6298 19.7438L10.35 18.3955H9.65005L8.37021 19.7438C8.12297 19.9907 7.74196 20.0833 7.43034 19.9135L4.07078 18.2557C3.75082 18.0959 3.57084 17.7564 3.61084 17.3969L3.84081 15.5294C3.69083 15.3496 3.54085 15.1499 3.40087 14.9601L1.5711 14.7804C1.22115 14.7404 0.931189 14.4808 0.851199 14.1312L0.0213079 10.4162C-0.0586816 10.0666 0.0912987 9.7071 0.391259 9.51735L1.96105 8.53865C2.00105 8.29897 2.06104 8.05929 2.12103 7.82959L1.12116 6.25169C0.931189 5.9421 0.951186 5.55262 1.17116 5.27299L3.48085 2.29695C3.70083 2.00858 4.07078 1.91745 4.40073 2.0273L6.12051 2.66646C6.33048 2.5566 6.55045 2.44675 6.77042 2.34688L7.35035 0.569243C7.47033 0.229695 7.78029 0 8.13025 0H11.8598C12.2197 0 12.5297 0.229695 12.6397 0.569243L13.2196 2.34688C13.4396 2.44675 13.6595 2.54661 13.8695 2.66646L15.5893 2.0273C15.9192 1.91745 16.2892 2.02231 16.5091 2.29695L18.8288 5.27299C19.0488 5.55262 19.0688 5.95209 18.8788 6.25169L17.879 7.82959C17.939 8.05929 17.999 8.29897 18.0389 8.53865ZM14.3794 16.9874L14.2494 15.9388C14.1795 15.3596 14.3294 14.7704 14.6994 14.3309C14.8194 14.1911 14.9294 14.0513 15.0393 13.8915C15.3793 13.4222 15.8892 13.1226 16.4592 13.0626L17.469 12.9628L17.939 10.8656L17.0591 10.3263C16.5791 10.0267 16.2392 9.52734 16.1392 8.95809C16.1092 8.77833 16.0692 8.59857 16.0192 8.40882C15.8692 7.84957 15.9592 7.25036 16.2692 6.771L16.8291 5.88218L15.5193 4.20441L14.5794 4.55395C14.0495 4.75368 13.4495 4.71373 12.9496 4.43411C12.7896 4.35421 12.6197 4.26433 12.4497 4.19442C11.9297 3.96473 11.5298 3.51533 11.3498 2.96606L11.0299 1.98736H8.95014L8.63018 2.96606C8.4502 3.51533 8.05026 3.96473 7.53032 4.19442C7.36035 4.27432 7.19037 4.35421 7.03039 4.44409C6.54045 4.71373 5.94053 4.76367 5.4006 4.56393L4.46073 4.2144L3.1509 5.89217L3.71082 6.78099C4.02078 7.27034 4.11077 7.85955 3.96079 8.41881C3.9108 8.61854 3.8708 8.7983 3.84081 8.96808C3.74082 9.53732 3.40087 10.0367 2.92093 10.3363L2.05104 10.8855L2.52098 12.9827L3.54085 13.0826C4.10077 13.1425 4.62071 13.4421 4.95066 13.9115C5.06065 14.0713 5.18063 14.2211 5.29062 14.3509C5.66057 14.7903 5.83055 15.3696 5.76056 15.9388L5.63057 16.9874L7.51033 17.9162L8.22023 17.1672C8.59019 16.7777 9.11012 16.548 9.65005 16.548H10.36C10.8999 16.548 11.4198 16.7777 11.7898 17.1672L12.4997 17.9162L14.3794 16.9874Z" fill="currentColor"/>
</svg>
