<svg width="24" height="24" viewBox="0 0 24 24" fill="none" xmlns="http://www.w3.org/2000/svg">
<path fill-rule="evenodd" clip-rule="evenodd" d="M11.2929 1.29289C11.6834 0.902369 12.3166 0.902369 12.7071 1.29289L15.7071 4.29289C16.0976 4.68342 16.0976 5.31658 15.7071 5.70711C15.3166 6.09763 14.6834 6.09763 14.2929 5.70711L13 4.41421V15C13 15.5523 12.5523 16 12 16C11.4477 16 11 15.5523 11 15V4.41421L9.70711 5.70711C9.31658 6.09763 8.68342 6.09763 8.29289 5.70711C7.90237 5.31658 7.90237 4.68342 8.29289 4.29289L11.2929 1.29289ZM3 11C3 9.34315 4.34315 8 6 8H8C8.55228 8 9 8.44772 9 9C9 9.55228 8.55228 10 8 10H6C5.44772 10 5 10.4477 5 11V20C5 20.5523 5.44772 21 6 21H18C18.5523 21 19 20.5523 19 20V11C19 10.4477 18.5523 10 18 10H16C15.4477 10 15 9.55228 15 9C15 8.44772 15.4477 8 16 8H18C19.6569 8 21 9.34315 21 11V20C21 21.6569 19.6569 23 18 23H6C4.34315 23 3 21.6569 3 20V11Z" fill="currentColor"/>
</svg>
