<svg width="20" height="20" viewBox="0 0 20 20" fill="none" xmlns="http://www.w3.org/2000/svg">
<g clip-path="url(#clip0_265_2534)">
<path fill-rule="evenodd" clip-rule="evenodd" d="M9.29289 0.292893C9.68342 -0.0976311 10.3166 -0.0976311 10.7071 0.292893L13.7071 3.29289C14.0976 3.68342 14.0976 4.31658 13.7071 4.70711C13.3166 5.09763 12.6834 5.09763 12.2929 4.70711L11 3.41421V12C11 12.5523 10.5523 13 10 13C9.44772 13 9 12.5523 9 12V3.41421L7.70711 4.70711C7.31658 5.09763 6.68342 5.09763 6.29289 4.70711C5.90237 4.31658 5.90237 3.68342 6.29289 3.29289L9.29289 0.292893ZM3 9.5C3 8.11929 4.11929 7 5.5 7H6C6.55228 7 7 7.44772 7 8C7 8.55228 6.55228 9 6 9H5.5C5.22386 9 5 9.22386 5 9.5V16C5 16.5523 5.44772 17 6 17H14C14.5523 17 15 16.5523 15 16V9.5C15 9.22386 14.7761 9 14.5 9H14C13.4477 9 13 8.55228 13 8C13 7.44772 13.4477 7 14 7H14.5C15.8807 7 17 8.11929 17 9.5V16C17 17.6569 15.6569 19 14 19H6C4.34315 19 3 17.6569 3 16V9.5Z" fill="currentColor"/>
</g>
<defs>
<clipPath id="clip0_265_2534">
<rect width="20" height="20" fill="currentColor"/>
</clipPath>
</defs>
</svg>
