<svg width="16" height="16" viewBox="0 0 16 16" fill="none" xmlns="http://www.w3.org/2000/svg">
<path fill-rule="evenodd" clip-rule="evenodd" d="M7.29289 0.292893C7.68342 -0.0976311 8.31658 -0.0976311 8.70711 0.292893L10.7071 2.29289C11.0976 2.68342 11.0976 3.31658 10.7071 3.70711C10.3166 4.09763 9.68342 4.09763 9.29289 3.70711L9 3.41421V9C9 9.55229 8.55228 10 8 10C7.44772 10 7 9.55229 7 9V3.41421L6.70711 3.70711C6.31658 4.09763 5.68342 4.09763 5.29289 3.70711C4.90237 3.31658 4.90237 2.68342 5.29289 2.29289L7.29289 0.292893ZM2 7.5C2 6.11929 3.11929 5 4.5 5H5C5.55228 5 6 5.44772 6 6C6 6.55228 5.55228 7 5 7H4.5C4.22386 7 4 7.22386 4 7.5V12.5C4 12.7761 4.22386 13 4.5 13H11.5C11.7761 13 12 12.7761 12 12.5V7.5C12 7.22386 11.7761 7 11.5 7H11C10.4477 7 10 6.55228 10 6C10 5.44772 10.4477 5 11 5H11.5C12.8807 5 14 6.11929 14 7.5V12.5C14 13.8807 12.8807 15 11.5 15H4.5C3.11929 15 2 13.8807 2 12.5V7.5Z" fill="currentColor"/>
</svg>
