<svg width="24" height="24" viewBox="0 0 24 24" fill="none" xmlns="http://www.w3.org/2000/svg">
<path fill-rule="evenodd" clip-rule="evenodd" d="M1.11164 12.4589C1.10149 12.4392 1.09199 12.4192 1.08318 12.3988C1.02674 12.2694 0.999896 12.1338 1 12C0.999896 11.8662 1.02674 11.7306 1.08318 11.6012C1.092 11.5808 1.10149 11.5608 1.11165 11.5411C1.40598 10.9561 2.46551 9.11738 4.24408 7.40468C6.03627 5.67886 8.64688 4 12.0002 4C15.3536 4 17.9642 5.67886 19.7564 7.40468C21.5348 9.11729 22.5943 10.9559 22.8887 11.541C22.8991 11.5612 22.9089 11.5817 22.9179 11.6025C22.9739 11.7316 23.0005 11.8667 23.0004 12C23.0005 12.1333 22.9739 12.2684 22.9179 12.3975C22.9089 12.4183 22.8992 12.4388 22.8887 12.459C22.5944 13.044 21.5349 14.8827 19.7564 16.5953C17.9642 18.3211 15.3536 20 12.0002 20C8.64688 20 6.03627 18.3211 4.24408 16.5953C2.46548 14.8826 1.40595 13.0438 1.11164 12.4589ZM5.63136 15.1547C4.39657 13.9656 3.55426 12.7023 3.14131 12C3.55426 11.2977 4.39657 10.0344 5.63136 8.84532C7.21417 7.32114 9.35356 6 12.0002 6C14.6469 6 16.7863 7.32114 18.3691 8.84532C19.6039 10.0344 20.4462 11.2977 20.8591 12C20.4462 12.7023 19.6039 13.9656 18.3691 15.1547C16.7863 16.6789 14.6469 18 12.0002 18C9.35356 18 7.21417 16.6789 5.63136 15.1547ZM12 15C13.6569 15 15 13.6569 15 12C15 10.3431 13.6569 9 12 9C10.3431 9 9 10.3431 9 12C9 13.6569 10.3431 15 12 15Z" fill="currentColor"/>
</svg>
