<svg width="16" height="16" viewBox="0 0 16 16" fill="none" xmlns="http://www.w3.org/2000/svg">
<path fill-rule="evenodd" clip-rule="evenodd" d="M0.111389 8.45813C0.101328 8.43859 0.0919191 8.41873 0.0831747 8.39859C0.0267364 8.26913 -0.000103358 8.13353 2.99093e-07 7.99976C-0.000103358 7.86598 0.026735 7.73038 0.0831733 7.60092C0.0919177 7.58078 0.101328 7.56093 0.111389 7.54138C0.393604 6.97913 1.15205 5.63062 2.41722 4.40626C3.69618 3.16857 5.55714 1.99994 7.99998 1.99994C10.4428 1.99994 12.3038 3.16857 13.5827 4.40626C14.8479 5.63064 15.6064 6.97917 15.8886 7.54141C15.8989 7.56139 15.9085 7.58169 15.9174 7.60229C15.9734 7.73134 16.0001 7.86645 16 7.99976C16.0001 8.13306 15.9734 8.26818 15.9174 8.39722C15.9085 8.41782 15.8989 8.43812 15.8886 8.45811C15.6064 9.02034 14.8479 10.3689 13.5827 11.5932C12.3038 12.8309 10.4428 13.9996 7.99998 13.9996C5.55714 13.9996 3.69618 12.8309 2.41722 11.5932C1.15205 10.3689 0.393604 9.02038 0.111389 8.45813ZM3.80802 10.1561C3.01762 9.39118 2.45979 8.55607 2.13713 7.99975C2.45979 7.44344 3.01762 6.60833 3.80802 5.84342C4.854 4.83119 6.24294 3.99988 7.99998 3.99988C9.75701 3.99988 11.146 4.83119 12.1919 5.84342C12.9823 6.60833 13.5402 7.44344 13.8628 7.99975C13.5402 8.55607 12.9823 9.39118 12.1919 10.1561C11.146 11.1683 9.75701 11.9996 7.99998 11.9996C6.24294 11.9996 4.854 11.1683 3.80802 10.1561ZM7.99976 9.99969C9.10429 9.99969 9.99969 9.10429 9.99969 7.99976C9.99969 6.89522 9.10429 5.99982 7.99976 5.99982C6.89522 5.99982 5.99982 6.89522 5.99982 7.99976C5.99982 9.10429 6.89522 9.99969 7.99976 9.99969Z" fill="currentColor"/>
</svg>
