<svg width="16" height="16" viewBox="0 0 16 16" fill="none" xmlns="http://www.w3.org/2000/svg">
<path d="M1.68078 11.7915C2.60586 11.7915 3.36156 11.0358 3.36156 10.1107V8.42993H1.68078C0.755699 8.42993 0 9.18563 0 10.1107C0 11.0358 0.755699 11.7915 1.68078 11.7915Z" fill="currentColor"/>
<path d="M5.88879 8.42993C4.96371 8.42993 4.20801 9.18563 4.20801 10.1107V14.3192C4.20801 15.2443 4.96371 15.9999 5.88879 15.9999C6.81387 15.9999 7.56956 15.2443 7.56956 14.3192V10.1107C7.56956 9.18563 6.81387 8.42993 5.88879 8.42993Z" fill="currentColor"/>
<path d="M4.20801 1.68078C4.20801 2.60586 4.96371 3.36156 5.88879 3.36156H7.56956V1.68078C7.56956 0.755699 6.81387 0 5.88879 0C4.96371 0 4.20801 0.755699 4.20801 1.68078Z" fill="currentColor"/>
<path d="M7.57002 5.88921C7.57002 4.96413 6.81432 4.20844 5.88924 4.20844H1.68078C0.755699 4.20844 0 4.96413 0 5.88921C0 6.81429 0.755699 7.56999 1.68078 7.56999H5.88924C6.81432 7.56999 7.57002 6.81429 7.57002 5.88921Z" fill="currentColor"/>
<path d="M10.1107 7.57002C11.0358 7.57002 11.7915 6.81432 11.7915 5.88924V1.68078C11.7915 0.755699 11.0358 0 10.1107 0C9.18563 0 8.42993 0.755699 8.42993 1.68078V5.88924C8.42993 6.81432 9.18563 7.57002 10.1107 7.57002Z" fill="currentColor"/>
<path d="M14.319 4.20844C13.3939 4.20844 12.6382 4.96413 12.6382 5.88921V7.56999H14.319C15.244 7.56999 15.9997 6.81429 15.9997 5.88921C15.9997 4.96413 15.244 4.20844 14.319 4.20844Z" fill="currentColor"/>
<path d="M8.42993 10.1107C8.42993 11.0358 9.18563 11.7915 10.1107 11.7915H14.3192C15.2443 11.7915 15.9999 11.0358 15.9999 10.1107C15.9999 9.18563 15.2443 8.42993 14.3192 8.42993H10.1107C9.18563 8.42993 8.42993 9.18563 8.42993 10.1107Z" fill="currentColor"/>
<path d="M11.7915 14.3191C11.7915 13.394 11.0358 12.6383 10.1107 12.6383H8.42993V14.3191C8.42993 15.2442 9.18563 15.9999 10.1107 15.9999C11.0358 15.9999 11.7915 15.2442 11.7915 14.3191Z" fill="currentColor"/>
</svg>
