<svg width="24" height="24" viewBox="0 0 24 24" fill="none" xmlns="http://www.w3.org/2000/svg">
<path d="M3.31107 17.2133C4.58305 17.2133 5.62214 16.1742 5.62214 14.9023V12.5912H3.31107C2.03909 12.5912 1 13.6303 1 14.9023C1 16.1742 2.03909 17.2133 3.31107 17.2133Z" fill="currentColor"/>
<path d="M9.09708 12.5912C7.82509 12.5912 6.78601 13.6303 6.78601 14.9023V20.6889C6.78601 21.9609 7.82509 23 9.09708 23C10.3691 23 11.4081 21.9609 11.4081 20.6889V14.9023C11.4081 13.6303 10.3691 12.5912 9.09708 12.5912Z" fill="currentColor"/>
<path d="M6.78601 3.31107C6.78601 4.58305 7.82509 5.62214 9.09708 5.62214H11.4081V3.31107C11.4081 2.03909 10.3691 1 9.09708 1C7.82509 1 6.78601 2.03909 6.78601 3.31107Z" fill="currentColor"/>
<path d="M11.4088 9.09766C11.4088 7.82568 10.3697 6.78659 9.0977 6.78659H3.31107C2.03909 6.78659 1 7.82568 1 9.09766C1 10.3696 2.03909 11.4087 3.31107 11.4087H9.0977C10.3697 11.4087 11.4088 10.3696 11.4088 9.09766Z" fill="currentColor"/>
<path d="M14.9021 11.4088C16.1741 11.4088 17.2132 10.3697 17.2132 9.0977V3.31107C17.2132 2.03909 16.1741 1 14.9021 1C13.6301 1 12.5911 2.03909 12.5911 3.31107V9.0977C12.5911 10.3697 13.6301 11.4088 14.9021 11.4088Z" fill="currentColor"/>
<path d="M20.6885 6.78659C19.4165 6.78659 18.3774 7.82568 18.3774 9.09766V11.4087H20.6885C21.9605 11.4087 22.9995 10.3696 22.9995 9.09766C22.9995 7.82568 21.9605 6.78659 20.6885 6.78659Z" fill="currentColor"/>
<path d="M12.5911 14.9023C12.5911 16.1742 13.6301 17.2133 14.9021 17.2133H20.6888C21.9607 17.2133 22.9998 16.1742 22.9998 14.9023C22.9998 13.6303 21.9607 12.5912 20.6888 12.5912H14.9021C13.6301 12.5912 12.5911 13.6303 12.5911 14.9023Z" fill="currentColor"/>
<path d="M17.2132 20.6888C17.2132 19.4168 16.1741 18.3777 14.9021 18.3777H12.5911V20.6888C12.5911 21.9607 13.6301 22.9998 14.9021 22.9998C16.1741 22.9998 17.2132 21.9607 17.2132 20.6888Z" fill="currentColor"/>
</svg>
