<svg width="16" height="16" viewBox="0 0 16 16" fill="none" xmlns="http://www.w3.org/2000/svg">
<path d="M8 0C3.59 0 0 3.59 0 8C0 12.41 3.59 16 8 16C12.41 16 16 12.41 16 8C16 3.59 12.41 0 8 0ZM8 14C4.69 14 2 11.31 2 8C2 4.69 4.69 2 8 2C11.31 2 14 4.69 14 8C14 11.31 11.31 14 8 14ZM5 6C5 5.45 5.45 5 6 5C6.55 5 7 5.45 7 6C7 6.55 6.55 7 6 7C5.45 7 5 6.55 5 6ZM9 6C9 5.45 9.45 5 10 5C10.55 5 11 5.45 11 6C11 6.55 10.55 7 10 7C9.45 7 9 6.55 9 6ZM10.97 9.16C11.29 9.42 11.35 9.89 11.09 10.21C11.04 10.27 9.84 11.74 8 11.74C6.16 11.74 4.96 10.27 4.91 10.21C4.65 9.89 4.7 9.41 5.03 9.16C5.35 8.9 5.82 8.95 6.08 9.27C6.08 9.27 6.89 10.24 8 10.24C9.11 10.24 9.91 9.28 9.91 9.27C10.17 8.95 10.64 8.9 10.96 9.15L10.97 9.16Z" fill="currentColor"/>
</svg>
