<svg width="12" height="12" viewBox="0 0 12 12" fill="none" xmlns="http://www.w3.org/2000/svg">
<path fill-rule="evenodd" clip-rule="evenodd" d="M2.74995 0.99998C3.16416 0.99998 3.49994 1.33576 3.49994 1.74996V8.27718L4.18937 7.50157C4.46455 7.19199 4.93859 7.16411 5.24817 7.43929C5.55775 7.71447 5.58564 8.18852 5.31046 8.4981L3.3105 10.7481C3.16818 10.9082 2.96418 10.9998 2.74995 10.9998C2.53573 10.9998 2.33173 10.9082 2.18941 10.7481L0.189447 8.4981C-0.0857357 8.18852 -0.0578507 7.71447 0.25173 7.43929C0.561311 7.16411 1.03536 7.19199 1.31054 7.50157L1.99997 8.27718V1.74996C1.99997 1.33576 2.33575 0.99998 2.74995 0.99998ZM9.25005 0.999999C9.46427 0.999999 9.66827 1.09161 9.81059 1.25172L11.8106 3.50167C12.0857 3.81126 12.0579 4.2853 11.7483 4.56048C11.4387 4.83567 10.9646 4.80778 10.6895 4.4982L10 3.72259V10.2498C10 10.664 9.66425 10.9998 9.25005 10.9998C8.83584 10.9998 8.50006 10.664 8.50006 10.2498V3.72259L7.81063 4.4982C7.53545 4.80778 7.06141 4.83567 6.75183 4.56048C6.44225 4.2853 6.41436 3.81126 6.68954 3.50167L8.6895 1.25172C8.83182 1.09161 9.03582 0.999999 9.25005 0.999999Z" fill="currentColor"/>
</svg>
