<svg width="12" height="12" viewBox="0 0 12 12" fill="none" xmlns="http://www.w3.org/2000/svg">
<path fill-rule="evenodd" clip-rule="evenodd" d="M5.99878 1C6.41299 1 6.74878 1.33579 6.74878 1.75V8.43963L9.71949 5.46961C10.0124 5.17675 10.4873 5.1768 10.7801 5.46973C11.073 5.76266 11.073 6.23753 10.78 6.53039L6.52905 10.7804C6.38838 10.921 6.19761 11 5.99869 11C5.79978 11 5.60902 10.9209 5.46839 10.7803L1.21936 6.53027C0.926505 6.23734 0.92656 5.76247 1.21949 5.46961C1.51241 5.17675 1.98729 5.1768 2.28015 5.46973L5.24878 8.43905V1.75C5.24878 1.33579 5.58457 1 5.99878 1Z" fill="currentColor"/>
</svg>
