<svg width="20" height="20" viewBox="0 0 20 20" fill="none" xmlns="http://www.w3.org/2000/svg">
<path fill-rule="evenodd" clip-rule="evenodd" d="M6 4C6.55228 4 7 4.44772 7 5V12.5858L7.29289 12.2929C7.68342 11.9024 8.31658 11.9024 8.70711 12.2929C9.09763 12.6834 9.09763 13.3166 8.70711 13.7071L6.70711 15.7071C6.31658 16.0976 5.68342 16.0976 5.29289 15.7071L3.29289 13.7071C2.90237 13.3166 2.90237 12.6834 3.29289 12.2929C3.68342 11.9024 4.31658 11.9024 4.70711 12.2929L5 12.5858V5C5 4.44772 5.44772 4 6 4ZM13.2929 4.29289C13.6834 3.90237 14.3166 3.90237 14.7071 4.29289L16.7071 6.29289C17.0976 6.68342 17.0976 7.31658 16.7071 7.70711C16.3166 8.09763 15.6834 8.09763 15.2929 7.70711L15 7.41421V15C15 15.5523 14.5523 16 14 16C13.4477 16 13 15.5523 13 15V7.41421L12.7071 7.70711C12.3166 8.09763 11.6834 8.09763 11.2929 7.70711C10.9024 7.31658 10.9024 6.68342 11.2929 6.29289L13.2929 4.29289Z" fill="currentColor"/>
</svg>
