<svg width="16" height="16" viewBox="0 0 16 16" fill="none" xmlns="http://www.w3.org/2000/svg">
<path fill-rule="evenodd" clip-rule="evenodd" d="M4 3C4.55228 3 5 3.44772 5 4V9.58579L5.29289 9.29289C5.68342 8.90237 6.31658 8.90237 6.70711 9.29289C7.09763 9.68342 7.09763 10.3166 6.70711 10.7071L4.70711 12.7071C4.31658 13.0976 3.68342 13.0976 3.29289 12.7071L1.29289 10.7071C0.902369 10.3166 0.902369 9.68342 1.29289 9.29289C1.68342 8.90237 2.31658 8.90237 2.70711 9.29289L3 9.58579V4C3 3.44772 3.44772 3 4 3ZM11.2929 3.29289C11.6834 2.90237 12.3166 2.90237 12.7071 3.29289L14.7071 5.29289C15.0976 5.68342 15.0976 6.31658 14.7071 6.70711C14.3166 7.09763 13.6834 7.09763 13.2929 6.70711L13 6.41421V12C13 12.5523 12.5523 13 12 13C11.4477 13 11 12.5523 11 12V6.41421L10.7071 6.70711C10.3166 7.09763 9.68342 7.09763 9.29289 6.70711C8.90237 6.31658 8.90237 5.68342 9.29289 5.29289L11.2929 3.29289Z" fill="currentColor"/>
</svg>
