<svg width="12" height="12" viewBox="0 0 12 12" fill="none" xmlns="http://www.w3.org/2000/svg">
<path fill-rule="evenodd" clip-rule="evenodd" d="M6.00106 1C6.19998 1.00002 6.39073 1.07906 6.53137 1.21973L10.7804 5.46973C11.0733 5.76266 11.0732 6.23753 10.7803 6.53039C10.4873 6.82325 10.0125 6.8232 9.71961 6.53027L6.75098 3.56095V10.25C6.75098 10.6642 6.41519 11 6.00098 11C5.58676 11 5.25098 10.6642 5.25098 10.25V3.56037L2.28027 6.53039C1.98734 6.82325 1.51247 6.8232 1.21961 6.53027C0.926749 6.23734 0.926804 5.76247 1.21973 5.46961L5.47071 1.21961C5.61138 1.07897 5.80215 0.999977 6.00106 1Z" fill="currentColor"/>
</svg>
