<svg width="24" height="24" viewBox="0 0 24 24" fill="none" xmlns="http://www.w3.org/2000/svg">
<path fill-rule="evenodd" clip-rule="evenodd" d="M7 5C7.55228 5 8 5.44772 8 6V15.5858L9.29289 14.2929C9.68342 13.9024 10.3166 13.9024 10.7071 14.2929C11.0976 14.6834 11.0976 15.3166 10.7071 15.7071L7.70711 18.7071C7.31658 19.0976 6.68342 19.0976 6.29289 18.7071L3.29289 15.7071C2.90237 15.3166 2.90237 14.6834 3.29289 14.2929C3.68342 13.9024 4.31658 13.9024 4.70711 14.2929L6 15.5858V6C6 5.44772 6.44772 5 7 5ZM16.2929 5.29289C16.6834 4.90237 17.3166 4.90237 17.7071 5.29289L20.7071 8.29289C21.0976 8.68342 21.0976 9.31658 20.7071 9.70711C20.3166 10.0976 19.6834 10.0976 19.2929 9.70711L18 8.41421V18C18 18.5523 17.5523 19 17 19C16.4477 19 16 18.5523 16 18V8.41421L14.7071 9.70711C14.3166 10.0976 13.6834 10.0976 13.2929 9.70711C12.9024 9.31658 12.9024 8.68342 13.2929 8.29289L16.2929 5.29289Z" fill="currentColor"/>
</svg>
