<svg width="16" height="16" viewBox="0 0 16 16" fill="none" xmlns="http://www.w3.org/2000/svg">
<path d="M12.0155 15.6838C11.7955 15.6838 11.5855 15.6338 11.3755 15.5438L7.99551 13.9438L4.61551 15.5438C4.11551 15.7738 3.53551 15.7238 3.09551 15.4038C2.65551 15.0838 2.42551 14.5438 2.48551 14.0038L2.95551 10.2938L0.405515 7.56381C0.0255145 7.16381 -0.0944855 6.59381 0.0755145 6.07381C0.245515 5.55381 0.685515 5.16381 1.22551 5.06381L4.89551 4.37381L6.68551 1.09381C6.94551 0.613812 7.45551 0.313812 8.00551 0.313812C8.55551 0.313812 9.05551 0.613812 9.31551 1.09381L11.1055 4.37381L14.7755 5.06381C15.3155 5.16381 15.7555 5.55381 15.9255 6.07381C16.0955 6.59381 15.9655 7.16381 15.5955 7.56381L13.0355 10.2838L13.5055 13.9838C13.5755 14.5238 13.3455 15.0638 12.8955 15.3838C12.6355 15.5738 12.3255 15.6738 12.0155 15.6738V15.6838Z" fill="currentColor"/>
</svg>
