<svg width="24" height="24" viewBox="0 0 24 24" fill="none" xmlns="http://www.w3.org/2000/svg">
<path fill-rule="evenodd" clip-rule="evenodd" d="M12 1C12.3788 1 12.7251 1.214 12.8945 1.55279L15.6795 7.1229L22.2096 8.5222C22.577 8.60093 22.8693 8.87902 22.9662 9.24209C23.0631 9.60516 22.9483 9.99191 22.669 10.2433L18.0654 14.3865L18.99 20.8586C19.0426 21.2268 18.8865 21.5938 18.5847 21.8112C18.283 22.0287 17.8855 22.0608 17.5528 21.8944L12 19.118L6.44724 21.8944C6.11457 22.0608 5.71706 22.0287 5.41532 21.8112C5.11358 21.5938 4.95748 21.2268 5.01008 20.8586L5.93466 14.3865L1.33107 10.2433C1.05175 9.99191 0.936944 9.60516 1.03386 9.24209C1.13078 8.87902 1.42306 8.60093 1.7905 8.5222L8.32055 7.1229L11.1056 1.55279C11.275 1.214 11.6213 1 12 1ZM12 4.23607L9.89446 8.44721C9.7586 8.71893 9.5066 8.91415 9.20956 8.9778L4.12522 10.0673L7.669 13.2567C7.91675 13.4797 8.03712 13.8115 7.98998 14.1414L7.25989 19.252L11.5528 17.1056C11.8343 16.9648 12.1657 16.9648 12.4472 17.1056L16.7402 19.252L16.0101 14.1414C15.9629 13.8115 16.0833 13.4797 16.3311 13.2567L19.8748 10.0673L14.7905 8.9778C14.4935 8.91415 14.2415 8.71893 14.1056 8.44721L12 4.23607Z" fill="currentColor"/>
</svg>
