<svg width="24" height="24" viewBox="0 0 24 24" fill="none" xmlns="http://www.w3.org/2000/svg">
<path fill-rule="evenodd" clip-rule="evenodd" d="M12 1C12.3788 1 12.7251 1.214 12.8945 1.55279L15.6795 7.1229L22.2096 8.5222C22.577 8.60093 22.8693 8.87902 22.9662 9.24209C23.0631 9.60516 22.9483 9.99191 22.669 10.2433L18.0654 14.3865L18.99 20.8586C19.0426 21.2268 18.8865 21.5938 18.5847 21.8112C18.283 22.0287 17.8855 22.0608 17.5528 21.8944L12 19.118L6.44725 21.8944C6.11457 22.0608 5.71706 22.0287 5.41532 21.8112C5.11358 21.5938 4.95748 21.2268 5.01008 20.8586L5.93466 14.3865L1.33107 10.2433C1.05175 9.99191 0.936944 9.60516 1.03386 9.24209C1.13078 8.87902 1.42306 8.60093 1.7905 8.5222L8.32055 7.1229L11.1056 1.55279C11.275 1.214 11.6213 1 12 1Z" fill="currentColor"/>
</svg>
