<svg width="16" height="16" viewBox="0 0 16 16" fill="none" xmlns="http://www.w3.org/2000/svg">
<path d="M12.0155 15.6838C11.7955 15.6838 11.5855 15.6338 11.3755 15.5438L7.99551 13.9438L4.61551 15.5438C4.11551 15.7738 3.53551 15.7238 3.09551 15.4038C2.65551 15.0838 2.42551 14.5438 2.48551 14.0038L2.95551 10.2938L0.405515 7.56381C0.0255145 7.16381 -0.0944855 6.59381 0.0755145 6.07381C0.245515 5.55381 0.685515 5.16381 1.22551 5.06381L4.89551 4.37381L6.68551 1.09381C6.94551 0.613812 7.45551 0.313812 8.00551 0.313812C8.55551 0.313812 9.05551 0.613812 9.31551 1.09381L11.1055 4.37381L14.7755 5.06381C15.3155 5.16381 15.7555 5.55381 15.9255 6.07381C16.0955 6.59381 15.9655 7.16381 15.5955 7.56381L13.0355 10.2838L13.5055 13.9838C13.5755 14.5238 13.3455 15.0638 12.8955 15.3838C12.6355 15.5738 12.3255 15.6738 12.0155 15.6738V15.6838ZM7.99551 11.8938C8.21551 11.8938 8.43551 11.9438 8.63551 12.0338L11.4055 13.3438L11.0155 10.3138C10.9555 9.86381 11.1055 9.42381 11.4155 9.09381L13.5055 6.87381L10.5055 6.30381C10.0655 6.22381 9.68551 5.94381 9.46551 5.55381L7.99551 2.87381L6.52551 5.55381C6.30551 5.94381 5.93551 6.22381 5.48551 6.30381L2.48551 6.87381L4.58551 9.10381C4.89551 9.43381 5.03551 9.87381 4.98551 10.3238L4.59551 13.3638L7.35551 12.0538C7.55551 11.9538 7.77551 11.9138 7.99551 11.9138V11.8938Z" fill="currentColor"/>
</svg>
