<svg width="16" height="16" viewBox="0 0 16 16" fill="none" xmlns="http://www.w3.org/2000/svg">
<path fill-rule="evenodd" clip-rule="evenodd" d="M8.00002 3C5.50926 3 3.79254 4.65093 2.8944 6.44721C2.64741 6.94119 2.04674 7.14142 1.55276 6.89443C1.05878 6.64744 0.858558 6.04676 1.10555 5.55279C2.20741 3.34907 4.49069 1 8.00002 1C10.0565 1 11.6562 1.88603 12.7835 2.87243C12.8575 2.93716 12.9296 3.00248 12.9999 3.06821L12.9999 3.00002C12.9999 2.44773 13.4476 2.00001 13.9999 2C14.5522 1.99999 14.9999 2.4477 14.9999 2.99998L15 5.99998C15 6.2652 14.8946 6.51956 14.7071 6.7071C14.5196 6.89464 14.2652 7 14 7H10.9999C10.4476 7 9.99993 6.55228 9.99993 6C9.99993 5.44772 10.4476 5 10.9999 5H12.0938C11.9078 4.79174 11.6986 4.58067 11.4665 4.37757C10.5938 3.61397 9.44353 3 8.00002 3ZM14.4472 9.10557C14.9412 9.35256 15.1414 9.95324 14.8944 10.4472C13.7925 12.6509 11.5092 15 8.00002 15C5.94358 15 4.34384 14.114 3.21652 13.1276C3.1425 13.0628 3.07032 12.9975 2.99997 12.9317V13C2.99997 13.5523 2.55226 14 1.99997 14C1.44769 14 0.999975 13.5523 0.999975 13V10C0.999975 9.44772 1.44769 9 1.99997 9H4.99997C5.55226 9 5.99997 9.44772 5.99997 10C5.99997 10.5523 5.55226 11 4.99997 11H3.90614C4.09218 11.2083 4.3014 11.4193 4.53352 11.6224C5.40623 12.386 6.55652 13 8.00002 13C10.4906 13 12.2074 11.3491 13.1055 9.55279C13.3525 9.05881 13.9532 8.85858 14.4472 9.10557Z" fill="currentColor"/>
</svg>
