<svg width="24" height="24" viewBox="0 0 24 24" fill="none" xmlns="http://www.w3.org/2000/svg">
<path fill-rule="evenodd" clip-rule="evenodd" d="M7.61722 6.20706C6.4804 6.9649 5.58509 8.06585 4.8944 9.44721C4.64741 9.94119 4.04674 10.1414 3.55276 9.89443C3.05878 9.64744 2.85856 9.04676 3.10555 8.55279C3.91486 6.93415 5.01955 5.5351 6.50785 4.54294C8.00241 3.54661 9.82525 3 12.0005 3C15.1133 3 17.3935 4.60421 19 6.2535V5C19 4.44772 19.4477 4 20 4C20.5523 4 21 4.44772 21 5V9C21 9.55228 20.5523 10 20 10H16C15.4477 10 15 9.55228 15 9C15 8.44772 15.4477 8 16 8H17.8955C16.4724 6.43578 14.5771 5 12.0005 5C10.1752 5 8.74777 5.45339 7.61722 6.20706ZM20.4472 14.1056C20.9412 14.3526 21.1414 14.9532 20.8944 15.4472C20.0851 17.0658 18.9805 18.4649 17.4922 19.4571C15.9978 20.4534 14.1751 21 12 21C8.88684 21 6.60652 19.3957 4.99997 17.7464V19C4.99997 19.5523 4.55226 20 3.99997 20C3.44769 20 2.99997 19.5523 2.99997 19V15C2.99997 14.4477 3.44769 14 3.99997 14H7.99997C8.55226 14 8.99997 14.4477 8.99997 15C8.99997 15.5523 8.55226 16 7.99997 16H6.10453C7.52763 17.5642 9.42302 19 12 19C13.8251 19 15.2524 18.5466 16.3828 17.793C17.5196 17.0351 18.4149 15.9342 19.1055 14.5528C19.3525 14.0588 19.9532 13.8586 20.4472 14.1056Z" fill="currentColor"/>
</svg>
