<svg width="20" height="20" viewBox="0 0 20 20" fill="none" xmlns="http://www.w3.org/2000/svg">
<path fill-rule="evenodd" clip-rule="evenodd" d="M10.0003 4C6.97668 4 5.23595 5.68548 3.80006 7.6C3.46869 8.04183 2.84189 8.13137 2.40006 7.8C1.95823 7.46863 1.86869 6.84183 2.20006 6.4C3.76417 4.31452 6.02344 2 10.0003 2C12.2613 2 14.0893 2.84986 15.4058 3.81995C15.6154 3.97437 15.8136 4.13303 16.0001 4.29331V4C16.0001 3.44772 16.4478 3 17.0001 3C17.5523 3 18.0001 3.44772 18.0001 4V7C18.0001 7.55228 17.5523 8 17.0001 8H14.0001C13.4478 8 13.0001 7.55228 13.0001 7C13.0001 6.44772 13.4478 6 14.0001 6H14.9099C14.7046 5.81066 14.4743 5.6179 14.2194 5.43005C13.1609 4.65014 11.739 4 10.0003 4ZM17.6001 12.2C18.0419 12.5314 18.1314 13.1582 17.8001 13.6C16.236 15.6855 13.9767 18 10.0003 18C7.73904 18 5.91098 17.1502 4.59439 16.1801C4.3848 16.0256 4.18655 15.867 4.00006 15.7067V16C4.00006 16.5523 3.55234 17 3.00006 17C2.44777 17 2.00006 16.5523 2.00006 16V13C2.00006 12.4477 2.44777 12 3.00006 12H6.00006C6.55234 12 7.00006 12.4477 7.00006 13C7.00006 13.5523 6.55234 14 6.00006 14H5.09021C5.29553 14.1893 5.52583 14.3821 5.78077 14.5699C6.83924 15.3498 8.26127 16 10.0003 16C13.0234 16 14.7641 14.3145 16.2001 12.4C16.5314 11.9582 17.1582 11.8686 17.6001 12.2Z" fill="currentColor"/>
</svg>
