<svg width="24" height="24" viewBox="0 0 24 24" fill="none" xmlns="http://www.w3.org/2000/svg">
<path fill-rule="evenodd" clip-rule="evenodd" d="M6.76323 9.00024C8.82162 7.963 12 6.18374 12 2.00024C12 1.55259 12.2941 1.17363 12.6997 1.04612C12.7945 1.01631 12.8954 1.00024 13 1.00024L13.1168 1.00012C14.0252 0.998793 15.2978 0.996931 16.3047 1.66819C17.4671 2.44313 18 3.86817 18 6.00024C18 6.62259 17.8518 7.46601 17.6576 8.24276C17.5949 8.49368 17.5245 8.74926 17.4479 9.00024H20C20.6098 9.00024 21.1671 9.10608 21.6419 9.36984C22.134 9.64322 22.4586 10.0426 22.6604 10.4864C22.8524 10.909 22.9292 11.3618 22.9649 11.7691C23 12.1693 23 12.5938 23 12.9776V13.0002C23 14.1457 22.5935 16.5233 21.739 18.6266C21.3094 19.684 20.739 20.7426 19.9936 21.5525C19.241 22.3701 18.243 23.0002 17 23.0002L12.0084 23.0002L11.9996 23.0003C11.2908 23.0003 10.5129 22.7458 9.82428 22.4507C9.11081 22.1449 8.38065 21.7452 7.73495 21.3578C7.08615 20.9685 6.50483 20.5808 6.08657 20.2912C5.92276 20.1778 5.78323 20.0789 5.67364 20.0002H2C1.44772 20.0002 1 19.5525 1 19.0002V10.0002C1 9.44796 1.44772 9.00024 2 9.00024H6.76323ZM13.9483 3.01956C14.501 3.05124 14.8951 3.13218 15.1953 3.33229C15.5329 3.55734 16 4.1323 16 6.00024C16 6.37788 15.8982 7.03446 15.7174 7.75769C15.5404 8.46547 15.315 9.12889 15.1132 9.53773C15.0756 9.6096 15.0465 9.6866 15.0272 9.76741C14.9988 9.88582 14.9929 10.0064 15.0075 10.1236C15.0435 10.4158 15.2054 10.6689 15.4373 10.827C15.5405 10.8974 15.6575 10.9489 15.7834 10.9767C15.8616 10.9941 15.9406 11.0018 16.0189 11.0002H20C20.3902 11.0002 20.5829 11.0694 20.6706 11.1182C20.741 11.1573 20.7914 11.2079 20.8396 11.314C20.8976 11.4415 20.9458 11.6387 20.9726 11.9439C20.9993 12.2483 21 12.59 21 13.0002C21 13.8548 20.6565 15.9772 19.886 17.8739C19.5031 18.8164 19.0422 19.6329 18.522 20.198C18.009 20.7554 17.507 21.0002 17 21.0002L12 21.0002L11.9931 21.0003C11.7012 20.9985 11.2314 20.8778 10.6121 20.6124C10.013 20.3556 9.36822 20.0054 8.76397 19.6428C8.16282 19.2821 7.61921 18.9198 7.22505 18.6469C7.14308 18.5901 7.06779 18.5374 7 18.4895V11.0005C7.07549 11.0005 7.15155 10.992 7.22677 10.9744C7.31094 10.9549 7.39103 10.9248 7.46556 10.8855L7.50105 10.8678C9.36154 9.93796 13.4431 7.89817 13.9483 3.01956ZM5 11.0002V18.0002H3L3 11.0002H5Z" fill="currentColor"/>
</svg>
