<svg width="20" height="20" viewBox="0 0 20 20" fill="none" xmlns="http://www.w3.org/2000/svg">
<g clip-path="url(#clip0_271_359)">
<path fill-rule="evenodd" clip-rule="evenodd" d="M11.0239 1.00042C12.1686 1.00439 13.2086 1.29479 13.9571 2.04327C14.7108 2.79695 15 3.84623 15 5.00038C15 5.68846 14.7788 6.41123 14.5583 6.98436L14.5522 7.00038H17C17.5791 7.00038 18.0464 7.26328 18.3612 7.65975C18.6408 8.01178 18.7767 8.43553 18.8528 8.79085C19.0003 9.47922 19.0001 10.3173 19 10.9455L19 11.0004C19 11.9675 18.7024 13.8468 18.0183 15.5064C17.6744 16.3409 17.206 17.1868 16.5723 17.8383C15.926 18.5027 15.0675 19.0004 14 19.0004H10C9.40753 19.0004 8.78681 18.8283 8.2425 18.6242C7.68349 18.4146 7.12838 18.1414 6.64601 17.8783C6.16109 17.6138 5.73364 17.3506 5.42791 17.154C5.3391 17.0969 5.26016 17.0452 5.19264 17.0004H2C1.44772 17.0004 1 16.5527 1 16.0004V8.00038C1 7.44809 1.44772 7.00038 2 7.00038H5.83446C7.1244 6.55146 7.89758 6.02762 8.46913 5.31318C9.08625 4.54179 9.54186 3.45964 10.0325 1.74665C10.052 1.67207 10.0799 1.60087 10.1151 1.53415C10.1848 1.40149 10.2822 1.289 10.3978 1.20199C10.5752 1.06838 10.7954 0.994812 11.0239 1.00042ZM11.725 3.06492C11.2802 4.47502 10.7765 5.63059 10.0309 6.56257C9.25703 7.52987 8.27727 8.19149 7 8.70013V15.7764C7.18459 15.8872 7.38835 16.005 7.60374 16.1225C8.038 16.3594 8.5037 16.5862 8.94472 16.7515C9.40044 16.9224 9.75897 17.0004 10 17.0004H14C14.3908 17.0004 14.7615 16.8314 15.1387 16.4437C15.5284 16.0431 15.8777 15.4515 16.1692 14.7443C16.756 13.3207 17 11.6999 17 11.0004C17 10.3007 16.9954 9.66796 16.8972 9.20991C16.8783 9.12175 16.8583 9.05277 16.8393 9.00038H13.0201C12.937 9.00212 12.853 8.99349 12.7701 8.97383C12.6523 8.94611 12.5424 8.89753 12.4448 8.83221C12.3225 8.75079 12.2229 8.64564 12.1492 8.52613C12.0121 8.30388 11.9646 8.03194 12.0265 7.77051C12.046 7.68762 12.0759 7.60871 12.1145 7.53521C12.2814 7.20138 12.5061 6.74872 12.6917 6.2664C12.8879 5.7562 13 5.3123 13 5.00038C13 4.15452 12.7892 3.70381 12.5429 3.45749C12.3792 3.29379 12.1252 3.14579 11.725 3.06492ZM5 15.0004H3L3 9.00038H5V15.0004Z" fill="currentColor"/>
</g>
<defs>
<clipPath id="clip0_271_359">
<rect width="20" height="20" fill="currentColor"/>
</clipPath>
</defs>
</svg>
