<svg width="24" height="24" viewBox="0 0 24 24" fill="none" xmlns="http://www.w3.org/2000/svg">
<path d="M19 5H21C21.5523 5 22 5.44772 22 6V13C22 13.5523 21.5523 14 21 14H19V5Z" fill="currentColor"/>
<path d="M17 4.29652C15.6823 3.40981 13.3717 2 12.0004 2L7 2C3.5 2 2 9 2 11C2 12.6 2 14 4 14L8 14C7.5 15 7 17 7 18C7 21.6658 8.67979 21.9721 10.4999 21.9977C10.776 22.0015 10.9984 21.7753 11.0137 21.4996C11.2692 16.8813 15.0413 14.9794 16.9794 14.0103C16.9861 14.007 16.993 14.0045 17 14.0028V4.29652Z" fill="currentColor"/>
</svg>
