<svg width="16" height="16" viewBox="0 0 16 16" fill="none" xmlns="http://www.w3.org/2000/svg">
<path fill-rule="evenodd" clip-rule="evenodd" d="M8.12489 0.515638C8.08467 0.588102 8.05319 0.666093 8.03187 0.748175C7.53721 2.47664 7.19892 3.33089 6.74021 3.99347C6.30979 4.61519 5.73919 5.12157 4.64835 6.00012H0.99998C0.965463 6.00012 0.931354 6.00187 0.897738 6.00529C0.753967 6.01989 0.6192 6.06494 0.49999 6.1339C0.31259 6.24231 0.163635 6.40978 0.0785834 6.61087C0.0279816 6.7305 0 6.86204 0 7.0001V13C0 13.5523 0.447706 14 0.999979 14H4.68691C4.74929 14.0425 4.82127 14.0911 4.9014 14.1446C5.19297 14.339 5.59695 14.5997 6.04277 14.862C6.48536 15.1223 6.9866 15.3945 7.46979 15.6046C7.9194 15.8001 8.48051 16 8.99983 16L9.01247 15.9999H11.9998C12.9636 15.9999 13.6722 15.4193 14.1433 14.8144C14.6188 14.204 14.9715 13.4259 15.2316 12.6788C15.7493 11.1921 15.9997 9.53047 15.9997 8.80007V8.78001C15.9997 8.55426 15.9997 8.28432 15.9771 8.02645C15.9539 7.76163 15.9021 7.43886 15.7601 7.1263C15.6083 6.79245 15.3587 6.48309 14.9791 6.27221C14.6168 6.07096 14.2095 6.00012 13.7997 6.00012H12.5519C12.554 5.99479 12.556 5.98945 12.5581 5.9841C12.7785 5.41098 12.9997 4.68823 12.9997 4.00016C12.9997 2.84604 12.7105 1.79678 11.9569 1.04312C11.2083 0.294517 10.168 0.00415212 9.02307 0.000283372C8.94927 -0.00148074 8.87634 0.00501495 8.80544 0.0191251C8.64702 0.050333 8.50204 0.11895 8.38008 0.215393C8.27751 0.296252 8.19011 0.39763 8.12489 0.515638ZM11.0199 8.00008H13.7997C13.8718 8.00008 13.9227 8.00499 13.9568 8.01034C13.9661 8.04961 13.9768 8.11061 13.9848 8.20121C13.999 8.36314 13.9997 8.54979 13.9997 8.80007C13.9997 9.26964 13.8001 10.7079 13.3428 12.0212C13.1155 12.6741 12.8494 13.2209 12.5655 13.5855C12.2772 13.9556 12.0859 14 11.9998 14H8.99982L8.99461 14C8.90908 13.9979 8.67157 13.9463 8.26721 13.7705C7.8879 13.6056 7.46418 13.3778 7.05681 13.1381C6.65268 12.9004 6.28172 12.6611 6.01083 12.4805C5.87585 12.3905 5.76681 12.3158 5.69221 12.2641C5.65493 12.2383 5.62632 12.2182 5.60744 12.205L5.59129 12.1935C5.42602 12.0721 5.22207 12.0003 5.00135 12L1.99996 12L1.99996 8.00008H4.99054C5.16488 8.00183 5.34054 7.9582 5.49851 7.86711L5.51653 7.85646C5.55479 7.83333 5.59138 7.8077 5.62607 7.77981C6.85387 6.79755 7.72484 6.0848 8.38456 5.13186C8.94354 4.32445 9.323 3.3884 9.72825 2.06544C10.1265 2.14646 10.3795 2.29408 10.5427 2.4573C10.789 2.70362 10.9998 3.15433 10.9998 4.00016C10.9998 4.31208 10.8877 4.75597 10.6914 5.26616C10.5059 5.74847 10.2812 6.20112 10.1143 6.53495C10.0757 6.60844 10.0459 6.68734 10.0264 6.77021C9.9984 6.88814 9.99273 7.0082 10.0075 7.12488C10.0256 7.27052 10.0751 7.40643 10.1489 7.52568C10.2863 7.74773 10.5083 7.91197 10.7698 7.97352C10.8528 7.99319 10.9368 8.00183 11.0199 8.00008Z" fill="currentColor"/>
</svg>
