<svg width="16" height="16" viewBox="0 0 16 16" fill="none" xmlns="http://www.w3.org/2000/svg">
<path d="M12 3.99114C12 2.11951 11.1257 1.1229 9.37708 1.00133C9.15437 0.985845 8.95776 1.13782 8.8948 1.35218C7.96421 4.52094 7.4137 5.06057 5.01867 6.97867C5.00685 6.98814 4.99175 6.99362 4.97661 6.99362H2C1.44772 6.99362 1 7.44171 1 7.99445V11.9978C1 12.5505 1.44772 12.9986 2 12.9986H4.98077C4.99328 12.9986 5.00382 13.0013 5.01402 13.0086C5.22859 13.1606 7.84934 15.0002 9 15.0002H12C14.1 15.0002 15 9.99611 15 8.79511C15 7.83432 15 6.99362 13.8 6.99362H11C11.3333 6.32641 12 4.99197 12 3.99114Z" fill="currentColor"/>
</svg>
