<svg width="20" height="20" viewBox="0 0 20 20" fill="none" xmlns="http://www.w3.org/2000/svg">
<g clip-path="url(#clip0_271_362)">
<path d="M15 12.0004H17C17.5523 12.0004 18 11.5527 18 11.0004V5.00037C18 4.44809 17.5523 4.00037 17 4.00037H15V12.0004Z" fill="currentColor"/>
<path d="M13 12.3859V3.06927C12.0624 2.54745 10.8718 2.0005 9.99999 2.0005L5.99999 2.00024C3.08333 2.00024 2 7.33358 2 9.00024C2 10.3336 2 12.0002 2.99999 12.0002H6.99999C6.66666 12.6669 5.99999 14.0002 5.99999 15.0002C5.99999 16.9832 6.98304 17.9834 8.94913 18.0003C8.9789 18.0005 9.00582 17.9801 9.01404 17.9515C9.88902 14.9055 10.7712 13.3852 13 12.3859Z" fill="currentColor"/>
</g>
<defs>
<clipPath id="clip0_271_362">
<rect width="20" height="20" fill="currentColor"/>
</clipPath>
</defs>
</svg>
