<svg width="20" height="20" viewBox="0 0 20 20" fill="none" xmlns="http://www.w3.org/2000/svg">
<g clip-path="url(#clip0_271_356)">
<path fill-rule="evenodd" clip-rule="evenodd" d="M8.97616 19C7.83142 18.996 6.79139 18.7056 6.04291 17.9571C5.28923 17.2034 5.00002 16.1541 5.00002 15C5.00002 14.3119 5.22124 13.5892 5.44167 13.016L5.44785 13H3.00002C2.4209 13 1.95362 12.7371 1.63878 12.3406C1.35922 11.9886 1.22335 11.5648 1.14721 11.2095C0.999706 10.5212 0.999878 9.68309 1.00001 9.05487L1.00002 9C1.00002 8.03288 1.29766 6.15361 1.98172 4.49394C2.32564 3.6595 2.79403 2.81355 3.42775 2.16209C4.07403 1.49773 4.93248 1 6.00002 1H10C10.5925 1 11.2132 1.17205 11.7575 1.37617C12.3165 1.58579 12.8716 1.85899 13.354 2.12211C13.8389 2.38663 14.2664 2.64978 14.5721 2.84634C14.6609 2.90344 14.7399 2.95518 14.8074 3H18C18.5523 3 19 3.44771 19 4V12C19 12.5523 18.5523 13 18 13H14.1656C12.8756 13.4489 12.1024 13.9728 11.5309 14.6872C10.9138 15.4586 10.4582 16.5407 9.96754 18.2537C9.94804 18.3283 9.92013 18.3995 9.88491 18.4662C9.81518 18.5989 9.71779 18.7114 9.60224 18.7984C9.42484 18.932 9.20466 19.0056 8.97616 19ZM8.275 16.9355C8.71981 15.5254 9.22355 14.3698 9.96915 13.4378C10.743 12.4705 11.7227 11.8089 13 11.3003V4.22395C12.8154 4.11321 12.6117 3.99538 12.3963 3.87789C11.962 3.64101 11.4963 3.41421 11.0553 3.24883C10.5996 3.07794 10.241 3 10 3H6.00002C5.60922 3 5.2385 3.16894 4.86134 3.55666C4.47162 3.95728 4.12231 4.54884 3.83081 5.25606C3.24404 6.67972 3.00002 8.30046 3.00002 9C3.00002 9.69967 3.00466 10.3324 3.10282 10.7905C3.12171 10.8786 3.14171 10.9476 3.16075 11H6.97989C7.063 10.9983 7.14697 11.0069 7.22989 11.0265C7.34775 11.0543 7.45757 11.1028 7.55524 11.1682C7.67756 11.2496 7.77712 11.3547 7.85081 11.4742C7.98787 11.6965 8.03544 11.9684 7.97347 12.2299C7.95397 12.3128 7.92416 12.3917 7.88547 12.4652C7.71859 12.799 7.49387 13.2517 7.30836 13.734C7.11213 14.2442 7.00002 14.6881 7.00002 15C7.00002 15.8459 7.2108 16.2966 7.45712 16.5429C7.62082 16.7066 7.87478 16.8546 8.275 16.9355ZM15 5H17V11H15V5Z" fill="currentColor"/>
</g>
<defs>
<clipPath id="clip0_271_356">
<rect width="20" height="20" fill="currentColor"/>
</clipPath>
</defs>
</svg>
