<svg width="16" height="16" viewBox="0 0 16 16" fill="none" xmlns="http://www.w3.org/2000/svg">
<path d="M4 12.0093C4 13.881 4.87431 14.8776 6.62292 14.9992C6.84563 15.0146 7.04224 14.8627 7.1052 14.6483C8.03579 11.4795 8.5863 10.9399 10.9813 9.02181C10.9931 9.01235 11.0082 9.00686 11.0234 9.00686H14C14.5523 9.00686 15 8.55878 15 8.00604V4.00273C15 3.44998 14.5523 3.0019 14 3.0019H11.0192C11.0067 3.0019 10.9962 2.99916 10.986 2.99193C10.7714 2.83994 8.15066 1.00024 7 1.00024H4C1.9 1.00024 1 6.00438 1 7.20537C1 8.16617 1 9.00686 2.2 9.00686H5C4.66667 9.67408 4 11.0085 4 12.0093Z" fill="currentColor"/>
</svg>
