<svg width="16" height="16" viewBox="0 0 16 16" fill="none" xmlns="http://www.w3.org/2000/svg">
<path fill-rule="evenodd" clip-rule="evenodd" d="M4.04281 14.9569C4.79141 15.7055 5.83165 15.9958 6.97661 15.9997C7.21248 16.0054 7.43945 15.9266 7.6196 15.7846C7.72217 15.7037 7.80957 15.6024 7.87479 15.4844C7.91501 15.4119 7.94649 15.3339 7.96781 15.2518C8.46247 13.5234 8.80076 12.6691 9.25947 12.0065C9.68989 11.3848 10.2605 10.8784 11.3513 9.99988H14.9997C15.0342 9.99988 15.0683 9.99813 15.1019 9.99471C15.2457 9.98011 15.3805 9.93506 15.4997 9.8661C15.6871 9.75769 15.836 9.59022 15.9211 9.38914C15.9717 9.2695 15.9997 9.13797 15.9997 8.9999V3.00002C15.9997 2.44774 15.552 2.00004 14.9997 2.00004H11.3128C11.2504 1.9575 11.1784 1.90886 11.0983 1.85543C10.8067 1.66104 10.4027 1.40031 9.95691 1.13805C9.51433 0.877697 9.01309 0.605499 8.52989 0.395419C8.08028 0.19994 7.51917 0 6.99985 0L6.98721 7.81997e-05H3.99992C3.03609 7.81997e-05 2.32744 0.580713 1.85633 1.18559C1.38091 1.796 1.02822 2.57415 0.768103 3.32116C0.250402 4.8079 1.45533e-06 6.46953 1.45533e-06 7.19993V7.22C-2.14324e-05 7.44574 -4.43208e-05 7.71568 0.0225764 7.97355C0.0458055 8.23837 0.0975566 8.56114 0.23963 8.8737C0.391378 9.20755 0.641008 9.51691 1.02059 9.72779C1.38283 9.92904 1.79016 9.99988 2.19996 9.99988H3.44776C3.4457 10.0052 3.44364 10.0106 3.44159 10.0159C3.22116 10.589 2.99994 11.3118 2.99994 11.9998C2.99994 13.154 3.28915 14.2032 4.04281 14.9569ZM5.22985 8.02648C5.14691 8.00682 5.06291 7.99817 4.97978 7.99992H2.19996C2.12785 7.99992 2.07695 7.99501 2.04289 7.98966C2.03357 7.95039 2.02283 7.88939 2.01489 7.79879C2.00068 7.63686 1.99996 7.45021 1.99996 7.19993C1.99996 6.73036 2.19955 5.29206 2.65683 3.97885C2.8842 3.32589 3.15025 2.77906 3.43419 2.41449C3.72244 2.04439 3.91377 2.00004 3.99992 2.00004H6.99986L7.00507 2.00002C7.0906 2.00209 7.32812 2.05373 7.73247 2.22953C8.11178 2.39444 8.5355 2.62224 8.94287 2.86187C9.347 3.0996 9.71796 3.33886 9.98885 3.51946C10.1238 3.60946 10.2329 3.68416 10.3075 3.73587C10.3448 3.7617 10.3734 3.78175 10.3922 3.79505L10.4084 3.80646C10.5737 3.92786 10.7776 3.99968 10.9983 4L13.9997 4L13.9997 7.99992H11.0091C10.8348 7.99818 10.6591 8.0418 10.5012 8.1329C10.4951 8.13638 10.4891 8.13992 10.4832 8.14354C10.4449 8.16668 10.4083 8.1923 10.3736 8.22019C9.14581 9.20245 8.27485 9.9152 7.61512 10.8681C7.05614 11.6756 6.67669 12.6116 6.27143 13.9346C5.8732 13.8535 5.62022 13.7059 5.457 13.5427C5.21068 13.2964 4.9999 12.8457 4.9999 11.9998C4.9999 11.6879 5.11201 11.244 5.30824 10.7338C5.49375 10.2515 5.71846 9.79888 5.88534 9.46505C5.92402 9.39156 5.95383 9.31267 5.97333 9.22979C6.03529 8.96843 5.98776 8.69656 5.85079 8.47433C5.77706 8.3547 5.67741 8.24946 5.55497 8.16799C5.45736 8.10273 5.34762 8.0542 5.22985 8.02648Z" fill="currentColor"/>
</svg>
