<svg width="24" height="24" viewBox="0 0 24 24" fill="none" xmlns="http://www.w3.org/2000/svg">
<path fill-rule="evenodd" clip-rule="evenodd" d="M17.2368 15C15.1784 16.0373 12 17.8165 12 22C12 22.4455 11.7087 22.823 11.3062 22.9523C11.2097 22.9833 11.1068 23 11 23L10.8832 23.0002C9.9748 23.0015 8.70218 23.0034 7.6953 22.3321C6.53289 21.5572 6 20.1321 6 18C6 17.3777 6.14817 16.5343 6.34236 15.7575C6.40509 15.5066 6.47554 15.251 6.55207 15H4C3.39019 15 2.83286 14.8942 2.35811 14.6304C1.86602 14.3571 1.54138 13.9577 1.33963 13.5138C1.14756 13.0913 1.07081 12.6385 1.03507 12.2312C0.99997 11.831 0.999985 11.4065 1 11.0226V11C1 9.85463 1.40654 7.47703 2.26103 5.37366C2.69061 4.31624 3.26098 3.25766 4.00642 2.4478C4.75898 1.63021 5.75696 1.00004 7 1.00004L11.9916 1.00004L12.0004 1C12.7092 1 13.4871 1.2545 14.1757 1.5496C14.8892 1.85537 15.6193 2.25508 16.265 2.64252C16.9138 3.03181 17.4952 3.41949 17.9134 3.70908C18.0772 3.82249 18.2168 3.92137 18.3264 4.00004H22C22.5523 4.00004 23 4.44775 23 5.00004V14C23 14.4833 22.6572 14.8865 22.2015 14.9797C22.1364 14.993 22.069 15 22 15H17.2368ZM10.0517 20.9807C9.49903 20.949 9.10485 20.8681 8.8047 20.668C8.46711 20.4429 8 19.868 8 18C8 17.6224 8.10183 16.9658 8.28264 16.2426C8.45959 15.5348 8.68504 14.8714 8.88685 14.4625C8.9244 14.3907 8.95348 14.3137 8.97275 14.2329C9.00124 14.1143 9.00716 13.9936 8.99241 13.8762C8.95634 13.5842 8.79436 13.3311 8.56247 13.1731C8.4594 13.1029 8.34253 13.0514 8.21676 13.0236C8.1385 13.0062 8.0594 12.9985 7.98105 13H4C3.60981 13 3.41714 12.9309 3.32939 12.8821C3.25898 12.843 3.20862 12.7924 3.16037 12.6862C3.10244 12.5588 3.05419 12.3616 3.02742 12.0564C3.00072 11.752 3 11.4103 3 11C3 10.1454 3.34346 8.02305 4.11396 6.12642C4.49689 5.18384 4.95777 4.36742 5.47795 3.80228C5.99101 3.24488 6.49303 3.00004 7 3.00004L12 3.00004L12.0069 3.00002C12.2988 3.00179 12.7686 3.12247 13.3879 3.3879C13.987 3.64463 14.6318 3.99492 15.236 4.35748C15.8372 4.71819 16.3808 5.08051 16.775 5.35342C16.8569 5.41017 16.9322 5.46291 17 5.5108V12.9998C16.9245 12.9998 16.8484 13.0083 16.7732 13.0259C16.6891 13.0454 16.609 13.0755 16.5344 13.1148L16.499 13.1325C14.6385 14.0623 10.5569 16.1021 10.0517 20.9807ZM21 13V6.00004H19V13H21Z" fill="currentColor"/>
</svg>
