<svg width="24" height="24" viewBox="0 0 24 24" fill="none" xmlns="http://www.w3.org/2000/svg">
<path d="M5 19.0002H3C2.44772 19.0002 2 18.5524 2 18.0002V11.0002C2 10.4479 2.44772 10.0002 3 10.0002H5V19.0002Z" fill="currentColor"/>
<path d="M7 19.7036C8.31767 20.5904 10.6283 22.0002 11.9996 22.0002L17 22.0002C20.5 22.0002 22 15.0002 22 13.0002C22 11.4002 22 10.0002 20 10.0002L16 10.0001C16.5 9.00014 17 7.00016 17 6.00016C17 2.33433 15.3202 2.02808 13.5001 2.00249C13.224 1.99861 13.0016 2.22487 12.9863 2.50059C12.7308 7.11883 8.9587 9.02075 7.02056 9.98988C7.0139 9.99321 7.00704 9.99571 7 9.99741V19.7036Z" fill="currentColor"/>
</svg>
