<svg width="20" height="20" viewBox="0 0 20 20" fill="none" xmlns="http://www.w3.org/2000/svg">
<g clip-path="url(#clip0_271_365)">
<path d="M5 8.00016H3C2.44772 8.00016 2 8.44787 2 9.00016V15.0002C2 15.5524 2.44772 16.0002 3 16.0002H5V8.00016Z" fill="currentColor"/>
<path d="M7 7.61467V16.9313C7.9376 17.4531 9.12827 18 10 18L14 18.0003C16.9167 18.0003 18 12.667 18 11.0003C18 9.66696 18 8.00029 17 8.00029H13C13.3334 7.33362 14 6.00029 14 5.00029C14 3.01731 13.017 2.01713 11.0509 2.00025C11.0211 1.99999 10.9942 2.02044 10.986 2.04905C10.111 5.09499 9.22888 6.61536 7 7.61467Z" fill="currentColor"/>
</g>
<defs>
<clipPath id="clip0_271_365">
<rect width="20" height="20" fill="currentColor"/>
</clipPath>
</defs>
</svg>
