<svg width="16" height="16" viewBox="0 0 16 16" fill="none" xmlns="http://www.w3.org/2000/svg">
<path d="M10.0302 11.7739H11.174L5.90919 4.24322H4.76542L10.0302 11.7739Z" fill="currentColor"/>
<path fill-rule="evenodd" clip-rule="evenodd" d="M4 0C1.79086 0 0 1.79086 0 4V12C0 14.2091 1.79086 16 4 16H12C14.2091 16 16 14.2091 16 12V4C16 1.79086 14.2091 0 12 0H4ZM12.5443 12.4961H9.58222L7.48377 9.44215L4.85082 12.5H3.73886L6.9895 8.72282L3.40076 3.5H6.3628L8.63651 6.80902L11.4834 3.50102H12.5993L9.13116 7.52889L12.5443 12.4961Z" fill="currentColor"/>
</svg>
