<svg width="24" height="24" viewBox="0 0 24 24" fill="none" xmlns="http://www.w3.org/2000/svg">
<path d="M14.7069 17.0319H16.2319L9.21225 6.99096H7.68722L14.7069 17.0319Z" fill="currentColor"/>
<path fill-rule="evenodd" clip-rule="evenodd" d="M0 7C0 3.13401 3.13401 0 7 0H17C20.866 0 24 3.13401 24 7V17C24 20.866 20.866 24 17 24H7C3.13401 24 0 20.866 0 17V7ZM18.059 17.9948H14.1096L11.3117 13.9229L7.8011 18H6.31848L10.6527 12.9638L5.86768 6H9.81707L12.8487 10.412L16.6445 6.00136H18.1324L13.5082 11.3719L18.059 17.9948Z" fill="currentColor"/>
</svg>
