<svg width="16" height="16" viewBox="0 0 16 16" fill="none" xmlns="http://www.w3.org/2000/svg">
<path d="M8 9C8.55228 9 9 9.44771 9 10V11C9 11.5523 8.55228 12 8 12C7.44772 12 7 11.5523 7 11V10C7 9.44771 7.44772 9 8 9Z" fill="currentColor"/>
<path fill-rule="evenodd" clip-rule="evenodd" d="M6 5C6 3.89543 6.89543 3 8 3C8.59224 3 9.12333 3.25615 9.49097 3.66691C9.8593 4.07844 10.4915 4.11346 10.903 3.74513C11.3145 3.37681 11.3496 2.74461 10.9812 2.33309C10.2502 1.51635 9.18476 1 8 1C5.79086 1 4 2.79086 4 5V6.05001C2.85888 6.28164 2 7.29052 2 8.5V12.5C2 13.8807 3.11929 15 4.5 15H11.5C12.8807 15 14 13.8807 14 12.5V8.5C14 7.11929 12.8807 6 11.5 6H6V5ZM4 8.5C4 8.22386 4.22386 8 4.5 8H11.5C11.7761 8 12 8.22386 12 8.5V12.5C12 12.7761 11.7761 13 11.5 13H4.5C4.22386 13 4 12.7761 4 12.5V8.5Z" fill="currentColor"/>
</svg>
