<svg width="24" height="24" viewBox="0 0 24 24" fill="none" xmlns="http://www.w3.org/2000/svg">
<path d="M13 14C13 13.4477 12.5523 13 12 13C11.4477 13 11 13.4477 11 14V18C11 18.5523 11.4477 19 12 19C12.5523 19 13 18.5523 13 18V14Z" fill="currentColor"/>
<path fill-rule="evenodd" clip-rule="evenodd" d="M12 3C9.79086 3 8 4.79086 8 7V9H18C19.6569 9 21 10.3431 21 12V20C21 21.6569 19.6569 23 18 23H6C4.34315 23 3 21.6569 3 20V12C3 10.3431 4.34315 9 6 9V7C6 3.68629 8.68629 1 12 1C14.4619 1 16.5754 2.48263 17.5003 4.59963C17.7214 5.10572 17.4904 5.69523 16.9843 5.91635C16.4782 6.13747 15.8887 5.90646 15.6676 5.40037C15.0494 3.98556 13.6387 3 12 3ZM5 12C5 11.4477 5.44772 11 6 11H18C18.5523 11 19 11.4477 19 12V20C19 20.5523 18.5523 21 18 21H6C5.44772 21 5 20.5523 5 20V12Z" fill="currentColor"/>
</svg>
