<svg width="20" height="20" viewBox="0 0 20 20" fill="none" xmlns="http://www.w3.org/2000/svg">
<path fill-rule="evenodd" clip-rule="evenodd" d="M9.29289 1.29289C9.68342 0.902369 10.3166 0.902369 10.7071 1.29289L15.7071 6.29289C16.0976 6.68342 16.0976 7.31658 15.7071 7.70711C15.3166 8.09763 14.6834 8.09763 14.2929 7.70711L11 4.41421V13C11 13.5523 10.5523 14 10 14C9.44772 14 9 13.5523 9 13V4.41421L5.70711 7.70711C5.31658 8.09763 4.68342 8.09763 4.29289 7.70711C3.90237 7.31658 3.90237 6.68342 4.29289 6.29289L9.29289 1.29289ZM2 18C2 17.4477 2.44772 17 3 17H17C17.5523 17 18 17.4477 18 18C18 18.5523 17.5523 19 17 19H3C2.44772 19 2 18.5523 2 18Z" fill="currentColor"/>
</svg>
