<svg width="16" height="16" viewBox="0 0 16 16" fill="none" xmlns="http://www.w3.org/2000/svg">
<path fill-rule="evenodd" clip-rule="evenodd" d="M7.29289 1.29289C7.68342 0.902369 8.31658 0.902369 8.70711 1.29289L12.7071 5.29289C13.0976 5.68342 13.0976 6.31658 12.7071 6.70711C12.3166 7.09763 11.6834 7.09763 11.2929 6.70711L9 4.41421V10C9 10.5523 8.55228 11 8 11C7.44772 11 7 10.5523 7 10V4.41421L4.70711 6.70711C4.31658 7.09763 3.68342 7.09763 3.29289 6.70711C2.90237 6.31658 2.90237 5.68342 3.29289 5.29289L7.29289 1.29289ZM1 14C1 13.4477 1.44772 13 2 13H14C14.5523 13 15 13.4477 15 14C15 14.5523 14.5523 15 14 15H2C1.44772 15 1 14.5523 1 14Z" fill="currentColor"/>
</svg>
