<svg width="24" height="24" viewBox="0 0 24 24" fill="none" xmlns="http://www.w3.org/2000/svg">
<path fill-rule="evenodd" clip-rule="evenodd" d="M1 8C1 6.34315 2.34315 5 4 5H14C15.6569 5 17 6.34315 17 8V10L21.4 6.7C21.703 6.47274 22.1084 6.43618 22.4472 6.60557C22.786 6.77496 23 7.12123 23 7.5V16.5C23 16.8788 22.786 17.225 22.4472 17.3944C22.1084 17.5638 21.703 17.5273 21.4 17.3L17 14V16C17 17.6569 15.6569 19 14 19H4C2.34315 19 1 17.6569 1 16V8ZM15 8C15 7.44772 14.5523 7 14 7H4C3.44772 7 3 7.44772 3 8V16C3 16.5523 3.44772 17 4 17H14C14.5523 17 15 16.5523 15 16V8ZM17.6667 12L21 14.5V9.5L17.6667 12Z" fill="currentColor"/>
</svg>
