<svg width="16" height="17" viewBox="0 0 16 17" fill="none" xmlns="http://www.w3.org/2000/svg">
<path fill-rule="evenodd" clip-rule="evenodd" d="M10.6233 1.54474C9.48075 -0.514932 6.51899 -0.514911 5.37648 1.54478L0.383084 10.5467C-0.726075 12.5463 0.719917 15.0019 3.00651 15.0019H12.9935C15.2801 15.0019 16.7261 12.5462 15.6169 10.5467L10.6233 1.54474ZM7 6.00195C7 5.44967 7.44772 5.00195 8 5.00195C8.55229 5.00195 9 5.44967 9 6.00195V8.00195C9 8.55424 8.55229 9.00195 8 9.00195C7.44772 9.00195 7 8.55424 7 8.00195V6.00195ZM8 12.002C8.55229 12.002 9 11.5542 9 11.002C9 10.4497 8.55229 10.002 8 10.002C7.44772 10.002 7 10.4497 7 11.002C7 11.5542 7.44772 12.002 8 12.002Z" fill="currentColor"/>
</svg>
