<svg width="20" height="20" viewBox="0 0 20 20" fill="none" xmlns="http://www.w3.org/2000/svg">
<g clip-path="url(#clip0_2724_9233)">
<path d="M10.0002 12.9997C10.5522 12.9998 11 13.4476 11.0002 13.9997C11.0002 14.5519 10.5523 14.9995 10.0002 14.9997C9.4479 14.9997 9.00018 14.552 9.00018 13.9997C9.00038 13.4476 9.44802 12.9997 10.0002 12.9997Z" fill="currentColor"/>
<path d="M10.0002 5.99967C10.5176 5.99982 10.9438 6.39325 10.9953 6.89713L11.0002 6.99967V9.99967C11.0002 10.5519 10.5523 10.9995 10.0002 10.9997C9.4479 10.9997 9.00018 10.552 9.00018 9.99967V6.99967L9.00507 6.89713C9.05658 6.39319 9.48264 5.99967 10.0002 5.99967Z" fill="currentColor"/>
<path fill-rule="evenodd" clip-rule="evenodd" d="M7.40839 2.48893C8.56594 0.504137 11.4334 0.504222 12.591 2.48893L19.59 14.4889C20.7559 16.4888 19.3132 18.9996 16.9982 18.9997H3.00116C0.686183 18.9994 -0.755878 16.4888 0.410339 14.4889L7.40839 2.48893ZM10.8635 3.49576C10.4775 2.83473 9.5218 2.83459 9.13593 3.49576L2.13788 15.4958C1.74915 16.1623 2.22964 16.9994 3.00116 16.9997H16.9982C17.7699 16.9996 18.2503 16.1624 17.8615 15.4958L10.8635 3.49576Z" fill="currentColor"/>
</g>
<defs>
<clipPath id="clip0_2724_9233">
<rect width="20" height="20" fill="currentColor"/>
</clipPath>
</defs>
</svg>
