<svg width="24" height="24" viewBox="0 0 24 24" fill="none" xmlns="http://www.w3.org/2000/svg">
<path fill-rule="evenodd" clip-rule="evenodd" d="M8.52631 3.01748C10.0615 0.328485 13.9385 0.328482 15.4737 3.01748L23.4664 17.0168C24.9888 19.6834 23.0633 23.0001 19.9927 23.0001H4.00737C0.936745 23.0001 -0.988803 19.6834 0.533655 17.0168L8.52631 3.01748ZM11 9.00006C11 8.44778 11.4477 8.00006 12 8.00006C12.5523 8.00006 13 8.44778 13 9.00006V13.0001C13 13.5523 12.5523 14.0001 12 14.0001C11.4477 14.0001 11 13.5523 11 13.0001V9.00006ZM12 18.0001C12.552 18.0001 13 17.5521 13 17.0001C13 16.4481 12.552 16.0001 12 16.0001C11.448 16.0001 11 16.4481 11 17.0001C11 17.5521 11.448 18.0001 12 18.0001Z" fill="currentColor"/>
</svg>
