<svg width="24" height="24" viewBox="0 0 24 24" fill="none" xmlns="http://www.w3.org/2000/svg">
<path d="M12 8.00006C11.4477 8.00006 11 8.44778 11 9.00006V13.0001C11 13.5523 11.4477 14.0001 12 14.0001C12.5523 14.0001 13 13.5523 13 13.0001V9.00006C13 8.44778 12.5523 8.00006 12 8.00006Z" fill="currentColor"/>
<path d="M13 17.0001C13 17.5521 12.552 18.0001 12 18.0001C11.448 18.0001 11 17.5521 11 17.0001C11 16.4481 11.448 16.0001 12 16.0001C12.552 16.0001 13 16.4481 13 17.0001Z" fill="currentColor"/>
<path fill-rule="evenodd" clip-rule="evenodd" d="M15.4737 3.01748C13.9385 0.328482 10.0615 0.328485 8.52631 3.01748L0.533655 17.0168C-0.988803 19.6834 0.936745 23.0001 4.00737 23.0001H19.9927C23.0633 23.0001 24.9888 19.6834 23.4664 17.0168L15.4737 3.01748ZM10.2632 4.00911C11.0308 2.66461 12.9693 2.66461 13.7369 4.00911L21.7295 18.0084C22.4908 19.3417 21.528 21.0001 19.9927 21.0001H4.00737C2.47206 21.0001 1.50928 19.3417 2.27051 18.0084L10.2632 4.00911Z" fill="currentColor"/>
</svg>
