<svg width="48" height="48" viewBox="0 0 48 48" fill="none" xmlns="http://www.w3.org/2000/svg">
<path d="M26 18.0001C26 16.8956 25.1046 16.0001 24 16.0001C22.8954 16.0001 22 16.8956 22 18.0001V27.0001C22 28.1047 22.8954 29.0001 24 29.0001C25.1046 29.0001 26 28.1047 26 27.0001V18.0001Z" fill="currentColor"/>
<path d="M24 37.0001C25.1046 37.0001 26 36.1047 26 35.0001C26 33.8956 25.1046 33.0001 24 33.0001C22.8954 33.0001 22 33.8956 22 35.0001C22 36.1047 22.8954 37.0001 24 37.0001Z" fill="currentColor"/>
<path fill-rule="evenodd" clip-rule="evenodd" d="M30.9475 6.03495C27.8771 0.656979 20.1231 0.65696 17.0527 6.03495L1.06731 34.0336C-1.97761 39.3669 1.87348 46.0002 8.01474 46.0002H39.9855C46.1267 46.0002 49.9778 39.3669 46.9329 34.0336L30.9475 6.03495ZM20.5264 8.0182C22.0616 5.32922 25.9386 5.32922 27.4738 8.01821L43.4592 36.0169C44.9817 38.6835 43.0561 42.0002 39.9855 42.0002H8.01474C4.94411 42.0002 3.01857 38.6835 4.54103 36.0169L20.5264 8.0182Z" fill="currentColor"/>
</svg>
