<svg width="48" height="48" viewBox="0 0 48 48" fill="none" xmlns="http://www.w3.org/2000/svg">
<path fill-rule="evenodd" clip-rule="evenodd" d="M17.0527 6.03495C20.1231 0.65696 27.8771 0.656979 30.9475 6.03495L46.9329 34.0336C49.9778 39.3669 46.1267 46.0002 39.9855 46.0002H8.01474C1.87348 46.0002 -1.97761 39.3669 1.06731 34.0336L17.0527 6.03495ZM24 16.0001C25.1046 16.0001 26 16.8956 26 18.0001V27.0001C26 28.1047 25.1046 29.0001 24 29.0001C22.8954 29.0001 22 28.1047 22 27.0001V18.0001C22 16.8956 22.8954 16.0001 24 16.0001ZM26 35.0001C26 36.1047 25.1046 37.0001 24 37.0001C22.8954 37.0001 22 36.1047 22 35.0001C22 33.8956 22.8954 33.0001 24 33.0001C25.1046 33.0001 26 33.8956 26 35.0001Z" fill="currentColor"/>
</svg>
