<svg width="16" height="16" viewBox="0 0 16 16" fill="none" xmlns="http://www.w3.org/2000/svg">
<g clip-path="url(#clip0_2102_212)">
<path fill-rule="evenodd" clip-rule="evenodd" d="M10.5 7C12.433 7 14 8.567 14 10.5C14 11.1026 13.8463 11.669 13.5781 12.1641L15.707 14.293L15.7754 14.3691C16.0957 14.7619 16.0731 15.3409 15.707 15.707C15.3409 16.0731 14.7619 16.0957 14.3691 15.7754L14.293 15.707L12.1641 13.5781C11.669 13.8463 11.1026 14 10.5 14C8.567 14 7 12.433 7 10.5C7 8.567 8.567 7 10.5 7ZM10.5 9C9.67157 9 9 9.67157 9 10.5C9 11.3284 9.67157 12 10.5 12C11.3284 12 12 11.3284 12 10.5C12 9.67157 11.3284 9 10.5 9Z" fill="currentColor"/>
<path d="M8 0C12.0311 0 15.3643 2.98056 15.9189 6.8584C15.9971 7.40512 15.617 7.91203 15.0703 7.99023C14.5238 8.06817 14.0177 7.68816 13.9395 7.1416C13.6662 5.23126 12.4921 3.61087 10.8613 2.72461C10.5708 3.47039 9.84857 4 9 4H7V6C7 6.55228 6.55228 7 6 7H5V9.28613C4.99982 9.91846 4.23533 10.2351 3.78809 9.78809L2 8C2 11.0218 4.23486 13.5237 7.1416 13.9395C7.68816 14.0177 8.06817 14.5238 7.99023 15.0703C7.91203 15.617 7.40512 15.9971 6.8584 15.9189C2.98056 15.3643 0 12.0311 0 8C0 3.58172 3.58172 0 8 0Z" fill="currentColor"/>
</g>
<defs>
<clipPath id="clip0_2102_212">
<rect width="16" height="16" fill="currentColor"/>
</clipPath>
</defs>
</svg>
