<svg width="16" height="16" viewBox="0 0 16 16" fill="none" xmlns="http://www.w3.org/2000/svg">
<path fill-rule="evenodd" clip-rule="evenodd" d="M8 0C12.4183 0 16 3.58172 16 8C16 12.4183 12.4183 16 8 16C3.58172 16 0 12.4183 0 8C0 3.58172 3.58172 0 8 0ZM2.25684 6.25684C2.08963 6.80846 2 7.39377 2 8C2 11.3137 4.68629 14 8 14V13C6.89543 13 6 12.1046 6 11V10L2.25684 6.25684ZM10.8613 2.72559C10.5706 3.47092 9.84825 4 9 4H8V5C8 5.55228 7.55228 6 7 6H6V8H10C10.5523 8 11 8.44772 11 9V10C11.908 10 12.6729 10.6056 12.917 11.4346C13.5981 10.4613 14 9.2781 14 8C14 5.7225 12.7308 3.74189 10.8613 2.72559Z" fill="currentColor"/>
</svg>
