<svg width="48" height="48" viewBox="0 0 48 48" fill="none" xmlns="http://www.w3.org/2000/svg">
<g id="type=Ariba">
<path id="Vector" fill-rule="evenodd" clip-rule="evenodd" d="M47.9599 38.2975C37.6107 24.1194 27.3283 9.32812 24.01 9.32812C20.6917 9.32812 10.4094 24.1194 0.0568087 38.2975C0.0233918 38.3381 0 38.3922 0 38.4598C0 38.577 0.0701754 38.6717 0.157059 38.6717C0.190476 38.6717 0.220551 38.6581 0.247285 38.6311C1.90476 37.193 9.15956 29.723 12.0869 29.723C13.1128 29.723 14.7703 30.7283 16.528 32.0672C14.1654 35.0967 12.1771 38.0045 11.9799 38.2975C11.9465 38.3381 11.9231 38.3922 11.9231 38.4598C11.9231 38.577 11.9933 38.6717 12.0769 38.6717C12.1103 38.6717 12.1437 38.6581 12.1671 38.6311C13.0459 37.8692 15.4921 35.4168 18.0351 33.2754C20.8221 35.5881 23.472 38.2524 23.9131 38.6356C23.9131 38.6356 23.9365 38.6536 23.9499 38.6581H23.9566C23.9699 38.6581 23.9833 38.6672 23.9967 38.6672H24.0033C24.0033 38.6672 24.0334 38.6672 24.0434 38.6581C24.0434 38.6581 24.0468 38.6581 24.0501 38.6581C24.0635 38.6536 24.0735 38.6446 24.0869 38.6356C24.528 38.2524 27.1813 35.5881 29.9649 33.2754C32.5079 35.4168 34.9574 37.8692 35.8329 38.6311C35.8563 38.6536 35.8897 38.6717 35.9198 38.6717C36.01 38.6717 36.0769 38.577 36.0769 38.4598C36.0769 38.3922 36.0535 38.3381 36.0201 38.2975C35.8195 38.0045 33.8312 35.0967 31.472 32.0672C33.2297 30.7283 34.8872 29.723 35.9131 29.723C38.8404 29.723 46.0919 37.193 47.7527 38.6311C47.7794 38.6581 47.8095 38.6717 47.8429 38.6717C47.9298 38.6717 48 38.577 48 38.4598C48 38.3922 47.9799 38.3381 47.9432 38.2975H47.9599ZM24.01 14.0797C25.2899 14.0797 27.3885 15.5043 29.4871 17.2264C28.1437 17.7088 26.0551 19.8817 24.0267 22.3341C24.0201 22.3251 24.0134 22.3206 24.01 22.3161C24.0033 22.3206 24 22.3251 23.9967 22.3341C21.9649 19.8817 19.8797 17.7088 18.533 17.2264C20.6316 15.5043 22.7302 14.0842 24.01 14.0797ZM18.0485 30.1738C15.9866 27.6853 13.868 25.4808 12.5246 25.048C14.6366 23.3124 16.7519 21.8788 18.0351 21.8788C19.061 21.8788 20.7185 22.8841 22.4762 24.2231C20.7619 26.4185 18.1888 30.0025 18.0485 30.1783V30.1738ZM24.01 38.1442C23.5489 37.4725 21.7109 34.8082 19.5589 32.0537C21.2966 30.7193 22.944 29.723 24.0134 29.7185C25.0827 29.7185 26.7302 30.7148 28.4678 32.0537C26.3158 34.8127 24.4745 37.4725 24.0167 38.1442H24.01ZM29.9716 30.1738C29.8312 30.0025 27.2548 26.414 25.5405 24.2185C27.2982 22.8796 28.9557 21.8743 29.9816 21.8743C31.2648 21.8743 33.3801 23.3124 35.4921 25.0435C34.1487 25.4808 32.0301 27.6808 29.9716 30.1693V30.1738Z" fill="#ED1C2E"/>
</g>
</svg>
