<svg width="48" height="48" viewBox="0 0 48 48" fill="none" xmlns="http://www.w3.org/2000/svg">
<g id="type=Book Space">
<g id="Group 31667">
<path id="Subtract" d="M27.0296 40.4605C24.3261 37.7231 22.6649 34.5806 22.6649 30.597C22.6649 24.3593 26.8879 19.306 31.9317 17.804C34.4096 17.0662 35.4798 15.2946 35.4798 13.2977V7.29723C35.4798 4.41911 33.1625 2.08594 30.3 2.08594L6.21074 2.08594C2.77569 2.08593 -0.00115621 4.88574 3.61158e-07 8.33947C0.00349712 18.7814 0.0147791 29.2234 0.0240987 39.6653C0.0271795 43.1171 2.81103 45.914 6.24417 45.914L24.728 45.914C26.5095 45.914 27.9536 44.4782 27.9536 42.707C27.9536 41.8321 27.601 41.0391 27.0296 40.4605Z" fill="#0968F6"/>
<circle id="Ellipse 179" cx="8.86999" cy="26.6088" r="3.65234" fill="white"/>
<g id="Group 31666">
<path id="Rectangle 2790" d="M39.7066 37.9284C39.1438 37.1245 39.3391 36.0166 40.143 35.4537C40.9468 34.8908 42.0548 35.0862 42.6177 35.89L47.6786 43.1178C48.2415 43.9217 48.0461 45.0296 47.2422 45.5925C46.4384 46.1554 45.3304 45.96 44.7676 45.1562L39.7066 37.9284Z" fill="#0968F6"/>
<path id="Ellipse 181" d="M42.4674 29.8303C42.7525 33.089 40.342 35.9618 37.0833 36.2469C33.8247 36.532 30.9519 34.1214 30.6668 30.8628C30.3817 27.6041 32.7923 24.7313 36.0509 24.4462C39.3096 24.1611 42.1823 26.5717 42.4674 29.8303Z" fill="#D4E5FE"/>
<path id="Ellipse 182" d="M43.8055 27.7695C44.0451 30.5079 42.0194 32.922 39.281 33.1616C36.5427 33.4012 34.1286 31.3755 33.889 28.6371C33.6494 25.8987 35.6751 23.4846 38.4134 23.2451C41.1518 23.0055 43.5659 25.0312 43.8055 27.7695Z" fill="white"/>
<path id="Ellipse 180 (Stroke)" d="M35.7412 20.906C40.955 20.4499 45.5514 24.3067 46.0076 29.5205C46.4637 34.7342 42.6068 39.3305 37.393 39.7867L36.9061 39.8173C32.0575 39.9949 27.8487 36.4625 27.1818 31.6567L27.1266 31.1723C26.6847 26.1213 30.2906 21.6502 35.2568 20.9612L35.7412 20.906ZM42.4678 29.8297C42.1826 26.5712 39.309 24.1607 36.0504 24.4457C32.7921 24.731 30.3817 27.6036 30.6665 30.8619C30.9516 34.1203 33.8242 36.5316 37.0826 36.2469C40.3413 35.9618 42.7529 33.0883 42.4678 29.8297Z" fill="#0968F6"/>
</g>
</g>
</g>
</svg>
