<svg width="48" height="48" viewBox="0 0 48 48" fill="none" xmlns="http://www.w3.org/2000/svg">
<g id="type=Concur">
<g id="Group">
<path id="Vector" d="M22.9291 30.7908C19.2552 30.7908 16.1937 27.7292 16.1937 24.0554C16.1937 20.3815 19.1513 17.3199 22.9291 17.3199C24.7661 17.3199 26.5048 18.0362 27.6255 19.2608L31.0972 15.7891C28.9541 13.646 26.0947 12.4214 22.8309 12.4214C16.4016 12.4214 11.1912 17.6261 11.1912 24.0611C11.1912 30.4904 16.3958 35.7009 22.8309 35.7009C25.9965 35.7009 28.9541 34.3723 31.0972 32.3332L27.6255 28.8615C26.4008 29.9705 24.7661 30.7908 22.9291 30.7908Z" fill="#F0AB00"/>
<path id="Vector_2" d="M32.7261 21.0925C31.0914 21.0925 29.7686 22.4211 29.7686 24.0501C29.7686 25.6849 31.0972 27.0135 32.7261 27.0135C34.3609 27.0135 35.6837 25.6849 35.6837 24.0501C35.6895 22.4154 34.3609 21.0925 32.7261 21.0925Z" fill="#F0AB00"/>
<path id="Vector_3" d="M2 46H46V2H2V46ZM6.89852 40.9975V6.89851H40.9975V22.7205V25.1697V40.9917L6.89852 40.9975Z" fill="#F0AB00"/>
</g>
</g>
</svg>
