<svg width="48" height="48" viewBox="0 0 48 48" fill="none" xmlns="http://www.w3.org/2000/svg">
<g id="type=Cornerstone" clip-path="url(#clip0_2663_1863)">
<path id="Vector" d="M38.9501 24.5392C35.1714 24.5392 31.5469 26.0371 28.8707 28.7047C26.1944 31.3724 24.6849 34.9921 24.6727 38.7707C24.6735 38.7849 24.6735 38.7991 24.6727 38.8133C24.6727 38.955 24.6164 39.091 24.5162 39.1912C24.416 39.2914 24.2801 39.3476 24.1384 39.3476C23.9967 39.3476 23.8608 39.2914 23.7606 39.1912C23.6604 39.091 23.6041 38.955 23.6041 38.8133C23.6037 35.0334 22.1045 31.4078 19.4352 28.7315C16.7659 26.0551 13.1443 24.5464 9.36441 24.536H9.32507C9.18336 24.536 9.04746 24.4797 8.94725 24.3795C8.84705 24.2793 8.79075 24.1433 8.79075 24.0016C8.79075 23.8599 8.84705 23.724 8.94725 23.6238C9.04746 23.5236 9.18336 23.4673 9.32507 23.4673C11.2 23.4673 13.0566 23.098 14.7888 22.3805C16.521 21.663 18.0949 20.6114 19.4207 19.2856C20.7465 17.9598 21.7981 16.3859 22.5156 14.6537C23.2332 12.9215 23.6024 11.0649 23.6024 9.18995C23.6024 9.04824 23.6587 8.91233 23.7589 8.81213C23.8591 8.71193 23.9951 8.65563 24.1368 8.65563C24.2785 8.65563 24.4144 8.71193 24.5146 8.81213C24.6148 8.91233 24.6711 9.04824 24.6711 9.18995C24.6711 9.20798 24.6711 9.226 24.6711 9.24403C24.6799 11.9285 25.4457 14.5561 26.8804 16.825C28.3151 19.094 30.3607 20.9123 32.7822 22.0711C35.2036 23.23 37.9028 23.6825 40.5699 23.3766C43.2369 23.0707 45.7635 22.0188 47.8597 20.3417C46.9379 14.3648 43.7936 8.95618 39.0557 5.19771C34.3178 1.43923 28.3357 -0.392007 22.3057 0.070258C16.2758 0.532523 10.6427 3.25421 6.53303 7.69095C2.4234 12.1277 0.140259 17.9524 0.140259 24C0.140259 30.0476 2.4234 35.8723 6.53303 40.3091C10.6427 44.7458 16.2758 47.4675 22.3057 47.9297C28.3357 48.392 34.3178 46.5608 39.0557 42.8023C43.7936 39.0438 46.9379 33.6352 47.8597 27.6583C45.3317 25.631 42.1873 24.5277 38.9468 24.531" fill="#FA4616"/>
</g>
<defs>
<clipPath id="clip0_2663_1863">
<rect width="48" height="48" fill="white"/>
</clipPath>
</defs>
</svg>
