<svg width="48" height="48" viewBox="0 0 48 48" fill="none" xmlns="http://www.w3.org/2000/svg">
<g id="type=Dayforce">
<g id="Group 31674">
<path id="Rectangle 2085" d="M2 10C2 5.58172 5.58172 2 10 2H38C42.4183 2 46 5.58172 46 10V38C46 42.4183 42.4183 46 38 46H10C5.58172 46 2 42.4183 2 38V10Z" fill="url(#paint0_linear_2912_1170)"/>
<path id="Layer" fill-rule="evenodd" clip-rule="evenodd" d="M28.3257 18.1736V9.99251L34.0381 8.11108V27.8495H34.0271C33.9479 29.5303 33.5098 31.0932 32.7145 32.4868C31.8382 34.0295 30.5735 35.2537 28.9811 36.13C27.3905 37.0063 25.5588 37.4444 23.5393 37.4444C21.518 37.4444 19.6881 37.0063 18.0957 36.13C16.5033 35.2537 15.2386 34.0295 14.3439 32.4868C13.4584 30.9441 13 29.2118 13 27.3304C13 25.4195 13.4584 23.678 14.3531 22.1555C15.2386 20.622 16.5033 19.3978 18.0957 18.5123C19.6881 17.6268 21.518 17.1795 23.5393 17.1795C25.29 17.1795 26.8916 17.5164 28.3257 18.1736ZM23.5393 22.1758C22.1752 22.1758 21.1001 22.6434 20.2256 23.608C19.3383 24.5837 18.9112 25.7987 18.9112 27.3304C18.9112 28.8344 19.3383 30.0384 20.2256 31.0141C21.0909 31.9787 22.1752 32.4481 23.5393 32.4481C24.8721 32.4481 25.9472 31.9787 26.8327 31.0141C27.7274 30.0384 28.1656 28.8344 28.1656 27.3304C28.1656 25.7987 27.7274 24.5837 26.8327 23.608C25.9472 22.6434 24.8721 22.1758 23.5393 22.1758Z" fill="white"/>
</g>
</g>
<defs>
<linearGradient id="paint0_linear_2912_1170" x1="46" y1="46" x2="2" y2="2" gradientUnits="userSpaceOnUse">
<stop stop-color="#0FBBF0"/>
<stop offset="1" stop-color="#1C5FDE"/>
</linearGradient>
</defs>
</svg>
