<svg width="48" height="48" viewBox="0 0 48 48" fill="none" xmlns="http://www.w3.org/2000/svg">
<g id="type=DeepSights" clip-path="url(#clip0_2924_1656)">
<g id="Group 31690">
<path id="Vector" d="M9.70917 21.8258C7.87866 21.2386 5.67349 21.4693 4.27116 22.7697C3.62887 23.3674 3.17928 24.1854 3.15787 25.0454C3.10435 27.321 5.74842 28.9884 7.83584 29.0618C10.5227 29.1667 13.3595 28.2438 15.8751 27.1847C14.323 24.8881 12.4389 22.7067 9.69847 21.8258H9.70917Z" fill="#90E9E3"/>
<path id="Vector_2" d="M24.0001 45.3378C33.1205 45.3378 41.0634 40.3461 45.1205 33.0053C44.7779 33.257 44.4247 33.5087 44.0714 33.7498C42.7012 34.6727 41.2667 35.4697 39.7574 36.1514C36.5781 37.5775 32.8743 38.6053 29.3524 38.5003C23.2186 38.3221 19.9644 33.6554 17.042 28.9888C16.6673 28.3911 16.2819 27.7933 15.8751 27.1956C13.3488 28.2548 10.5228 29.1776 7.83587 29.0727C5.73774 28.9888 3.10438 27.3424 3.1579 25.0562C3.1793 24.1858 3.62891 23.3678 4.2712 22.7806C5.67351 21.4802 7.86799 21.2495 9.7092 21.8368C12.4496 22.7177 14.323 24.8989 15.8859 27.1956C16.3354 27.0068 16.7744 26.818 17.2026 26.6188C20.0714 25.3289 22.769 23.7244 25.413 22.057C25.6058 21.9416 25.7878 21.8158 25.9804 21.7004C21.6664 17.9776 18.8403 12.7971 17.3202 7.32295C16.9456 5.99112 16.6138 4.47053 15.4897 3.53719C13.1669 1.59712 9.62356 3.25405 7.71812 4.9634C5.99466 6.50498 4.89206 7.57464 3.59679 9.47275C3.54327 9.56713 3.47904 9.66153 3.41482 9.74541C1.24175 13.2795 0 17.4113 0 21.8263C0 34.809 10.7476 45.3378 24.0001 45.3378Z" fill="#85A7E6"/>
<path id="Vector_3" d="M39.2971 15.9328C35.026 16.3104 31.1401 18.502 27.5755 20.7044C27.0402 21.0399 26.4943 21.3755 25.9591 21.7111C27.34 22.9066 28.86 23.9343 30.5621 24.7943C31.4506 25.2452 32.382 25.6227 33.3239 25.9477C34.8012 26.4511 36.3533 26.8182 37.9162 26.9336C38.6014 26.9859 39.2971 26.9965 39.9715 26.965C42.0911 26.8706 44.2106 26.2729 45.8806 24.9935C47.1224 24.0497 47.9787 22.592 47.9787 21.0609V20.8617C47.9573 20.3792 47.8503 19.8864 47.6255 19.4039C46.2874 16.4152 42.2303 15.6706 39.2971 15.9328Z" fill="#90E9E3"/>
<path id="Vector_4" d="M47.9786 21.0713C47.9786 21.1238 47.9786 21.1867 47.9678 21.2391C47.9036 22.6968 47.0794 24.0811 45.8805 24.9934C44.2212 26.2518 42.1338 26.8496 40.0357 26.9544C40.0143 26.9544 40.0035 26.9544 39.9821 26.9544C39.297 26.9859 38.6119 26.9754 37.9269 26.923C36.364 26.8076 34.8117 26.4406 33.3345 25.9372C32.3925 25.6226 31.4612 25.2345 30.5726 24.7836C28.8813 23.9342 27.3506 22.896 25.9697 21.711C25.777 21.8264 25.595 21.9522 25.4023 22.0676C22.7582 23.735 20.0606 25.3395 17.1918 26.6294C16.7636 26.8181 16.3246 27.0069 15.8751 27.2061C16.2818 27.8039 16.6672 28.4121 17.0419 28.9994C19.975 33.666 23.2185 38.3221 29.3523 38.511C32.8742 38.6158 36.578 37.5881 39.7574 36.1619C41.2667 35.4907 42.7118 34.6833 44.0713 33.7605C44.4246 33.5192 44.7778 33.278 45.1204 33.0159C46.9509 29.6915 48 25.8848 48 21.8474C48 21.5957 47.9892 21.3334 47.9786 21.0923V21.0713Z" fill="#7F7FD4"/>
</g>
</g>
<defs>
<clipPath id="clip0_2924_1656">
<rect width="48" height="48" fill="white"/>
</clipPath>
</defs>
</svg>
