<svg width="48" height="48" viewBox="0 0 48 48" fill="none" xmlns="http://www.w3.org/2000/svg">
<g id="type=Fieldglass">
<path id="Vector" fill-rule="evenodd" clip-rule="evenodd" d="M13.1611 39.6647C13.6699 41.2704 14.6452 44.829 14.1364 46.5215C13.6275 48.1705 12.0586 47.1724 11.4649 46.5215C11.2529 46.3045 11.1257 46.2611 10.9985 46.0875C10.6168 45.7403 9.64152 44.5252 9.34469 44.1346L7.90294 41.9214C7.77572 41.7044 7.69092 41.5742 7.56371 41.3572L5.40111 37.2345C4.84985 35.9326 4.29859 34.7175 3.83215 33.3722C3.57772 32.6778 3.15369 31.3325 2.94167 30.6382C2.64484 29.4665 1.11827 23.1305 4.08656 24.4758C4.5106 24.6494 4.80744 24.9532 5.10427 25.257C5.4011 25.5174 6.20677 26.3419 6.41879 26.6457C6.71562 27.0363 7.35169 27.8608 7.56371 28.208C7.73332 28.5117 8.83584 30.0306 8.92065 30.3778L7.98775 29.2061C6.5036 27.3834 4.97706 26.9929 5.40111 29.9004C5.61313 31.2458 5.82513 32.0703 6.20677 33.3288L6.80044 34.8911C6.97005 35.4119 7.22448 35.8458 7.4365 36.3232C8.32699 38.3628 9.76872 40.9667 11.3801 42.4421C13.0338 43.9176 13.3731 42.5289 13.1611 40.8365L12.8218 39.1006C12.9915 39.144 13.1187 39.5346 13.1611 39.6647ZM34.6176 12.2813C34.5328 12.0209 34.1087 11.4134 33.9391 11.1096C32.0733 8.02841 30.0803 5.20763 27.5361 2.60381C27.4089 2.43023 27.2816 2.34343 27.0696 2.16984C26.4336 1.51889 25.1614 0.564159 24.3134 0.216984C24.0589 0.0867938 23.7621 0.0433969 23.4653 0H22.8716C22.3204 0.0867938 21.8963 0.347167 21.5995 0.737739C21.0482 1.60568 20.921 2.47361 20.8362 3.73212C20.7514 4.33968 20.921 6.63971 21.0058 7.24727C21.2179 8.80956 21.8539 11.7606 22.3204 13.4096C22.7444 14.7549 23.2108 16.3606 23.6773 17.6625C24.3134 19.5286 25.0342 21.2211 25.7551 23.0871C25.9247 23.5645 26.1367 23.9551 26.3064 24.389C26.9 25.9513 28.5538 29.2929 29.2746 30.7684C29.8683 31.9401 31.2676 34.4571 31.9461 35.542L33.3454 37.8421C34.1935 39.2742 35.8049 41.4006 36.865 42.7025C37.5859 43.6139 38.2643 44.3516 39.07 45.1761C40.0877 46.2177 43.3952 49.1253 44.9218 46.912C45.5579 45.9573 45.5154 45.0026 45.6851 43.9176C45.7699 43.2667 45.6426 42.7025 45.6426 42.095C45.6426 41.6176 45.5578 40.9233 45.473 40.4459C45.3458 39.5779 44.9218 37.2779 44.7522 36.4968L44.1585 34.2835C44.0737 33.8496 43.056 30.3344 42.7592 30.0306L43.1832 31.8533C43.5224 33.3288 44.4553 38.6666 42.2503 38.6666C41.4022 38.71 40.5966 38.0591 40.0029 37.6251C39.4092 37.1477 38.6036 36.2798 38.1371 35.6722C37.7555 35.1949 37.2466 34.6307 36.9074 34.1099L36.0169 32.808C35.5505 32.1571 35.1264 31.5061 34.7448 30.8118C34.4904 30.3344 34.2359 29.857 33.9391 29.4231C33.303 28.425 32.3277 26.2117 31.7341 25.04L30.7164 22.74C30.462 22.2626 29.3171 19.2248 29.1474 18.7474L28.5962 17.055C28.0873 15.4927 27.5785 13.3228 27.3665 11.6738C27.1968 10.4152 27.112 8.76617 27.5785 7.76804C27.6633 7.55105 27.8753 7.24728 28.0449 7.16049C29.6563 6.11896 32.6246 9.7209 33.5999 11.0662C33.8119 11.2398 34.4479 12.1511 34.6176 12.2813ZM26.0095 35.3251L26.5184 37.9289C26.6456 38.8402 26.688 40.1421 26.3912 40.7931C25.5855 42.5289 23.1684 39.8383 22.7444 39.2742C22.2779 38.6666 21.9387 38.276 21.3875 37.4949C21.1755 37.1911 20.9634 36.8439 20.7514 36.5402C20.3274 35.8892 19.9881 35.2383 19.6065 34.5439C19.3945 34.1533 19.2249 33.9364 19.0553 33.5024L17.7407 30.8552C17.3167 29.9438 16.935 28.9891 16.5958 28.0344C15.9173 26.2551 15.5357 24.9966 15.1116 23.1305C14.8572 22.089 14.518 19.9626 15.0693 18.9644C15.5357 18.0097 16.5958 18.5739 17.1471 19.0078C18.7584 20.2663 19.9033 22.2192 20.1154 22.3928C20.073 22.1324 19.7761 21.7852 19.6913 21.5682L18.6312 19.9192C18.292 19.3984 17.3591 18.0531 16.935 17.5757C16.2566 16.7078 16.0869 16.5776 15.5357 15.9266C14.6452 14.7983 12.101 12.4983 10.8288 13.8436C9.93835 14.7983 10.108 17.2286 10.2352 18.4437C10.7864 22.1758 12.0586 26.4721 13.5851 29.9872C14.3908 31.8967 14.8148 32.808 15.7053 34.6307C16.6806 36.5836 17.4015 37.8421 18.5888 39.8817C18.928 40.4459 19.2673 41.01 19.6065 41.4874L20.709 43.0931C21.0906 43.6139 22.0659 44.8724 22.5324 45.3497C23.4229 46.3045 25.119 48.0837 26.6032 47.9969C28.681 47.8667 28.1297 43.3101 27.8329 41.7478C27.5361 40.3157 26.9 37.4949 26.4336 36.3232L26.2215 35.5854C26.0943 35.4119 26.0943 35.4552 26.0095 35.3251ZM33.1334 18.1833C33.1334 20.7871 36.7378 27.8608 37.7131 27.8608C38.4764 27.8608 37.6283 25.1268 37.5011 24.7796L36.6954 22.6532C36.5682 22.3928 36.4834 22.2626 36.3561 22.0022C35.7201 20.7003 35.0416 19.4852 34.1087 18.4003C33.9815 18.1399 33.1334 17.3587 33.1334 18.1833ZM19.3945 26.7325C19.3945 28.1646 21.6419 32.9816 22.4052 32.9816C23.2532 32.9816 21.6843 29.3797 21.4299 28.8155C21.133 28.2948 20.285 26.8193 19.8185 26.5589C19.6489 26.5155 19.3945 26.5589 19.3945 26.7325ZM8.4966 33.6326C8.4966 34.2401 9.00546 35.3685 9.21748 35.8024C9.25988 35.976 9.30229 36.1062 9.4295 36.2798C9.55671 36.4968 9.98075 37.2345 10.1928 37.2779C10.9136 37.4949 9.68392 34.5005 8.92065 33.676C8.83584 33.5892 8.4966 33.3722 8.4966 33.6326ZM26.0095 35.3251V35.1081H25.9247C25.9247 35.4552 25.9247 35.1949 26.0095 35.3251ZM20.0305 22.3928V22.4796L20.1154 22.3928H20.0305Z" fill="#FF9E00"/>
</g>
</svg>
