<svg width="48" height="48" viewBox="0 0 48 48" fill="none" xmlns="http://www.w3.org/2000/svg">
<g id="type=GitHub" clip-path="url(#clip0_2987_219)">
<path id="Vector" fill-rule="evenodd" clip-rule="evenodd" d="M24 0.592041C10.74 0.592041 0 11.332 0 24.592C0 35.212 6.87 44.182 16.41 47.362C17.61 47.572 18.06 46.852 18.06 46.222C18.06 45.652 18.03 43.762 18.03 41.752C12 42.862 10.44 40.282 9.96 38.932C9.69 38.242 8.52 36.112 7.5 35.542C6.66 35.092 5.46 33.982 7.47 33.952C9.36 33.922 10.71 35.692 11.16 36.412C13.32 40.042 16.77 39.022 18.15 38.392C18.36 36.832 18.99 35.782 19.68 35.182C14.34 34.582 8.76 32.512 8.76 23.332C8.76 20.722 9.69 18.562 11.22 16.882C10.98 16.282 10.14 13.822 11.46 10.522C11.46 10.522 13.47 9.89204 18.06 12.982C19.98 12.442 22.02 12.172 24.06 12.172C26.1 12.172 28.14 12.442 30.06 12.982C34.65 9.86204 36.66 10.522 36.66 10.522C37.98 13.822 37.14 16.282 36.9 16.882C38.43 18.562 39.36 20.692 39.36 23.332C39.36 32.542 33.75 34.582 28.41 35.182C29.28 35.932 30.03 37.372 30.03 39.622C30.03 42.832 30 45.412 30 46.222C30 46.852 30.45 47.602 31.65 47.362C41.13 44.182 48 35.182 48 24.592C48 11.332 37.26 0.592041 24 0.592041Z" fill="#1B1F23"/>
</g>
<defs>
<clipPath id="clip0_2987_219">
<rect width="48" height="48" fill="white"/>
</clipPath>
</defs>
</svg>
