<svg width="48" height="48" viewBox="0 0 48 48" fill="none" xmlns="http://www.w3.org/2000/svg">
<g id="type=Glean">
<g id="Group 31645">
<path id="Vector" d="M37.631 4.21083L32.0365 0L27.5056 5.80448C20.6409 2.65386 12.1993 4.41087 7.39497 10.4154C1.80052 17.3801 3.10412 27.3954 10.3122 32.8032C13.0561 34.8602 16.2501 35.9538 19.474 36.1205C24.7251 36.4205 30.0428 34.2968 33.4768 29.9859C38.3144 23.9814 37.971 15.6231 33.1334 9.98531L37.631 4.21417V4.21083ZM27.849 25.7684C24.6584 29.7159 18.7539 30.446 14.6364 27.3588C10.5523 24.2748 9.79878 18.537 12.9894 14.5896C14.5331 12.6658 16.7635 11.4389 19.234 11.1389C19.8174 11.0722 20.4009 11.0389 20.9843 11.0722C22.8714 11.1722 24.6917 11.8357 26.202 12.9626C30.2862 16.0798 31.0397 21.8177 27.849 25.7651" fill="#3665F3"/>
<path id="Vector_2" d="M37.9727 32.8677C37.0459 34.0279 36.0157 35.0581 34.8854 36.0183C33.7886 36.9152 32.585 37.742 31.3147 38.4388C30.0778 39.1023 28.7409 39.6657 27.4006 40.0958C26.0637 40.5259 24.6534 40.8259 23.2465 40.9893C21.8395 41.156 20.4326 41.2227 18.9923 41.1227C17.552 41.0226 16.1451 40.7893 14.7715 40.4592L14.4614 41.5527L13.0544 47.0905C14.8381 47.5539 16.6585 47.8207 18.5122 47.954H18.7522C20.5359 48.054 22.3563 47.9874 24.1066 47.7873C25.9603 47.5539 27.814 47.1572 29.5977 46.5938C31.3814 46.0303 33.1318 45.3002 34.7788 44.4033C36.4591 43.5098 38.0394 42.4129 39.513 41.2193C41.0233 39.9924 42.3969 38.5988 43.5972 37.0752C43.7672 36.8752 43.9072 36.6451 44.0773 36.4117L38.3795 32.3309C38.2094 32.4976 38.1061 32.6977 37.9661 32.861" fill="#3665F3"/>
</g>
</g>
</svg>
