<svg width="48" height="48" viewBox="0 0 48 48" fill="none" xmlns="http://www.w3.org/2000/svg">
<g id="type=Google Sheets">
<path id="Rectangle 2825" d="M2 10C2 5.58172 5.58172 2 10 2H38C42.4183 2 46 5.58172 46 10V38C46 42.4183 42.4183 46 38 46H10C5.58172 46 2 42.4183 2 38V10Z" fill="#34A853"/>
<path id="Union" fill-rule="evenodd" clip-rule="evenodd" d="M37 14C37.5523 14 38 14.4477 38 15V33L37.9951 33.1025C37.9472 33.573 37.573 33.9472 37.1025 33.9951L37 34H11L10.8975 33.9951C10.427 33.9472 10.0528 33.573 10.0049 33.1025L10 33V15C10 14.4477 10.4477 14 11 14H37ZM13.5 25.75V30.5H22.25V25.75H13.5ZM25.75 25.75V30.5H34.5V25.75H25.75ZM13.5 22.25H22.25V17.5H13.5V22.25ZM25.75 22.25H34.5V17.5H25.75V22.25Z" fill="white"/>
</g>
</svg>
