<svg width="48" height="48" viewBox="0 0 48 48" fill="none" xmlns="http://www.w3.org/2000/svg">
<g id="type=Google Forms">
<path id="Rectangle 2825" d="M2 10C2 5.58172 5.58172 2 10 2H38C42.4183 2 46 5.58172 46 10V38C46 42.4183 42.4183 46 38 46H10C5.58172 46 2 42.4183 2 38V10Z" fill="#7248B9"/>
<g id="Union">
<path d="M14 29.5C15.1046 29.5 16 30.3954 16 31.5C16 32.6046 15.1046 33.5 14 33.5C12.8954 33.5 12 32.6046 12 31.5C12 30.3954 12.8954 29.5 14 29.5Z" fill="white"/>
<path d="M35.5 29.75C35.7761 29.75 36 29.9739 36 30.25V32.75C36 33.0261 35.7761 33.25 35.5 33.25H20C19.7239 33.25 19.5 33.0261 19.5 32.75V30.25C19.5 29.9739 19.7239 29.75 20 29.75H35.5Z" fill="white"/>
<path d="M14 22C15.1046 22 16 22.8954 16 24C16 25.1046 15.1046 26 14 26C12.8954 26 12 25.1046 12 24C12 22.8954 12.8954 22 14 22Z" fill="white"/>
<path d="M35.5 22.25C35.7761 22.25 36 22.4739 36 22.75V25.25C36 25.5261 35.7761 25.75 35.5 25.75H20C19.7239 25.75 19.5 25.5261 19.5 25.25V22.75C19.5 22.4739 19.7239 22.25 20 22.25H35.5Z" fill="white"/>
<path d="M14 14.5C15.1046 14.5 16 15.3954 16 16.5C16 17.6046 15.1046 18.5 14 18.5C12.8954 18.5 12 17.6046 12 16.5C12 15.3954 12.8954 14.5 14 14.5Z" fill="white"/>
<path d="M35.5 14.75C35.7761 14.75 36 14.9739 36 15.25V17.75C36 18.0261 35.7761 18.25 35.5 18.25H20C19.7239 18.25 19.5 18.0261 19.5 17.75V15.25C19.5 14.9739 19.7239 14.75 20 14.75H35.5Z" fill="white"/>
</g>
</g>
</svg>
