<svg width="48" height="48" viewBox="0 0 48 48" fill="none" xmlns="http://www.w3.org/2000/svg">
<g id="type=Google Slides">
<path id="Rectangle 2825" d="M2 10C2 5.58172 5.58172 2 10 2H38C42.4183 2 46 5.58172 46 10V38C46 42.4183 42.4183 46 38 46H10C5.58172 46 2 42.4183 2 38V10Z" fill="#FABD05"/>
<path id="Rectangle 2826 (Stroke)" d="M13.5 29.5H34.5V18.5H13.5V29.5ZM38 32L37.9951 32.1025C37.9472 32.573 37.573 32.9472 37.1025 32.9951L37 33H11L10.8975 32.9951C10.427 32.9472 10.0528 32.573 10.0049 32.1025L10 32V16C10 15.4477 10.4477 15 11 15H37C37.5523 15 38 15.4477 38 16V32Z" fill="white"/>
</g>
</svg>
