<svg width="48" height="48" viewBox="0 0 48 48" fill="none" xmlns="http://www.w3.org/2000/svg">
<g id="type=Google Drive" clip-path="url(#clip0_2258_1826)">
<g id="Group 31648">
<path id="Vector" d="M3.62897 39.3136L5.74583 42.97C6.1857 43.7397 6.81801 44.3445 7.56028 44.7844L15.1205 31.6985H6.10352e-05C6.10352e-05 32.5507 0.219995 33.403 0.659862 34.1727L3.62897 39.3136Z" fill="#0066DA"/>
<path id="Vector_2" d="M24.0003 16.302L16.4401 3.21606C15.6978 3.65593 15.0655 4.26074 14.6257 5.0305L0.659862 29.2229C0.228084 29.9761 0.000635921 30.829 6.10352e-05 31.6971H15.1205L24.0003 16.302Z" fill="#00AC47"/>
<path id="Vector_3" d="M40.4398 44.7844C41.1821 44.3445 41.8144 43.7397 42.2543 42.97L43.134 41.4579L47.3402 34.1727C47.7801 33.403 48 32.5507 48 31.6985H32.8785L36.0961 38.0215L40.4398 44.7844Z" fill="#EA4335"/>
<path id="Vector_4" d="M23.9997 16.3016L31.5599 3.2157C30.8177 2.77584 29.9654 2.55591 29.0857 2.55591H18.9137C18.034 2.55591 17.1818 2.80333 16.4395 3.2157L23.9997 16.3016Z" fill="#00832D"/>
<path id="Vector_5" d="M32.8804 31.6985H15.1207L7.56052 44.7844C8.30279 45.2243 9.15504 45.4442 10.0348 45.4442H37.9664C38.8461 45.4442 39.6983 45.1968 40.4406 44.7844L32.8804 31.6985Z" fill="#2684FC"/>
<path id="Vector_6" d="M40.3575 17.1267L33.3746 5.0305C32.9347 4.26074 32.3024 3.65593 31.5602 3.21606L23.9999 16.302L32.8798 31.6971H47.9727C47.9727 30.8449 47.7528 29.9927 47.3129 29.2229L40.3575 17.1267Z" fill="#FFBA00"/>
</g>
</g>
<defs>
<clipPath id="clip0_2258_1826">
<rect width="48" height="48" fill="white"/>
</clipPath>
</defs>
</svg>
