<svg width="48" height="48" viewBox="0 0 48 48" fill="none" xmlns="http://www.w3.org/2000/svg">
<g id="type=Google Sites">
<path id="Rectangle 2825" d="M2 10C2 5.58172 5.58172 2 10 2H38C42.4183 2 46 5.58172 46 10V38C46 42.4183 42.4183 46 38 46H10C5.58172 46 2 42.4183 2 38V10Z" fill="#4659B5"/>
<g id="Union">
<path d="M28.5 22C28.7761 22 29 22.2239 29 22.5V32.5C29 32.7761 28.7761 33 28.5 33H12.5C12.2239 33 12 32.7761 12 32.5V22.5C12 22.2239 12.2239 22 12.5 22H28.5Z" fill="white"/>
<path d="M35.5 22C35.7761 22 36 22.2239 36 22.5V32.5C36 32.7761 35.7761 33 35.5 33H32.5C32.2239 33 32 32.7761 32 32.5V22.5C32 22.2239 32.2239 22 32.5 22H35.5Z" fill="white"/>
<path d="M35.5 15C35.7761 15 36 15.2239 36 15.5V18.5C36 18.7761 35.7761 19 35.5 19H12.5C12.2239 19 12 18.7761 12 18.5V15.5C12 15.2239 12.2239 15 12.5 15H35.5Z" fill="white"/>
</g>
</g>
</svg>
