<svg width="48" height="48" viewBox="0 0 48 48" fill="none" xmlns="http://www.w3.org/2000/svg">
<g id="type=Google Docs">
<path id="Rectangle 2825" d="M2 10C2 5.58172 5.58172 2 10 2H38C42.4183 2 46 5.58172 46 10V38C46 42.4183 42.4183 46 38 46H10C5.58172 46 2 42.4183 2 38V10Z" fill="#4285F4"/>
<g id="Union">
<path d="M26.5 29.75C26.7761 29.75 27 29.9739 27 30.25V32.75C27 33.0261 26.7761 33.25 26.5 33.25H12.5C12.2239 33.25 12 33.0261 12 32.75V30.25C12 29.9739 12.2239 29.75 12.5 29.75H26.5Z" fill="white"/>
<path d="M35.5 22.25C35.7761 22.25 36 22.4739 36 22.75V25.25C36 25.5261 35.7761 25.75 35.5 25.75H12.5C12.2239 25.75 12 25.5261 12 25.25V22.75C12 22.4739 12.2239 22.25 12.5 22.25H35.5Z" fill="white"/>
<path d="M35.5 14.75C35.7761 14.75 36 14.9739 36 15.25V17.75C36 18.0261 35.7761 18.25 35.5 18.25H12.5C12.2239 18.25 12 18.0261 12 17.75V15.25C12 14.9739 12.2239 14.75 12.5 14.75H35.5Z" fill="white"/>
</g>
</g>
</svg>
