<svg width="48" height="48" viewBox="0 0 48 48" fill="none" xmlns="http://www.w3.org/2000/svg">
<g id="type=Hub Services" clip-path="url(#clip0_2924_1183)">
<circle id="Ellipse 178" cx="24" cy="24" r="24" fill="#1BBFCA"/>
<g id="Union">
<path d="M25.9736 32.5C27.8246 32.5001 27.8246 34.5146 25.9736 34.5147C24.9449 34.5147 23.5568 34.515 23.3525 35.9033H27.1289C27.4639 35.9026 29.1111 34.9417 32.793 33.7744C33.1002 33.677 33.4316 33.6967 33.7256 33.8311C34.0194 33.9654 34.2564 34.2054 34.3936 34.5059C34.5307 34.8064 34.5582 35.1478 34.4717 35.4678C34.3852 35.7878 34.1908 36.0656 33.9229 36.249L28.8633 39.4004C27.7217 40.0143 26.3329 40.0137 22.667 39.9942C21.7051 39.989 20.7797 40.0142 18.3516 39.1582C18.1378 39.0829 18.003 38.86 18.0029 38.626V34.335C18.0029 34.0887 18.1728 33.904 18.3818 33.79C20.7798 32.4838 20.4204 32.5 25.9736 32.5Z" fill="#D7F4F6"/>
<path d="M15.9854 33.5C16.2694 33.5 16.4998 33.7483 16.5 34.0547V38.9453C16.4998 39.2517 16.2694 39.5 15.9854 39.5H14.5146C14.2306 39.5 14.0002 39.2517 14 38.9453V34.0547C14.0002 33.7483 14.2306 33.5 14.5146 33.5H15.9854Z" fill="#D7F4F6"/>
</g>
<path id="Subtract" fill-rule="evenodd" clip-rule="evenodd" d="M25.1455 7C25.6009 7.00024 25.9697 7.36971 25.9697 7.8252V9.23438C26.9548 9.45237 27.9408 9.83392 28.7617 10.3789L29.7666 9.37793C30.0885 9.05785 30.6089 9.05761 30.9307 9.37793L32.6064 11.0479C32.9302 11.3702 32.931 11.8943 32.6074 12.2168L31.6074 13.2129C32.1545 14.0847 32.5379 15.0114 32.7568 15.9922H34.1748C34.6304 15.9922 34.9999 16.3618 35 16.8174V19.1455C35 19.6011 34.6304 19.9707 34.1748 19.9707H32.7568C32.5379 20.9517 32.1547 21.9335 31.6074 22.751L32.6426 23.7471C32.9754 24.0678 32.9799 24.5996 32.6523 24.9258L30.9854 26.585C30.6635 26.9054 30.1432 26.9054 29.8213 26.585L28.8154 25.584C27.94 26.1288 27.0102 26.5115 26.0254 26.7295V28.1387C26.0252 28.5942 25.6557 28.9629 25.2002 28.9629H22.8545C22.3992 28.9626 22.0304 28.594 22.0303 28.1387V26.7295C21.0452 26.5115 20.0592 26.129 19.2383 25.584L18.2334 26.585C17.9115 26.9053 17.3912 26.9054 17.0693 26.585L15.3936 24.916C15.0697 24.5936 15.0688 24.0686 15.3926 23.7461L16.3926 22.751C15.8453 21.879 15.463 20.9517 15.2441 19.9707H13.8252C13.3696 19.9707 13 19.6011 13 19.1455V16.8174C13.0001 16.3618 13.3696 15.9922 13.8252 15.9922H15.2441C15.463 15.0114 15.8455 14.0302 16.3926 13.2129L15.3926 12.2168C15.069 11.8943 15.0698 11.3702 15.3936 11.0479L17.0596 9.38867C17.3854 9.06435 17.9132 9.06865 18.2334 9.39844L19.1846 10.3789C20.0601 9.83403 20.9906 9.45234 21.9756 9.23438V7.8252C21.9756 7.36956 22.3451 7 22.8008 7H25.1455ZM24 11.4004C20.3549 11.4004 17.4004 14.3549 17.4004 18C17.4004 21.6451 20.3549 24.5996 24 24.5996C27.6451 24.5996 30.5996 21.6451 30.5996 18C30.5996 14.3549 27.6451 11.4004 24 11.4004Z" fill="white"/>
<path id="Subtract_2" fill-rule="evenodd" clip-rule="evenodd" d="M24 13.5996C26.43 13.5996 28.4004 15.57 28.4004 18C28.4004 20.43 26.43 22.4004 24 22.4004C21.57 22.4004 19.5996 20.43 19.5996 18C19.5996 15.5699 21.5699 13.5996 24 13.5996ZM24 15.7998C22.785 15.7998 21.7998 16.785 21.7998 18C21.7998 19.215 22.785 20.2002 24 20.2002C25.215 20.2002 26.2002 19.215 26.2002 18C26.2002 16.785 25.215 15.7998 24 15.7998Z" fill="white"/>
</g>
<defs>
<clipPath id="clip0_2924_1183">
<rect width="48" height="48" fill="white"/>
</clipPath>
</defs>
</svg>
