<svg width="48" height="48" viewBox="0 0 48 48" fill="none" xmlns="http://www.w3.org/2000/svg">
<g id="type=HubTV" clip-path="url(#clip0_2912_1145)">
<g id="Group 31671">
<g id="Group 31669">
<path id="Vector 2585" d="M8.30029 46.2689V38.8471C8.30029 38.1805 8.84066 37.6401 9.50724 37.6401H15.4447C16.4567 37.6401 17.0194 38.8108 16.3871 39.6011L10.4497 47.0228C9.73699 47.9137 8.30029 47.4098 8.30029 46.2689Z" fill="#4D93FC"/>
<path id="Vector 2586" d="M39.6898 46.2688V38.847C39.6898 38.1804 39.1494 37.64 38.4828 37.64H32.5454C31.5334 37.64 30.9707 38.8107 31.6029 39.6009L37.5404 47.0227C38.2531 47.9136 39.6898 47.4097 39.6898 46.2688Z" fill="#4D93FC"/>
</g>
<path id="Vector" d="M0 10.9565C-4.31194e-06 5.19356 4.6718 0.521736 10.4348 0.521732C19.4783 0.521724 28.5217 0.521732 37.5652 0.521736C43.3282 0.521739 48 5.19355 48 10.9565C48 17.2174 48 23.4783 48 29.7391C48 35.5021 43.3282 40.1739 37.5652 40.1739H10.4348C4.67186 40.1739 7.95324e-05 35.5022 4.37124e-05 29.7393C4.79692e-06 23.4784 4.68451e-06 17.2175 0 10.9565Z" fill="#0968F6"/>
<g id="Frame 36163">
<g clip-path="url(#clip1_2912_1145)">
<rect id="Rectangle 2804" x="5.21741" y="7.82617" width="31.3043" height="25.0435" fill="#D4E5FE"/>
<ellipse id="Ellipse 184" cx="10.8463" cy="16.6459" rx="10.8463" ry="16.6459" transform="matrix(-0.718988 0.695022 0.718988 0.695022 22.9011 -4.69556)" fill="white"/>
</g>
</g>
<path id="Vector 2583" d="M17.7391 25.2455V15.4501C17.7391 14.3544 18.9113 13.7079 19.7726 14.3287L26.5678 19.2264C27.318 19.7671 27.318 20.9285 26.5678 21.4692L19.7726 26.3669C18.9113 26.9876 17.7391 26.3412 17.7391 25.2455Z" fill="#0968F6"/>
<g id="Vector_2">
<path d="M44.2094 18.8357C44.2094 19.8821 43.3611 20.7304 42.3147 20.7304C41.2682 20.7304 40.4199 19.8821 40.4199 18.8357C40.4199 17.7892 41.2682 16.9409 42.3147 16.9409C43.3611 16.9409 44.2094 17.7892 44.2094 18.8357Z" fill="white"/>
<path d="M44.2094 25.1514C44.2094 26.1979 43.3611 27.0462 42.3147 27.0462C41.2682 27.0462 40.4199 26.1979 40.4199 25.1514C40.4199 24.105 41.2682 23.2567 42.3147 23.2567C43.3611 23.2567 44.2094 24.105 44.2094 25.1514Z" fill="white"/>
</g>
</g>
</g>
<defs>
<clipPath id="clip0_2912_1145">
<rect width="48" height="48" fill="white"/>
</clipPath>
<clipPath id="clip1_2912_1145">
<rect x="5.21741" y="7.82617" width="31.3043" height="25.0435" rx="12.5217" fill="white"/>
</clipPath>
</defs>
</svg>
