<svg width="48" height="48" viewBox="0 0 48 48" fill="none" xmlns="http://www.w3.org/2000/svg">
<g id="type=Idea Portal" clip-path="url(#clip0_2913_1744)">
<circle id="Ellipse 185" cx="24" cy="24" r="24" fill="#0968F6"/>
<g id="Vector">
<path d="M39 21C39.5523 21 40 21.4477 40 22C40 22.5523 39.5523 23 39 23H37C36.4477 23 36 22.5523 36 22C36 21.4477 36.4477 21 37 21H39Z" fill="white"/>
<path d="M11 21C11.5523 21 12 21.4477 12 22C12 22.5523 11.5523 23 11 23H9C8.44772 23 8 22.5523 8 22C8 21.4477 8.44772 21 9 21H11Z" fill="white"/>
<path d="M25 9C25 9.55228 24.5523 10 24 10C23.4477 10 23 9.55228 23 9V7C23 6.44772 23.4477 6 24 6C24.5523 6 25 6.44772 25 7V9Z" fill="white"/>
<path d="M36.5 13.634C36.9783 13.3578 37.5899 13.5217 37.866 14C38.1422 14.4783 37.9783 15.0899 37.5 15.366L35.768 16.366C35.2897 16.6422 34.6781 16.4783 34.4019 16C34.1258 15.5217 34.2897 14.9101 34.768 14.634L36.5 13.634Z" fill="white"/>
<path d="M30.634 8.5C30.9101 8.02171 31.5217 7.85783 32 8.13398C32.4783 8.41012 32.6422 9.02171 32.366 9.5L31.366 11.2321C31.0899 11.7103 30.4783 11.8742 30 11.5981C29.5217 11.3219 29.3579 10.7103 29.634 10.2321L30.634 8.5Z" fill="white"/>
<path d="M11.5 13.634C11.0217 13.3578 10.4101 13.5217 10.134 14C9.85784 14.4783 10.0217 15.0899 10.5 15.366L12.2321 16.366C12.7103 16.6422 13.3219 16.4783 13.5981 16C13.8742 15.5217 13.7103 14.9101 13.2321 14.634L11.5 13.634Z" fill="white"/>
<path d="M17.366 8.49999C17.0899 8.0217 16.4783 7.85783 16 8.13397C15.5217 8.41011 15.3578 9.0217 15.6339 9.49999L16.6339 11.232C16.9101 11.7103 17.5217 11.8742 18 11.5981C18.4783 11.3219 18.6421 10.7103 18.366 10.232L17.366 8.49999Z" fill="white"/>
</g>
<g id="Union">
<path d="M27.6533 37C27.6533 37.3802 27.453 37.8112 27.0967 38.0801C26.7403 38.349 26.256 38.5 25.752 38.5H22.248C21.744 38.5 21.2597 38.349 20.9033 38.0801C20.547 37.8112 20.3467 37.3802 20.3467 37H27.6533Z" fill="white"/>
<path d="M27.5928 34.25C27.7706 34.2501 27.9091 34.4041 27.8906 34.5811L27.7969 35.4814C27.7808 35.634 27.6524 35.7499 27.499 35.75H24.0273C24.0181 35.75 24.009 35.7479 24 35.7471C23.991 35.7479 23.9819 35.75 23.9727 35.75H20.501C20.3476 35.7499 20.2192 35.634 20.2031 35.4814L20.1094 34.5811C20.0909 34.4041 20.2294 34.2502 20.4072 34.25H27.5928Z" fill="white"/>
<path d="M24 14C28.8254 14 32.7373 17.9119 32.7373 22.7373C32.7372 25.6851 30.5736 28.2348 29.501 29.499C29.3588 29.6666 29.2359 29.8123 29.1396 29.9326C28.3174 30.9605 28.1113 32.4863 28.1113 32.4863C28.1112 32.77 27.8814 33 27.5977 33H20.4023C20.1186 33 19.8888 32.77 19.8887 32.4863C19.8887 32.4863 19.6826 30.9605 18.8604 29.9326C18.7641 29.8123 18.6412 29.6666 18.499 29.499C17.4264 28.2348 15.2628 25.6851 15.2627 22.7373C15.2627 17.912 19.1747 14 24 14Z" fill="white"/>
</g>
</g>
<defs>
<clipPath id="clip0_2913_1744">
<rect width="48" height="48" fill="white"/>
</clipPath>
</defs>
</svg>
