<svg width="48" height="48" viewBox="0 0 48 48" fill="none" xmlns="http://www.w3.org/2000/svg">
<g id="type=Kiteworks" clip-path="url(#clip0_2663_1872)">
<g id="Group 1518">
<path id="Vector" d="M34.1888 25.6882C34.1888 32.1116 30.0506 36.3363 24.0486 36.3363C17.9601 36.3363 13.8219 32.1116 13.8219 25.6882C13.8219 19.3513 17.9601 15.1212 24.0486 15.1212C24.5745 15.1256 25.0996 15.1635 25.6206 15.2347V3.50614C25.0804 3.50614 24.578 3.45752 24.0486 3.45752C10.5427 3.45752 0.721191 12.42 0.721191 25.7747C0.721191 39.1293 10.5265 47.9999 24.0486 47.9999C37.4842 47.9999 47.2787 39.1239 47.2787 25.7747C47.2797 24.295 47.1513 22.8182 46.8951 21.3609H33.4487C33.9524 22.7474 34.2031 24.2131 34.1888 25.6882Z" fill="black"/>
<path id="Vector_2" d="M46.8301 0H30.85V15.9802H46.8301V0Z" fill="#425CC7"/>
</g>
</g>
<defs>
<clipPath id="clip0_2663_1872">
<rect width="48" height="48" fill="white"/>
</clipPath>
</defs>
</svg>
