<svg width="48" height="48" viewBox="0 0 48 48" fill="none" xmlns="http://www.w3.org/2000/svg">
<g id="type=Linkedin Learning">
<g id="Group">
<path id="Vector" fill-rule="evenodd" clip-rule="evenodd" d="M6.88889 46H41.1111C43.8112 46 46 43.8112 46 41.1111V6.88889C46 4.18883 43.8112 2 41.1111 2H6.88889C4.18883 2 2 4.18883 2 6.88889V41.1111C2 43.8112 4.18883 46 6.88889 46Z" fill="#0082BE"/>
<path id="Vector_2" fill-rule="evenodd" clip-rule="evenodd" d="M39.8889 39.8886H33.3595V28.7677C33.3595 25.7186 32.201 24.0147 29.7876 24.0147C27.1622 24.0147 25.7906 25.7879 25.7906 28.7677V39.8886H19.4981V18.7034H25.7906V21.5571C25.7906 21.5571 27.6826 18.0562 32.1782 18.0562C36.6718 18.0562 39.8889 20.8002 39.8889 26.4755V39.8886ZM11.9912 15.9294C9.8479 15.9294 8.11108 14.179 8.11108 12.0201C8.11108 9.86128 9.8479 8.11084 11.9912 8.11084C14.1346 8.11084 15.8704 9.86128 15.8704 12.0201C15.8704 14.179 14.1346 15.9294 11.9912 15.9294ZM8.74209 39.8886H15.3035V18.7034H8.74209V39.8886Z" fill="white"/>
</g>
</g>
</svg>
