<svg width="48" height="48" viewBox="0 0 48 48" fill="none" xmlns="http://www.w3.org/2000/svg">
<g id="type=LoginHelp" clip-path="url(#clip0_2923_1445)">
<circle id="Ellipse 178" cx="24" cy="24" r="24" fill="#0049B8"/>
<g id="Group 31619">
<path id="Vector" d="M16.5172 35.2759C16.5172 34.3235 17.2889 33.5517 18.2413 33.5517C18.3489 33.5517 18.453 33.5649 18.5544 33.5835L19.3723 32.7655C19.3158 32.5766 19.2758 32.38 19.2758 32.1724C19.2758 31.0297 20.202 30.1035 21.3447 30.1035C21.5523 30.1035 21.7489 30.1435 21.9378 30.2L24.793 27.3448L20.6551 23.2069L11.4041 32.458C11.1455 32.7166 11 33.0676 11 33.4331V34.3593C11 34.7249 11.1455 35.0759 11.4041 35.3345L12.6648 36.5952C12.9234 36.8545 13.2745 37 13.64 37H14.5662C14.9317 37 15.2827 36.8545 15.5413 36.5959L16.5482 35.589C16.5303 35.4876 16.5172 35.3835 16.5172 35.2759Z" fill="#D4E5FE"/>
<path id="Subtract" fill-rule="evenodd" clip-rule="evenodd" d="M27.6894 11C32.8314 11 37.0001 15.1682 37.0001 20.3103C37.0001 25.4524 32.8314 29.6206 27.6894 29.6206C22.5474 29.6204 18.3792 25.4523 18.3792 20.3103C18.3792 15.1683 22.5475 11.0001 27.6894 11ZM30.1049 15.6557C28.8675 15.6557 27.8642 16.6591 27.8642 17.8964C27.8642 19.1339 28.8675 20.1372 30.1049 20.1372C31.3423 20.1371 32.3456 19.1338 32.3456 17.8964C32.3456 16.6591 31.3422 15.6558 30.1049 15.6557Z" fill="white"/>
</g>
</g>
<defs>
<clipPath id="clip0_2923_1445">
<rect width="48" height="48" fill="white"/>
</clipPath>
</defs>
</svg>
