<svg width="48" height="48" viewBox="0 0 48 48" fill="none" xmlns="http://www.w3.org/2000/svg">
<g id="type=Lucid Charts">
<g id="Group 31608">
<path id="Vector" d="M3.2373 11.9993V36.0008L23.9999 48V41.9988L8.42717 32.9986V14.9983L3.2373 11.9993Z" fill="#F96B13"/>
<path id="Vector_2" d="M39.5696 14.9983V38.9998L44.7626 36.0008V11.9993L39.5696 14.9983Z" fill="#CC4E00"/>
<path id="Vector_3" d="M18.8101 2.99901L39.5695 14.9982L44.7625 11.9992L23.9999 0L18.8101 2.99901Z" fill="#FFCA73"/>
<path id="Vector_4" d="M3.2373 11.9993L8.42717 14.9983L13.617 11.9993L8.42717 9.00024L3.2373 11.9993Z" fill="#FFCA73"/>
<path id="Vector_5" d="M8.427 14.9983V32.9986L13.6169 29.9996V11.9993L8.427 14.9983Z" fill="#CC4E00"/>
<path id="Vector_6" d="M24 41.9988V47.9999L29.1899 45.0009V38.9998L24 41.9988Z" fill="#CC4E00"/>
<path id="Vector_7" d="M8.427 32.9986L23.9998 41.9988L29.1896 38.9998L13.6169 29.9996L8.427 32.9986Z" fill="#FFCA73"/>
<path id="Vector_8" d="M18.8101 2.99902V9.00023L34.3797 18.0004L34.3828 36.0008L39.5695 38.9998V14.9983L18.8101 2.99902Z" fill="#F96B13"/>
</g>
</g>
</svg>
