<svg width="48" height="48" viewBox="0 0 48 48" fill="none" xmlns="http://www.w3.org/2000/svg">
<g id="type=MegaAI Internal" clip-path="url(#clip0_2985_206)">
<circle id="Ellipse 178" cx="24" cy="24" r="24" fill="#00996C"/>
<g id="vector-shape">
<path fill-rule="evenodd" clip-rule="evenodd" d="M17.9378 11.7726C18.5696 11.6463 19.1843 12.056 19.3106 12.6878L19.7793 15.031C20.1098 14.9832 20.4478 14.9584 20.7917 14.9584H27.2083C27.5521 14.9584 27.8901 14.9832 28.2206 15.031L28.6893 12.6878C28.8156 12.056 29.4303 11.6463 30.0621 11.7726C30.6939 11.899 31.1036 12.5136 30.9773 13.1454L30.4553 15.7554C32.6864 16.9256 34.2083 19.2643 34.2083 21.9584V28.375C34.2083 32.241 31.0743 35.375 27.2083 35.375H20.7917C16.9257 35.375 13.7917 32.241 13.7917 28.375V21.9584C13.7917 19.2643 15.3136 16.9257 17.5446 15.7554L17.0226 13.1454C16.8962 12.5136 17.306 11.899 17.9378 11.7726ZM19.2717 25.6269C19.6777 25.4239 20.1556 25.4239 20.5616 25.6269C21.1379 25.915 21.8386 25.6814 22.1268 25.1051C22.415 24.5288 22.1814 23.828 21.6051 23.5399C20.5422 23.0084 19.2911 23.0084 18.2282 23.5399C17.6519 23.828 17.4183 24.5288 17.7065 25.1051C17.9946 25.6814 18.6954 25.915 19.2717 25.6269ZM28.7282 25.6269C28.3222 25.4239 27.8444 25.4239 27.4384 25.6269C26.8621 25.915 26.1613 25.6814 25.8731 25.1051C25.585 24.5288 25.8186 23.828 26.3949 23.5399C27.4578 23.0084 28.7088 23.0084 29.7717 23.5399C30.348 23.828 30.5816 24.5288 30.2935 25.1051C30.0053 25.6814 29.3045 25.915 28.7282 25.6269Z" fill="white"/>
<path d="M12.3333 21.0834H12.6713C12.6407 21.3708 12.625 21.6628 12.625 21.9584V28.375C12.625 28.6706 12.6407 28.9626 12.6713 29.25H12.3333C11.0447 29.25 10 28.2054 10 26.9167V23.4167C10 22.128 11.0447 21.0834 12.3333 21.0834Z" fill="white"/>
<path d="M35.6666 29.25H35.3286C35.3593 28.9626 35.375 28.6706 35.375 28.375V21.9584C35.375 21.6628 35.3593 21.3708 35.3286 21.0834H35.6666C36.9553 21.0834 38 22.128 38 23.4167V26.9167C38 28.2054 36.9553 29.25 35.6666 29.25Z" fill="white"/>
</g>
</g>
<defs>
<clipPath id="clip0_2985_206">
<rect width="48" height="48" fill="white"/>
</clipPath>
</defs>
</svg>
