<svg width="48" height="48" viewBox="0 0 48 48" fill="none" xmlns="http://www.w3.org/2000/svg">
<g id="type=Monday">
<g id="Group 31672">
<path id="Vector" d="M5.97102 38.3187C3.81078 38.3234 1.81511 37.1653 0.747318 35.2874C-0.305085 33.4211 -0.241976 31.1264 0.911413 29.3208L11.6688 12.4281C12.7897 10.5798 14.8184 9.47749 16.9791 9.54279C19.1382 9.59453 21.1021 10.8051 22.1184 12.7107C23.1212 14.6069 22.9959 16.8883 21.7948 18.6683L11.0443 35.5609C9.93629 37.2875 8.02251 38.3278 5.97102 38.3187Z" fill="#F62B54"/>
<path id="Vector_2" d="M24.4226 38.3187C22.2529 38.3187 20.2564 37.1586 19.208 35.2943C18.1579 33.433 18.2211 31.1441 19.3721 29.3436L30.109 12.4896C31.2137 10.6148 33.2484 9.48661 35.4238 9.54277C37.6118 9.59064 39.5946 10.8145 40.5974 12.729C41.5933 14.6434 41.4475 16.9384 40.2099 18.7139L29.4754 35.5678C28.3709 37.2869 26.4659 38.324 24.4226 38.3187Z" fill="#FFCC00"/>
<path id="Vector_3" d="M42.4616 38.4599C45.5203 38.4599 47.9999 36.0324 47.9999 33.0379C47.9999 30.0435 45.5203 27.616 42.4616 27.616C39.403 27.616 36.9234 30.0435 36.9234 33.0379C36.9234 36.0324 39.403 38.4599 42.4616 38.4599Z" fill="#00CA72"/>
</g>
</g>
</svg>
