<svg width="48" height="48" viewBox="0 0 48 48" fill="none" xmlns="http://www.w3.org/2000/svg">
<g id="type=Notion">
<g id="Group 31673">
<path id="Vector" d="M5.59076 3.89821L29.9368 2.09996C32.9274 1.84345 33.6957 2.01636 35.5762 3.38342L43.3477 8.85823C44.6294 9.79981 45.0562 10.0563 45.0562 11.0815V41.1078C45.0562 42.9897 44.3729 44.1029 41.9807 44.2727L13.7086 45.9852C11.9134 46.0701 11.0585 45.8136 10.1183 44.6155L4.3953 37.1734C3.3688 35.8038 2.94333 34.7786 2.94333 33.58V6.89015C2.94333 5.3515 3.62664 4.06848 5.59076 3.89821Z" fill="white"/>
<path id="Vector_2" fill-rule="evenodd" clip-rule="evenodd" d="M29.9368 2.1004L5.59076 3.89865C3.62664 4.06849 2.94333 5.35194 2.94333 6.89015V33.58C2.94333 34.7781 3.3688 35.8033 4.3953 37.1734L10.1183 44.615C11.0585 45.8131 11.9134 46.0701 13.7086 45.9847L41.9811 44.2731C44.3716 44.1029 45.0567 42.9897 45.0567 41.1083V11.0819C45.0567 10.1096 44.6726 9.82929 43.5418 8.99947L35.5762 3.38342C33.6961 2.01636 32.9274 1.84345 29.9368 2.09996V2.1004ZM14.3479 10.5905C12.0393 10.7458 11.5157 10.781 10.2045 9.7149L6.87113 7.06351C6.53234 6.72031 6.70262 6.2922 7.5562 6.20684L30.9607 4.4966C32.9261 4.325 33.9495 5.01007 34.7182 5.60846L38.7322 8.5168C38.9038 8.60348 39.3306 9.11519 38.8172 9.11519L14.6471 10.5702L14.3479 10.5905ZM11.6565 40.8518V15.3617C11.6565 14.2486 11.9984 13.7351 13.0218 13.6489L40.7826 12.0235C41.7242 11.9386 42.1497 12.537 42.1497 13.6484V38.9686C42.1497 40.0818 41.9781 41.0234 40.4412 41.1083L13.8758 42.6483C12.3389 42.7332 11.6569 42.2215 11.6569 40.8518H11.6565ZM37.88 16.7284C38.0502 17.4983 37.88 18.2683 37.11 18.3563L35.8296 18.6102V37.43C34.7178 38.0284 33.6943 38.3702 32.839 38.3702C31.4719 38.3702 31.1305 37.9421 30.1066 36.66L21.7336 23.4866V36.2319L24.3824 36.8316C24.3824 36.8316 24.3824 38.3715 22.2453 38.3715L16.3538 38.7134C16.1822 38.3702 16.3538 37.5153 16.9509 37.345L18.4895 36.9183V20.0666L16.3543 19.8937C16.1827 19.1237 16.6095 18.0118 17.8062 17.9256L24.1276 17.5001L32.8394 30.8437V19.0388L30.6188 18.7836C30.4472 17.8407 31.1305 17.1556 31.9841 17.072L37.88 16.7284Z" fill="black"/>
</g>
</g>
</svg>
