<svg width="48" height="48" viewBox="0 0 48 48" fill="none" xmlns="http://www.w3.org/2000/svg">
<g id="type=Office365">
<g id="Desktop - Full Bleed">
<g id="Group" style="mix-blend-mode:multiply" opacity="0.2">
<path id="Vector" d="M14.4223 37.4858C13.8633 37.4918 13.3218 37.681 12.8806 38.0242C12.4394 38.3675 12.123 38.846 11.9798 39.3863C11.8366 39.9267 11.8746 40.499 12.0878 41.0157C12.3011 41.5325 12.678 41.965 13.1606 42.247L22.175 47.3572C22.9175 47.7793 23.7571 48.0008 24.6111 48C25.0706 47.9997 25.5277 47.9329 25.968 47.8016L39.5293 43.9372C40.5409 43.6465 41.4306 43.0352 42.0646 42.1951C42.6986 41.355 43.0426 40.3317 43.0446 39.2792V37.4858H14.4223Z" fill="white"/>
</g>
<g id="Group_2" style="mix-blend-mode:multiply" opacity="0.12">
<path id="Vector_2" d="M14.4223 37.4858C13.8633 37.4918 13.3218 37.681 12.8806 38.0242C12.4394 38.3675 12.123 38.846 11.9798 39.3863C11.8366 39.9267 11.8746 40.499 12.0878 41.0157C12.3011 41.5325 12.678 41.965 13.1606 42.247L22.175 47.3572C22.9175 47.7793 23.7571 48.0008 24.6111 48C25.0706 47.9997 25.5277 47.9329 25.968 47.8016L39.5293 43.9372C40.5409 43.6465 41.4306 43.0352 42.0646 42.1951C42.6986 41.355 43.0426 40.3317 43.0446 39.2792V37.4858H14.4223Z" fill="white"/>
</g>
<path id="Vector_3" d="M25.9124 0.19043L29.5546 8.52241V37.486L25.9679 47.8017L39.5292 43.9373C40.5407 43.6466 41.4305 43.0353 42.0645 42.1952C42.6985 41.3551 43.0424 40.3318 43.0445 39.2793V8.71285C43.0449 7.65768 42.7012 6.63115 42.0653 5.78908C41.4295 4.947 40.5363 4.33535 39.5213 4.04695L25.9124 0.19043Z" fill="url(#paint0_linear_2258_1829)"/>
<path id="Vector_4" d="M8.71687 37.1765L12.6845 35.034C13.2286 34.735 13.6822 34.295 13.9978 33.7603C14.3133 33.2255 14.4791 32.6157 14.4778 31.9948V16.4021C14.4786 15.6919 14.6974 14.999 15.1047 14.4171C15.512 13.8352 16.0881 13.3925 16.7552 13.1487L29.5547 8.52246V5.00716C29.5533 3.91763 29.197 2.85821 28.5398 1.98917C27.8827 1.12012 26.9604 0.488725 25.9125 0.190483C25.4662 0.0623333 25.004 -0.00178871 24.5397 3.79515e-05C23.6664 0.00203545 22.8083 0.228857 22.048 0.658661L7.39962 9.01444C6.65733 9.43741 6.04021 10.0493 5.61095 10.788C5.18168 11.5266 4.95557 12.3658 4.95557 13.2201V34.9309C4.95446 35.3728 5.06832 35.8073 5.28598 36.1919C5.50363 36.5765 5.81759 36.8978 6.197 37.1243C6.57641 37.3509 7.00823 37.4748 7.45003 37.4839C7.89182 37.4931 8.3284 37.3872 8.71687 37.1765Z" fill="url(#paint1_linear_2258_1829)"/>
<path id="Vector_5" d="M29.5548 37.4858H14.4223C13.8633 37.4918 13.3218 37.681 12.8806 38.0242C12.4394 38.3675 12.123 38.846 11.9798 39.3863C11.8366 39.9267 11.8746 40.499 12.0878 41.0157C12.3011 41.5325 12.678 41.965 13.1606 42.247L22.175 47.3572C22.9175 47.7793 23.7571 48.0008 24.6111 48C25.0706 47.9997 25.5277 47.9329 25.968 47.8016C27.0032 47.5075 27.9138 46.8832 28.5613 46.0237C29.2088 45.1642 29.5577 44.1166 29.5548 43.0405V37.4858Z" fill="url(#paint2_linear_2258_1829)"/>
<path id="Vector_6" d="M8.71687 37.1765L12.6845 35.034C13.2286 34.735 13.6822 34.295 13.9978 33.7603C14.3133 33.2255 14.4791 32.6157 14.4778 31.9948V16.4021C14.4786 15.6919 14.6974 14.999 15.1047 14.4171C15.512 13.8352 16.0881 13.3925 16.7552 13.1487L29.5547 8.52246V5.00716C29.5533 3.91763 29.197 2.85821 28.5398 1.98917C27.8827 1.12012 26.9604 0.488725 25.9125 0.190483C25.4662 0.0623333 25.004 -0.00178871 24.5397 3.79515e-05C23.6664 0.00203545 22.8083 0.228857 22.048 0.658661L7.39962 9.01444C6.65733 9.43741 6.04021 10.0493 5.61095 10.788C5.18168 11.5266 4.95557 12.3658 4.95557 13.2201V34.9309C4.95446 35.3728 5.06832 35.8073 5.28598 36.1919C5.50363 36.5765 5.81759 36.8978 6.197 37.1243C6.57641 37.3509 7.00823 37.4748 7.45003 37.4839C7.89182 37.4931 8.3284 37.3872 8.71687 37.1765Z" fill="url(#paint3_linear_2258_1829)"/>
<path id="Vector_7" d="M29.5548 37.4858H14.4223C13.8633 37.4918 13.3218 37.681 12.8806 38.0242C12.4394 38.3675 12.123 38.846 11.9798 39.3863C11.8366 39.9267 11.8746 40.499 12.0878 41.0157C12.3011 41.5325 12.678 41.965 13.1606 42.247L22.175 47.3572C22.9175 47.7793 23.7571 48.0008 24.6111 48C25.0706 47.9997 25.5277 47.9329 25.968 47.8016C27.0032 47.5075 27.9138 46.8832 28.5613 46.0237C29.2088 45.1642 29.5577 44.1166 29.5548 43.0405V37.4858Z" fill="url(#paint4_linear_2258_1829)"/>
</g>
</g>
<defs>
<linearGradient id="paint0_linear_2258_1829" x1="34.4745" y1="-2.52341" x2="34.4745" y2="44.4689" gradientUnits="userSpaceOnUse">
<stop stop-color="#FFB900"/>
<stop offset="0.17" stop-color="#EF8400"/>
<stop offset="0.31" stop-color="#E25C01"/>
<stop offset="0.43" stop-color="#DB4401"/>
<stop offset="0.5" stop-color="#D83B01"/>
</linearGradient>
<linearGradient id="paint1_linear_2258_1829" x1="25.9998" y1="-0.8649" x2="1.11493" y2="34.669" gradientUnits="userSpaceOnUse">
<stop stop-color="#800600"/>
<stop offset="0.6" stop-color="#C72127"/>
<stop offset="0.73" stop-color="#C13959"/>
<stop offset="0.85" stop-color="#BC4B81"/>
<stop offset="0.94" stop-color="#B95799"/>
<stop offset="1" stop-color="#B85BA2"/>
</linearGradient>
<linearGradient id="paint2_linear_2258_1829" x1="13.2876" y1="42.7469" x2="45.7743" y2="42.7469" gradientUnits="userSpaceOnUse">
<stop stop-color="#F32B44"/>
<stop offset="0.6" stop-color="#A4070A"/>
</linearGradient>
<linearGradient id="paint3_linear_2258_1829" x1="26.5076" y1="-1.58701" x2="21.2386" y2="5.93558" gradientUnits="userSpaceOnUse">
<stop stop-opacity="0.4"/>
<stop offset="1" stop-opacity="0"/>
</linearGradient>
<linearGradient id="paint4_linear_2258_1829" x1="35.3633" y1="43.4769" x2="20.8181" y2="42.2073" gradientUnits="userSpaceOnUse">
<stop stop-opacity="0.4"/>
<stop offset="1" stop-opacity="0"/>
</linearGradient>
</defs>
</svg>
