<svg width="48" height="48" viewBox="0 0 48 48" fill="none" xmlns="http://www.w3.org/2000/svg">
<g id="type=P2P Workbench" clip-path="url(#clip0_2924_1477)">
<circle id="Ellipse 178" cx="24" cy="24" r="24" fill="#288034"/>
<g id="Union">
<path d="M25.9736 32.5C27.8246 32.5001 27.8246 34.5146 25.9736 34.5147C24.9449 34.5147 23.5568 34.515 23.3525 35.9033H27.1289C27.4639 35.9026 29.1111 34.9417 32.793 33.7744C33.1002 33.677 33.4316 33.6967 33.7256 33.8311C34.0194 33.9654 34.2564 34.2054 34.3936 34.5059C34.5307 34.8064 34.5582 35.1478 34.4717 35.4678C34.3852 35.7878 34.1908 36.0656 33.9229 36.249L28.8633 39.4004C27.7217 40.0143 26.3329 40.0137 22.667 39.9942C21.7051 39.989 20.7797 40.0142 18.3516 39.1582C18.1378 39.0829 18.003 38.86 18.0029 38.626V34.335C18.0029 34.0887 18.1728 33.904 18.3818 33.79C20.7798 32.4838 20.4204 32.5 25.9736 32.5Z" fill="#E0FAE0"/>
<path d="M15.9854 33.5C16.2694 33.5 16.4998 33.7483 16.5 34.0547V38.9453C16.4998 39.2517 16.2694 39.5 15.9854 39.5H14.5146C14.2306 39.5 14.0002 39.2517 14 38.9453V34.0547C14.0002 33.7483 14.2306 33.5 14.5146 33.5H15.9854Z" fill="#E0FAE0"/>
</g>
<path id="Subtract" fill-rule="evenodd" clip-rule="evenodd" d="M24 8C29.5228 8 34 12.4772 34 18C34 23.5228 29.5228 28 24 28C18.4772 28 14 23.5228 14 18C14 12.4772 18.4772 8 24 8ZM24 10C23.4479 10.0002 23 10.4479 23 11V12.1104C22.166 12.2314 21.3506 12.5336 20.7031 13.0342C19.9686 13.6022 19.4365 14.4466 19.4365 15.5127C19.4366 16.1782 19.5963 16.7714 19.9307 17.2715C20.2613 17.7659 20.7141 18.0963 21.1826 18.3232C22.0403 18.7386 23.1239 18.88 24.0039 18.9941L24.0898 19.0049C25.0864 19.1346 25.851 19.2445 26.3838 19.502C26.6243 19.6182 26.7621 19.7409 26.8447 19.8643C26.9236 19.982 27 20.1717 27 20.5088C27 20.9161 26.8169 21.2318 26.4082 21.4961C25.9664 21.7817 25.293 21.9719 24.501 21.999C23.7182 22.0258 22.9061 21.8899 22.2334 21.6123C21.5524 21.3313 21.1016 20.9443 20.8887 20.5312C20.6354 20.0407 20.0327 19.8486 19.542 20.1016C19.0512 20.3547 18.8583 20.9574 19.1113 21.4482C19.6117 22.4187 20.518 23.0678 21.4707 23.4609C21.9546 23.6606 22.4734 23.8045 23.002 23.8936C23.0007 23.9137 23 23.9346 23 23.9551V25C23 25.5521 23.4479 25.9998 24 26C24.5523 26 25 25.5523 25 25V23.9707C25.8893 23.8883 26.775 23.6406 27.4941 23.1758C28.3622 22.6145 29 21.7168 29 20.5088C29 19.8437 28.8406 19.2506 28.5059 18.751C28.175 18.2573 27.7222 17.9275 27.2539 17.7012C26.3975 17.2874 25.3147 17.1472 24.4355 17.0332L24.3477 17.0215C23.3514 16.8919 22.5872 16.7812 22.0547 16.5234C21.8143 16.407 21.6758 16.2842 21.5928 16.1602C21.5136 16.0417 21.4366 15.8508 21.4365 15.5127C21.4365 15.1763 21.5874 14.8786 21.9268 14.6162C22.2837 14.3402 22.8255 14.1315 23.4648 14.0684C24.7821 13.9383 26.0695 14.4395 26.6172 15.4697C26.8765 15.9573 27.4821 16.142 27.9697 15.8828C28.4574 15.6236 28.643 15.0179 28.3838 14.5303C27.6495 13.1491 26.3394 12.4163 25 12.1582V11C25 10.4477 24.5523 10 24 10Z" fill="white"/>
</g>
<defs>
<clipPath id="clip0_2924_1477">
<rect width="48" height="48" fill="white"/>
</clipPath>
</defs>
</svg>
