<svg width="48" height="48" viewBox="0 0 48 48" fill="none" xmlns="http://www.w3.org/2000/svg">
<g id="type=SecureAccess" clip-path="url(#clip0_2923_1432)">
<circle id="Ellipse 178" cx="24" cy="24" r="24" fill="#0049B8"/>
<g id="Group 31607">
<path id="Rectangle 1251" d="M14 23.1906C14 21.0867 15.7056 19.3811 17.8095 19.3811H30.1905C32.2944 19.3811 34 21.0867 34 23.1906V32.2382C34 34.3422 32.2944 36.0477 30.1905 36.0477H17.8095C15.7056 36.0477 14 34.3422 14 32.2382V23.1906Z" fill="white"/>
<path id="Subtract" d="M23.9999 7.95239C20.581 7.95239 17.8094 10.724 17.8094 14.1429V19.3809H21.619V14.1429C21.619 12.8279 22.685 11.7619 23.9999 11.7619C25.3149 11.7619 26.3809 12.8279 26.3809 14.1429V19.3809H30.1904V14.1429C30.1904 10.724 27.4188 7.95239 23.9999 7.95239Z" fill="#D4E5FE"/>
<path id="Rectangle 1252" d="M27.3333 25.0952C27.3333 24.3062 27.9729 23.6666 28.7619 23.6666H34V26.5238H28.7619C27.9729 26.5238 27.3333 25.8842 27.3333 25.0952Z" fill="#84B4FB"/>
<path id="Rectangle 1253" d="M27.3333 30.3334C27.3333 29.5444 27.9729 28.9048 28.7619 28.9048H34V31.7619H28.7619C27.9729 31.7619 27.3333 31.1223 27.3333 30.3334Z" fill="#84B4FB"/>
</g>
</g>
<defs>
<clipPath id="clip0_2923_1432">
<rect width="48" height="48" fill="white"/>
</clipPath>
</defs>
</svg>
