<svg width="48" height="48" viewBox="0 0 48 48" fill="none" xmlns="http://www.w3.org/2000/svg">
<g id="type=Self-ID" clip-path="url(#clip0_2924_1610)">
<circle id="Ellipse 178" cx="24" cy="24" r="24" fill="#0049B8"/>
<path id="Subtract" fill-rule="evenodd" clip-rule="evenodd" d="M36 14C37.6569 14 39 15.3431 39 17V31C39 32.6569 37.6569 34 36 34H12C10.3431 34 9 32.6569 9 31V17C9 15.3431 10.3431 14 12 14H36Z" fill="white"/>
<path id="Subtract_2" d="M12 24C12 20.6863 14.6863 18 18 18C21.3137 18 24 20.6863 24 24C24 27.3137 21.3137 30 18 30C14.6863 30 12 27.3137 12 24Z" fill="#0968F6"/>
<path id="Ellipse 5" d="M19.875 28.092C19.3042 28.3539 18.6692 28.5 18 28.5C17.3309 28.5 16.6958 28.3539 16.125 28.092C14.4725 27.3335 15.7501 25.3125 18 25.3125C20.2499 25.3125 21.5234 27.3354 19.875 28.092Z" fill="white"/>
<circle id="Ellipse 2" cx="18" cy="22.5" r="1.875" fill="white"/>
<g id="Vector">
<path d="M27 20C27 19.4477 27.4477 19 28 19H35C35.5523 19 36 19.4477 36 20C36 20.5523 35.5523 21 35 21H28C27.4477 21 27 20.5523 27 20Z" fill="#84B4FB"/>
<path d="M27 24C27 23.4477 27.4477 23 28 23H35C35.5523 23 36 23.4477 36 24C36 24.5523 35.5523 25 35 25H28C27.4477 25 27 24.5523 27 24Z" fill="#84B4FB"/>
<path d="M27 28C27 27.4477 27.4477 27 28 27H35C35.5523 27 36 27.4477 36 28C36 28.5523 35.5523 29 35 29H28C27.4477 29 27 28.5523 27 28Z" fill="#84B4FB"/>
</g>
</g>
<defs>
<clipPath id="clip0_2924_1610">
<rect width="48" height="48" fill="white"/>
</clipPath>
</defs>
</svg>
