<svg width="48" height="48" viewBox="0 0 48 48" fill="none" xmlns="http://www.w3.org/2000/svg">
<g id="type=ServiceNow">
<path id="Vector" fill-rule="evenodd" clip-rule="evenodd" d="M24 2.36768C10.56 2.36768 0 12.9277 0 26.3677C0 33.4077 2.87999 39.8077 7.35999 44.2877C8.95999 45.8877 11.84 45.8877 13.76 44.6077C16.32 42.3677 20.16 41.0877 24 41.0877C28.16 41.0877 31.36 42.3677 34.24 44.6077C36.16 46.2077 38.72 45.8877 40.64 43.9677C45.12 39.4877 48 33.4077 48 26.3677C47.68 13.2477 37.12 2.36768 24 2.36768ZM23.68 38.8477C16.32 38.8477 11.52 33.4077 11.52 26.6877C11.52 19.9677 16.32 14.5277 23.68 14.5277C31.04 14.5277 35.84 19.9677 35.84 26.6877C35.84 33.4077 31.04 38.8477 23.68 38.8477Z" fill="#62D84E"/>
</g>
</svg>
