<svg width="48" height="48" viewBox="0 0 48 48" fill="none" xmlns="http://www.w3.org/2000/svg">
<g id="type=Smartsheet">
<path id="Vector 23" d="M4.95154 0H43.4483C33.8513 8.80817 27.0506 20.3814 24.8499 25.067C22.6631 20.9489 20.3833 17.6452 17.5451 16.6448C15.2746 15.8444 12.9382 18.0459 12.0538 19.2467C18.3851 20.0906 22.9734 34.8585 23.4702 36.5829C23.8677 37.9625 24.0723 37.9077 24.125 37.7079C31.0415 20.6072 40.0145 7.64459 43.6364 3.30088V19.2467C43.5825 25.2081 43.4564 37.3987 43.3826 38.4694C43.2903 39.8079 42.9903 42.3232 42.0673 42.6001C41.1443 42.877 40.1752 42.0232 38.9523 40.6386C37.9739 39.5309 36.591 36.6233 36.0218 35.3079C35.7372 35.6541 34.7343 36.6187 32.9991 37.7079C30.8301 39.0694 23.6308 42.7616 18.7621 44.5616C14.8672 46.0016 7.54024 47.4539 4.36365 48C4.82514 47.1508 4.94786 46.1494 4.95154 45.7548V0Z" fill="#012C59"/>
</g>
</svg>
