<svg width="48" height="48" viewBox="0 0 48 48" fill="none" xmlns="http://www.w3.org/2000/svg">
<g id="type=SpendSmart">
<path id="Vector" fill-rule="evenodd" clip-rule="evenodd" d="M19.9732 10.7025C21.5219 9.07146 23.6772 8.06143 26.0584 8.06143C29.2332 8.06143 31.9847 9.84594 33.4663 12.5049C34.7815 11.91 36.2059 11.603 37.6465 11.6037C43.3612 11.6037 48 16.3327 48 22.168C48 28.0034 43.3612 32.7323 37.6465 32.7323C36.948 32.7323 36.2672 32.6613 35.6005 32.5271C34.3041 34.8648 31.826 36.4531 29.0039 36.4531C27.8549 36.4554 26.7207 36.1917 25.688 35.6821C24.3739 38.805 21.3137 41 17.7509 41C14.0293 41 10.8721 38.6266 9.65503 35.2896C9.11336 35.4052 8.56124 35.4633 8.00764 35.463C3.58051 35.463 0 31.7869 0 27.2721C0 24.2384 1.61211 21.5973 4.00382 20.1697C3.49642 18.9871 3.23524 17.7115 3.23657 16.4222C3.23657 11.2115 7.41677 7 12.5671 7C15.5832 7 18.2818 8.45438 19.975 10.7118" fill="#00A1E0"/>
</g>
</svg>
