<svg width="48" height="48" viewBox="0 0 48 48" fill="none" xmlns="http://www.w3.org/2000/svg">
<g id="type=Third Party Dashboard" clip-path="url(#clip0_2923_1300)">
<circle id="Ellipse 188" cx="24" cy="24" r="24" fill="#288034"/>
<g id="Group 31689">
<path id="Subtract" d="M25.7348 16.4524C26.6309 16.3817 27.4766 16.4553 29.4253 16.8422L29.4451 16.8458C30.437 17.02 31.0186 17.1026 31.5359 17.1026H31.5566C32.0768 17.0906 32.9537 16.9709 33.6107 16.8305C33.6897 17.0027 33.784 17.207 33.8882 17.4358C34.1922 18.1034 34.5869 18.9743 34.9795 19.8447C35.3721 20.7151 35.7626 21.585 36.0599 22.2508C36.2086 22.5838 36.3338 22.8648 36.4237 23.0691C36.4575 23.1459 36.4838 23.2066 36.5036 23.2523L36.9644 24.3175C36.7615 24.6319 36.4225 25.0854 36.042 25.5129C34.2454 24.414 32.4211 23.3653 30.6558 22.2149C29.2642 21.3081 27.8467 20.3582 26.3886 19.4827L26.3868 19.4845C26.242 19.3973 26.0928 19.3573 25.9611 19.348H25.8246C25.6986 19.3565 25.6003 19.3866 25.5498 19.4037C25.4671 19.4317 25.3956 19.4657 25.3405 19.4953C25.2293 19.5551 25.1228 19.6292 25.0297 19.7046L24.7369 19.93C24.0422 20.4373 23.3053 20.7872 22.6227 20.9557C22.3341 21.0256 21.9077 21.0665 21.5224 21.059C21.2873 21.0543 21.1225 21.0322 21.0401 21.0114L21.0285 21.0087C21.0032 21.0026 20.9738 20.9949 20.9386 20.9845C20.9005 20.9732 20.8698 20.9631 20.8434 20.9539C20.6467 20.8852 20.4465 20.7831 20.274 20.6674C20.2315 20.6388 20.1915 20.6108 20.1555 20.583L20.0567 20.5012C19.9453 20.3899 19.8716 20.2402 19.948 20.0845L19.9525 20.0737L19.9579 20.0638C20.0068 19.958 20.1782 19.7285 21.2431 19.189C21.8467 18.8833 22.3381 18.6086 22.7924 18.3062C23.1343 18.0786 23.4485 17.8406 23.7705 17.5679L23.7759 17.5625L23.7813 17.558L24.084 17.293L24.1001 17.2787C24.6065 16.8142 24.8077 16.6633 24.9642 16.588C25.0913 16.5268 25.2337 16.4921 25.7339 16.4515L25.7348 16.4524Z" fill="#E0FAE0"/>
<path id="Vector" d="M12.0691 14.2776C13.1213 14.7094 13.2012 14.8983 12.7883 15.8023C12.6551 16.0856 11.7762 18.069 10.8173 20.1872C8.99269 24.2619 8.91278 24.3968 8.53988 24.3968C8.34011 24.3968 7.42117 24.0325 7.06158 23.7897C6.66204 23.5468 6.48891 23.1286 6.58214 22.6833C6.63541 22.4405 9.85836 15.2221 10.2046 14.588C10.5509 13.9134 11.0037 13.8324 12.0691 14.2776Z" fill="white"/>
<path id="Vector_2" d="M14.7348 25.3565C14.242 25.5835 13.8835 26.0525 13.3011 27.2024C12.8082 28.1707 12.7634 28.3069 12.7634 28.6852C12.7634 29.2298 12.9277 29.5022 13.3758 29.7291C13.8537 29.9561 14.2121 30.0015 14.5705 29.8804C14.8543 29.7897 14.8692 29.7897 14.8244 29.9258C14.7945 30.0166 14.7647 30.3192 14.7497 30.6067C14.7199 31.0606 14.7348 31.1665 14.8543 31.3632C15.1679 31.8776 16.1685 32.0289 16.8406 31.6658C17.1692 31.4842 17.1841 31.5145 16.9899 31.9381C16.7062 32.5736 16.8854 33.1031 17.4828 33.4209C17.9308 33.6781 18.4535 33.7235 18.9464 33.5419C19.3048 33.4209 19.3347 33.4209 19.3048 33.5268C19.0061 34.2833 19.2003 34.8128 19.9171 35.176C20.3801 35.4181 20.8431 35.4181 21.321 35.1911C21.769 34.9793 22.008 34.7221 22.2918 34.1623C22.9339 32.8762 22.8742 31.8322 22.1424 31.2573C21.8736 31.0455 21.321 30.9698 21.082 31.0908C20.9924 31.1362 20.9178 31.1665 20.9028 31.1514C20.8879 31.1362 20.9178 30.9698 20.9775 30.7882C21.0372 30.6067 21.082 30.2284 21.082 29.9561C21.082 29.0785 20.6191 28.3977 19.947 28.3372C19.5288 28.2918 19.3347 28.3372 19.036 28.6095C18.8418 28.7759 18.797 28.7911 18.8418 28.7003C18.9912 28.3069 19.0957 27.5958 19.0211 27.3386C18.8717 26.6729 18.3341 26.219 17.6919 26.219C17.3334 26.219 16.975 26.4308 16.6315 26.8393L16.4224 27.0965V26.6729C16.4224 25.871 15.8997 25.2506 15.2426 25.2506C15.1082 25.2204 14.8842 25.2809 14.7348 25.3565Z" fill="#E0FAE0"/>
<path id="Subtract_2" d="M14.7082 15.9458C16.9643 16.1092 18.6183 15.7953 20.3019 16.0266C21.0482 16.1291 21.6763 16.3601 22.0928 16.5475C22.0546 16.5757 22.0173 16.6055 21.9788 16.6329L21.7731 16.7739C21.4018 17.0211 20.9804 17.2595 20.4124 17.5472C19.4097 18.0551 18.6531 18.5248 18.2981 19.2698C18.2964 19.2733 18.2952 19.2779 18.2936 19.2815C18.2923 19.2844 18.2905 19.2876 18.2891 19.2905C18.0175 19.8583 18.0152 20.5933 18.2568 21.1326L18.2622 21.1434L18.2667 21.1533C18.3225 21.2699 18.388 21.3689 18.4409 21.4425C18.5516 21.5963 18.6848 21.7383 18.8271 21.8664L18.8262 21.8673C18.9567 21.9847 19.0998 22.0941 19.2475 22.1933L19.2484 22.1942C19.5431 22.392 19.8832 22.5666 20.2363 22.69L20.4169 22.7475C20.4695 22.7631 20.5279 22.7792 20.5893 22.7942H20.592L20.6001 22.796C20.8746 22.8641 21.1925 22.8907 21.4857 22.8966L21.8764 22.893C22.2765 22.8781 22.6978 22.8297 23.0556 22.743L23.0583 22.7421C23.9954 22.5115 24.9384 22.0529 25.7923 21.4344C28.2299 22.9669 30.576 24.6419 33.1132 26.0105C33.1829 26.0501 33.2523 26.0905 33.3224 26.129C34.1758 26.6963 34.4218 27.8446 33.8685 28.7121C33.3081 29.5897 32.1414 29.8464 31.2639 29.286L31.5827 29.4899C32.3345 29.9702 32.5546 30.9698 32.0749 31.7218C31.5945 32.4738 30.5951 32.6934 29.843 32.2131L28.9359 31.6338C29.6874 32.1141 29.9076 33.1138 29.428 33.8657C28.9477 34.6179 27.9474 34.8382 27.1952 34.3579L25.4941 33.2711C26.1827 33.7115 26.3835 34.6271 25.9441 35.3162C25.5038 36.0054 24.5884 36.2072 23.899 35.7671C23.7981 35.7027 23.6994 35.6348 23.599 35.5695C23.7279 35.3766 23.8377 35.1821 23.9331 34.9938L23.9376 34.9839C24.709 33.439 25.0695 31.2179 23.2784 29.8106C23.1554 29.714 23.0272 29.6325 22.8985 29.5636C22.7786 28.4143 22.1348 27.0475 20.7276 26.6239C20.31 25.3483 19.1554 24.3796 17.6919 24.3794C17.5979 24.3794 17.5059 24.3859 17.4161 24.3947C16.935 23.8423 16.2532 23.4531 15.3809 23.4157C15.0325 23.3822 14.7404 23.4356 14.587 23.4705C14.3746 23.5188 14.1613 23.5937 13.9654 23.687C13.9585 23.6902 13.9517 23.6936 13.9448 23.6968C13.9314 23.7033 13.9167 23.709 13.9035 23.7157V23.7175C12.989 24.1618 12.4284 24.9478 11.9464 25.8291C11.5466 25.4533 11.1468 25.0778 10.7465 24.7037C10.7477 24.7014 10.7497 24.6988 10.751 24.6965C11.088 24.0752 11.6012 22.9373 12.4934 20.9449C13.469 18.7895 14.3258 16.8553 14.4531 16.5844L14.4576 16.5754L14.4621 16.5655C14.5388 16.3976 14.6316 16.182 14.7082 15.9458Z" fill="white"/>
<path id="Vector_3" d="M35.9307 14.2776C34.8786 14.7094 34.7987 14.8983 35.2116 15.8023C35.3447 16.0856 36.2237 18.069 37.1826 20.1872C39.0072 24.2619 39.0871 24.3968 39.46 24.3968C39.6598 24.3968 40.5787 24.0325 40.9383 23.7897C41.3378 23.5468 41.511 23.1286 41.4177 22.6833C41.3645 22.4405 38.1415 15.2221 37.7953 14.588C37.449 13.9134 36.9962 13.8324 35.9307 14.2776Z" fill="#E0FAE0"/>
</g>
</g>
<defs>
<clipPath id="clip0_2923_1300">
<rect width="48" height="48" fill="white"/>
</clipPath>
</defs>
</svg>
