<svg width="48" height="48" viewBox="0 0 48 48" fill="none" xmlns="http://www.w3.org/2000/svg">
<g id="type=Token Access" clip-path="url(#clip0_2663_1604)">
<circle id="Ellipse 183" cx="24" cy="24" r="24" fill="#1BBFCA"/>
<g id="Component 1">
<path id="vector-shape" fill-rule="evenodd" clip-rule="evenodd" d="M17.6372 14.2194C19.4666 13.0266 21.6506 12.3333 24 12.3333C25.9116 12.3333 27.7127 12.7922 29.3023 13.6048C29.876 13.8981 30.5789 13.6707 30.8721 13.097C31.1654 12.5233 30.9381 11.8205 30.3644 11.5272C28.4536 10.5504 26.2894 10 24 10C21.1844 10 18.5597 10.8324 16.3628 12.2648C15.8231 12.6167 15.6708 13.3396 16.0227 13.8793C16.3746 14.419 17.0975 14.5713 17.6372 14.2194ZM16.4159 24.0437C16.57 19.9333 19.8632 16.4167 24 16.4167C28.1882 16.4167 31.5833 19.8118 31.5833 24C31.5833 26.4376 33.0737 28.4488 35.2978 29.1901C35.909 29.3939 36.5698 29.0635 36.7735 28.4523C36.8112 28.3393 36.8306 28.2245 36.8334 28.1113V28.055C36.8217 27.5773 36.5151 27.1364 36.0356 26.9765C34.7597 26.5512 33.9167 25.4284 33.9167 24C33.9167 18.5232 29.4768 14.0833 24 14.0833C18.4812 14.0833 14.2943 18.7176 14.0852 23.9297C14.0839 23.9466 14.0822 23.9691 14.0804 23.9969C14.0765 24.0555 14.0719 24.1379 14.0678 24.2426C14.0596 24.4519 14.0536 24.7507 14.0611 25.1262C14.0761 25.8766 14.1448 26.9366 14.3574 28.2035C14.7237 30.3861 15.5198 33.197 17.2156 36.0955C17.5908 36.7367 18.4668 36.8215 18.9921 36.2962C19.3839 35.9044 19.447 35.2944 19.17 34.8145C17.6864 32.2451 16.9841 29.7569 16.6586 27.8173C16.4674 26.678 16.4071 25.7328 16.394 25.0796C16.3875 24.7532 16.3928 24.5005 16.3993 24.3339C16.4026 24.2506 16.4061 24.1889 16.4087 24.1503L16.4116 24.11L16.412 24.1042L16.4121 24.1035L16.4121 24.1033L16.4121 24.1033L16.4121 24.103L16.4147 24.0747L16.4159 24.0437ZM21.5526 21.5287C20.9377 22.1868 20.5 23.201 20.5 24.5833C20.5 25.4008 20.5624 26.1978 20.6829 26.9722C20.7626 27.4843 20.5371 28.0029 20.0882 28.2621C19.4059 28.656 18.5353 28.2914 18.4061 27.5142C18.2487 26.5673 18.1667 25.5893 18.1667 24.5833C18.1667 22.6959 18.7737 21.0851 19.8477 19.9356C20.9227 18.7852 22.4029 18.1667 24 18.1667C27.2217 18.1667 29.8333 20.7783 29.8333 24V24.5833C29.8333 27.1941 31.3925 29.4406 33.6304 30.4427C34.3334 30.7574 34.7359 31.612 34.3508 32.279C34.0987 32.7157 33.5803 32.9339 33.1096 32.7529C29.8285 31.4908 27.5 28.309 27.5 24.5833V24C27.5 22.067 25.933 20.5 24 20.5C23.0197 20.5 22.1666 20.8716 21.5526 21.5287ZM20.0962 30.2068C20.7239 29.8443 21.5247 30.147 21.8228 30.8078C22.6895 32.7291 23.9514 34.4434 25.5166 35.9019C26.021 36.3719 26.0671 37.1725 25.5796 37.66C25.1572 38.0824 24.4801 38.1172 24.04 37.7133C22.1618 35.9896 20.6415 33.9287 19.6186 31.5956C19.393 31.0809 19.6095 30.4877 20.0962 30.2068ZM25.1667 24C25.1667 23.3557 24.6443 22.8333 24 22.8333C23.3557 22.8333 22.8333 23.3557 22.8333 24V24.5833C22.8333 29.468 25.4431 33.7411 29.343 36.0875C29.867 36.4028 30.5349 36.1975 30.8407 35.6679C31.1781 35.0834 30.9426 34.3395 30.3708 33.9809C27.2445 32.0208 25.1667 28.5438 25.1667 24.5833V24ZM14.1717 15.6656C14.6985 16.0366 14.8249 16.7644 14.4539 17.2912C13.1178 19.1886 12.3333 21.5009 12.3333 24C12.3333 24.3583 12.3494 24.7125 12.3809 25.0619C12.4388 25.7037 11.9654 26.2708 11.3237 26.3286C10.682 26.3864 10.1149 25.9131 10.057 25.2714C10.0193 24.8523 10 24.4283 10 24C10 21.0045 10.9421 18.2255 12.5461 15.9477C12.9171 15.4209 13.6449 15.2946 14.1717 15.6656ZM34.1817 14.391C33.7393 13.9225 33.001 13.9012 32.5324 14.3436C32.0639 14.7859 32.0427 15.5243 32.485 15.9928C34.4585 18.0832 35.6667 20.8993 35.6667 24.0001C35.6667 24.6444 36.189 25.1668 36.8333 25.1668C37.4777 25.1668 38 24.6444 38 24.0001C38 20.2804 36.5478 16.8973 34.1817 14.391Z" fill="white"/>
</g>
</g>
<defs>
<clipPath id="clip0_2663_1604">
<rect width="48" height="48" fill="white"/>
</clipPath>
</defs>
</svg>
