<svg width="48" height="48" viewBox="0 0 48 48" fill="none" xmlns="http://www.w3.org/2000/svg">
<g id="type=Wiki" clip-path="url(#clip0_2258_1830)">
<g id="Group 31658">
<path id="Vector" d="M1.7404 36.1494C1.24397 36.9589 0.686443 37.8983 0.212926 38.6468C0.00918517 38.9911 -0.0513479 39.4015 0.0443368 39.79C0.140021 40.1784 0.384286 40.5138 0.72463 40.7241L10.6532 46.8339C10.8257 46.9404 11.0178 47.0115 11.2181 47.0431C11.4184 47.0746 11.6229 47.066 11.8198 47.0176C12.0168 46.9693 12.2021 46.8822 12.365 46.7615C12.5279 46.6408 12.6652 46.4889 12.7688 46.3146C13.1659 45.6501 13.6776 44.7871 14.2352 43.863C18.1684 37.3714 22.1246 38.1656 29.2579 41.5718L39.1025 46.2535C39.287 46.3413 39.4873 46.3912 39.6915 46.4003C39.8957 46.4093 40.0996 46.3772 40.2912 46.306C40.4827 46.2348 40.6581 46.1259 40.8068 45.9856C40.9555 45.8454 41.0746 45.6768 41.1569 45.4898L45.8844 34.7976C46.045 34.4305 46.0549 34.0151 45.912 33.6408C45.7692 33.2666 45.485 32.9634 45.1207 32.7966C43.0433 31.8191 38.9115 29.8716 35.1921 28.0768C21.8114 21.5775 10.4394 21.9976 1.7404 36.1494Z" fill="url(#paint0_linear_2258_1830)"/>
<path id="Vector_2" d="M46.2596 11.8836C46.7561 11.074 47.3136 10.1346 47.7871 9.38618C47.9909 9.04189 48.0514 8.63141 47.9557 8.24296C47.86 7.85452 47.6157 7.51912 47.2754 7.30885L37.3468 1.19904C37.173 1.08197 36.9769 1.00192 36.7709 0.963867C36.5648 0.925815 36.3531 0.930578 36.1489 0.977857C35.9447 1.02514 35.7525 1.11392 35.5841 1.23869C35.4157 1.36346 35.2748 1.52154 35.1702 1.7031C34.773 2.36754 34.2613 3.23055 33.7038 4.15466C29.7705 10.6463 25.8144 9.85205 18.6811 6.44584L8.86703 1.78711C8.68248 1.69927 8.48218 1.64936 8.278 1.64034C8.07381 1.63132 7.86989 1.66336 7.67831 1.73458C7.48674 1.8058 7.3114 1.91473 7.16269 2.05494C7.01399 2.19515 6.89493 2.36378 6.81257 2.55083L2.08504 13.243C1.9245 13.61 1.91459 14.0255 2.05745 14.3998C2.2003 14.774 2.48449 15.0772 2.84877 15.244C4.92614 16.2215 9.05796 18.169 12.7774 19.9638C26.1886 26.4554 37.5607 26.0201 46.2596 11.8836Z" fill="url(#paint1_linear_2258_1830)"/>
</g>
</g>
<defs>
<linearGradient id="paint0_linear_2258_1830" x1="45.6171" y1="49.9881" x2="15.5796" y2="32.7275" gradientUnits="userSpaceOnUse">
<stop offset="0.18" stop-color="#0052CC"/>
<stop offset="1" stop-color="#2684FF"/>
</linearGradient>
<linearGradient id="paint1_linear_2258_1830" x1="2.3829" y1="-1.96278" x2="32.4281" y2="15.3055" gradientUnits="userSpaceOnUse">
<stop offset="0.18" stop-color="#0052CC"/>
<stop offset="1" stop-color="#2684FF"/>
</linearGradient>
<clipPath id="clip0_2258_1830">
<rect width="48" height="48" fill="white"/>
</clipPath>
</defs>
</svg>
