<svg width="48" height="48" viewBox="0 0 48 48" fill="none" xmlns="http://www.w3.org/2000/svg">
<g id="type=Workday">
<g id="Group 1">
<path id="Layer" d="M22.7892 0.0379077C27.2871 -0.237926 31.8569 0.999202 35.6058 3.49926C39.0049 5.74397 41.7353 8.99439 43.319 12.7497C43.5661 13.4226 43.4802 14.2169 43.0581 14.8018C42.5992 15.47 41.752 15.829 40.9525 15.7163C40.205 15.6216 39.5268 15.1125 39.2336 14.4182C38.4971 12.6834 37.46 11.0774 36.184 9.69129C33.9319 7.23671 30.9238 5.47771 27.6683 4.7598C25.1571 4.23792 22.5336 4.25601 20.0325 4.82576C16.9696 5.5474 14.1325 7.19176 11.9857 9.49339C10.823 10.7491 9.7995 12.1488 9.07972 13.707C8.86347 14.1349 8.74138 14.6201 8.41208 14.9816C7.80296 15.7014 6.71027 15.9384 5.85484 15.5452C5.0417 15.1971 4.49641 14.3201 4.54722 13.4359C4.55467 12.8968 4.83635 12.4225 5.05127 11.9448C6.77517 8.31957 9.56994 5.21597 12.9954 3.12315C15.9397 1.30961 19.3361 0.237668 22.7892 0.0379077Z" fill="#F49813"/>
<path id="Layer_2" d="M5.16187 19.2604C5.38583 18.9484 5.74598 18.7263 6.13779 18.7385C7.23607 18.739 8.33488 18.7183 9.43237 18.7505C10.0141 18.7558 10.5184 19.2458 10.5775 19.8184C11.663 24.2951 12.7538 28.7704 13.846 33.2462C14.1846 34.7113 14.6014 36.1613 14.8373 37.6484C15.0717 38.972 15.1166 40.3198 15.3305 41.6465C15.5265 40.1836 15.7827 38.7283 16.1074 37.2883C16.3729 36.0846 16.7211 34.902 17.0331 33.7099C18.2809 29.0569 19.5308 24.4039 20.7764 19.7495C20.9126 19.188 21.448 18.7545 22.0276 18.7446C23.2384 18.7249 24.4508 18.7359 25.6616 18.7385C25.9058 18.7398 26.1534 18.7156 26.3941 18.768C26.8397 18.8752 27.2315 19.192 27.4193 19.6112C27.5052 19.8065 27.5493 20.0163 27.6071 20.2212C28.4471 23.2795 29.2783 26.3406 30.1119 29.4003C30.3877 30.3911 30.6394 31.3894 30.9399 32.3727C31.5672 34.5007 32.0965 36.6576 32.5231 38.8345C32.7202 39.7724 32.8014 40.7297 33.0022 41.6668C33.4166 38.5669 33.9635 35.4848 34.6423 32.4318C34.9429 31.0385 35.3152 29.662 35.615 28.2685C36.2515 25.4221 36.8764 22.5723 37.5222 19.728C37.6182 19.3093 37.9382 18.9558 38.3406 18.8103C38.5742 18.717 38.8303 18.7372 39.0766 18.7377C40.0401 18.7404 41.004 18.7191 41.9666 18.7492C42.3805 18.7486 42.7675 19.0745 42.8293 19.4844C42.8798 19.7769 42.7561 20.0541 42.6851 20.331C40.6343 27.9017 38.5808 35.4715 36.538 43.0441C36.3811 43.5667 35.8666 43.9516 35.3219 43.9625C33.6461 44.0248 31.9691 43.9639 30.2931 43.9907C29.8095 43.9724 29.3701 43.6069 29.252 43.1393C28.0002 38.5432 26.77 33.9413 25.5321 29.342C25.2483 28.2693 24.9325 27.204 24.7109 26.1166C24.413 24.6983 24.1912 23.2628 24.0758 21.8176C23.8779 23.507 23.6055 25.1888 23.2225 26.8457C21.8042 32.1514 20.3766 37.4545 18.9477 42.7571C18.8767 43.0353 18.8203 43.3393 18.6048 43.5478C18.2426 43.9093 17.7013 44.0006 17.2097 44C15.6425 43.949 14.0734 44.0343 12.507 43.9625C12.1676 43.9516 11.8393 43.7686 11.6537 43.4848C11.514 43.2795 11.484 43.0278 11.4161 42.7959C9.38076 35.3835 7.35151 27.9695 5.32013 20.5566C5.19006 20.1371 5.1725 19.6958 5.16187 19.2604Z" fill="#3069B5"/>
</g>
</g>
</svg>
