<svg width="48" height="48" viewBox="0 0 48 48" fill="none" xmlns="http://www.w3.org/2000/svg">
<g id="type=YJMMD" clip-path="url(#clip0_2920_2044)">
<circle id="Ellipse 188" cx="24" cy="24" r="24" fill="#0968F6"/>
<circle id="Ellipse 145" cx="24" cy="24" r="14" fill="#FFD480"/>
<g id="Union">
<path d="M18.312 19.9241C19.1977 19.9241 20.178 20.2148 20.8823 20.9187L21.031 21.1016C21.285 21.4871 21.2851 21.991 21.031 22.3765L20.8823 22.5576C20.4295 23.0104 19.6944 23.0104 19.2417 22.5576C19.0702 22.3871 18.7367 22.2414 18.312 22.2415C17.887 22.2416 17.5533 22.387 17.3823 22.5576C16.9295 23.0104 16.1944 23.0104 15.7417 22.5576C15.2903 22.1049 15.2895 21.3711 15.7417 20.9187C16.4457 20.2147 17.4261 19.9243 18.312 19.9241Z" fill="#562F01"/>
<path d="M29.687 19.9241C30.5727 19.9241 31.553 20.2148 32.2573 20.9187L32.406 21.1016C32.66 21.4871 32.6601 21.991 32.406 22.3765L32.2573 22.5576C31.8045 23.0104 31.0694 23.0104 30.6167 22.5576C30.4452 22.3871 30.1117 22.2414 29.687 22.2415C29.262 22.2416 28.9283 22.387 28.7573 22.5576C28.3045 23.0104 27.5694 23.0104 27.1167 22.5576C26.6653 22.1049 26.6645 21.3711 27.1167 20.9187C27.8207 20.2147 28.8011 19.9243 29.687 19.9241Z" fill="#562F01"/>
</g>
<path id="Rectangle 2542" d="M17.875 28.0476C17.875 27.2619 18.5119 26.625 19.2976 26.625H28.7024C29.4881 26.625 30.125 27.2619 30.125 28.0476C30.125 31.3212 27.4712 33.625 24.1976 33.625H23.8024C20.5288 33.625 17.875 31.3212 17.875 28.0476Z" fill="#D50B0B"/>
<path id="Intersect" d="M24 30.125C25.9514 30.125 27.6869 30.715 28.8086 31.6289C27.722 32.8763 26.0611 33.625 24.1973 33.625H23.8027C21.9385 33.625 20.276 32.8768 19.1895 31.6289C20.3111 30.7144 22.0479 30.125 24 30.125Z" fill="#FF5C5C"/>
</g>
<defs>
<clipPath id="clip0_2920_2044">
<rect width="48" height="48" fill="white"/>
</clipPath>
</defs>
</svg>
