<svg width="48" height="48" viewBox="0 0 48 48" fill="none" xmlns="http://www.w3.org/2000/svg">
<g id="type=Zoom">
<path id="Vector" d="M33.0294 2H14.9706C7.81848 2 2 7.81848 2 14.9706V33.0294C2 40.1815 7.81848 46 14.9706 46H33.0294C40.1815 46 46 40.1815 46 33.0294V14.9706C46 7.81848 40.1815 2 33.0294 2Z" fill="#0B5CFF"/>
<path id="logo_x5F_ZM_x5F_wordmark" d="M14.7108 27.8981H8.98945C8.58803 27.8981 8.22938 27.6675 8.07577 27.3107C7.92215 26.9539 8.00632 26.5469 8.29017 26.2738L12.2531 22.4612H9.4128C8.63253 22.4612 8 21.8526 8 21.1019H13.2764C13.6777 21.1019 14.0364 21.3324 14.19 21.6892C14.3436 22.046 14.2595 22.453 13.9757 22.7262L10.0127 26.5388H13.298C14.0783 26.5388 14.7108 27.1474 14.7108 27.8981ZM40 23.6505C40 22.189 38.7641 21 37.245 21C36.4325 21 35.7012 21.3404 35.1965 21.8805C34.6918 21.3404 33.9605 21 33.1479 21C31.6288 21 30.3929 22.189 30.3929 23.6505V27.8981C31.1732 27.8981 31.8057 27.2895 31.8057 26.5388V23.6505C31.8057 22.9385 32.4078 22.3592 33.1479 22.3592C33.888 22.3592 34.4901 22.9385 34.4901 23.6505V26.5388C34.4901 27.2895 35.1226 27.8981 35.9029 27.8981V23.6505C35.9029 22.9385 36.505 22.3592 37.245 22.3592C37.9851 22.3592 38.5872 22.9385 38.5872 23.6505V26.5388C38.5872 27.2895 39.2197 27.8981 40 27.8981V23.6505ZM29.6865 24.5C29.6865 26.433 28.0578 28 26.0486 28C24.0394 28 22.4106 26.433 22.4106 24.5C22.4106 22.567 24.0394 21 26.0486 21C28.0578 21 29.6865 22.567 29.6865 24.5ZM28.2737 24.5C28.2737 23.3177 27.2775 22.3592 26.0486 22.3592C24.8196 22.3592 23.8234 23.3177 23.8234 24.5C23.8234 25.6823 24.8196 26.6408 26.0486 26.6408C27.2775 26.6408 28.2737 25.6823 28.2737 24.5ZM21.8455 24.5C21.8455 26.433 20.2167 28 18.2075 28C16.1983 28 14.5695 26.433 14.5695 24.5C14.5695 22.567 16.1983 21 18.2075 21C20.2167 21 21.8455 22.567 21.8455 24.5ZM20.4327 24.5C20.4327 23.3177 19.4364 22.3592 18.2075 22.3592C16.9786 22.3592 15.9823 23.3177 15.9823 24.5C15.9823 25.6823 16.9786 26.6408 18.2075 26.6408C19.4364 26.6408 20.4327 25.6823 20.4327 24.5Z" fill="white"/>
</g>
</svg>
