<svg width="64" height="64" viewBox="0 0 64 64" fill="none" xmlns="http://www.w3.org/2000/svg">
<g id="hub-logo-stacked">
<g id="Group 31649">
<path id="Fill 1" fill-rule="evenodd" clip-rule="evenodd" d="M46.2001 24.1308C46.2001 24.9872 46.2246 25.8324 46.2984 26.5936H43.5947C43.5226 25.9668 43.4963 25.3441 43.4963 24.74C42.0346 26.5591 40.296 27.0821 37.8841 27.0821C34.3068 27.0821 32.3915 25.1679 32.3915 22.9536C32.3915 19.7469 34.9965 18.6162 39.5191 18.5113C40.7559 18.4827 42.145 18.4784 43.2935 18.4784L43.2933 18.1651C43.2933 16.0183 41.9336 15.1356 39.5774 15.1356C37.8282 15.1356 36.539 15.8685 36.4062 17.1348H33.3524C33.6755 13.9774 36.9522 13.1787 39.8333 13.1787C43.2848 13.1787 46.2001 14.422 46.2001 18.118V24.1308ZM39.7185 20.4842C37.0831 20.5717 35.4456 21.0531 35.4456 22.8105C35.4456 23.9485 36.3415 25.1818 38.616 25.1818C41.6655 25.1818 43.2933 23.499 43.2933 20.7389L43.2935 20.4352C42.2244 20.4352 40.9059 20.4448 39.7185 20.4842Z" fill="#FFBD14"/>
<path id="Fill 3" fill-rule="evenodd" clip-rule="evenodd" d="M5.96 20.8751C6.11688 23.5459 7.93607 25.1255 10.4374 25.1255C12.1705 25.1255 13.7121 24.4107 14.2283 22.8554H17.226C16.643 26.011 13.3311 27.0821 10.4804 27.0821C5.29716 27.0821 3 24.192 3 20.2948C3 16.0044 5.37602 13.1788 10.5277 13.1788C14.6283 13.1788 17.6327 15.3514 17.6327 20.0934V20.8751H5.96ZM14.579 18.9183C14.4662 16.1657 12.5037 15.1356 10.4063 15.1356C8.14465 15.1356 6.33894 16.2943 6.02268 18.9183H14.579Z" fill="#F02D2D"/>
<path id="Fill 5" fill-rule="evenodd" clip-rule="evenodd" d="M17.6288 8H20.5347L20.5345 15.3915C21.9587 13.6734 23.921 13.1745 25.8525 13.1745C29.091 13.1745 32.6879 15.3869 32.6879 20.1638C32.6879 24.1641 29.8273 27.0777 25.7985 27.0777C23.6898 27.0777 21.7048 26.3119 20.4807 24.7945C20.4807 25.4006 20.4472 26.0115 20.3818 26.5894H17.5299C17.5795 25.6551 17.6288 24.4919 17.6288 23.5508V8ZM25.0845 25.0654C27.7857 25.0654 29.6341 23.097 29.6341 20.1265C29.6341 17.1564 27.7857 15.1877 25.0845 15.1877C22.3985 15.1877 20.5347 17.1564 20.5347 20.1265C20.5347 23.097 22.3985 25.0654 25.0845 25.0654Z" fill="#0968F6"/>
<path id="Fill 7" fill-rule="evenodd" clip-rule="evenodd" d="M61 13.6682L52.0131 31.5362H48.759L51.3427 26.5747L44.5796 13.6682H47.9799L52.9566 23.7522L57.9193 13.6682H61Z" fill="#92C821"/>
</g>
<g id="Group 31650">
<path id="Fill-5" fill-rule="evenodd" clip-rule="evenodd" d="M20.2483 47.7791H8.55148V55.58H6V39.0024H8.55148V45.643H20.2483V39.0024H22.7986V55.58H20.2483V47.7791Z" fill="#363636"/>
<path id="Fill-6" fill-rule="evenodd" clip-rule="evenodd" d="M24.8786 39.0025H27.3667V49.3522C27.3667 52.2736 29.386 53.4955 32.4603 53.4955C35.5363 53.4955 37.5545 52.2736 37.5545 49.3522V39.0025H40.0432V49.0578C40.0432 53.3833 37.5545 55.5801 32.4603 55.5801C27.3667 55.5801 24.8786 53.3833 24.8786 49.0578V39.0025Z" fill="#363636"/>
<path id="Fill-7" fill-rule="evenodd" clip-rule="evenodd" d="M42.1232 39H51.9569C55.6168 39 57.2544 40.5561 57.2544 43.1572C57.2544 45.1783 56.1461 46.1769 54.7495 46.6644V46.7113C56.7239 47.1525 58 48.4067 58 50.7991C58 53.1671 56.2899 55.5825 52.5593 55.5825H42.1232V39ZM51.9083 45.852C53.7874 45.852 54.7015 44.8528 54.7015 43.5291C54.7015 42.0193 53.8594 41.1368 51.7645 41.1368H44.6754V45.852H51.9083ZM51.8616 53.4459C54.7015 53.4459 55.4478 52.0528 55.4478 50.636C55.4478 49.3355 54.6781 47.9887 52.0774 47.9887H44.6754V53.4459H51.8616Z" fill="#363636"/>
</g>
</g>
</svg>
