<svg width="82" height="28" viewBox="0 0 82 28" fill="none" xmlns="http://www.w3.org/2000/svg">
<g id="hubgpt-logo/Default">
<path id="Vector" d="M38.9619 15.62C38.9619 19.1 36.6419 21.26 33.8619 21.26C32.4219 21.26 31.2019 20.6 30.7019 19.78V20.98H27.6819V6.09998H30.7019V11.46C31.2019 10.64 32.4219 9.97998 33.8619 9.97998C36.6419 9.97998 38.9619 12.14 38.9619 15.62ZM30.5219 15.62C30.5219 17.92 31.7819 18.98 33.2219 18.98C34.6819 18.98 35.8819 17.92 35.8819 15.62C35.8819 13.32 34.6819 12.26 33.2219 12.26C31.7819 12.26 30.5219 13.32 30.5219 15.62Z" fill="#191919"/>
<path id="Vector_2" d="M20.8149 21.26C17.6549 21.26 15.8549 19.92 15.8549 16.58V10.24H18.8749V16.6C18.8749 18.12 19.4949 18.98 20.8149 18.98C22.1349 18.98 22.7549 18.12 22.7549 16.6V10.24H25.7749V16.58C25.7749 19.92 23.9749 21.26 20.8149 21.26Z" fill="#191919"/>
<path id="Vector_3" d="M1.51999 21V6.09998H4.63999V12.06H10.72V6.09998H13.84V21H10.72V14.7H4.63999V21H1.51999Z" fill="#191919"/>
<path id="Vector_4" d="M73.733 21V8.73998H69.573V6.09998H81.033V8.73998H76.853V21H73.733Z" fill="#3665F3"/>
<path id="Vector_5" d="M57.6411 21V6.09998H64.1211C67.7211 6.09998 69.3811 8.21998 69.3811 10.62C69.3811 13.04 67.7211 15.16 64.1211 15.16H60.7611V21H57.6411ZM60.7611 12.66H63.8011C65.2611 12.66 66.1211 11.76 66.1211 10.62C66.1211 9.49998 65.2611 8.59998 63.8011 8.59998H60.7611V12.66Z" fill="#3665F3"/>
<path id="Vector_6" d="M52.74 21V19.42C51.7 20.7 50.18 21.26 48.4 21.26C43.92 21.26 40.76 18 40.76 13.56C40.76 9.09998 43.92 5.85999 48.34 5.85999C51.84 5.85999 54.56 7.57999 55.5 10.72H52.2C51.62 9.17999 50.28 8.43999 48.42 8.43999C45.64 8.43999 44.06 10.5 44.06 13.56C44.06 16.62 45.62 18.68 48.44 18.68C50.84 18.68 52.4 17.7 52.54 15.42H47.4V12.78H55.54V21H52.74Z" fill="#3665F3"/>
</g>
</svg>
