<svg width="177" height="28" viewBox="0 0 177 28" fill="none" xmlns="http://www.w3.org/2000/svg">
<g id="peoplex-logo">
<path id="Fill 1" fill-rule="evenodd" clip-rule="evenodd" d="M51.3932 19.1901C51.3932 20.2088 51.4223 21.2144 51.5102 22.12H48.2937C48.2079 21.3743 48.1766 20.6334 48.1766 19.9148C46.4377 22.0789 44.3694 22.7011 41.5001 22.7011C37.2443 22.7011 34.9658 20.4239 34.9658 17.7896C34.9658 13.9747 38.0649 12.6296 43.4451 12.5048C44.9164 12.4708 46.569 12.4657 47.9354 12.4657L47.9351 12.093C47.9351 9.53904 46.3175 8.48892 43.5145 8.48892C41.4336 8.48892 39.8998 9.36073 39.7419 10.8672H36.1089C36.4933 7.11099 40.3915 6.16089 43.8189 6.16089C47.925 6.16089 51.3932 7.63996 51.3932 12.0369V19.1901ZM43.6824 14.8519C40.5471 14.9559 38.5991 15.5287 38.5991 17.6194C38.5991 18.9731 39.6649 20.4405 42.3708 20.4405C45.9986 20.4405 47.9351 18.4385 47.9351 15.1548L47.9354 14.7936C46.6635 14.7936 45.095 14.8051 43.6824 14.8519Z" fill="#FFBD14"/>
<path id="Fill 3" fill-rule="evenodd" clip-rule="evenodd" d="M3.52137 15.3169C3.708 18.4942 5.8722 20.3735 8.84796 20.3735C10.9097 20.3735 12.7437 19.5231 13.3578 17.6728H16.924C16.2304 21.4269 12.2905 22.7011 8.89907 22.7011C2.73282 22.7011 0 19.2629 0 14.6265C0 9.52247 2.82663 6.16101 8.95538 6.16101C13.8336 6.16101 17.4078 8.74564 17.4078 14.387V15.3169H3.52137ZM13.775 12.989C13.6408 9.71433 11.3061 8.48893 8.8109 8.48893C6.12034 8.48893 3.97218 9.86732 3.59593 12.989H13.775Z" fill="#F02D2D"/>
<path id="Fill 5" fill-rule="evenodd" clip-rule="evenodd" d="M17.4031 0H20.8602L20.8599 8.79336C22.5542 6.74935 24.8887 6.15587 27.1865 6.15587C31.0391 6.15587 35.3182 8.78787 35.3182 14.4708C35.3182 19.2296 31.915 22.6959 27.1222 22.6959C24.6137 22.6959 22.2522 21.7848 20.7959 19.9797C20.7959 20.7008 20.7561 21.4274 20.6782 22.115H17.2855C17.3445 21.0035 17.4031 19.6196 17.4031 18.5001V0ZM26.2728 20.3019C29.4863 20.3019 31.6853 17.9602 31.6853 14.4263C31.6853 10.8929 29.4863 8.55088 26.2728 8.55088C23.0774 8.55088 20.8602 10.8929 20.8602 14.4263C20.8602 17.9602 23.0774 20.3019 26.2728 20.3019Z" fill="#0968F6"/>
<path id="Fill 7" fill-rule="evenodd" clip-rule="evenodd" d="M69 6.74326L58.3088 28H54.4375L57.5111 22.0975L49.4655 6.74326H53.5106L59.4312 18.7397L65.335 6.74326H69Z" fill="#92C821"/>
<g id="peopleX">
<path id="Vector" d="M157.979 21.858L165.705 11.0973L158.485 0.926636H162.137L167.532 8.54058L173.01 0.926636H176.522L169.274 10.9849L177 21.858H173.319L167.447 13.5697L161.463 21.858H157.979Z" fill="#002A69"/>
<path id="Vector_2" d="M150.924 22.2232C146.288 22.2232 143.085 18.8236 143.085 14.3002C143.085 9.80488 146.316 6.3772 150.924 6.3772C155.644 6.3772 158.678 9.86107 158.509 15.1993H146.119C146.428 17.8965 148.367 19.7508 151.036 19.7508C152.806 19.7508 154.183 19.1608 154.969 17.8403H158.172C157.048 20.4813 154.323 22.2232 150.924 22.2232ZM150.896 8.73724C148.423 8.73724 146.484 10.5073 146.147 13.0359H155.447C155.11 10.1982 153.256 8.73724 150.896 8.73724Z" fill="#002A69"/>
<path id="Vector_3" d="M138.28 21.858V0.926636H141.202V21.858H138.28Z" fill="#002A69"/>
<path id="Vector_4" d="M121.049 27.3366V6.74244H123.971V8.962C125.038 7.27626 127.061 6.3772 129.112 6.3772C133.13 6.3772 136.361 9.6363 136.361 14.3002C136.361 18.9641 133.13 22.2232 129.112 22.2232C127.061 22.2232 125.038 21.3241 123.971 19.6384V27.3366H121.049ZM128.578 19.807C131.36 19.807 133.327 17.5874 133.327 14.3002C133.327 11.013 131.36 8.79343 128.578 8.79343C125.769 8.79343 123.802 11.013 123.802 14.3002C123.802 17.5874 125.769 19.807 128.578 19.807Z" fill="#002A69"/>
<path id="Vector_5" d="M119.171 14.3002C119.171 18.8798 115.884 22.2232 111.248 22.2232C106.612 22.2232 103.325 18.8798 103.325 14.3002C103.325 9.72059 106.612 6.3772 111.248 6.3772C115.884 6.3772 119.171 9.72059 119.171 14.3002ZM116.165 14.3002C116.165 11.2097 114.198 8.87772 111.248 8.87772C108.298 8.87772 106.331 11.2097 106.331 14.3002C106.331 17.3907 108.298 19.7227 111.248 19.7227C114.198 19.7227 116.165 17.3907 116.165 14.3002Z" fill="#002A69"/>
<path id="Vector_6" d="M94.9747 22.2232C90.3389 22.2232 87.136 18.8236 87.136 14.3002C87.136 9.80488 90.367 6.3772 94.9747 6.3772C99.6948 6.3772 102.729 9.86107 102.561 15.1993H90.1703C90.4794 17.8965 92.418 19.7508 95.0871 19.7508C96.8571 19.7508 98.2338 19.1608 99.0205 17.8403H102.223C101.1 20.4813 98.3743 22.2232 94.9747 22.2232ZM94.9466 8.73724C92.4742 8.73724 90.5356 10.5073 90.1984 13.0359H99.4981C99.161 10.1982 97.3066 8.73724 94.9466 8.73724Z" fill="#002A69"/>
<path id="Vector_7" d="M71 27.3366V6.74244H73.922V8.962C74.9896 7.27626 77.0125 6.3772 79.0635 6.3772C83.0812 6.3772 86.3122 9.6363 86.3122 14.3002C86.3122 18.9641 83.0812 22.2232 79.0635 22.2232C77.0125 22.2232 74.9896 21.3241 73.922 19.6384V27.3366H71ZM78.5297 19.807C81.3111 19.807 83.2778 17.5874 83.2778 14.3002C83.2778 11.013 81.3111 8.79343 78.5297 8.79343C75.7201 8.79343 73.7534 11.013 73.7534 14.3002C73.7534 17.5874 75.7201 19.807 78.5297 19.807Z" fill="#002A69"/>
</g>
</g>
</svg>
